<svg id="mayotte" xmlns="http://www.w3.org/2000/svg" viewBox="0 0 305.7 297">
    <defs>
        <style>.cls-1{fill:url(#linearGradient-1);}</style>
        <linearGradient x1="38.6428275%" y1="109.516801%" x2="61.3571725%" y2="-9.51680135%" id="linearGradient-1">
            <stop stop-color="#5B95B6" offset="0%"></stop>
            <stop stop-color="#88DEE5" offset="100%"></stop>
        </linearGradient>
    </defs>
    <path class="cls-1" d="M184.35,135.87c-9.17,5-2.38,8.58-10.28,10.49-1.07,4.08,2.46,5.48-1.68,9,1.48,5.71,4.76,12.88,10.7,15.1-.27,3.41,1.74,4.35,4.83,4,3.09,1.59-1.16,4.16-2.11,5.65,3.4,3-2.66,5.91-4.82,7.35-4,.06-5.71,2.54-5.66,6.3.06,2.87,1.63,8,4,9.85-2.72-.28-6.94-.2-9-2.3-1.26.53-3.65,1.64-2.73,3.35-3.72.73-7.6,5-4.4,8.38.83,2.81-2,5.34-3.57,1.89l-3.36,4.82c4.28,1.32,4.82,8.32,8,11.12a5.29,5.29,0,0,1,6.5,3.14c10.47-1.68,5.44,3.75.41,7.76-5.46-2-7.31.24-8.59,5.25-3.38.68-3.23.56-2.52-2.73-1.4-2.71-1.79-7-4.4-9-11.59,2.62,1.9,5.53-6.08,7.13-4.62,9.23-.25,6.82-8.81,6.3-2.91-6.43-2.25-3.14-7.34-3.56-3.69.89-.54-3.69-3.36-6.3-4-.29-5.71,1.59-7.76,4.61-2.33.47-2.62-3.91-1-5,.45-3.31.12-7,1-10.27-4.47-5.64-5.36,2.58-12.17,0-9.23-2.2,3.86-7.14,6.51-10.06.06-2.18.63-6.06,1.68-8-3.16-8.22-6.77,2.24-9.86-5.87-4.2-14.14-12.8-14,3.36-15.32,13.31-3.63,2.23,15.7,16.56,16.78,6,1.32,5.32,7.35,13.22,4,5.32,2.39,3.87-8.54,3.14-11.75-1.26-3.73-5.69-7.79-5.66-11.74-2.19-1-4.79-4.09-5.66-6.29-3.37.25-4.76-5-5.67-7.35-3.32-4.44-7.08-2.08-10.48-6.5,1.2-3.77-4.89-1.24-3.35-5,3.34-3.67,19.71-4.55,7.54-8.61-4,0-.78-7.9,0-10.07-.55-3.73-5.15-6.71-3.35-10.9,4.48-2,2.61-6-1.68-3.36-1.44-4.77,5.87-11.31,1.26-14.25-2.94,3.45-5.25-.48-8.39-1.47-4.14,2.43-9.92-3.19-11.12-7.13-4.59-1.9-5.79,4.36-9.21-1.9A5,5,0,0,1,89.56,96c4.7-1.27,5.49-5.36,3.57-9.44a34.71,34.71,0,0,1-6.5,1.69c-.09-1.64-.61-4.47,1.88-4.83,5.88-3.58.81-6.76,4.62-10.28,8,2.1,5.22-4.51,10.9-4.41-.76-1.64-1.94-5-2.51-6.7,4-3.18,6.24,6,9.21-5.46,3.21-1.53,2.54-7.23,6.51-6.71,3.11-.09,4.09-5.76,6.92-2.72-3.39,11.29-13.85,8.17-5.45,12.16a8.85,8.85,0,0,1,3.36,5c3.73,0,4.51,4.65,6.7,6.92,1.58,3,8.71,1.84,5.66,5.86-2,3.6,1.72,7,3.57,9.87a5.43,5.43,0,0,0,4.4,4.18c4.2-.85,6.88,2.7,10.07,4.63.38-1.4,1.61-4.6,2.94-5.46.93-2.15-1.67-3.62,0-5.88,4.67,2,9,9.5,14.68,6.71,1.75,2.82,5.51,1.78,8.18,1.26a8.18,8.18,0,0,0,5.24,1.9c.77,3.9,5.31,7.25,9.23,7.12.4,3,4,4.31,5.45,6.72-.35,1.32-.8,3,.84,3.34-2.57,3.22-7.34,9.2-1.26,11.33,2.18,2.89-2,3.12-4,2.31a9.85,9.85,0,0,1-4.6,1.89C187.36,129.5,186.24,133.53,184.35,135.87Z
        M193.58,136.5c-.82,4.15,1.63,10.07,5.45,4.82,2.18-1.44.1-2.42-1.05-3.57C198,134.9,194.85,133.68,193.58,136.5Z
        M193.16,187.46c-.91,1.35-1.88,3.25-.42,4.61C196.8,194.91,197.34,183.22,193.16,187.46Z
        M174.91,208.43c-1.62,1.95,1.63,3.69,3.36,3.14C178.9,209.18,176.85,208.73,174.91,208.43Z
        M222.94,110.28c-1.64,4.06-12.87,10.29-10.28,13.63,2.88-1.63,4.76-6.08,2.94.85-1.1,5.62-5.89-2.43-8.39-3-2.43,2.38-1,4.35,2.09,4.2,1.55,1.29,5,3.9,7.14,4a15.62,15.62,0,0,0,3.36,5c-.14,1.88-1.09,6.08,1.45,6.91,3.07-.36,3.44-4.81,3.78-7.13,6.48-1.94,3.39-6.05,6.92-7.75.53-2.58-.06-3.35-2.72-3.15C230.9,118.39,228.86,112,222.94,110.28Z
        M128.56,58.27c-6.41,2.92,5.89,6.34,3.78,1A9,9,0,0,1,128.56,58.27Z
        M79.5,39.6c-4.65-.2-4.21,6.43.62,4.63,2.51,2.08-2,4.14.42,5.86,2.44-.78,5.27-2.87,5.45-5.65,2.25.57,2.53-.21,2.31-2.32C84.53,40.93,83.07,34.11,79.5,39.6Z" />
</svg>