<?xml version="1.0" encoding="UTF-8"?>
<svg width="300px" height="300px" viewBox="0 0 300 300" version="1.1" xmlns="http://www.w3.org/2000/svg" xmlns:xlink="http://www.w3.org/1999/xlink">
    <title>Artboard</title>
    <defs>
        <linearGradient x1="34.5063788%" y1="81.1429985%" x2="65.4936212%" y2="18.8570015%" id="linearGradient-1">
            <stop stop-color="#5B95B6" offset="0%"></stop>
            <stop stop-color="#88DEE5" offset="100%"></stop>
        </linearGradient>
    </defs>
    <g id="Artboard" stroke="none" stroke-width="1" fill="none" fill-rule="evenodd">
        <g id="cartes" transform="translate(0.000000, 20.000000)">
            <g id="Calque_7" transform="translate(26.000000, 27.000000)"></g>
            <g id="New_Caledonia" transform="translate(6.000000, 27.000000)" fill="url(#linearGradient-1)" fill-rule="nonzero">
                <path d="M26.2,31.1 C24.6,29.1 25,25.7 23.2,30.2 C23.2,30.2 23.2,30.2 23.2,30.3 C23.2,31.4 23.9,33.6 25.4,32.6 C26,34.6 26.4,32.1 26.2,31.1 C26.3,31.2 26.2,31.1 26.2,31.1 Z M38,36.2 C38,36.2 38,36.3 38,36.2 C38.8,36.8 40.4,37.8 41.3,38.2 C44.2,39.6 38.9,33.3 38.1,32.1 C38.1,32.1 38.1,32.1 38,32.1 C37.1,32.2 37.8,35.6 38,36.2 Z M207,190.5 C206.9,190.5 206.9,190.5 207,190.5 C205,190.1 204.6,191.9 203.9,193.3 C202.8,194.7 204.8,195.1 205.8,195.1 C206.1,194.9 206.7,194.6 206.6,194.2 C206.3,194.1 205.1,194.3 205.4,193.6 C206.2,193.6 207,192.3 207.5,193 C207.5,193.1 207.6,193.1 207.7,193.1 C208.7,192.4 207.8,190.9 207,190.5 Z M180.4,79.8 C181.1,80.8 183.3,80 183.6,79 C182.6,78.9 177.7,78.9 180.4,79.8 Z M8.1,14.7 L8.1,14.7 C7.4,12.5 6.8,9.2 5.2,7.4 C3.9,6.3 3.4,7.8 4.8,8.3 C4.8,8.3 4.9,8.3 4.9,8.4 C5.2,11.2 5.5,15.1 7.2,17.7 C7.2,17.8 7.3,17.8 7.4,17.7 C8.6,16.9 9.4,16 8.1,14.7 Z M252.7,204.3 C251.1,202.2 248.6,199.4 245.6,200.5 C245.6,200.5 245.5,200.5 245.5,200.6 C244.6,202.3 245.3,205.7 244.7,207.5 C244.7,207.6 244.7,207.6 244.8,207.6 C249.8,209.5 251,211.1 251.2,204.8 C251.2,204.7 251.3,204.7 251.3,204.7 C252.3,204.8 252.3,206.8 253.3,207.1 C253.4,206.3 253.4,204.9 252.7,204.3 Z M243.8,105.6 C243.5,103.6 243.9,101.6 246.2,101.3 C246.3,101.3 246.3,101.2 246.3,101.1 C245.8,99.7 244.3,98.5 242.8,98.5 C242.1,98.4 241.5,97.6 241.6,96.9 C241.6,96.9 241.6,96.9 241.6,96.8 C242,95.7 242.9,95 241.9,94 C241.5,92.8 240.7,92.6 239.5,92.7 L239.5,92.7 C238.2,92.5 237.1,91.5 236.1,90.7 L236.1,90.7 C235.1,90.5 234.5,89.9 235,88.9 C237.7,85.1 232.4,84.2 236.5,78.7 C236.3,78.1 236,77.2 235.2,77.4 C233.4,76.5 228.4,72.7 227.9,76.8 L227.9,76.9 C226.9,78.2 225.3,77.3 224.2,76.8 L224.2,76.8 C221.7,76.8 219.3,78.5 219.8,81.2 C219.8,81.3 219.9,81.3 219.9,81.3 C224.8,80.1 232.9,82.2 226.6,87.8 C226.6,87.8 226.6,87.8 226.6,87.9 C225.4,91.4 221.7,91.7 218.5,91.2 C218.4,91.2 218.3,91.3 218.4,91.4 C219.3,93.1 222,94 220.9,96.2 L220.9,96.3 C221.1,97.2 222.7,97.1 222.9,98 C223.3,100.2 226.1,102.2 228.2,102.8 L228.2,102.8 C237.5,102.8 232.1,105.5 237,106 C237.6,106.1 237.9,107.8 238,108.3 L238,108.3 C240.3,109.4 244,109.3 243.8,105.6 Z M185.8,77.8 C190.3,78 192.8,73.7 194.4,70.1 C194.4,70 194.3,69.9 194.3,70 C191.3,70.9 190.6,68.4 191.7,66 C192.3,64.7 192.7,62.3 193.9,61.3 L194,61.3 C197.8,61.1 199.1,60.6 195,58.4 C195,58.4 194.9,58.4 194.9,58.3 C194.1,55.8 191.6,54.4 190.3,57.1 C190.3,57.2 190.3,57.3 190.4,57.3 C191.5,57 192.6,59.7 192.8,60.6 L192.8,60.7 C190.7,66.5 189.8,64.9 189.9,71.8 L189.9,71.9 C189,73.5 187.4,75.5 185.9,76.5 C184.8,76.7 185,77.1 185.8,77.8 Z M287.6,127.1 C281.1,130.8 275,128.3 278.1,120.8 C278.1,120.7 278,120.6 277.9,120.7 C272.2,124.3 275.2,124.8 268.6,123.2 C264.9,123.5 269.7,126 269.9,131.7 C269.9,131.7 269.9,131.7 269.9,131.8 C271,133.3 273.2,134.8 271.4,136.7 C271,137.3 269.6,137.6 270.1,138.4 C270.6,139.2 272.5,137.8 273.5,138.3 C278.4,138.8 274.6,141.1 278.6,142.3 C281.4,142.9 284.5,141.1 287,140.1 L287.1,140 C286.4,135.8 289.2,131.4 287.8,127.3 C287.8,127.1 287.7,127 287.6,127.1 Z M217.6,177 C216.6,174.2 213.8,175.2 215.3,173.6 C215.4,173.5 215.5,173.3 215.5,173.1 C216,167.5 208.8,165.2 204.2,164.5 C204,164.5 203.8,164.4 203.7,164.2 C202.2,162.4 203.8,163.1 201.1,162.3 C200.2,161.8 198.7,162.7 197.9,162.1 C197.8,161.3 201.9,160.8 199.2,159.9 C198.4,159.5 197.4,158.1 196.7,158.7 C196.4,159 196,159 195.7,158.8 C193.1,156.6 189.9,154.4 187.9,151.7 C187.7,151.3 185.8,150.5 186.9,150 C186.6,149.9 186,149.7 185.6,149.4 C185.5,149.3 185.4,149.2 185.3,149.1 C184.7,147.5 183.8,146.2 182.2,145.3 C182.1,145.2 182,145.1 181.9,144.9 C181.2,142.4 177.1,143.8 176.5,141.8 C176.5,141.5 176.1,141.2 175.9,141.1 C175.5,140 178,141.3 177.7,140.2 C174.3,139.1 169.1,137.9 167.1,134.6 C164.9,134.3 163,130.3 160.6,130.6 C160.5,130.6 160.3,130.7 160.2,130.8 C158.5,132 158.8,130.5 158.6,129.2 C158.5,128.9 158.3,128.7 158,128.6 C157.1,128.4 157.2,127.7 158.4,127.5 C158.2,126.4 156.5,126.8 155.6,126.5 C155.5,126.5 155.4,126.4 155.3,126.3 C152.4,122.4 150.1,123.6 153.1,128 C154.2,129.1 153.3,130.1 151.9,129.9 C153.2,129.1 149.9,128.1 149.7,127.7 C148.3,125.9 150.9,128.2 150.9,126.7 C150.2,125.6 149.5,123.2 148.4,121.6 C148,121.1 147.1,121.2 147.1,121.8 C147.1,122.1 146.9,122.4 146.7,122.7 C146.1,121.1 144.9,121.2 144.5,122 C144.3,122.4 143.6,122.3 143.4,121.8 C143.3,121.4 143.2,121 143.1,120.7 C143,120.5 142.9,120.2 142.6,120.2 C141,120.2 140.5,115.1 137.1,116.5 C136.8,116.6 136.5,116.5 136.3,116.3 C134.4,114.3 129.7,115.4 129.3,112 C129,110.7 127.5,110.6 126.7,109.7 C125.1,107.8 126.4,108.8 127.9,109.4 C128.6,109.7 129.2,108.9 128.7,108.3 C128.4,107.9 128.1,107.4 127.7,107.1 C127.4,107.1 125.7,104.9 125.5,105.7 C124.6,106.1 125,105.9 125.1,105.2 C125.1,104.1 122.5,105 120.9,102.8 C120.8,102.7 120.7,102.6 120.6,102.6 C115,100 115.7,97.7 116.7,92.7 C116.8,92.4 116.6,92.1 116.4,91.9 C115.3,91.3 113.1,91.3 111.8,91 C111.6,90.9 111.4,90.8 111.4,90.5 C111.1,89.6 110.2,88.9 109.4,88.5 C105.5,85.7 109.5,83.4 104.5,79.7 C103.9,79.3 103.4,79.4 102.9,79.6 C102.7,79.7 102.3,79.7 102.1,79.5 C100.8,78.5 96,77.8 94.7,77.5 C94.6,77.5 94.5,77.4 94.4,77.4 C92.4,75.8 89.9,73.8 87.3,74.1 C86.7,73.8 86.1,73.4 86.3,72.8 C86.4,72.5 86.3,72.3 86.1,72.1 C85.3,71.4 84.1,70.4 83.2,70.3 C83.1,70.3 83,70.2 82.9,70.1 C79.8,67.4 76.7,63.7 74.1,60.7 C73.4,59.7 71.7,59.4 70.7,58.9 C70.6,58.9 70.6,58.8 70.5,58.7 C68.8,56.7 65.8,56.3 64.1,54.3 C64,54.2 64,54.2 64,54.1 C61.6,48.7 52.5,45.4 47.3,43.7 C47.2,43.7 47,43.6 46.9,43.7 C45.4,44.3 47.6,48.5 48.3,49.5 C46.8,49.9 46.5,48.2 45.9,47.3 C45.7,47 45.3,46.9 44.9,47 C39.6,50 27.6,27.6 26.4,35 C26.4,35.2 26.4,35.4 26.6,35.6 C27,36.1 27.6,36.3 27.5,36.8 C27.4,37.4 27.8,37.9 28.4,37.7 C29.1,37.5 29.9,37.3 30.3,38.2 C30.9,39 30.8,40.1 30.1,40.6 C29.8,40.8 29.7,41.3 30,41.6 C30.4,42.2 30.8,42.8 30.9,43.3 C30.7,44.4 29.5,43.9 28.7,43.6 C28.5,43.5 28.3,43.6 28.1,43.7 C25.6,45.3 28.3,46.1 28.9,48 C31.8,49 30.6,45.8 32.1,45.6 C32.6,46 32.5,46.6 32.4,47.1 C32.3,47.5 32.5,48 33,48 C35.1,48.3 37.4,48.3 38.2,50.8 C39.3,58.1 32.6,51.3 35.8,56.2 C38.3,56.6 37.8,60.1 38.6,61.9 C38.9,63.2 42.4,65.2 43.6,66 C43.7,66 43.7,66.1 43.8,66.1 C44.2,66.6 44.2,67.5 45,67.1 C45.9,65.8 46.9,70.1 47.4,71.2 C47.5,71.4 47.6,71.4 47.8,71.5 C48.8,71.9 49.7,74.2 50.1,75.2 C50.1,75.3 50.2,75.4 50.3,75.4 C51.5,76.4 54.7,76.6 53.1,78.8 C52.1,79.6 49.9,78.2 51.3,80.1 C53.8,81.7 56.1,85.4 59.1,86.1 C59.3,86.2 59.5,86.3 59.6,86.5 C60.1,87.6 61,88.5 62.3,88.4 C62.4,88.4 62.6,88.4 62.7,88.5 C64.4,89.3 64.9,91.4 67.1,89.9 C66.7,91.5 68.3,91.1 69.3,91.8 C69.6,92.2 69.7,92.7 69.5,93 C69.2,93.7 69.3,94.5 70,94.8 C70.8,95.2 71.3,95.7 69.8,96.4 C69.3,96.5 72.9,102.5 72.8,101.5 C73.4,101 73.9,100.6 73.3,99.9 C74.8,98.5 75,100.2 75.8,101 C76.4,101 76.6,100.7 76.6,100.1 C77.3,99.6 78.4,99.6 77.5,100.6 C79.6,101.3 78.5,101.2 78.3,102.9 C81.3,101.4 79.5,106.2 80.5,107.8 C80.5,107.9 80.6,107.9 80.6,107.9 C81.7,108.9 85.1,113.8 86.4,115 C86.5,115.1 86.7,115.2 86.8,115.2 C88.5,115.3 87.5,116.6 87.4,117.7 C86.7,118.7 88.4,120.2 89.3,119.2 C89.9,118.5 89.6,117.6 89.7,116.8 C89.8,116.3 90.4,116.1 90.8,116.4 C91.4,116.8 91.9,117.3 91.9,117.9 C91.9,118.2 92.1,118.5 92.4,118.5 C92.9,118.5 93.3,118.6 93.7,118.9 C93.8,119 93.9,119.1 93.9,119.2 C94.1,120 93.4,121 92.7,121.5 C93.2,121.8 94,122 94.5,121.4 C95.1,120.6 95.1,121.5 95.3,121.9 C96,122.6 96.9,121.6 96.6,121 C97.2,120.5 98.6,120.4 98.6,121.4 C98,122.9 101,126.6 101.9,127.7 C102.1,128.6 103.1,128.1 103.7,128.4 C104.6,129.5 106.3,129.8 107.3,130.5 C107.5,130.6 107.6,130.9 107.6,131.1 C107.7,134.7 113.8,136.2 116.3,137.5 C117.8,138.1 119.1,136.7 120.6,136.4 C121.9,137 119.6,137.2 120.6,137.8 C123.6,138.2 119.2,138.9 123.2,141.4 C123.7,141.5 129.4,144.7 131.6,145.5 C132,145.6 132.4,145.5 132.5,145.1 C132.6,144.7 133.2,144.7 133.8,144.7 C134.3,144.9 134.4,145.5 134.3,146.1 C134.3,146.7 135,147.1 135.5,146.7 C136.8,145.6 137.8,143.1 137.8,145.3 C137.8,145.5 137.9,145.7 138,145.8 C138.9,147 140.1,148.1 139.6,149.8 C139.6,150.5 140,150.5 140.6,150.7 C140.4,150.2 140.4,149.7 140.8,149.2 C143.3,148.6 140.2,150.7 143.5,152.7 C144.6,154.5 141.9,151.5 142.7,153.8 C144.2,155.1 146.3,152.9 147.5,154.7 C148.8,155 149.9,156.3 150.5,157.6 C150.6,157.8 150.8,157.9 151,158 C152.3,158.4 153.6,159.4 154.2,160.6 C155.2,161.6 155.9,160.3 155.3,159.4 C158.2,160.2 157,158.5 157.8,156.8 C159.2,155.6 158.6,157.4 159.4,158.2 C159.7,158.4 159.7,158.8 159.5,159.1 C159.1,159.7 159.5,160.3 160.5,159.5 C166.9,160.5 161.2,164.3 165,164.9 C167,167.3 161,164.2 162.8,166.3 C165.3,166.5 164.6,170.5 162.6,167.9 C161.8,167.7 162.5,169 162,169.4 C161.3,169.9 162.7,170.4 163,170.7 C163,170.7 163.4,170.2 163.7,169.8 C163.9,169.5 164.3,169.4 164.6,169.6 C165.5,170 166.2,171 167.2,171 C170.3,173.7 166.6,173.3 171.8,175 C172.3,174.7 173.4,174.7 172.9,173.8 C174.2,174.8 175.8,172.7 175.5,174.1 C174.3,175.5 175.2,176 176.4,176.8 C176.7,177 176.8,177.4 176.6,177.8 C176.3,178.2 176.2,178.8 176.6,179.2 C177.8,178.6 177.5,177.8 178.7,177.2 C178.9,177.1 179.1,176.9 179.1,176.6 C179.2,175.3 180.3,175 181.6,175.4 C182.6,175 182,176.5 182,177.4 C182,177.8 182.3,178.1 182.7,178.1 C183.9,178.1 183.1,179 182.1,179.2 C181.4,179.4 179.1,178.4 180.6,179.9 C185,181.8 182.2,179.5 182.5,184.7 C184.1,185.3 183.8,184.7 183.7,184 C183.6,183.6 183.9,183.2 184.3,183.2 C186.1,183 185.6,181.7 186.7,180 C186.8,179.8 187.1,179.7 187.3,179.7 C192.9,179.8 188.7,181.5 190.7,182.6 C191.9,183.3 193.3,183.5 194.5,182.8 C194.8,182.7 195.1,182.7 195.4,183 C196.5,184.2 198,185.7 199.6,184.8 C200.1,185 199.9,185.6 199.8,186.1 C199.7,186.4 199.8,186.8 200.2,187 C200.6,187.2 200.9,187.2 201.3,187.2 C201.9,187.2 202.2,187.8 201.9,188.3 C201.2,189.3 203,190.7 204.5,190.4 C204.6,190.4 204.7,190.3 204.7,190.3 C205.5,189.8 205.8,189 206.8,189.6 C208.3,189.9 208.5,189.5 207.3,188.8 C207.1,188.7 206.9,188.5 206.9,188.2 C206.8,187.3 207.1,185.9 207.2,185.1 C207.4,184 208.3,183.7 208.8,184.8 C207.5,185.2 208.3,185.7 208.6,186.7 C209.6,189.4 210.1,184.1 210.6,186.5 C211.2,187.1 211.4,188.1 211.9,188.8 C212.1,189 212.3,189.1 212.6,189.1 C213.4,188.9 213.6,189.1 213.5,189.3 C213.2,189.8 213.7,190.5 214.3,190.2 C215.4,189.6 216.3,188.5 216.2,187.4 C218.6,185.6 217.4,188.2 218.8,186.2 C219.5,184.8 220.3,183.1 219.7,181.7 C219.6,181.4 219.6,180.9 219.9,180.8 C221.6,179.7 219.4,178.6 218.1,177.5 C217.7,177.1 217.6,177.1 217.6,177 Z M0.3,0.9 C-0.2,0.8 0.3,5.6 1.7,5.7 C3.1,5.8 2,1.3 0.3,0.9 Z M15.6,33.4 C15.2,33.5 13.2,33.6 15,35.3 C16.8,37 17.7,39 17.6,37.6 C17.4,36.2 17.8,32.9 15.6,33.4 Z M139.2,149.8 C139.2,150.5 140.1,151.2 140.2,150.7 C140.2,150.7 140.3,149.5 140.4,149.2" id="Shape"></path>
            </g>
            <g id="Guyanne" transform="translate(42.000000, 0.000000)"></g>
        </g>
    </g>
</svg>