<?xml version="1.0" encoding="UTF-8"?>
<svg width="300px" height="300px" viewBox="0 0 300 300" version="1.1" xmlns="http://www.w3.org/2000/svg" xmlns:xlink="http://www.w3.org/1999/xlink">
    <title>Artboard</title>
    <defs>
        <linearGradient x1="34.5063788%" y1="96.4974487%" x2="65.4936212%" y2="3.50255125%" id="linearGradient-1">
            <stop stop-color="#5B95B6" offset="0%"></stop>
            <stop stop-color="#88DEE5" offset="100%"></stop>
        </linearGradient>
    </defs>
    <g id="Artboard" stroke="none" stroke-width="1" fill="none" fill-rule="evenodd">
        <g id="cartes" transform="translate(0.000000, 20.000000)">
            <g id="Réunion" transform="translate(26.000000, 27.000000)" fill="url(#linearGradient-1)" fill-rule="nonzero">
                <g id="Calque_7">
                    <path d="M14.4,95.3 C14.4,95.3 10.6,91.9 9.2,90.5 C7.8,89.2 3,84.5 2.5,82.3 C2.1,80.1 3.4,75 3.2,73.6 C3,72.3 0.5,69.5 0.6,68.2 C0.7,66.9 2.8,64.9 3.3,64.3 C3.7,63.7 7,60.4 7.5,59.2 C8,58 9.5,58.8 10.7,59.2 C11.9,59.6 14.7,58.9 16.9,57.5 C19.1,56.2 22.3,53.7 23.2,51.6 C24.1,49.5 25.3,43 25.1,41 C24.9,39 22.9,36.4 22.8,34.7 C22.7,33 24.1,31.6 24.4,30.3 C24.6,29 24.9,27.7 25.2,26.7 C25.5,25.7 25.2,24 25.2,22.9 C25.2,21.8 26.5,21 27.3,20.9 C28.1,20.8 29.1,23.3 31.5,23.3 C33.9,23.3 38.8,22.1 38.8,22.6 C38.8,23.1 36.7,23.5 37.4,23.9 C38.1,24.4 38,23.8 38.9,24.8 C39.8,25.8 41.3,25.4 41.2,24.5 C41.1,23.6 39.5,22.4 40.5,22.6 C41.5,22.8 44.8,21.5 44.8,21.5 C44.8,21.5 48.4,20.4 49.2,19.2 C50.1,18 49.2,16.8 51.2,15.6 C53.2,14.4 57.9,11.4 60.2,9.5 C62.5,7.6 66.6,3.9 67.6,3.5 C68.6,3.1 71.7,2.8 72.9,2.5 C74.1,2.2 75.5,0.1 77.8,0.9 C80.1,1.7 81.7,1.9 83.2,1.7 C84.7,1.5 85.2,-0.2 86.8,0.1 C88.4,0.4 89.7,2.5 92.4,3.9 C95.1,5.3 99.1,5.7 101.8,5.5 C104.6,5.3 104.8,3.5 107,3.9 C109.2,4.3 111,5.9 115.4,6.1 C119.8,6.3 119.8,7.4 120.7,8 C121.6,8.6 123.7,9.4 125,9 C126.3,8.6 125,7.2 127.3,7.8 C129.6,8.4 132.6,7.8 134.1,8.5 C135.5,9.2 136.7,10.2 138,9.8 C139.3,9.5 139.3,9 141,9.6 C142.5,10.1 144.7,11.7 145.2,12.1 C145.3,12.2 145.4,12.2 145.5,12.3 C146.1,12.6 148.5,14 150,14.4 C151.8,15 156.1,14.6 157.9,15.5 C159.7,16.4 164.9,17.8 166.2,19.4 C167.5,21 168.9,22.5 170.3,24.3 C171.7,26.1 174,27.4 175,28.5 C176,29.6 176.3,32.7 177.9,34.3 C179.5,35.9 181,38.6 181.1,42.9 C181.2,47.2 180.8,53.2 181.8,55.6 C182.8,57.9 182.7,60.5 183.7,61.3 C184.7,62.1 186.3,61 187.6,62.4 C188.9,63.8 190.4,68 191.5,68.7 C192.6,69.5 193.3,68.7 193.2,70.1 C193.1,71.5 192.5,73.5 193.9,75.5 C195.2,77.5 202.7,85.4 203.5,86.8 C204.3,88.2 203.7,89 205.2,90.2 C206.6,91.4 209.4,93.9 210.6,96.8 C211.8,99.7 212.3,100.2 213.4,100.2 C214.5,100.2 216.5,99 218.2,100.2 C219.9,101.4 221.1,103.8 222.9,104.5 C224.7,105.3 227.2,104.7 228.6,106.5 C229.9,108.3 228.9,109.1 229.8,110.5 C230.7,111.9 232.9,112.7 232.5,114.2 C232.4,114.7 232.2,115 232.1,115.3 C231.8,115.9 231.6,116.6 231.8,117.2 C232,118.2 232.3,119.7 232.6,121 C233.2,123.2 233.8,122.9 232.6,123.3 C231.4,123.7 231.3,124.6 230.5,124.4 C229.7,124.2 229.7,123.3 229.7,123.3 C229.7,123.3 227.8,123.6 228.4,126.4 C229,129.2 230,130 228.3,131.5 C226.6,133.1 226.3,132.4 225.3,133.9 C224.3,135.5 223.1,138.3 222.6,140.3 C222.1,142.3 222.9,143.5 222.3,145.5 C221.6,147.5 221.7,147.9 221.2,149.8 C220.6,151.7 219.1,152.8 220.3,155.5 C221.5,158.2 219.7,159.3 220.6,160.8 C221.5,162.4 223.7,162.4 222.9,164.4 C222.1,166.4 221.6,165.8 221.5,168.8 C221.4,171.8 221.2,175.6 221.5,177.1 C221.8,178.6 223.4,181.2 223.1,182.3 C222.8,183.4 220.3,188.7 218.9,189.2 C217.5,189.7 214.1,192.4 213.2,193.1 C212.3,193.8 211.4,195.4 209.3,195.3 C207.2,195.2 204.4,193.5 203.2,194.3 C202,195.1 201.9,196.4 199.9,196.5 C197.9,196.6 195.7,195.6 193.9,196.5 C192.4,197.3 187.7,199 186.3,199.5 C186,199.6 185.8,199.6 185.5,199.7 C182.6,199.9 178.4,199.4 175.5,199.2 C173,199 173.8,201.7 172.3,202.4 C170.7,203.1 168,201.3 166.6,202.4 C165.2,203.5 164,206.8 162.6,205.4 C161.2,204 159,201.5 155.6,202.2 C152.2,202.9 151.7,204.2 149.4,203.9 C147.1,203.6 145.4,201.9 143.7,201 C142,200.1 141.6,197.7 139.9,198.2 C138.2,198.8 136.7,200.9 134.5,200.2 C132.3,199.5 133.3,198.8 131.2,198.8 C130.7,198.8 130.1,198.9 129.7,198.9 C128.3,199.1 126.8,198.6 125.7,197.6 C125.5,197.4 125.3,197.2 125,197.1 C123.3,196.1 122.5,195.7 120,194.8 C117.5,193.9 110.7,191.8 109.3,190.7 C107.9,189.6 104.5,189.7 103.2,190.1 C101.9,190.5 101.3,190.7 100.9,189.7 C100.7,189.2 100.1,188.6 99.7,188.3 C99.3,187.9 98.8,187.7 98.3,187.6 C97.2,187.4 95.2,187 93.6,186.5 C91.3,185.7 91,185.2 91.2,183.9 C91.3,182.7 91.4,182.2 90.1,181.6 C88.8,181 86.2,181.9 83.2,180.9 C80.2,179.9 76.3,178 75.2,176.5 C74.1,174.9 72.8,172.4 71.4,171.2 C70.1,170 67.3,166.1 59.3,164.8 C51.3,163.5 48.9,164.4 47.7,163.2 C46.6,162.1 44.6,161.1 45.1,159.9 C45.7,158.7 46.2,158.5 45.4,157.2 C44.6,156 45.8,154.9 43.4,153.3 C41,151.7 38.5,149.5 37.6,148.2 C36.7,146.9 33,145.3 31.8,144.4 C30.6,143.5 30.7,142.8 30.1,141.2 C29.5,139.6 27.8,137.2 27.4,135.4 C27.1,133.6 25.1,133.6 25.9,132.2 C26.7,130.8 27.9,126.9 27.9,123.4 C27.9,120 28,116.4 27.1,114.7 C26.2,113 23.2,111.8 22.3,111.3 C21.4,110.8 20.9,108.4 21.2,108.2 C21.5,108 21,104.3 19.6,102 C18.3,99.7 14.5,97.9 14.5,97.1 C14.5,96.3 15.1,95.9 14.4,95.3 Z" id="Path"></path>
                </g>
            </g>
            <g id="Guyanne" transform="translate(42.000000, 0.000000)"></g>
        </g>
    </g>
</svg>