<?xml version="1.0" encoding="UTF-8"?>
<svg width="300px" height="300px" viewBox="0 0 300 300" version="1.1" xmlns="http://www.w3.org/2000/svg" xmlns:xlink="http://www.w3.org/1999/xlink">
    <title>Artboard</title>
    <defs>
        <linearGradient x1="45.0869625%" y1="109.516801%" x2="54.9130375%" y2="-9.51680135%" id="linearGradient-1">
            <stop stop-color="#5B95B6" offset="0%"></stop>
            <stop stop-color="#88DEE5" offset="100%"></stop>
        </linearGradient>
    </defs>
    <g id="Artboard" stroke="none" stroke-width="1" fill="none" fill-rule="evenodd">
        <g id="cartes" transform="translate(0.000000, 20.000000)" fill="url(#linearGradient-1)" fill-rule="nonzero">
            <path d="M202.288843,215.184213 L202.5,215.2 C202.6,215.3 202.8,215.3 202.9,215.4 C206.1,217.5 207.1,222.6 207.5,226.2 C207.6,226.5 207.5,226.8 207.3,227 C206.8,227.7 206,228.4 205.2,228.7 C205,228.8 204.8,228.9 204.7,229 C202.2,231.5 200.6,235.6 199.5,239.1 C199.3,239.9 199.8,240.6 200.6,240.6 L200.6,240.6 L202.3,240.6 C202.5,240.6 202.8,240.5 203,240.3 C203.7,239.7 204.8,240.2 205.4,240.9 C205.6,241.1 205.7,241.4 205.7,241.7 C205.6,242.8 205.8,244.2 206.9,244.8 C207,244.9 207.2,244.9 207.4,244.9 C208.8,244.9 209.1,247.6 208.9,248.7 C208.6,249.6 207.8,250 206.9,249.8 C206.2,250.6 204.3,251.2 203.2,251.4 C203,251.4 202.8,251.5 202.7,251.6 C201.9,252.2 200.4,253.2 199.9,251.9 C200,251.4 200.8,249.6 200,249.3 C198.469565,248.917391 198.151418,250.09017 197.940676,251.319635 L197.885033,251.655223 C197.684688,252.882609 197.491304,254.030435 196.2,253.6 C194.632258,252.162903 193.36795,252.413658 192.291453,252.642695 L192.055276,252.692539 C190.772789,252.957076 189.758065,253 188.8,249.7 C188.5,248.7 187.2,248.6 186.7,249.5 C186.5,249.8 186.4,250.1 186.3,250.3 C186.2,250.6 185.9,250.8 185.5,250.9 C184.6,251.1 182.9,251.5 182.2,251.3 C181.8,251.1 181.3,251.2 181,251.6 C179.7,253.1 178.7,256 176.9,256.2 C176.6,256.2 176.3,256.1 176.1,255.9 C173.6,253.6 174.6,252.2 173.4,250.3 C173.2,250 172.8,249.8 172.4,249.8 L172.4,249.8 L170.5,249.8 C170.3,249.4 170,249.2 169.6,249.2 C169.2,249.1 168.8,248.9 168.6,248.5 C168.1,247.3 168.3,246.4 169.9,246 C170.1,245.9 170.2,245.9 170.3,245.8 C173.5,243.6 176.9,238.5 178.4,235.1 C179.1,233.5 181,229.1 182.8,227.9 C183,227.8 183.2,227.6 183.3,227.4 C184.2,225.7 186.2,223.8 188,222.9 C188.3,222.7 188.5,222.4 188.6,222.1 C189,219.5 191.9,218.4 194.4,218.1 C194.6,218 194.9,218 195,217.8 C195.4,217.4 196.1,217.3 196.6,217.3 C196.7,217.2 196.8,217.2 196.9,217.2 C198.4,216.7 201,215 202.5,215.2 Z M209.7,230.9 C212.4,230.6 211.2,233 210.3,234.4 C210.2,234.6 210.1,234.8 210.1,235 C210.1,235.4 210.1,235.9 209.9,236.4 C209.7,237 209,237.3 208.4,237.1 C205.7,236.1 207.9,232.2 209.7,230.9 Z M119,0.8 C121.8,0.2 121.7,5.4 121.3,7.9 C121.2,8.3 120.9,8.7 120.6,8.8 C120.3,9 119.9,9.3 119.7,9.6 C119.6,9.8 119.3,10 119.1,10 C117.6,10.3 115.5,11.8 114.3,12.7 C114.1,12.9 114,13.1 113.9,13.3 C113.5,14.7 112.5,16.7 111.1,17.1 C110.7,16.9 110.2,17.4 109.9,17.7 C109.7,17.9 109.4,18 109.1,18 C107.9,18.1 106,18.3 105.2,19.1 C105.175,19.125 105.15625,19.15 105.140625,19.175 L105.059375,19.325 L105.059375,19.325 L105,19.4 C102.9,24 107.1,30.3 111.2,32.2 C111.9,32.4 112.7,32.4 113.1,31.7 C113.2,31.5 113.5,31.3 113.8,31.2 C114.3,31.1 115,30.9 115.4,30.8 C115.6,30.8 115.9,30.6 116,30.4 C117,28.9 118.3,30.5 119.8,30.2 C121.4,30.4 122,32.1 123.1,33.1 C123.3,33.3 123.5,33.4 123.8,33.4 C124.5,33.4 125.4,34 125.8,34.5 C126.34,34.32 126.808,34.788 127.2688,35.2776 L127.4989,35.5213 C127.729,35.761 127.96,35.98 128.2,36.1 C128.4,36.2 128.6,36.4 128.7,36.6 C132.1,43.7 143.3,46.6 150.2,49.6 C150.3,49.7 150.4,49.7 150.6,49.7 C154,49.6 157.9,52.3 160.6,54.4 L160.6,54.4 L160.9,54.7 C162.1,56.7 161.2,61.5 161.4,63.6 C161.5,64.9 162,67.3 162.5,68.7 C162.5,68.9 162.5,69.2 162.4,69.5 C161.7,71.1 160.3,75.1 159.3,76.2 C159.253846,76.2461538 158.973373,77.8047337 158.684706,79.4894857 L158.540737,80.3359581 C158.255621,82.0242604 158,83.6076923 158,83.7 C157.5,88.3 154.7,87.1 154.6,91.8 C154.6,92.4 155.2,92.8 155.8,92.9 C158.1,93.3 156.8,85.3 157.4,86.4 C157.417308,86.4346154 157.425629,86.795747 157.427555,87.3703701 L157.427921,87.7838402 C157.424334,90.808395 157.3,97.7423077 157.3,97.9 C157.1,100.4 155.9,103.1 152.8,101.7 C152.5,101.6 152.3,101.5 152,101.6 C151.4,101.7 150.1,102 149.5,102.1 C149.3,102.1 149.1,102.2 148.9,102.4 C148.5,102.9 147.9,103.3 147.3,103.2 C147.2,103.8 146.7,104.1 146.1,104.2 C145.8,104.3 145.6,104.4 145.4,104.7 C145.1,105.2 144.4,105.6 143.9,105.9 C144,106.7 143,107.2 142.4,107.7 C142.2,107.8 142,107.9 141.7,107.9 C141.1,107.9 140.4,107.9 140.2,108.5 C139.3,107.5 138.4,106.2 140.3,105.8 C141.5,102.9 143.1,104 144,102.3 C143.9,101.8 143.4,101.4 142.8,101.5 C142.5,100.7 141.2,100 140.5,99.8 C140.1,98.6 139.2,99 138.6,98.5 C138.4,98.4 138.1,98.3 137.8,98.3 C136,98.4 133.6,97.7 131.9,97.7 C131.7,97.7 131.5,97.8 131.3,98 C130.8,98.5 128.7,98.1 128.2,98.2 C128.1,97.6 127.3,97.6 126.7,97.6 C126.5,97.6 126.3,97.5 126.1,97.4 C125.8,97.2 125.4,96.9 125.1,96.7 C125,96.6 124.8,96.5 124.6,96.5 C124.1,96.5 123.1,96.4 122.5,96.4 C122.2,96.5 122,96.4 121.8,96.2 C121.3,95.8 120.2,96.1 119.7,96.1 C125.7,103.6 121.1,113.1 133.4,110.1 C133.7,110 133.9,109.9 134.1,109.6 C134.376923,109.129231 134.79955,108.321041 135.276566,107.489728 L135.43746,107.212198 C136.657396,105.130769 138.153846,103.123077 138.5,106.1 C137.9,107.1 138.2,108.9 138.7,110 C138.7,110.1 138.8,110.3 138.8,110.4 C138.955172,112.158621 138.120452,114.024257 137.222998,115.872365 L136.862869,116.610378 C136.144709,118.083353 135.465517,119.534483 135.3,120.9 C134.8,130.8 130,150.5 136,158.5 C136.025,158.525 136.05625,158.55 136.090625,158.575 L136.309375,158.725 L136.309375,158.725 L136.4,158.8 C137.3,159.3 138.9,160 139.9,159.7 C140,160.2 140.8,160.2 141.5,160.2 C141.8,160.2 142.2,160.4 142.4,160.7 C143.2,162 144.7,163.4 146.1,163.5 C147.1,164.2 149.7,165.2 150.8,164.3 C151,164.1 151.3,164.1 151.6,164.1 C153.4,164.3 156.4,164.8 158.3,164.8 C158.6,164.8 159,165.1 159.2,165.4 C159.8,166.4 160.9,168.3 161.6,168.4 C162.9,168.4 164.3,169.3 165.7,169.5 C166.1,169.6 166.5,169.9 166.6,170.3 C166.9,171.3 166.4,173.1 166.4,173.9 L166.4,173.9 L166.4,174.1 C166.6,175.1 167,177.2 168.1,177.6 C168.5,177.7 168.9,177.9 169,178.3 C170.1,181.3 168.2,185.6 169.4,188.5 C169.5,188.6 169.5,188.8 169.6,189 C169.6,191.2 169.4,196 167.5,197.4 C166.2,200.3 163.4,203.7 160,204 C159.8,204 159.6,204.1 159.4,204.2 C157.8,205.3 155.3,207.6 154.2,209.2 L154.2,209.2 L153.9,209.5 C152.1,210.7 149.1,211.3 147.3,212.5 L147.3,212.5 L147.2,212.6 C145,214.5 142.5,216.4 140.8,218.7 C140.7,218.8 140.6,218.9 140.4,219 C137,220.5 133.6,225.2 131,227.8 C130.8,228 130.4,228.2 130.1,228.1 C127.5,227.7 126,230.1 124.6,232 C120.173626,237.595604 119.792754,234.402705 119.088426,230.518437 L119.03207,230.210496 L119.03207,230.210496 L118.973892,229.900567 C118.904769,229.538168 118.830951,229.17352 118.749025,228.812948 L118.676737,228.505033 C118.651926,228.402826 118.626374,228.301099 118.6,228.2 C118.5,227.8 118.2,227.5 117.8,227.4 C116.8,227.1 115.2,227.1 114.2,227.1 C113.8,227.1 113.5,227.3 113.3,227.6 C113.275,227.65 113.24375,227.7 113.209375,227.75 L112.990625,228.05 L112.990625,228.05 L112.9,228.2 C112.4,228.9 111.3,228.7 111,227.9 C109.8,224.9 108.7,221.3 113.2,220.8 L112.988474,220.8262 L112.870435,220.834512 C110.548984,220.888386 111.541741,216.441527 111.316847,214.992105 L111.3,214.9 C110.6,214 111.5,211 111.2,209.5 C111.1,209.3 110.9,209 110.7,208.9 C106.9,206.4 104.5,206.2 100.5,207.7 C100.3,207.8 100,208 99.9,208.3 C99.4,209.4 98.8,211.7 97.6,210.8 C97,210.1 97,208.9 97.4,208.2 C97.6,206.4 97.1,203 97,201.1 C97,200.8 97,200.6 97.2,200.4 C99.3,197.6 103.2,191.5 105.8,188.8 C106,188.5 106.4,188.4 106.7,188.4 C107.7,188.4 108.9,187.2 109.6,186.5 C109.8,186.3 110.1,186.2 110.3,186.2 C112.5,185.8 115.6,183.7 117.9,183.5 C118.2,183.5 118.4,183.4 118.6,183.2 C119.2,182.6 120.4,181.5 121,180.7 C121.2,180.4 121.2,180.1 121.2,179.8 C121.1,178 122.2,175.4 124,174.8 C124.5,174.7 124.8,174.2 124.7,173.6 C123.4,168 128.1,161.5 130.1,156.7 C130.2,156.7 130.2,156.6 130.2,156.5 C132.3,145.7 131.9,131.4 126.9,121.5 C124.6,116.9 122.4,110.1 121.3,105.2 C120.8,101.9 118.7,97.6 117.9,94.2 C117.8,93.7 117.4,93.4 116.9,93.3 C115.8,93.2 114.3,93.2 114.2,92.1 C114.2,91.7 114.1,91.4 113.8,91.2 C112.5,90.1 110.8,88.7 109.2,88.5 C108.9,88.5 108.6,88.3 108.4,88 C108.1,87.3 107.6,86.5 107,86.4 C106.7,86.3 106.5,86.2 106.3,86 C106.02,85.6 105.58,84.96 105.1208,84.2912 L104.775,83.7875 C104.2,82.95 103.65,82.15 103.4,81.8 C103.3,81.6 103.2,81.5 103.2,81.3 C102.5,77.4 101.8,70.9 102.1,66.9 C102.1,66.7 102.1,66.6 102,66.4 C100.7,63.2 100.3,58.8 101.3,55.6 C101.325,55.575 101.34375,55.55 101.359375,55.525 L101.440625,55.375 L101.440625,55.375 L101.5,55.3 C104.2,51.6 102.8,45.8 101.7,41.6 C101,38.6 101.1,31.8 99.6,29.1 C99.6,29 99.5,28.9 99.4,28.8 C99,28.5 98.4,28.4 97.8,28.4 C97.5,28.4 97.1,28.1 96.9,27.8 C95.5,25.3 94.4,20.6 97.4,19.3 C97.7,19.2 97.9,19 98,18.7 C98.7,16.4 98.7,12.8 100.3,10.9 C100.4,10.7 100.7,10.6 100.9,10.5 C101.711765,10.2882353 102.411419,9.7650519 103.086892,9.22941176 L103.423021,8.96193772 C104.539446,8.07612457 105.629412,7.29411765 107.1,8 C107.4,8.2 107.8,8.1 108.1,8 C108.5,7.8 109.1,7.9 109.4,7.8 C109.9,7.2 110.7,6.4 111.6,6.1 C111.9,6 112.2,5.7 112.3,5.4 C112.7,4.3 114.4,4.4 115.1,3.4 C117.7,3.3 116.2,1.5 119,0.8 Z M218.1,230.8 C218.7,229.6 220.7,230.5 220.1,231.7 C220,231.9 220,232 219.9,232.1 C219.1,233.3 217.3,232.1 218,230.9 C218.1,230.9 218.1,230.8 218.1,230.8 Z M211.5,229.3 C212.7,229.2 214.9,229.1 213.7,230.9 C212.6,231 210.4,231.1 211.5,229.3 Z M201.1,208.3 C201.5,208.3 203,208.1 203.4,208.5 C203.6,208.7 204,208.8 204.3,208.8 C205,208.8 205.8,208.9 205.9,209.3 C206.2,210.4 205.7,211.4 204.7,212 C204.6,212.1 204.4,212.1 204.2,212.1 C203.1,212.1 198.9,212.4 198.9,211.6 C197.7,211.8 198.5,210.3 198.9,209.5 C199.1,209.1 199.4,208.9 199.8,208.9 C200.4,208.9 201,208.8 201.1,208.3 Z M131.7,189 C132.5,187.5 132.7,185.2 131,186.3 L131,186.3 L130.967625,186.307233 C130.684661,186.372771 128.662069,186.889655 129.5,188.1 C130.4,189.4 131,190.5 131.7,189 Z M234.5,181.2 C234.9,180.9 235.3,180.9 235.7,181.1 C237.2,182 237.5,184.5 235.1,184 C235,183.6 234.5,183.5 234.1,183.5 C233.3,183.4 232.8,182.6 233.1,181.9 C233.2,181.8 233.3,181.6 233.3,181.5 C233.7,181.5 234.2,181.4 234.5,181.2 Z M237.8,172.8 C238.3,172.7 238.9,173 239.1,173.5 C239.6,174.6 239.4,175.6 237.7,175.5 C237.7,176.1 237,176.1 236.3,176.1 C235.4,176 234.9,175.1 235.3,174.4 C235.8,173.6 236.8,173 237.8,172.8 Z M128.8,170.1 L128.768205,170.107781 C128.426776,170.193061 125.474286,170.974286 126.7,172.2 C128,173.6 128.5,171.9 128.8,170.1 L128.8,170.1 Z M110.1,55.2 C110.8,54.7 109.6,53.5 109.1,54.1 C109,54.3 109.4,55.7 110.1,55.2 Z M114.710715,51.2097949 C114.243184,50.2915713 113.796774,49.4903226 113.3,50.2 C113.3,50.2 112,51.4 112.1,52 C112.2,52.6 110.7,50.8 110.7,50.8 C110.5,51.8 110.8,53.7 111.5,53.3 C112.1,52.9 112.1,52.3 112.8,52.5 C113.5,52.7 115.8,53.4 115.3,52.3 C115.141935,52.0516129 114.98897,51.7573361 114.8388,51.4620724 Z M128.8,39.6 C126.7,36.7 127.1,37.7 126.7,38.2 C126.4,38.6 125.2,39.4 125.4,41.2 C125.7,43 126.3,44.1 126.3,44.8 C126.3,45.5 125.6,47.1 126.6,47.9 C127.6,48.7 127.9,49.1 128.7,48.8 C129.5,48.5 130.1,48.3 130.6,47.7 C131.1,47.1 132.3,46.6 132.3,46.6 C132.3,46.6 134.8,46.4 136,47 C137.2,47.6 142.4,50 143.5,50.3 C144.6,50.6 149.4,51.9 150.2,51.9 L150.2,51.9 L150.40816,51.899537 L150.40816,51.899537 L150.623611,51.8962963 C151.338889,51.8777778 151.95,51.7666667 150.2,51.1 C148.1,50.3 130.9,42.5 128.8,39.6 Z M119.3,49.3 C118.7,47.4 116.2,48.5 115.4,49.3 C114.6,50.1 117,50.9 118.3,50.8 C119.6,50.7 119.3,49.3 119.3,49.3 Z M104.089014,32.310083 C103.136719,31.9292969 102.24375,31.6375 102.3,32.2 C102.3,32.2 102.519362,34.3936182 102.759129,36.5923378 L102.814732,37.098829 C102.954191,38.3603029 103.095349,39.5674419 103.2,40.3 C103.6,42.4 104.9,47.1 104.8,48.2 C104.7,49.2 105,50.7 105.6,49.9 C106.2,49.1 107.3,47.8 107.5,46.1 C107.6,44.4 107.6,43.4 108.7,41.6 C109.8,39.8 110.6,39.4 111.1,37.9 C111.6,36.4 112.1,35.8 112,35.2 C111.9,34.6 112.4,33.9 111.5,33.7 C110.6,33.4 111,33.2 109.7,33.1 C108.4,33 106.9,33.2 106,33 C105.690625,32.965625 105.144922,32.7421875 104.565985,32.5043488 Z" id="Saint-Pierre-et-Miquelon"></path>
        </g>
    </g>
</svg>