<svg id="cliperton" xmlns="http://www.w3.org/2000/svg" viewBox="0 0 305.7 297">
    <defs>
        <defs>
            <style>.cls-1{fill:#D8D8D8;}</style>
            <linearGradient x1="38.6428275%" y1="109.516801%" x2="61.3571725%" y2="-9.51680135%" id="linearGradient-1">
                <stop stop-color="#5B95B6" offset="0%"></stop>
                <stop stop-color="#88DEE5" offset="100%"></stop>
            </linearGradient>
        </defs>
    </defs>
    <path class="cls-1" d="M251.33,111.33c-3.55-4-6-4.66-9.77-6.44s-4.89-3.11-8-5.11-8.23-2.22-9.56-2.89a5.62,5.62,0,0,0-3.56-.89c-2,0-1.77-.22-3.33-2s-1.55.22-3.55.22-5.34-1.55-8-3.33c0,0-2.23.22-3.78.22s-1.11-1.33-3.78-2.22-2.44-.22-6-.89-31.33-12.22-31.33-12.22-14.45-8.22-20.89-11.56a55.46,55.46,0,0,1-14-10.66c-2-2.23-6.45-2.89-8.89-3.78s-2.22-1.78-2.45-3.11-3.77-2.89-8-4.67-11.33-1.56-14.66-1.33-8.45,4-11.11,6.66-5.56,6.45-9.78,10.89-8.45,6-9.11,6.89-.67,1.56-2.67,2-1.55,1.11-4,2.89S50,74.22,46,77.78s-2.67,3.33-7.78,12.89S34.67,104.44,35.11,110s3.11,12.89,3.11,12.89,1.11,6,1.56,9.78.22,2.44,3.11,5.11a32.92,32.92,0,0,1,6.44,10c.23,1.1-.22,2.9.45,3.79s1.33.88,2.22,3.33,1.33,4.22,5.33,10.22S67.11,175.33,68,175.33s1.33,2.67,2.22,3.56,1.11.89,3.34,1.55,1.11,2.23,2.22,3.12,1.78.22,3.11.44.89,2.67,4,4.89S96.67,198,96.67,198a105.16,105.16,0,0,1,11.77,10.89c4.45,5.11,7.56,6,9.34,8a7.09,7.09,0,0,1,2.22,4.22c.44,1.78,1.33,1.33,10.22,10.89s22.22,15.33,30.45,17.11,23.33-.89,27.55-2,6.67-1.78,10-4,13.11-3.33,13.11-3.33a26.6,26.6,0,0,0,4.67-3.56c2-2,.44-2.44,1.56-6.44a15.14,15.14,0,0,1,6.44-9.11c3.33-2.23,7.11-.67,9.56-1.34s9.77-10.22,13.77-15.77,1.34-2.67,1.78-6,.22-1.56,2.22-4.23.23-2.22,1.11-4,3.78-6.66,5.12-10A46.23,46.23,0,0,0,260,169.11c.67-4,.67-1.78,3.33-6.22s2.45-5.11,3.34-22S254.89,115.33,251.33,111.33ZM255,145.7c.44,1,.29,1.78,0,5.19a83.81,83.81,0,0,1-1.63,9s-1.19,2.22-1.93,3.7.45,1.18.74,2.07-.59,1-2.66,3.26-1.49,4.74-1.34,7.11,1.19,3.12.74,4.89-1.77,2.37-3.55,4.3,0,2.37-.74,4.44-1.48,2.23-1.19,3.71-.15,1.92-.59,3.26a18,18,0,0,1-2.22,3.55,39.73,39.73,0,0,1-3.41,5.34c-1.33,1.48-2.82,2.07-3.26,2.81s.15,1.19.15,2.22-.89,2.08-2.67,2.22-2.37.6-3.85-.29-.89-1.63-4.3-1.78-3.7-2.22-4.89-3.55-1.33-1.19-1.18.74,3.26,3.55,4,4.14-.74,1.78-1.19,2.23a20.44,20.44,0,0,1-2.66,1.77c-.74.45-2.52,1.34-3.41.6a2.89,2.89,0,0,0-3-.6c-.74.45,0,.74-.89,1s-.89.89-1,1.78,1.33,1,2.82,1,2.17,1,3.11.88c1.92-.29,3.26-2.81,3.26-2.81s1.63-.74,3.11-1.33a35.35,35.35,0,0,1,4.74-1.48c3.11-.89.59.14,1.18.74s0,.88-.59,1.77-1,.3-2.07.15-1.48.59-2.23,1.63-.88,1.33-1.77,1.33-.6-.14-1.34.3-.44,1.48-1.33,1.78-1.19-.74-2.07-.74-1.19,1.63-2.08,3,1,1.78.45,2.82-1.19,0-2.52-.6a12.11,12.11,0,0,1-4.45-3,10.64,10.64,0,0,0-6.22-3.26c-2.07-.15-1.78-1.92-3-2.07s-3.75.44-4.74-.89-1.86-.59-1.86-.59.77,3.25,2.85,3.25a6.28,6.28,0,0,1,4,.89c1.78.89.6,1.49,1.19,3.86s-.89,1.48-3.26,3.25-1.78,2.38-3.26,3.86-9.78,2.66-12.15,3a10.74,10.74,0,0,1-5.33-.3c-2.37-.59-1.48.89-3.56,1.19s-1.48.59-4.14.29-2.08,1.49-2.08,1.49-1.78.59-6.22,0-3-2.08-4.44-3.86a28.12,28.12,0,0,0-8.06-7.4c-4.5-2.67-6.46-1.19-9.72-1.48a22.74,22.74,0,0,1-8.3-2.08c-2.37-1.18-.59-2.37-2.37-4.44s-6.52-4.74-8.59-8.3-1.78-3.26-2.08-6.22-2.37,0-3.26-1.19-3.55-1.77-6.81-3-4.44-4.44-6.22-7.59-1.78-.71-4.15-.11-2.37-1.19-3.56-3.26-3-.6-3.55-2.08,0-2.37-1.78-5.33-5.33-3-7.7-3.56-2.08-.88-3.26-3.25-3.26-.89-5-1.49-.89-2.37-.59-6.22-.3-4.44-1.48-7.41-1.78.3-1.78,1.19-1.48,2.07-2.57,2.07-3.95-5-5.73-8.29-3.85-7.11-4.15-8.6,1.49-2.07,1.19-4.14-4.15-2.67-6.22-4.15-1.88-1.71-3.93-4.37.37-4.52,1.85-6.59.89-2.35-.52-4.38c-2.05-3-1-4.22.82-6.88s2.07-1.49,4.15-1.49-.1-2.44.49-6.3,1.53-2.51,2.4-4.88,1.92-2.22,1.26-3.93c-.49-1.23-.37-2.1,1.41-6.25s2.88-2.19,4.36-4.86,2.3-2.52,3.19-4.29.81-2.08,4.67-5.63,3.25-2.08,3.55-3.86a11.3,11.3,0,0,1,2.08-5c1.48-2.37,1.48-3.85,3-6.82s6.22-4.74,6.22-4.74c6.22-4.74,21-4.15,22.67-3.55s1.33,1.18,3.11,1,1.92,1,3.26,1.34a57,57,0,0,0,6.37,1.18c3.41.45,4.29.45,5,.89s9,5,10.82,6.52a9.74,9.74,0,0,1,2.52,4.44,3.49,3.49,0,0,0,2.22-.14c1.63-.45,1.19.44,3,1.33s1.63.44,3,.59.74.45.83,1.48.94.3,1.09.74,3.85,4.45,4.63,5.49.41,1.48,1,2.66,1.19.74,2.82,1.19,3,1,4.59.59,0,0,.15-.89.89-1.48,2.07-2.22.89.29,1.93.74a13.12,13.12,0,0,1,2.07,1.18c.74.45,1.25-1.61,2.52-.59,1.48,1.19,4.44,3.11,6.37,4.74s5.78,4.3,7,4.45,1,.15,2.52-.6,1.78-.59,3.85-1,3.86,2.52,4.45,2.66,2.07.74,3.26,0a3.47,3.47,0,0,1,3.55-.29c.89.59,1.19.29,3.71,1.33s2.52,2.22,4.89,2.52,7.85,3,9,3.56,2.37.44,4.45,3,4,3,5.18,3.85,3.11.59,6.82,1.78,4.89,4.59,6.22,5.48,0,0,6.22,7.11a39.89,39.89,0,0,1,8.59,15.7,6.73,6.73,0,0,1,.15,3,15.81,15.81,0,0,0,.15,1.77c.15,1.19-.89,1.63-1.33,2.82S254.59,144.67,255,145.7Z
        M77.11,75.41c0,.22-1.26.07-1.18,1.26a2.34,2.34,0,0,1-.6,2.07c-.44.52-1.18,2.37.67,2.07s3-.29,2.89-1.62a4.86,4.86,0,0,0-.52-1.86,7,7,0,0,0-.15-1.11C78.07,75.63,77.19,75,77.11,75.41Z
        M78.37,72.74s-.81,1-.74,1.63.53,1.34,1.26.89,1.7-1,1.85-1.33S81.93,72.15,78.37,72.74Z
        M57.09,103.66c-.37.12-1.35,1.59-.49,2s2.32,0,2.08-1,2.08-1.47,1.35-2.21-2.12-1.18-1.82.86Z
        M61.49,97.17s.13,2,1.23,1.35S63.45,96.31,61.49,97.17Z
        M62.41,94s-1.16,1.22,0,1.34,1.9-1,1.66-1.34S62.41,94,62.41,94Z
        M57,143.19s0,.88,1.25,1,2.78,0,3.28.89,1.28,1.93,0,1.78-2.47.16-3.28-.66.19-1.11-1.25-1.86S57,143.19,57,143.19Z
        M192.07,215.19s-1.18,1.92,0,1.92S193.41,215.63,192.07,215.19Z
        M194,214.44s-.89.6,0,.75S194,214.44,194,214.44Z" />
</svg>