<?xml version="1.0" encoding="UTF-8"?>
<svg width="299px" height="249px" viewBox="0 0 299 249" version="1.1" xmlns="http://www.w3.org/2000/svg" xmlns:xlink="http://www.w3.org/1999/xlink">
    <title>Guadeloupe</title>
    <g id="Page-1" stroke="none" stroke-width="1" fill="none" fill-rule="evenodd">
        <g id="Artboard" transform="translate(0.000000, -24.000000)" fill="#D8D8D8" fill-rule="nonzero">
            <g id="cartes" transform="translate(0.000000, 20.000000)">
                <path d="M88.5,237.6 C90.4,234.1 86.5,230.8 86.3,236.7 C84.6,238.1 86.1,234 84,234.5 C83.4,238.4 82.1,234.4 84,239.2 C83.3,242.1 77.2,239.3 77.9,241.2 C77.7,242.2 76.8,242.4 76,242.3 C74.9,243.3 75.6,244.4 76.9,243.5 C77.2,244.5 78.4,244.4 79.1,245 C84.1,245.1 78.7,242.8 85.1,243.3 C85.3,244.5 86.5,243.5 86.5,242.8 C82.5,240 93.5,238.2 88.5,237.6 Z M40.8,68.1 C41.2,67.8 40.6,67.2 40.5,66.9 C40.2,67.4 40,68.1 40.8,68.1 Z M69.6,242.8 C68.7,242.6 68.7,241.6 69.4,241.1 C69.2,239 65.2,240.7 64.9,238.6 C63.3,240.8 59.9,242.7 59.8,246.2 C57.9,247.6 60.6,247.6 61.5,247.8 C65.3,251.7 69,248.9 70.3,244.5 C71.5,247.8 74.9,241.8 69.6,242.8 Z M40.3,69.6 C41.4,69.1 39.3,68.2 39.5,69.2 C39.7,69.3 40,69.7 40.3,69.6 Z M13.1,53.5 C13.5,53.2 12.9,52.5 12.5,52.6 C12,53.1 12.4,53.7 13.1,53.5 Z M81.1,245.7 C81.3,245.2 80.4,245.1 80.2,245.4 C80,246 80.8,246 81.1,245.7 Z M68.1,238.1 C67.8,237.5 67.2,237.8 67.2,238.4 C67.4,238.9 67.9,238.3 68.1,238.1 Z M82.5,249.5 C80.7,247.8 79.4,249.9 78.7,251.6 C81.3,252 86.1,253.8 82.5,249.5 Z M74.6,250.9 C73.2,248.4 73.7,253 76.3,251.6 C76,251.3 75.1,250.7 74.6,250.9 Z M5.8,130.8 C5.3,130.7 4,131.1 4.6,131.7 C6.6,132.2 6.6,129.9 5.8,130.8 Z M40.7,70 C41,70.7 42.4,70.5 42.1,69.8 C41.6,69.9 40.8,69.1 40.7,70 Z M48.3,74.6 C48.8,74.3 48.1,73.6 47.7,73.7 C46.9,74.2 47.6,74.7 48.3,74.6 Z M54.6,68.9 C55.5,68.4 55.3,67.9 54.3,68 C54,68.3 54,69.1 54.6,68.9 Z M91.7,86.8 C91.3,86.2 91.1,83.6 90.8,85.6 C89.3,85.9 91.1,87.1 91.7,86.8 Z M75.7,65.5 C77.1,63.7 81.2,67 81.1,62.9 C80.5,62.3 79.6,62.1 78.8,62.5 C77,59.9 75.4,64.3 74.5,65.8 C75.1,66.1 75.7,66.6 75.7,65.5 Z M63.2,61.4 C63.6,61.2 63,60.9 62.9,60.8 C62.6,61.1 62.8,61.6 63.2,61.4 Z M42.5,71.4 C43.5,71.5 43.1,71.1 42.8,70.5 C42.1,70.5 41.8,71 42.5,71.4 Z M44.1,65.6 C44.5,65.4 43.7,64.9 43.5,65 C42.6,65.7 43.5,65.6 44.1,65.6 Z M46.6,66.1 C47.1,65.7 46.3,65.1 46.1,65.8 C46.2,65.9 46.4,66.2 46.6,66.1 Z M46,66.7 C46.7,66.3 44.7,64.8 44.9,66 C45.1,66.1 45.7,66.9 46,66.7 Z M7.8,59.7 C9,59.3 7.9,57.4 7.1,57 C6,57.4 6.7,59.5 7.8,59.7 Z M227.3,98.6 C226.6,97.3 222.7,95.1 221,96 C218,93.2 219.6,96.7 216.2,95.5 C211.9,92.3 205.8,92.3 202.3,88.1 C201.2,84.7 198.7,80.6 196.7,77.9 C195.8,77.9 195.3,78.1 194.8,77.5 C195.2,76 192.9,76.1 192.2,75 C190.8,74.2 189,73.9 188,72.4 C186.1,72.5 183.4,72.4 183.8,70.1 C181.3,70.6 180.8,71 178.7,69 C174.7,69.3 171.6,67.7 168,68.6 C167.8,68.9 167.9,69.2 167.4,69.2 C166.4,66.6 163.1,68.9 161.4,67.5 C153.4,67.4 149.7,58.4 145.6,52.7 C144,50 145.6,46.1 144.9,43.2 C146,42.7 147.3,40.4 146,39.6 C150.4,36.1 141.9,25.6 142.8,20.6 C142,19.9 141,19.5 140.1,19.1 C140.2,17.4 138.4,18.2 137.6,17.8 C136,15.8 133.8,12.9 131.3,12.8 C130.3,11.8 131.2,8.7 129.2,9 C128.4,10 125.6,9.7 125,8.7 C124.1,8.7 124.3,9.9 123.7,8.6 C125.3,6.6 121.7,7.8 123.4,5.3 C123.6,4.2 122.2,4.1 122.1,5.2 C117.9,5.2 118.8,10.5 115.5,12 C112.5,14.4 108.6,15 107.1,19.1 C102.4,19.8 104.2,20.5 101.5,23.3 C97.4,23.8 98.2,29.4 95.8,31.9 C97.9,32.9 96.6,33.4 97.6,34.8 C98.4,36.2 98.8,37.6 98.3,39.3 C100.3,41.6 100,45.4 102.1,47.7 C103.8,47.4 108.3,51.6 108.5,49.5 C107.2,47.2 110.1,51.1 110.5,51.7 C111.4,51.5 112,52.6 112.2,53.3 L112.8,53.9 C111.1,55.3 113.6,55.9 110.8,58.7 C113.7,59.9 109.6,61.1 112.7,62.3 C111.7,62.5 108,63.2 108.7,64.3 C111,64.8 105.6,65.9 104.8,65.5 C102.4,63.3 102.8,66 100.5,66.9 C102.2,67.7 99.1,68.5 98.8,69 C98.8,73.3 100,78.2 95.8,80.8 C95.7,79 94.2,80.7 94.5,81.6 C95.2,83.5 98.2,81.8 96.5,84.7 C93.6,82.6 93.8,86.1 93.4,87.9 C94.4,88.5 93.6,89.3 92.8,88.5 C93.1,87.2 90.2,84.9 89.6,86.9 C88.7,85.7 86.6,86.3 86.4,87.8 C84.8,88.3 85.1,86.3 83.7,86.6 C81.7,87.5 83.5,87.5 83.3,88.8 C81.7,89.8 82,92.5 79.9,92.3 C79,93.5 76.2,93.4 75.9,91.9 C77.7,91 76.8,90 76.7,88.6 C77.2,86.4 74.4,90 75,91 C73.7,90.8 74,92.4 72.8,92.7 C69.4,93.1 72.6,90.6 72,89 C67.9,89.6 63.8,90.4 69.3,86.1 C67.7,82.5 71.6,86.1 68.7,87.3 C72,90.3 71.6,83 74.3,82.2 C73.5,81.5 75.1,82.3 75.5,81.3 C74.2,77.6 69.7,81.5 67,81 C65.8,79.6 64,79.8 62.8,78.4 C62,78.3 59.7,78.9 60,77.4 C63.4,75.3 58.4,75.1 57.4,74 C56,74.6 53.9,74.8 52.5,75.1 C53.3,74.4 52.2,74.3 51.7,74.7 C50.1,77.1 48.9,70.2 46.5,71.4 C47.5,72.8 45.6,73.8 45,72.3 C45.1,70.8 42.8,70.6 42.1,69.5 C39.7,68.8 34.9,70 34.2,66.8 C35.2,65.8 32.4,65.1 32.4,64.4 C33.5,64.2 32.5,63.5 31.9,63.7 C31.1,63.5 29.7,60.8 28.9,61.7 C27.5,62 26.5,60.7 25.3,60.6 C23.8,59.1 23.2,61.8 22.4,62.7 C18.5,61.9 13.8,63.5 11.6,66.3 C13.2,68.6 5.3,69.5 8.7,72.6 C8.6,77.7 -0.9,74.9 5.8,80.7 C1.6,81.2 3.3,87.3 2.9,89.9 C1.8,93.5 -0.7,89.9 2.1,95.9 C0.9,97.4 3.3,100.3 3.7,101.8 C3.4,103.6 5.5,104.1 6,105.5 C15.2,111.8 6,118.7 10.8,122.5 C9.7,125 10.3,127.8 13,128.4 C13.3,130.6 13,134 13.4,136.4 C12.8,137.3 12.3,138.8 12,139.7 C13.9,141 15.6,140.6 15.3,143.8 C12.3,145.1 15.7,151.1 13.9,152.7 C15.3,153.6 14,154.7 15.1,155.1 C15.5,155.5 13.6,158.3 16.9,157.7 C15.1,159.6 17.1,164.3 15.8,166.6 C15.9,171.3 19.5,172.3 21.6,176 C25.6,179.3 22.8,185.2 27,188.6 C31.6,193.4 41.8,197.8 38.1,205.8 C40.4,209.9 45.5,207.9 49.6,206.7 C52,206.1 51.6,202.7 54.3,202.5 C56.1,201.3 55.7,205.5 58.1,201.6 C59.9,200.3 61.6,200.6 63.8,200.6 C64.7,201.3 65.7,200.8 66.8,200.8 C67.1,198.5 70,200 71.1,198.8 C69.9,194.5 73.2,198.9 72.5,193.1 C73.2,191.4 76.8,191.7 76.3,189.2 C77,188.5 78.3,188 78.8,186.9 C82.3,184.5 85.3,181.8 88.4,178.9 C88,178.1 89.4,177 89.8,176.5 C89.2,173.4 91.6,171.7 93,169.3 C89.1,163.5 92.8,155.7 89.6,149.6 C85.4,148.3 87.6,143.8 90.5,142.6 C90.8,138.4 85.1,140.9 84.5,136.7 C87.6,131.8 83.4,135.4 82,129.6 C81.4,127.4 84.4,126.9 83.7,124.8 C79.7,123.3 78.6,118.3 82.4,115.6 C82.5,114.3 79.3,113.4 81.8,112.4 C79.6,110.4 81,106.4 82.7,104.2 C86.5,106.1 84.3,103.1 89.7,106 C88.8,102.9 93.6,107.7 94.8,105.6 C93.4,105.2 92.9,102.3 94.4,101.7 C94.5,100.6 91.6,98.7 93.6,98.6 C100.2,101.9 96.3,103.8 99.5,104.6 C98.9,105.7 99.8,106.8 100.7,107.3 C98,107.7 102.3,109 101.6,109.4 C101.8,113.3 105.3,112 107.7,111 C110.3,112.4 107.1,114.3 110.7,115.1 C116.3,114 122,119.9 126.8,116.7 C131.9,117.7 132.6,112.6 137.5,113.3 C138.9,114.7 142.1,112.4 144,112.3 C149.8,106.4 148.1,113.9 150.5,108.4 C156.8,109.7 155.3,106.7 160.3,104.4 C163.1,103.3 167.4,103.9 169.5,101.6 C170.8,101.2 174.6,102.5 174.9,100.9 C180.5,103.6 192.8,97.9 198.6,96.4 C207.7,97.4 219.1,96.3 227.2,100.7 C228,100 229.8,98.2 227.3,98.6 Z M106.4,62.2 C105.8,62.4 105.7,62.8 106.2,63.1 C106.8,63.2 106.8,62.4 106.4,62.2 Z M95,83.3 C95.3,82.5 94.2,82.3 93.8,82.7 C93.5,83.6 94.5,83.7 95,83.3 Z M83.8,124.4 C83.8,125 84.4,125.3 84.7,124.7 C84.5,124.5 84.1,124 83.8,124.4 Z M88.7,135.6 C88.6,136 89.1,136.2 89.3,135.9 C89.4,135.4 88.9,135.2 88.7,135.6 Z M100.4,62.9 C100.8,61.8 99,62 98.4,62.2 C98.6,63.1 99.8,63 100.4,62.9 Z M255.4,120.9 C254.7,122 253,121.3 252.3,122.3 C253.4,123.9 257.8,122.2 255.4,120.9 Z M297.7,90.7 C297.7,90.1 297,89.4 296.6,89.1 C297.6,88.9 297.2,87.7 296.3,87.6 C296,85.1 294.1,86.6 292.5,86.6 C291.8,89.1 287.9,88 287.1,90.4 C282.1,91.1 278.7,96.7 273.3,97.8 C271.6,96.4 271.1,99.5 270.3,100.3 C268.7,100.5 266.1,100.1 265.3,101.8 C265.4,103 262.7,103.5 263.5,104.6 C264,106.1 262.1,107.8 263.7,108.7 C265.2,108.1 266.3,106.2 268.5,106.8 C271.3,103.6 275.6,103.7 279.4,102.9 C284.9,101.2 288.8,95.3 294.4,94.3 C294.6,94.6 295,94.6 295.3,94.6 C296.2,91.9 300.7,93.7 297.7,90.7 Z M253.6,123.1 C251.4,124.2 248.3,123.1 246.2,124 C245.8,127.3 258.7,126.6 253.6,123.1 Z M107.4,62.2 C107.9,61.8 106.7,61.8 106.6,62.1 C106.7,62.2 107.2,62.1 107.4,62.2 Z M99.4,109.6 C98.9,109.5 98.9,110.1 99,110.4 C99.8,110.9 100.3,110.1 99.4,109.6 Z M92.1,120.4 C91.7,120.3 91.5,120.8 91.8,121 C92.2,121.1 92.4,120.7 92.1,120.4 Z M90.7,107.2 C90.9,106.7 90,106.6 89.8,107 C89.6,107.5 90.5,107.5 90.7,107.2 Z M92.1,109.1 C90.6,107.9 90.2,109 91.8,109.7 C93,110.1 93,108.3 92.1,109.1 Z M89.8,236.2 C89.5,236.8 88.9,237.6 90.1,237.4 C90.4,237.2 90.4,235.9 89.8,236.2 Z M96.4,111.8 C95.6,109.5 94.3,111.3 95.5,112.7 C97.4,113.1 100,111.2 96.4,111.8 Z M114,117.1 C113.2,118 115.2,118.5 115.1,117.5 C114.8,117.2 114.3,117 114,117.1 Z M89.7,108.6 C88.9,109.3 89.6,109 90,109.5 C90.3,109.3 90.2,108.4 89.7,108.6 Z M78.6,237.1 C79.7,239.2 82,236.8 80.7,235.5 C79.1,235.6 74.6,235.9 78.6,237.1 Z M220.9,211.7 C219.2,206.1 214.4,203.6 210.3,200.4 C211,199.4 210.2,198.8 209.2,199.1 C206.7,197.1 208.9,196.5 207.4,195.9 C208.2,193.4 205.5,192.4 203.5,191.9 C203.7,189.8 202.8,191.4 201.6,190.7 C200.5,189.8 198.7,190.3 197.4,189.1 C196.6,187.5 193.6,186.6 191.7,186.3 C190.3,184.4 190.1,186.3 188.6,186.4 C188.1,187.2 185.2,186.4 184.7,187.1 C183.6,188.7 182.2,190.7 181.2,192.4 C177.9,194 181.7,197 175.2,197.1 C176.3,203.9 175,206.6 169,209.9 C168.1,215 172.7,220.3 171.2,225.1 C175,233.5 183.2,233.3 189.9,237 C198.2,236.6 206.1,233.9 212.1,228.1 C217.3,223.1 222.1,220.6 220.9,211.7 Z" id="Guadeloupe"></path>
            </g>
        </g>
    </g>
</svg>