<?xml version="1.0" encoding="UTF-8"?>
<svg width="207px" height="257px" viewBox="0 0 207 257" version="1.1" xmlns="http://www.w3.org/2000/svg" xmlns:xlink="http://www.w3.org/1999/xlink">
    <title>Guyane</title>
    <g id="Page-1" stroke="none" stroke-width="1" fill="none" fill-rule="evenodd">
        <g id="Artboard" transform="translate(-42.000000, -20.000000)" fill="#D8D8D8">
            <g id="cartes" transform="translate(0.000000, 20.000000)">
                <path d="M81.3,13 C81.3,13 82.7,12.3 82.7,14.5 C82.7,16.7 82.3,17 81.3,16 C80.3,15 81.3,13 81.3,13 Z M77.8,22.2 C80,20.6 80.3,20.9 78.8,23 C76.4,26.3 74.8,26.2 74.8,25.1 C74.7,24.4 75.7,23.4 77.8,22.2 Z M69.2,205.8 C69.6,206.1 70.2,205.6 69.4,205.7 C69.4,205.8 69.3,205.8 69.2,205.8 L69.2,205.8 L69.2,205.8 Z M54.2,249.7 C54.3,249.5 53.6,249.2 54.2,249.7 L54.2,249.7 L54.2,249.7 Z M90.2,0.6 C90.7,0.6 92.3,1.1 93.9,1.7 L94.2,1.8 C95.8,2.3 97.4,2.8 98.2,2.8 C100,2.8 104.5,3.3 104.5,5.7 C104.5,7.4 106.1,7.5 107.8,7.7 L108,7.7 C108.7,7.8 109.3,7.9 109.9,8.1 C111.9,8.9 112.6,9.3 114.4,10.4 C116.2,11.5 118,13.7 120.3,14.7 C122.6,15.7 137,19.2 138.4,19.2 C139.8,19.2 147,17.6 148.9,20.5 C150.8,23.4 153.1,24.6 154.8,21.9 C156.5,19.2 158.6,22.2 160,23.4 C161.4,24.6 165.6,26.6 166.9,27.7 C168.2,28.8 169.3,32.7 173.2,36.3 C177.1,39.9 177.9,39.6 178.9,42.2 C179.9,44.8 181.8,45.9 184,47.6 C186.2,49.2 184.8,51.5 186.9,51.5 C189,51.5 190.6,51.2 190.6,52.6 C190.6,54 191.2,53 192.4,53.9 C192.9,54.2 193.1,54.3 193.2,54.3 L193.2,54.3 C193.5,54.3 193.7,54.4 195,55.7 C197.1,57.8 197.1,58.5 197.1,59.7 L197.1,59.8 C197.1,60.2 196.9,60.8 196.7,61.5 L196.6,61.7 C196.1,63.2 195.5,64.6 197.1,62.6 C199.4,59.8 199.8,58.2 201.4,58.2 C203,58.2 205.5,59.8 205.5,61.2 C205.5,62.6 201.4,64.4 201.4,67.5 C201.4,70.7 197,75.1 198.7,75.1 C200.4,75.1 201.9,69.2 202.8,68.4 C203.7,67.5 202.9,66.4 205.5,65.4 C208.1,64.4 208.7,62.4 210,65.4 C211.3,68.4 211.6,68.9 215.1,70.5 C218.6,72.1 218.7,71.9 220,75.2 C220.5,76.4 221.1,76.9 221.7,77.5 L221.8,77.6 C222.9,78.5 224.2,79.6 225.1,84.1 C226.5,91.3 227.2,92.9 226.8,94.9 C226.7,95.7 225.1,96.8 223.4,97.8 L223.2,97.9 L223,98 C220.9,99.3 218.9,100.4 220,100.9 C222.1,101.8 224.5,100.1 226.5,98.5 C228.5,96.9 229.7,96.7 229.1,89.8 C228.5,82.9 228.5,80.4 230.7,78.4 C233,76.4 235.8,80.3 235.8,80.7 C235.8,81.1 238,82.1 238,83.9 C238,85.1 238.5,87 239.4,89.7 C240.2,89.9 240.9,90.8 241.5,92.4 C242.4,94.7 240.6,96.7 241.5,96.7 C242.4,96.7 245.3,95.9 245.3,98.3 C245.3,99.3 244.7,99.7 244.2,100 L244.1,100.1 C244.1,100.1 244,100.1 244,100.2 L243.9,100.3 C243.3,100.7 242.8,101.2 243.6,102.8 C245.3,106 248.7,107.6 248.7,110.8 C248.7,114 248,121.1 246.6,122.2 C245.3,123.3 239.2,123 238.1,127.4 C237,131.7 236.1,135.9 233.4,137.4 C230.8,138.9 229.1,140.4 229.1,142.6 C229.1,144.8 227.9,144 226.5,144.4 C225.1,144.8 224.1,144.6 224.1,147.6 C224.1,150.6 223.7,153.5 221.3,156 C218.8,158.5 216.8,157.1 216.8,159.7 C216.8,160.7 217.3,160.9 217.7,161.1 L217.8,161.1 C218.3,161.4 218.6,161.6 216.9,164.1 C213.9,168.4 213.6,168.1 212.5,170.4 C211.4,172.7 209.5,178.6 206.9,178.6 C204.3,178.6 204.4,174.6 202.9,178.6 C201.5,182.6 202.2,184.9 199.7,183.8 C197.3,182.7 197.9,184.8 198.7,187.3 L198.8,187.5 C198.8,187.6 198.9,187.7 198.9,187.8 C199.7,190.4 202.7,189.9 198.9,194.2 C196.4,197 195.1,199 195.1,200.2 C196.1,201.4 196.1,202.3 195.1,203 C194.7,203.3 194.3,203.3 193.9,203.3 L193.8,203.3 C192.6,203.3 191.4,203 190.6,206.1 C189.5,210.4 187.6,213.9 186.9,217 C186.2,220.1 182.6,218.2 184,221.3 C185.4,224.4 187.1,223.9 186.2,226.1 C185.3,228.3 181.4,232.2 180.1,233.3 C179.6,233.7 179.4,233.7 179.2,233.8 L179.2,233.8 C179,233.9 178.8,234 178.1,235.2 L178,235 C177.9,235.2 177.7,235.5 177.6,235.8 C175.6,239.2 175.6,239.5 173.1,241.3 C170.6,243.1 170.7,244.8 168.2,244.8 C165.7,244.8 164.7,244.1 162.9,246.9 C161.1,249.7 161.1,251.3 159.9,251.3 C158.7,251.3 159.9,248.8 158,251.3 C156.1,253.8 156.7,253.4 154.7,253.4 C152.7,253.4 153.1,251.3 151.1,251.3 C150.4,251.3 150.1,251.2 149.9,251 L149.9,251 C149.9,251 149.9,251 149.9,251 L149.9,251 C149.5,250.7 149.1,250.3 146.7,250.3 L138.4,250.3 C137.2,250.3 137.1,251.5 135.3,251.5 C133.5,251.5 133.4,250.8 135.3,249 C137.2,247.2 138.1,248.8 135.3,246.1 C135,245.8 134.7,245.5 134.5,245.3 L134.3,245.1 L134.1,244.9 C131.9,242.4 130,239.9 129,241.5 C127.9,243.4 126.2,245 124,246.1 C122.6,246.8 120.2,247.8 116.8,249 C116.8,247.1 116,246.1 114.3,246.1 C111.8,246.1 108.4,246.7 106.4,245 C104.4,243.4 102.3,243.4 101.4,243.4 C100.4,243.4 102.4,241.8 101.4,240 C100.4,238.2 100.6,237.5 98.1,240 C95.6,242.5 96.8,245 95.1,245 C93.5,245 92.9,242.9 91.4,245 C90.8,245.9 90.2,245.9 89.7,245.7 L89.6,245.7 L89.5,245.7 C89.5,245.7 89.5,245.7 89.4,245.7 L89.3,245.7 C88.6,245.6 88,245.5 87.5,247.2 C86.5,250.4 85.9,249.5 83.4,251.6 C80.9,253.7 80.1,249.5 78.8,251.6 C77.5,253.7 78.3,256.8 75.4,256.8 C72.5,256.8 73.5,253.7 70.6,253.7 C69.6,253.7 68.7,254.2 67.8,254.8 L67.6,254.9 C67.5,254.9 67.5,255 67.4,255 L67.2,255.1 C65.9,256 64.8,256.9 63.6,255.7 C61.5,253.6 60.2,254.6 59.2,253.6 C58.1,252.6 58,249.1 57,250.3 C56,251.5 56.1,251.6 54.3,250.3 C54.2,250.2 54,250.1 54,250 L54,250 C53.9,250.2 53.6,250.3 52.6,250.3 C49.5,250.3 47.6,248.2 46.2,247.1 C44.8,246 46.2,246.6 46.2,245 C46.2,244.5 45.6,243.7 44.9,243 L44.8,242.9 C44.7,242.8 44.6,242.7 44.5,242.6 L44.4,242.5 C43.2,241.2 42,240.1 43.6,240.1 C46.2,240.1 45.9,242.7 47.8,238 C48.9,235.2 49.2,235.1 49.7,235.2 L49.7,235.2 L49.7,235.2 C49.7,235.2 49.8,235.2 49.8,235.2 L49.9,235.2 C50.2,235.2 50.5,235.2 51,234.7 C52.7,233.3 56,231.8 57.2,230.1 C58.4,228.4 59.6,222.7 62.8,218.4 C64,216.7 65.3,215.4 66.4,214.3 L66.7,214 C68.2,212.5 69.4,211.4 69.4,210.4 C69.4,208.8 68.2,206.6 69.2,206.1 L69.2,206.1 L69.2,206.1 C69,205.9 68.9,205.2 69.4,203.8 C70.8,200.2 72.1,199.6 70.8,197.8 C69.4,195.9 70.8,196.5 70.8,194.2 C70.8,191.9 69.4,190.5 69.4,190.5 C69.4,190.5 72.1,190.1 70.8,187.9 C70.3,187 70.1,187.5 70.1,188.1 L70.1,188.2 C70.1,189.1 70.2,190.2 69.5,187.9 C68.3,184 68.3,182.4 70.9,179.7 C71.7,178.9 72.7,178.1 73.8,177.3 L74.1,177.1 C76.6,175.3 79.2,173.6 79.2,172.4 C79.2,170.6 77.9,170.1 80.2,168 C80.3,167.9 80.4,167.8 80.5,167.7 L80.8,167.4 L81,167.2 C83.1,165.3 84.9,163.3 83.8,160.9 C83,159.1 83,157.5 83.8,156 L83.8,153.9 C83.8,152.3 83.6,150.5 82.6,150.5 C82.3,150.5 81.8,150.6 81.4,150.7 L81.2,150.7 L81,150.7 C80.1,150.9 79.2,151.1 79.2,150.4 C79.2,149.3 77.3,145.3 75.8,142.4 C74.3,139.5 71,140.3 71,138.7 C71,137.2 69.7,135.7 69.6,135.5 L69.6,135.5 C69.6,135.5 65.3,131.7 65.3,131.5 C65.3,131.5 65.2,131.4 65.2,131.2 L65.1,131.1 C64.8,130.5 64.1,129.3 63.5,128 L63.4,127.8 C63,127 62.5,126.2 62.1,125.5 C61.6,124.6 60.5,124.4 59.5,124.3 L59.3,124.3 C57.9,124.1 56.6,123.9 57.5,122.1 C57.6,121.9 57.7,121.6 57.8,121.4 L57.9,121.1 C59.2,118.1 60.4,115.1 59.7,113.9 C59.5,113.5 59.1,113.4 58.7,113.3 L58.6,113.3 C58.6,113.3 58.5,113.3 58.4,113.3 L58.3,113.3 L58.1,113.3 C57.2,113.2 56.4,113 56.4,110.8 C56.4,107.2 54.1,100.8 52.9,96.8 C51.7,92.7 51.2,90.8 52.9,86.9 C53.8,84.9 53.7,84.1 53.5,83.5 L53.5,83.4 L53.5,83.3 C53.3,82.8 53,82.3 53,81.2 L53,75.1 C53,74.1 52.3,73.9 51.6,73.6 L51.4,73.5 C50.7,73.2 50,73 50,72 L50,64.3 C50,61.9 49.7,61.4 51.4,59.7 C53.1,58.1 49.7,56.7 51.4,53.8 C53.1,50.9 55.8,47.9 56.7,46.5 C57.6,45 57.4,45.7 58.7,44 C60,42.3 59.6,40.1 62.2,37.7 C64.8,35.2 72.5,30 75.9,27.8 C79.3,25.7 80.1,22.8 81.4,20.7 C82.7,18.6 83.9,17.3 83.9,15.9 C83.9,14.5 81.8,11 83.9,8.3 C84.5,7.5 85.3,6.5 86,5.6 L86.2,5.4 C87.6,2.8 89.5,0.6 90.2,0.6 Z" id="Guyane"></path>
            </g>
        </g>
    </g>
</svg>