<?xml version="1.0" encoding="UTF-8"?>
<svg width="300px" height="300px" viewBox="0 0 300 300" version="1.1" xmlns="http://www.w3.org/2000/svg" xmlns:xlink="http://www.w3.org/1999/xlink">
    <title>Artboard</title>
    <defs>
        <linearGradient x1="39.9957222%" y1="109.516801%" x2="60.0042778%" y2="-9.51680135%" id="linearGradient-1">
            <stop stop-color="#5B95B6" offset="0%"></stop>
            <stop stop-color="#88DEE5" offset="100%"></stop>
        </linearGradient>
    </defs>
    <g id="Artboard" stroke="none" stroke-width="1" fill="none" fill-rule="evenodd">
        <g id="cartes" transform="translate(0.000000, 20.000000)" fill="url(#linearGradient-1)">
            <g id="Guyanne" transform="translate(42.000000, 0.000000)">
                <path d="M39.3,13 C39.3,13 40.7,12.3 40.7,14.5 C40.7,16.7 40.3,17 39.3,16 C38.3,15 39.3,13 39.3,13 Z M35.8,22.2 C38,20.6 38.3,20.9 36.8,23 C34.4,26.3 32.8,26.2 32.8,25.1 C32.7,24.4 33.7,23.4 35.8,22.2 Z M27.2,205.8 C27.6,206.1 28.2,205.6 27.4,205.7 C27.4,205.8 27.3,205.8 27.2,205.8 L27.2,205.8 L27.2,205.8 Z M12.2,249.7 C12.3,249.5 11.6,249.2 12.2,249.7 L12.2,249.7 L12.2,249.7 Z M48.2,0.6 C48.7,0.6 50.3,1.1 51.9,1.7 L52.2,1.8 C53.8,2.3 55.4,2.8 56.2,2.8 C58,2.8 62.5,3.3 62.5,5.7 C62.5,7.4 64.1,7.5 65.8,7.7 L66,7.7 C66.7,7.8 67.3,7.9 67.9,8.1 C69.9,8.9 70.6,9.3 72.4,10.4 C74.2,11.5 76,13.7 78.3,14.7 C80.6,15.7 95,19.2 96.4,19.2 C97.8,19.2 105,17.6 106.9,20.5 C108.8,23.4 111.1,24.6 112.8,21.9 C114.5,19.2 116.6,22.2 118,23.4 C119.4,24.6 123.6,26.6 124.9,27.7 C126.2,28.8 127.3,32.7 131.2,36.3 C135.1,39.9 135.9,39.6 136.9,42.2 C137.9,44.8 139.8,45.9 142,47.6 C144.2,49.2 142.8,51.5 144.9,51.5 C147,51.5 148.6,51.2 148.6,52.6 C148.6,54 149.2,53 150.4,53.9 C150.9,54.2 151.1,54.3 151.2,54.3 L151.2,54.3 C151.5,54.3 151.7,54.4 153,55.7 C155.1,57.8 155.1,58.5 155.1,59.7 L155.1,59.8 C155.1,60.2 154.9,60.8 154.7,61.5 L154.6,61.7 C154.1,63.2 153.5,64.6 155.1,62.6 C157.4,59.8 157.8,58.2 159.4,58.2 C161,58.2 163.5,59.8 163.5,61.2 C163.5,62.6 159.4,64.4 159.4,67.5 C159.4,70.7 155,75.1 156.7,75.1 C158.4,75.1 159.9,69.2 160.8,68.4 C161.7,67.5 160.9,66.4 163.5,65.4 C166.1,64.4 166.7,62.4 168,65.4 C169.3,68.4 169.6,68.9 173.1,70.5 C176.6,72.1 176.7,71.9 178,75.2 C178.5,76.4 179.1,76.9 179.7,77.5 L179.8,77.6 C180.9,78.5 182.2,79.6 183.1,84.1 C184.5,91.3 185.2,92.9 184.8,94.9 C184.7,95.7 183.1,96.8 181.4,97.8 L181.2,97.9 L181,98 C178.9,99.3 176.9,100.4 178,100.9 C180.1,101.8 182.5,100.1 184.5,98.5 C186.5,96.9 187.7,96.7 187.1,89.8 C186.5,82.9 186.5,80.4 188.7,78.4 C191,76.4 193.8,80.3 193.8,80.7 C193.8,81.1 196,82.1 196,83.9 C196,85.1 196.5,87 197.4,89.7 C198.2,89.9 198.9,90.8 199.5,92.4 C200.4,94.7 198.6,96.7 199.5,96.7 C200.4,96.7 203.3,95.9 203.3,98.3 C203.3,99.3 202.7,99.7 202.2,100 L202.1,100.1 C202.1,100.1 202,100.1 202,100.2 L201.9,100.3 C201.3,100.7 200.8,101.2 201.6,102.8 C203.3,106 206.7,107.6 206.7,110.8 C206.7,114 206,121.1 204.6,122.2 C203.3,123.3 197.2,123 196.1,127.4 C195,131.7 194.1,135.9 191.4,137.4 C188.8,138.9 187.1,140.4 187.1,142.6 C187.1,144.8 185.9,144 184.5,144.4 C183.1,144.8 182.1,144.6 182.1,147.6 C182.1,150.6 181.7,153.5 179.3,156 C176.8,158.5 174.8,157.1 174.8,159.7 C174.8,160.7 175.3,160.9 175.7,161.1 L175.8,161.1 C176.3,161.4 176.6,161.6 174.9,164.1 C171.9,168.4 171.6,168.1 170.5,170.4 C169.4,172.7 167.5,178.6 164.9,178.6 C162.3,178.6 162.4,174.6 160.9,178.6 C159.5,182.6 160.2,184.9 157.7,183.8 C155.3,182.7 155.9,184.8 156.7,187.3 L156.8,187.5 C156.8,187.6 156.9,187.7 156.9,187.8 C157.7,190.4 160.7,189.9 156.9,194.2 C154.4,197 153.1,199 153.1,200.2 C154.1,201.4 154.1,202.3 153.1,203 C152.7,203.3 152.3,203.3 151.9,203.3 L151.8,203.3 C150.6,203.3 149.4,203 148.6,206.1 C147.5,210.4 145.6,213.9 144.9,217 C144.2,220.1 140.6,218.2 142,221.3 C143.4,224.4 145.1,223.9 144.2,226.1 C143.3,228.3 139.4,232.2 138.1,233.3 C137.6,233.7 137.4,233.7 137.2,233.8 L137.2,233.8 C137,233.9 136.8,234 136.1,235.2 L136,235 C135.9,235.2 135.7,235.5 135.6,235.8 C133.6,239.2 133.6,239.5 131.1,241.3 C128.6,243.1 128.7,244.8 126.2,244.8 C123.7,244.8 122.7,244.1 120.9,246.9 C119.1,249.7 119.1,251.3 117.9,251.3 C116.7,251.3 117.9,248.8 116,251.3 C114.1,253.8 114.7,253.4 112.7,253.4 C110.7,253.4 111.1,251.3 109.1,251.3 C108.4,251.3 108.1,251.2 107.9,251 L107.9,251 C107.9,251 107.9,251 107.9,251 L107.9,251 C107.5,250.7 107.1,250.3 104.7,250.3 L96.4,250.3 C95.2,250.3 95.1,251.5 93.3,251.5 C91.5,251.5 91.4,250.8 93.3,249 C95.2,247.2 96.1,248.8 93.3,246.1 C93,245.8 92.7,245.5 92.5,245.3 L92.3,245.1 L92.1,244.9 C89.9,242.4 88,239.9 87,241.5 C85.9,243.4 84.2,245 82,246.1 C80.6,246.8 78.2,247.8 74.8,249 C74.8,247.1 74,246.1 72.3,246.1 C69.8,246.1 66.4,246.7 64.4,245 C62.4,243.4 60.3,243.4 59.4,243.4 C58.4,243.4 60.4,241.8 59.4,240 C58.4,238.2 58.6,237.5 56.1,240 C53.6,242.5 54.8,245 53.1,245 C51.5,245 50.9,242.9 49.4,245 C48.8,245.9 48.2,245.9 47.7,245.7 L47.6,245.7 L47.5,245.7 C47.5,245.7 47.5,245.7 47.4,245.7 L47.3,245.7 C46.6,245.6 46,245.5 45.5,247.2 C44.5,250.4 43.9,249.5 41.4,251.6 C38.9,253.7 38.1,249.5 36.8,251.6 C35.5,253.7 36.3,256.8 33.4,256.8 C30.5,256.8 31.5,253.7 28.6,253.7 C27.6,253.7 26.7,254.2 25.8,254.8 L25.6,254.9 C25.5,254.9 25.5,255 25.4,255 L25.2,255.1 C23.9,256 22.8,256.9 21.6,255.7 C19.5,253.6 18.2,254.6 17.2,253.6 C16.1,252.6 16,249.1 15,250.3 C14,251.5 14.1,251.6 12.3,250.3 C12.2,250.2 12,250.1 12,250 L12,250 C11.9,250.2 11.6,250.3 10.6,250.3 C7.5,250.3 5.6,248.2 4.2,247.1 C2.8,246 4.2,246.6 4.2,245 C4.2,244.5 3.6,243.7 2.9,243 L2.8,242.9 C2.7,242.8 2.6,242.7 2.5,242.6 L2.4,242.5 C1.2,241.2 2.0539126e-14,240.1 1.6,240.1 C4.2,240.1 3.9,242.7 5.8,238 C6.9,235.2 7.2,235.1 7.7,235.2 L7.7,235.2 L7.7,235.2 C7.7,235.2 7.8,235.2 7.8,235.2 L7.9,235.2 C8.2,235.2 8.5,235.2 9,234.7 C10.7,233.3 14,231.8 15.2,230.1 C16.4,228.4 17.6,222.7 20.8,218.4 C22,216.7 23.3,215.4 24.4,214.3 L24.7,214 C26.2,212.5 27.4,211.4 27.4,210.4 C27.4,208.8 26.2,206.6 27.2,206.1 L27.2,206.1 L27.2,206.1 C27,205.9 26.9,205.2 27.4,203.8 C28.8,200.2 30.1,199.6 28.8,197.8 C27.4,195.9 28.8,196.5 28.8,194.2 C28.8,191.9 27.4,190.5 27.4,190.5 C27.4,190.5 30.1,190.1 28.8,187.9 C28.3,187 28.1,187.5 28.1,188.1 L28.1,188.2 C28.1,189.1 28.2,190.2 27.5,187.9 C26.3,184 26.3,182.4 28.9,179.7 C29.7,178.9 30.7,178.1 31.8,177.3 L32.1,177.1 C34.6,175.3 37.2,173.6 37.2,172.4 C37.2,170.6 35.9,170.1 38.2,168 C38.3,167.9 38.4,167.8 38.5,167.7 L38.8,167.4 L39,167.2 C41.1,165.3 42.9,163.3 41.8,160.9 C41,159.1 41,157.5 41.8,156 L41.8,153.9 C41.8,152.3 41.6,150.5 40.6,150.5 C40.3,150.5 39.8,150.6 39.4,150.7 L39.2,150.7 L39,150.7 C38.1,150.9 37.2,151.1 37.2,150.4 C37.2,149.3 35.3,145.3 33.8,142.4 C32.3,139.5 29,140.3 29,138.7 C29,137.2 27.7,135.7 27.6,135.5 L27.6,135.5 C27.6,135.5 23.3,131.7 23.3,131.5 C23.3,131.5 23.2,131.4 23.2,131.2 L23.1,131.1 C22.8,130.5 22.1,129.3 21.5,128 L21.4,127.8 C21,127 20.5,126.2 20.1,125.5 C19.6,124.6 18.5,124.4 17.5,124.3 L17.3,124.3 C15.9,124.1 14.6,123.9 15.5,122.1 C15.6,121.9 15.7,121.6 15.8,121.4 L15.9,121.1 C17.2,118.1 18.4,115.1 17.7,113.9 C17.5,113.5 17.1,113.4 16.7,113.3 L16.6,113.3 C16.6,113.3 16.5,113.3 16.4,113.3 L16.3,113.3 L16.1,113.3 C15.2,113.2 14.4,113 14.4,110.8 C14.4,107.2 12.1,100.8 10.9,96.8 C9.7,92.7 9.2,90.8 10.9,86.9 C11.8,84.9 11.7,84.1 11.5,83.5 L11.5,83.4 L11.5,83.3 C11.3,82.8 11,82.3 11,81.2 L11,75.1 C11,74.1 10.3,73.9 9.6,73.6 L9.4,73.5 C8.7,73.2 8,73 8,72 L8,64.3 C8,61.9 7.7,61.4 9.4,59.7 C11.1,58.1 7.7,56.7 9.4,53.8 C11.1,50.9 13.8,47.9 14.7,46.5 C15.6,45 15.4,45.7 16.7,44 C18,42.3 17.6,40.1 20.2,37.7 C22.8,35.2 30.5,30 33.9,27.8 C37.3,25.7 38.1,22.8 39.4,20.7 C40.7,18.6 41.9,17.3 41.9,15.9 C41.9,14.5 39.8,11 41.9,8.3 C42.5,7.5 43.3,6.5 44,5.6 L44.2,5.4 C45.6,2.8 47.5,0.6 48.2,0.6 Z" id="Shape"></path>
            </g>
        </g>
    </g>
</svg>