<?xml version="1.0" encoding="UTF-8"?>
<svg width="167px" height="195px" viewBox="0 0 167 195" version="1.1" xmlns="http://www.w3.org/2000/svg" xmlns:xlink="http://www.w3.org/1999/xlink">
    <title>Martinique</title>
    <g id="Page-1" stroke="none" stroke-width="1" fill="none" fill-rule="evenodd">
        <g id="Artboard" transform="translate(-64.000000, -46.000000)" fill="#D8D8D8" fill-rule="nonzero">
            <g id="cartes" transform="translate(0.000000, 20.000000)">
                <path d="M208,218.3 C206.4,217.9 207,220.4 208,220.3 C208.9,219.7 208.1,219 208,218.3 Z M221.5,210.1 C220.3,210.1 220.3,211.7 221.4,212 C222.1,211.4 222.3,210.7 221.5,210.1 Z M164.4,186 C164.1,185.6 163.8,184.7 163.2,185.3 C162.8,186.2 164.4,187.4 164.4,186 Z M140.1,197.9 C139,197.6 138.3,198.8 139.1,199.6 C140.6,199.9 141.7,198.9 140.1,197.9 Z M221.7,208.1 C221.3,208.5 220.8,209.3 221.4,209.8 C222.4,209.9 223.1,207.2 221.7,208.1 Z M223.7,202.5 C223.9,201.7 222.4,201.9 222.8,202.6 C222.9,202.6 223.6,202.7 223.7,202.5 Z M223.1,202.9 C221.7,203.8 222.8,205.2 224.2,204.8 C224.9,203.6 224.7,202.4 223.1,202.9 Z M225.2,201.9 C224.4,202.4 225.5,203.3 225.9,202.5 C226.2,202.1 225.6,201.7 225.2,201.9 Z M169.9,69.3 C171.5,69.4 170.5,67.8 169.8,67.3 C168.9,67.9 168.8,68.8 169.9,69.3 Z M215,128.1 C216.4,128 217,126.3 215.6,125.6 C215,126.3 213.7,127.4 215,128.1 Z M206.9,67.6 C207.1,66.7 206.2,66.2 205.9,67.2 C206.2,67.5 206.4,68.1 206.9,67.6 Z M217.2,112.8 C217.8,112.7 217.9,111.8 217.5,111.4 C216.6,111.3 216.6,112.5 217.2,112.8 Z M219.9,150.2 C220.5,149.6 221.7,148.9 220.6,148.1 C219.4,148.2 217.7,150.6 219.9,150.2 Z M214.1,131.4 C212.7,130 211,132.6 209.6,133.1 C209.8,135 212.2,132.8 213.2,133.1 C215.3,134.2 214.6,132.5 214.1,131.4 Z M209.6,135 C210.3,134.5 209.6,133.4 208.8,133.8 C207.8,134.4 208.7,135.2 209.6,135 Z M213.8,126.9 C214.4,126.4 214.2,125.1 213.3,125.2 C212.2,125.7 212.5,127.1 213.8,126.9 Z M210.6,129.8 C213,127.6 209.8,128.4 208.6,129.2 C208.4,130.3 209.9,130 210.6,129.8 Z M140.9,140.4 C141.2,138.8 139.1,140.2 140.3,140.8 C140.5,140.7 140.8,140.6 140.9,140.4 Z M203.9,103.5 C203.5,102.8 202.2,103.4 202.8,104.2 C203.3,104.3 204.2,104.1 203.9,103.5 Z M203.6,108.2 C203.8,108 203.6,107.2 203.3,107.1 C202.1,107.1 202.7,109.1 203.6,108.2 Z M201.8,110.1 C203.6,110.4 203.1,108.5 201.7,108.5 C201.2,108.9 201.3,109.7 201.8,110.1 Z M225.7,200.5 C225.5,200.7 225.2,201 225.3,201.3 C225.8,201.8 226.7,200.5 225.7,200.5 Z M204.3,74.9 C203.9,74.2 202.9,74.1 202.9,75 C203,76.5 204.6,76.6 204.3,74.9 Z M198.7,123.8 C199.6,125.5 200.9,126.4 201.3,123.9 C200.5,123.6 199.1,122.4 198.7,123.8 Z M181.2,84.8 C181,86.1 182.2,85.8 182.5,84.9 C182.3,84.3 181.6,84.4 181.2,84.8 Z M190.8,102.8 C190.6,103.8 191.3,104 192,103.4 C192.5,102.2 191.5,101.8 190.8,102.8 Z M201.5,101 C201.1,101.6 201.3,103.2 202.3,103.2 C203.2,102.5 202.3,101.3 201.5,101 Z M149.2,157.7 C149.7,154.3 144.1,157.5 147.1,158.5 C147.6,158.2 148.7,157.6 149.2,157.7 Z M218.2,208.6 C217.5,209.3 219.1,209.8 219.3,209.1 C219.1,208.8 218.7,208.2 218.2,208.6 Z M230.5,191.8 C229.5,191.9 228.8,191 228.5,190.2 C225.4,188.6 229.7,186.6 230.3,184.7 C230.6,183.9 229.5,183 229,182.6 C228.7,181.9 229.3,180.3 228.6,179.8 C226.9,177.1 226.5,179.1 225.3,177.9 C225.7,174.4 226.4,167.9 221,171.3 C220.9,172.4 220.2,172.1 219.7,171.3 C219.9,170.7 221.1,170.4 220.5,169.7 C220.8,169.1 222.5,168.5 221.1,168 C223.4,166 224.5,171.3 224.9,164.3 C224.5,162.6 223.4,163.6 222.3,163.8 C221.1,163.6 219.5,163.6 221.3,162.5 C223.5,163.4 224.3,161.9 223.3,159.9 C222.6,158.3 219.8,158.2 219.7,156.7 C220.6,153.6 222.1,154.6 223,152.2 C222.3,150.3 226.2,149.2 222.8,148.6 C211.7,156.4 222.9,149 215.4,150.1 C216.4,149.8 218.4,148.8 217.2,147.8 C215.5,147.7 213.8,150.1 213.8,147.4 C212.8,145.7 217.2,146.5 218,145.7 C217.6,144.6 215.5,144.8 214.4,144.7 C213.1,143.7 216.2,144.4 216.3,143.7 C215.8,142.6 214.5,142.9 215.3,141.6 C213.8,140.6 214.5,139.5 213.7,138.6 C212.1,140.5 210.4,140.7 208,140.5 C207.7,139.2 205.9,138.6 206,137.3 C209.4,135.9 205.1,134.2 204.1,132.4 C203.5,130.4 207.1,131 207,129.3 C206.8,128.8 205.4,129 205,128.9 C203.7,127 202.5,129.9 201.5,128.7 C199.3,130.6 201.1,129 199.6,128.3 C198.5,128.8 197,129.4 195.7,128.7 C196.5,127.6 196.2,127.5 196.2,126.1 C197.6,125.7 199.2,124.1 197.9,122.6 C195.8,121.9 198.9,121.2 199.4,120.5 C197.6,119.8 194.9,119.8 193.2,118.3 C194.6,116.1 194,116.5 195.8,118.1 C196.8,117.9 197.7,116.7 198.9,117.1 C200.1,116 199,115.8 200.9,116.1 C201.3,114.2 204,110 199.9,110.5 C198.5,110.7 198,111.8 198.1,113.1 C194.4,112.8 196.6,112.6 195.8,110.9 C195,110.6 194.4,111.3 193.9,111.8 C193.6,110.9 193.1,110.3 192.1,110.5 C191.4,110.8 192.4,111.3 192,111.8 C190.9,112 191,111.2 190.3,110.8 C187.9,111 187.2,113.1 186.5,115.1 C185.3,114.9 184.5,116.2 183.2,115.8 C182.2,114.6 181.1,112.9 181,111.3 C177.5,110.2 177.9,109.1 180.2,107 C180.3,101.1 183.1,109 185.5,105.7 C182.7,104.2 183.7,101.6 186.8,102.2 C188.5,101.4 189.4,100.1 190.2,102.5 C191.2,102.2 192,100.7 192.1,99.7 C192.5,99.8 194.5,99.7 194.7,99 C194.3,98.3 195.5,97.9 194.4,97.4 C196,95.9 193.6,96.2 192.8,97 C188.6,97.7 189.7,94.1 189.8,91.2 C187.9,89.7 187.2,91.2 186.6,93 C185.4,93.2 184.4,94.2 183,94.4 C180.6,93.7 182.7,92.5 183.9,91.8 C183.6,90.5 184.1,89.7 185.2,89.2 C184.5,87.2 181.4,88.5 181.9,90.5 C180.7,91.8 179.3,89.4 178.7,88.6 C178,88.5 177.1,87.8 176.9,87.1 C177.5,82.9 178.4,85.4 180.5,84.6 C180.5,82.4 176.8,83.6 177.6,80.8 C179.2,80.6 179.8,79.1 180.2,77.9 C181.1,78.3 185.6,77.1 185.8,78.9 C191.2,78.6 188.8,83.2 191.4,83.8 C193.3,82.2 196.5,85.9 197.2,83.1 C200.3,84.9 198,82.5 198.6,81.2 C197.9,80.5 195.7,80.9 195.7,79.8 C196.4,79.7 197.4,79 197.1,78.2 C199.3,79.5 200.4,76.4 198.7,75 C197.8,74.4 196,74.9 196.4,73.3 C198,73.3 197.7,70.2 200.1,71.6 C201.9,70.1 201.3,73.3 202.5,74 C204.2,75 208.6,73.4 204.9,72.5 C204.6,71.6 205.5,69.6 205.9,68.8 C204.7,68.4 205.3,67.6 205.2,66.7 C204.5,65.8 203.6,67.6 202.9,66.1 C202.1,66.5 200.6,66.2 200.3,65.1 C198.7,64.9 198.2,67.5 197.2,68.4 C196.1,69 194.5,68.9 193.8,70 C193.7,70.6 193.2,70.9 192.7,71.1 C191.8,69.3 189.6,70.1 189.9,72 C189.2,72.9 187.4,73.1 186.6,74 C183.6,71.4 182.9,71.2 179.6,74.1 C178.9,74.7 176.9,74 176.3,74.7 C176,77.2 172.4,78.3 173.4,81.3 C171.8,84.8 168.5,80.7 170.7,78.7 C167.9,77.6 168.8,76.2 168.4,74.1 C167.6,72.8 165.1,72.4 165.5,70.6 C164.6,69.9 162.9,69.4 162.3,68.2 C162,67.5 163.3,68.3 163.5,68.2 C164,68.1 163.8,67.4 163.5,67.2 C163.5,67 163.6,65.9 163.1,65.9 C161.3,66.4 158.8,66.1 159.2,63.6 C159.9,63.5 160.3,62.7 160.1,62.1 C155.4,62.8 158,61.8 154.3,58.7 C153.9,56.9 156,55.9 154.7,54.4 C154.5,54.6 153.8,54.2 153.6,54.7 C152.3,51 151.2,57.8 148.4,53.6 C147.3,52.2 147.9,49.8 146.1,48.8 C143.1,49.1 143.8,48.6 144.5,46.6 C143.6,45 142.2,45.9 140.9,45.6 C140.7,45.5 139.6,43.4 139,43.9 C138.5,42.5 136.4,44.7 135.5,44.9 C134.2,44.6 132.8,43.2 131.6,43 C131,39.8 128.2,40.9 126.4,39.3 C125.6,39.5 124.3,38.8 124.4,37.9 C123.3,36.7 121.2,36.6 119.8,35.9 C118.9,35 117,31.8 115.2,32.4 C113.6,31.3 111,29.6 109,30.2 C106.7,28 103.2,28.6 100.9,26.5 C95.8,26.7 89.4,27 84.1,27.9 C81.2,30.7 77.6,32.3 73.9,33.1 C72.3,34.5 71,36.7 70.4,38.7 C69,38.4 68.5,40.4 68.3,41.3 C65.7,44.2 64.3,49 64.7,52.9 C65.4,53.8 65.3,55.7 65.7,56.8 C68,59 68.3,63.2 70.5,65.3 C73.8,65.4 75.1,67.8 76.3,70.4 C77.2,71.3 82.5,76 83.5,77.2 C85.3,79.6 86,82.4 83.8,84.9 C83.1,89.1 81,93.3 83,97.5 C85,102.4 87.9,107.1 91.4,110.8 C92.5,113.5 94.2,115.9 95.6,118.4 C96.8,118.7 98.9,119.3 99.6,120.4 C100,124.2 101.4,123.8 104.2,124.7 C106,125.4 109.7,126.2 110.8,127.7 C112.9,129.5 115.3,131.4 116.1,134.3 C118.1,136.5 118.1,138.6 121.6,137.4 C124.6,135.9 127,136.3 128.9,138.5 C129.6,136.6 131,136.7 131.8,138.9 C133.2,138.8 134.8,137.8 135.8,139.5 C136.4,139.5 138.5,139.3 138.8,139.9 C141.8,140.7 139.4,136.4 139.5,135.2 C141.5,135.4 144.2,135.1 145.1,132.9 C145.9,132.8 145.8,133.5 145.9,134 C146.9,134.1 145.9,135.2 146.2,135.9 C148,138 149.5,140.6 145.4,140.5 C144.5,141 145.4,141.9 145.2,142.8 C146,143.8 147.4,143.2 147.7,144.3 C149.1,144.3 149.3,146.6 150.9,146.6 C148.4,149.1 150.4,150.1 150.9,153 C152.3,152.1 153.9,153.9 155.2,153.3 C157.8,152.8 156.5,154.1 157.9,155.3 C158.7,155.5 159.2,156.5 159,157.3 C158.4,156.4 157.9,155.8 156.7,155.9 C153.5,158.1 158.1,156.3 157.5,158.3 C156.2,158.5 153.7,159.7 153.3,161.3 C152.7,158.6 149.9,161.8 149.7,162.9 C148.3,162.9 149,161.8 148.4,161.3 C144.5,160.4 145.7,163.9 144.2,162 L143.1,162 C145.2,159.2 138.1,161.7 138.6,158.6 C141.1,158.1 141,157 140.9,154.7 C139.1,153.3 137.9,157.3 135.6,156.4 C136.2,155.7 136.3,154.3 136.2,153.5 C135.1,152.3 134.2,151.4 133.9,153.8 C133,154.4 134.2,155.2 133.9,156.1 C130.5,157.2 131.2,155.2 129.6,160.4 C127.8,162.5 125.8,157.8 122.7,162.3 C121.6,162.9 119.2,163.9 120.1,165.6 C119.7,165.6 119.1,166.1 119.4,166.6 C117,166.4 116.5,170.3 116.5,171.9 C116.1,172.2 115.1,173.2 115.5,173.8 C117.5,175 122.4,173.3 121.7,177.1 C119.6,176.4 118.6,180.2 120.5,180.8 C125.6,179.6 123.5,184.8 122.4,187.4 C123.2,189.7 125.2,190.2 127.4,189.6 C129.3,191.1 128.2,194.8 131.4,194.9 C135,196.5 138.1,192.4 138,188.9 C140.2,186.4 144.1,186.9 147,185.4 C147.9,185.2 149.1,185.5 149.3,186.5 C150,187.8 155.6,190.6 152.9,187.4 C153.4,185.8 154.2,185.6 154.9,187.1 C155.4,191.8 156.8,188.8 158.5,190 C159.9,190.4 160.9,189.9 159.9,188.4 C160.4,187.7 160,186.5 159.7,185.8 C161.9,188.4 161.5,188.5 162.8,184.8 C163.7,183.3 165.3,186.8 164.6,187.5 C163,188.8 167,191.2 168.5,188 C170.4,187.4 170.8,190.1 172.4,189.8 C173.4,191.7 175.5,190 176.8,190.7 C178.7,190.7 180.6,191.8 182.5,191.9 C184.1,190.9 187.9,191 188.3,188.5 C188.2,189.5 189.7,189.3 190.4,189.3 C191.1,190.2 190,191.3 190.4,192.3 C191.6,193.1 192.9,195.3 194.4,195.6 C194.9,196.7 195.5,198.4 196.7,196.5 C198.3,196.5 198.2,194.5 198.9,193.5 C200.4,191.8 202.1,190.3 204.1,189.4 C203.8,188.5 205.1,188.5 205.5,189 C206.2,188.8 209.1,188.8 209,190 C210.3,191.9 207.1,192.8 208.1,194.2 C206.9,194.5 206,192.6 205.4,194.6 C205.7,200.2 202.8,194.6 201.2,196.2 C201.3,198.9 203.8,201.6 200.9,203.8 C201,206.2 197.8,206.7 197.6,208.5 C202.9,212.3 198.4,210.1 201.5,214.4 C202.6,214.6 204.6,215.8 204,217.2 C205.4,217.8 207.6,218.9 209,217.8 C210.2,218.5 211.9,217.8 213,217.1 C212.5,214.8 214.7,213.8 215.5,212.2 C216.8,210.4 217.8,212.7 219.4,212.3 C220.6,210.9 219.2,209.9 217.7,210 C217.3,209.5 218.5,206.6 216.5,207.9 C216.4,207 216.1,207.1 215.4,207 C215.5,204.7 218.7,205.5 218.7,207.4 C221.3,208.4 221.8,205.5 221.7,203.5 C222.9,203.4 223,201.9 224.3,202.4 C225.4,200.8 225.8,197.9 225.6,195.9 C228.3,191.2 231,193.6 230.5,191.8 Z M227.6,197 C227.5,197.3 226.7,198.2 227.1,198.4 C228,198.9 228.8,197.3 227.6,197 Z M197.6,100.2 C198.2,101.3 199.3,102.5 200.2,101 C201.4,100.4 203.6,102.2 203.6,100.1 C202.1,98 199.2,98.7 197.4,98.3 C197,98.7 196.4,98.6 196,98.4 C195.3,99.2 196.7,100.4 197.6,100.2 Z M195.7,102.2 C194.8,101.9 193.8,102.9 194.8,103.6 C195.6,103.6 196.3,102.9 195.7,102.2 Z M196,104.5 C196.5,104.2 196.4,103.8 196,103.5 C195.3,103.6 194.8,104.7 196,104.5 Z M154.1,157.1 C154.4,156.9 154.5,156.3 154.2,156.2 C153.2,155.9 153,157.3 154.1,157.1 Z" id="Martinique"></path>
            </g>
        </g>
    </g>
</svg>