<?xml version="1.0" encoding="UTF-8"?>
<svg width="289px" height="210px" viewBox="0 0 289 210" version="1.1" xmlns="http://www.w3.org/2000/svg" xmlns:xlink="http://www.w3.org/1999/xlink">
    <title>nouvelle -caledonie</title>
    <g id="Page-1" stroke="none" stroke-width="1" fill="none" fill-rule="evenodd">
        <g id="Artboard" transform="translate(-6.000000, -47.000000)" fill="#D8D8D8" fill-rule="nonzero">
            <g id="cartes" transform="translate(0.000000, 20.000000)">
                <path d="M32.2,58.1 C30.6,56.1 31,52.7 29.2,57.2 C29.2,57.2 29.2,57.2 29.2,57.3 C29.2,58.4 29.9,60.6 31.4,59.6 C32,61.6 32.4,59.1 32.2,58.1 C32.3,58.2 32.2,58.1 32.2,58.1 Z M44,63.2 C44,63.2 44,63.3 44,63.2 C44.8,63.8 46.4,64.8 47.3,65.2 C50.2,66.6 44.9,60.3 44.1,59.1 C44.1,59.1 44.1,59.1 44,59.1 C43.1,59.2 43.8,62.6 44,63.2 Z M213,217.5 C212.9,217.5 212.9,217.5 213,217.5 C211,217.1 210.6,218.9 209.9,220.3 C208.8,221.7 210.8,222.1 211.8,222.1 C212.1,221.9 212.7,221.6 212.6,221.2 C212.3,221.1 211.1,221.3 211.4,220.6 C212.2,220.6 213,219.3 213.5,220 C213.5,220.1 213.6,220.1 213.7,220.1 C214.7,219.4 213.8,217.9 213,217.5 Z M186.4,106.8 C187.1,107.8 189.3,107 189.6,106 C188.6,105.9 183.7,105.9 186.4,106.8 Z M14.1,41.7 L14.1,41.7 C13.4,39.5 12.8,36.2 11.2,34.4 C9.9,33.3 9.4,34.8 10.8,35.3 C10.8,35.3 10.9,35.3 10.9,35.4 C11.2,38.2 11.5,42.1 13.2,44.7 C13.2,44.8 13.3,44.8 13.4,44.7 C14.6,43.9 15.4,43 14.1,41.7 Z M258.7,231.3 C257.1,229.2 254.6,226.4 251.6,227.5 C251.6,227.5 251.5,227.5 251.5,227.6 C250.6,229.3 251.3,232.7 250.7,234.5 C250.7,234.6 250.7,234.6 250.8,234.6 C255.8,236.5 257,238.1 257.2,231.8 C257.2,231.7 257.3,231.7 257.3,231.7 C258.3,231.8 258.3,233.8 259.3,234.1 C259.4,233.3 259.4,231.9 258.7,231.3 Z M249.8,132.6 C249.5,130.6 249.9,128.6 252.2,128.3 C252.3,128.3 252.3,128.2 252.3,128.1 C251.8,126.7 250.3,125.5 248.8,125.5 C248.1,125.4 247.5,124.6 247.6,123.9 C247.6,123.9 247.6,123.9 247.6,123.8 C248,122.7 248.9,122 247.9,121 C247.5,119.8 246.7,119.6 245.5,119.7 L245.5,119.7 C244.2,119.5 243.1,118.5 242.1,117.7 L242.1,117.7 C241.1,117.5 240.5,116.9 241,115.9 C243.7,112.1 238.4,111.2 242.5,105.7 C242.3,105.1 242,104.2 241.2,104.4 C239.4,103.5 234.4,99.7 233.9,103.8 L233.9,103.9 C232.9,105.2 231.3,104.3 230.2,103.8 L230.2,103.8 C227.7,103.8 225.3,105.5 225.8,108.2 C225.8,108.3 225.9,108.3 225.9,108.3 C230.8,107.1 238.9,109.2 232.6,114.8 C232.6,114.8 232.6,114.8 232.6,114.9 C231.4,118.4 227.7,118.7 224.5,118.2 C224.4,118.2 224.3,118.3 224.4,118.4 C225.3,120.1 228,121 226.9,123.2 L226.9,123.3 C227.1,124.2 228.7,124.1 228.9,125 C229.3,127.2 232.1,129.2 234.2,129.8 L234.2,129.8 C243.5,129.8 238.1,132.5 243,133 C243.6,133.1 243.9,134.8 244,135.3 L244,135.3 C246.3,136.4 250,136.3 249.8,132.6 Z M191.8,104.8 C196.3,105 198.8,100.7 200.4,97.1 C200.4,97 200.3,96.9 200.3,97 C197.3,97.9 196.6,95.4 197.7,93 C198.3,91.7 198.7,89.3 199.9,88.3 L200,88.3 C203.8,88.1 205.1,87.6 201,85.4 C201,85.4 200.9,85.4 200.9,85.3 C200.1,82.8 197.6,81.4 196.3,84.1 C196.3,84.2 196.3,84.3 196.4,84.3 C197.5,84 198.6,86.7 198.8,87.6 L198.8,87.7 C196.7,93.5 195.8,91.9 195.9,98.8 L195.9,98.9 C195,100.5 193.4,102.5 191.9,103.5 C190.8,103.7 191,104.1 191.8,104.8 Z M293.6,154.1 C287.1,157.8 281,155.3 284.1,147.8 C284.1,147.7 284,147.6 283.9,147.7 C278.2,151.3 281.2,151.8 274.6,150.2 C270.9,150.5 275.7,153 275.9,158.7 C275.9,158.7 275.9,158.7 275.9,158.8 C277,160.3 279.2,161.8 277.4,163.7 C277,164.3 275.6,164.6 276.1,165.4 C276.6,166.2 278.5,164.8 279.5,165.3 C284.4,165.8 280.6,168.1 284.6,169.3 C287.4,169.9 290.5,168.1 293,167.1 L293.1,167 C292.4,162.8 295.2,158.4 293.8,154.3 C293.8,154.1 293.7,154 293.6,154.1 Z M223.6,204 C222.6,201.2 219.8,202.2 221.3,200.6 C221.4,200.5 221.5,200.3 221.5,200.1 C222,194.5 214.8,192.2 210.2,191.5 C210,191.5 209.8,191.4 209.7,191.2 C208.2,189.4 209.8,190.1 207.1,189.3 C206.2,188.8 204.7,189.7 203.9,189.1 C203.8,188.3 207.9,187.8 205.2,186.9 C204.4,186.5 203.4,185.1 202.7,185.7 C202.4,186 202,186 201.7,185.8 C199.1,183.6 195.9,181.4 193.9,178.7 C193.7,178.3 191.8,177.5 192.9,177 C192.6,176.9 192,176.7 191.6,176.4 C191.5,176.3 191.4,176.2 191.3,176.1 C190.7,174.5 189.8,173.2 188.2,172.3 C188.1,172.2 188,172.1 187.9,171.9 C187.2,169.4 183.1,170.8 182.5,168.8 C182.5,168.5 182.1,168.2 181.9,168.1 C181.5,167 184,168.3 183.7,167.2 C180.3,166.1 175.1,164.9 173.1,161.6 C170.9,161.3 169,157.3 166.6,157.6 C166.5,157.6 166.3,157.7 166.2,157.8 C164.5,159 164.8,157.5 164.6,156.2 C164.5,155.9 164.3,155.7 164,155.6 C163.1,155.4 163.2,154.7 164.4,154.5 C164.2,153.4 162.5,153.8 161.6,153.5 C161.5,153.5 161.4,153.4 161.3,153.3 C158.4,149.4 156.1,150.6 159.1,155 C160.2,156.1 159.3,157.1 157.9,156.9 C159.2,156.1 155.9,155.1 155.7,154.7 C154.3,152.9 156.9,155.2 156.9,153.7 C156.2,152.6 155.5,150.2 154.4,148.6 C154,148.1 153.1,148.2 153.1,148.8 C153.1,149.1 152.9,149.4 152.7,149.7 C152.1,148.1 150.9,148.2 150.5,149 C150.3,149.4 149.6,149.3 149.4,148.8 C149.3,148.4 149.2,148 149.1,147.7 C149,147.5 148.9,147.2 148.6,147.2 C147,147.2 146.5,142.1 143.1,143.5 C142.8,143.6 142.5,143.5 142.3,143.3 C140.4,141.3 135.7,142.4 135.3,139 C135,137.7 133.5,137.6 132.7,136.7 C131.1,134.8 132.4,135.8 133.9,136.4 C134.6,136.7 135.2,135.9 134.7,135.3 C134.4,134.9 134.1,134.4 133.7,134.1 C133.4,134.1 131.7,131.9 131.5,132.7 C130.6,133.1 131,132.9 131.1,132.2 C131.1,131.1 128.5,132 126.9,129.8 C126.8,129.7 126.7,129.6 126.6,129.6 C121,127 121.7,124.7 122.7,119.7 C122.8,119.4 122.6,119.1 122.4,118.9 C121.3,118.3 119.1,118.3 117.8,118 C117.6,117.9 117.4,117.8 117.4,117.5 C117.1,116.6 116.2,115.9 115.4,115.5 C111.5,112.7 115.5,110.4 110.5,106.7 C109.9,106.3 109.4,106.4 108.9,106.6 C108.7,106.7 108.3,106.7 108.1,106.5 C106.8,105.5 102,104.8 100.7,104.5 C100.6,104.5 100.5,104.4 100.4,104.4 C98.4,102.8 95.9,100.8 93.3,101.1 C92.7,100.8 92.1,100.4 92.3,99.8 C92.4,99.5 92.3,99.3 92.1,99.1 C91.3,98.4 90.1,97.4 89.2,97.3 C89.1,97.3 89,97.2 88.9,97.1 C85.8,94.4 82.7,90.7 80.1,87.7 C79.4,86.7 77.7,86.4 76.7,85.9 C76.6,85.9 76.6,85.8 76.5,85.7 C74.8,83.7 71.8,83.3 70.1,81.3 C70,81.2 70,81.2 70,81.1 C67.6,75.7 58.5,72.4 53.3,70.7 C53.2,70.7 53,70.6 52.9,70.7 C51.4,71.3 53.6,75.5 54.3,76.5 C52.8,76.9 52.5,75.2 51.9,74.3 C51.7,74 51.3,73.9 50.9,74 C45.6,77 33.6,54.6 32.4,62 C32.4,62.2 32.4,62.4 32.6,62.6 C33,63.1 33.6,63.3 33.5,63.8 C33.4,64.4 33.8,64.9 34.4,64.7 C35.1,64.5 35.9,64.3 36.3,65.2 C36.9,66 36.8,67.1 36.1,67.6 C35.8,67.8 35.7,68.3 36,68.6 C36.4,69.2 36.8,69.8 36.9,70.3 C36.7,71.4 35.5,70.9 34.7,70.6 C34.5,70.5 34.3,70.6 34.1,70.7 C31.6,72.3 34.3,73.1 34.9,75 C37.8,76 36.6,72.8 38.1,72.6 C38.6,73 38.5,73.6 38.4,74.1 C38.3,74.5 38.5,75 39,75 C41.1,75.3 43.4,75.3 44.2,77.8 C45.3,85.1 38.6,78.3 41.8,83.2 C44.3,83.6 43.8,87.1 44.6,88.9 C44.9,90.2 48.4,92.2 49.6,93 C49.7,93 49.7,93.1 49.8,93.1 C50.2,93.6 50.2,94.5 51,94.1 C51.9,92.8 52.9,97.1 53.4,98.2 C53.5,98.4 53.6,98.4 53.8,98.5 C54.8,98.9 55.7,101.2 56.1,102.2 C56.1,102.3 56.2,102.4 56.3,102.4 C57.5,103.4 60.7,103.6 59.1,105.8 C58.1,106.6 55.9,105.2 57.3,107.1 C59.8,108.7 62.1,112.4 65.1,113.1 C65.3,113.2 65.5,113.3 65.6,113.5 C66.1,114.6 67,115.5 68.3,115.4 C68.4,115.4 68.6,115.4 68.7,115.5 C70.4,116.3 70.9,118.4 73.1,116.9 C72.7,118.5 74.3,118.1 75.3,118.8 C75.6,119.2 75.7,119.7 75.5,120 C75.2,120.7 75.3,121.5 76,121.8 C76.8,122.2 77.3,122.7 75.8,123.4 C75.3,123.5 78.9,129.5 78.8,128.5 C79.4,128 79.9,127.6 79.3,126.9 C80.8,125.5 81,127.2 81.8,128 C82.4,128 82.6,127.7 82.6,127.1 C83.3,126.6 84.4,126.6 83.5,127.6 C85.6,128.3 84.5,128.2 84.3,129.9 C87.3,128.4 85.5,133.2 86.5,134.8 C86.5,134.9 86.6,134.9 86.6,134.9 C87.7,135.9 91.1,140.8 92.4,142 C92.5,142.1 92.7,142.2 92.8,142.2 C94.5,142.3 93.5,143.6 93.4,144.7 C92.7,145.7 94.4,147.2 95.3,146.2 C95.9,145.5 95.6,144.6 95.7,143.8 C95.8,143.3 96.4,143.1 96.8,143.4 C97.4,143.8 97.9,144.3 97.9,144.9 C97.9,145.2 98.1,145.5 98.4,145.5 C98.9,145.5 99.3,145.6 99.7,145.9 C99.8,146 99.9,146.1 99.9,146.2 C100.1,147 99.4,148 98.7,148.5 C99.2,148.8 100,149 100.5,148.4 C101.1,147.6 101.1,148.5 101.3,148.9 C102,149.6 102.9,148.6 102.6,148 C103.2,147.5 104.6,147.4 104.6,148.4 C104,149.9 107,153.6 107.9,154.7 C108.1,155.6 109.1,155.1 109.7,155.4 C110.6,156.5 112.3,156.8 113.3,157.5 C113.5,157.6 113.6,157.9 113.6,158.1 C113.7,161.7 119.8,163.2 122.3,164.5 C123.8,165.1 125.1,163.7 126.6,163.4 C127.9,164 125.6,164.2 126.6,164.8 C129.6,165.2 125.2,165.9 129.2,168.4 C129.7,168.5 135.4,171.7 137.6,172.5 C138,172.6 138.4,172.5 138.5,172.1 C138.6,171.7 139.2,171.7 139.8,171.7 C140.3,171.9 140.4,172.5 140.3,173.1 C140.3,173.7 141,174.1 141.5,173.7 C142.8,172.6 143.8,170.1 143.8,172.3 C143.8,172.5 143.9,172.7 144,172.8 C144.9,174 146.1,175.1 145.6,176.8 C145.6,177.5 146,177.5 146.6,177.7 C146.4,177.2 146.4,176.7 146.8,176.2 C149.3,175.6 146.2,177.7 149.5,179.7 C150.6,181.5 147.9,178.5 148.7,180.8 C150.2,182.1 152.3,179.9 153.5,181.7 C154.8,182 155.9,183.3 156.5,184.6 C156.6,184.8 156.8,184.9 157,185 C158.3,185.4 159.6,186.4 160.2,187.6 C161.2,188.6 161.9,187.3 161.3,186.4 C164.2,187.2 163,185.5 163.8,183.8 C165.2,182.6 164.6,184.4 165.4,185.2 C165.7,185.4 165.7,185.8 165.5,186.1 C165.1,186.7 165.5,187.3 166.5,186.5 C172.9,187.5 167.2,191.3 171,191.9 C173,194.3 167,191.2 168.8,193.3 C171.3,193.5 170.6,197.5 168.6,194.9 C167.8,194.7 168.5,196 168,196.4 C167.3,196.9 168.7,197.4 169,197.7 C169,197.7 169.4,197.2 169.7,196.8 C169.9,196.5 170.3,196.4 170.6,196.6 C171.5,197 172.2,198 173.2,198 C176.3,200.7 172.6,200.3 177.8,202 C178.3,201.7 179.4,201.7 178.9,200.8 C180.2,201.8 181.8,199.7 181.5,201.1 C180.3,202.5 181.2,203 182.4,203.8 C182.7,204 182.8,204.4 182.6,204.8 C182.3,205.2 182.2,205.8 182.6,206.2 C183.8,205.6 183.5,204.8 184.7,204.2 C184.9,204.1 185.1,203.9 185.1,203.6 C185.2,202.3 186.3,202 187.6,202.4 C188.6,202 188,203.5 188,204.4 C188,204.8 188.3,205.1 188.7,205.1 C189.9,205.1 189.1,206 188.1,206.2 C187.4,206.4 185.1,205.4 186.6,206.9 C191,208.8 188.2,206.5 188.5,211.7 C190.1,212.3 189.8,211.7 189.7,211 C189.6,210.6 189.9,210.2 190.3,210.2 C192.1,210 191.6,208.7 192.7,207 C192.8,206.8 193.1,206.7 193.3,206.7 C198.9,206.8 194.7,208.5 196.7,209.6 C197.9,210.3 199.3,210.5 200.5,209.8 C200.8,209.7 201.1,209.7 201.4,210 C202.5,211.2 204,212.7 205.6,211.8 C206.1,212 205.9,212.6 205.8,213.1 C205.7,213.4 205.8,213.8 206.2,214 C206.6,214.2 206.9,214.2 207.3,214.2 C207.9,214.2 208.2,214.8 207.9,215.3 C207.2,216.3 209,217.7 210.5,217.4 C210.6,217.4 210.7,217.3 210.7,217.3 C211.5,216.8 211.8,216 212.8,216.6 C214.3,216.9 214.5,216.5 213.3,215.8 C213.1,215.7 212.9,215.5 212.9,215.2 C212.8,214.3 213.1,212.9 213.2,212.1 C213.4,211 214.3,210.7 214.8,211.8 C213.5,212.2 214.3,212.7 214.6,213.7 C215.6,216.4 216.1,211.1 216.6,213.5 C217.2,214.1 217.4,215.1 217.9,215.8 C218.1,216 218.3,216.1 218.6,216.1 C219.4,215.9 219.6,216.1 219.5,216.3 C219.2,216.8 219.7,217.5 220.3,217.2 C221.4,216.6 222.3,215.5 222.2,214.4 C224.6,212.6 223.4,215.2 224.8,213.2 C225.5,211.8 226.3,210.1 225.7,208.7 C225.6,208.4 225.6,207.9 225.9,207.8 C227.6,206.7 225.4,205.6 224.1,204.5 C223.7,204.1 223.6,204.1 223.6,204 Z M6.3,27.9 C5.8,27.8 6.3,32.6 7.7,32.7 C9.1,32.8 8,28.3 6.3,27.9 Z M21.6,60.4 C21.2,60.5 19.2,60.6 21,62.3 C22.8,64 23.7,66 23.6,64.6 C23.4,63.2 23.8,59.9 21.6,60.4 Z M145.2,176.8 C145.2,177.5 146.1,178.2 146.2,177.7 C146.2,177.7 146.3,176.5 146.4,176.2" id="nouvelle--caledonie"></path>
            </g>
        </g>
    </g>
</svg>