<?xml version="1.0" encoding="UTF-8"?>
<svg width="234px" height="206px" viewBox="0 0 234 206" version="1.1" xmlns="http://www.w3.org/2000/svg" xmlns:xlink="http://www.w3.org/1999/xlink">
    <title>reunion</title>
    <g id="Page-1" stroke="none" stroke-width="1" fill="none" fill-rule="evenodd">
        <g id="Artboard" transform="translate(-26.000000, -47.000000)" fill="#D8D8D8" fill-rule="nonzero">
            <g id="cartes" transform="translate(0.000000, 20.000000)">
                <path d="M40.4,122.3 C40.4,122.3 36.6,118.9 35.2,117.5 C33.8,116.2 29,111.5 28.5,109.3 C28.1,107.1 29.4,102 29.2,100.6 C29,99.3 26.5,96.5 26.6,95.2 C26.7,93.9 28.8,91.9 29.3,91.3 C29.7,90.7 33,87.4 33.5,86.2 C34,85 35.5,85.8 36.7,86.2 C37.9,86.6 40.7,85.9 42.9,84.5 C45.1,83.2 48.3,80.7 49.2,78.6 C50.1,76.5 51.3,70 51.1,68 C50.9,66 48.9,63.4 48.8,61.7 C48.7,60 50.1,58.6 50.4,57.3 C50.6,56 50.9,54.7 51.2,53.7 C51.5,52.7 51.2,51 51.2,49.9 C51.2,48.8 52.5,48 53.3,47.9 C54.1,47.8 55.1,50.3 57.5,50.3 C59.9,50.3 64.8,49.1 64.8,49.6 C64.8,50.1 62.7,50.5 63.4,50.9 C64.1,51.4 64,50.8 64.9,51.8 C65.8,52.8 67.3,52.4 67.2,51.5 C67.1,50.6 65.5,49.4 66.5,49.6 C67.5,49.8 70.8,48.5 70.8,48.5 C70.8,48.5 74.4,47.4 75.2,46.2 C76.1,45 75.2,43.8 77.2,42.6 C79.2,41.4 83.9,38.4 86.2,36.5 C88.5,34.6 92.6,30.9 93.6,30.5 C94.6,30.1 97.7,29.8 98.9,29.5 C100.1,29.2 101.5,27.1 103.8,27.9 C106.1,28.7 107.7,28.9 109.2,28.7 C110.7,28.5 111.2,26.8 112.8,27.1 C114.4,27.4 115.7,29.5 118.4,30.9 C121.1,32.3 125.1,32.7 127.8,32.5 C130.6,32.3 130.8,30.5 133,30.9 C135.2,31.3 137,32.9 141.4,33.1 C145.8,33.3 145.8,34.4 146.7,35 C147.6,35.6 149.7,36.4 151,36 C152.3,35.6 151,34.2 153.3,34.8 C155.6,35.4 158.6,34.8 160.1,35.5 C161.5,36.2 162.7,37.2 164,36.8 C165.3,36.5 165.3,36 167,36.6 C168.5,37.1 170.7,38.7 171.2,39.1 C171.3,39.2 171.4,39.2 171.5,39.3 C172.1,39.6 174.5,41 176,41.4 C177.8,42 182.1,41.6 183.9,42.5 C185.7,43.4 190.9,44.8 192.2,46.4 C193.5,48 194.9,49.5 196.3,51.3 C197.7,53.1 200,54.4 201,55.5 C202,56.6 202.3,59.7 203.9,61.3 C205.5,62.9 207,65.6 207.1,69.9 C207.2,74.2 206.8,80.2 207.8,82.6 C208.8,84.9 208.7,87.5 209.7,88.3 C210.7,89.1 212.3,88 213.6,89.4 C214.9,90.8 216.4,95 217.5,95.7 C218.6,96.5 219.3,95.7 219.2,97.1 C219.1,98.5 218.5,100.5 219.9,102.5 C221.2,104.5 228.7,112.4 229.5,113.8 C230.3,115.2 229.7,116 231.2,117.2 C232.6,118.4 235.4,120.9 236.6,123.8 C237.8,126.7 238.3,127.2 239.4,127.2 C240.5,127.2 242.5,126 244.2,127.2 C245.9,128.4 247.1,130.8 248.9,131.5 C250.7,132.3 253.2,131.7 254.6,133.5 C255.9,135.3 254.9,136.1 255.8,137.5 C256.7,138.9 258.9,139.7 258.5,141.2 C258.4,141.7 258.2,142 258.1,142.3 C257.8,142.9 257.6,143.6 257.8,144.2 C258,145.2 258.3,146.7 258.6,148 C259.2,150.2 259.8,149.9 258.6,150.3 C257.4,150.7 257.3,151.6 256.5,151.4 C255.7,151.2 255.7,150.3 255.7,150.3 C255.7,150.3 253.8,150.6 254.4,153.4 C255,156.2 256,157 254.3,158.5 C252.6,160.1 252.3,159.4 251.3,160.9 C250.3,162.5 249.1,165.3 248.6,167.3 C248.1,169.3 248.9,170.5 248.3,172.5 C247.6,174.5 247.7,174.9 247.2,176.8 C246.6,178.7 245.1,179.8 246.3,182.5 C247.5,185.2 245.7,186.3 246.6,187.8 C247.5,189.4 249.7,189.4 248.9,191.4 C248.1,193.4 247.6,192.8 247.5,195.8 C247.4,198.8 247.2,202.6 247.5,204.1 C247.8,205.6 249.4,208.2 249.1,209.3 C248.8,210.4 246.3,215.7 244.9,216.2 C243.5,216.7 240.1,219.4 239.2,220.1 C238.3,220.8 237.4,222.4 235.3,222.3 C233.2,222.2 230.4,220.5 229.2,221.3 C228,222.1 227.9,223.4 225.9,223.5 C223.9,223.6 221.7,222.6 219.9,223.5 C218.4,224.3 213.7,226 212.3,226.5 C212,226.6 211.8,226.6 211.5,226.7 C208.6,226.9 204.4,226.4 201.5,226.2 C199,226 199.8,228.7 198.3,229.4 C196.7,230.1 194,228.3 192.6,229.4 C191.2,230.5 190,233.8 188.6,232.4 C187.2,231 185,228.5 181.6,229.2 C178.2,229.9 177.7,231.2 175.4,230.9 C173.1,230.6 171.4,228.9 169.7,228 C168,227.1 167.6,224.7 165.9,225.2 C164.2,225.8 162.7,227.9 160.5,227.2 C158.3,226.5 159.3,225.8 157.2,225.8 C156.7,225.8 156.1,225.9 155.7,225.9 C154.3,226.1 152.8,225.6 151.7,224.6 C151.5,224.4 151.3,224.2 151,224.1 C149.3,223.1 148.5,222.7 146,221.8 C143.5,220.9 136.7,218.8 135.3,217.7 C133.9,216.6 130.5,216.7 129.2,217.1 C127.9,217.5 127.3,217.7 126.9,216.7 C126.7,216.2 126.1,215.6 125.7,215.3 C125.3,214.9 124.8,214.7 124.3,214.6 C123.2,214.4 121.2,214 119.6,213.5 C117.3,212.7 117,212.2 117.2,210.9 C117.3,209.7 117.4,209.2 116.1,208.6 C114.8,208 112.2,208.9 109.2,207.9 C106.2,206.9 102.3,205 101.2,203.5 C100.1,201.9 98.8,199.4 97.4,198.2 C96.1,197 93.3,193.1 85.3,191.8 C77.3,190.5 74.9,191.4 73.7,190.2 C72.6,189.1 70.6,188.1 71.1,186.9 C71.7,185.7 72.2,185.5 71.4,184.2 C70.6,183 71.8,181.9 69.4,180.3 C67,178.7 64.5,176.5 63.6,175.2 C62.7,173.9 59,172.3 57.8,171.4 C56.6,170.5 56.7,169.8 56.1,168.2 C55.5,166.6 53.8,164.2 53.4,162.4 C53.1,160.6 51.1,160.6 51.9,159.2 C52.7,157.8 53.9,153.9 53.9,150.4 C53.9,147 54,143.4 53.1,141.7 C52.2,140 49.2,138.8 48.3,138.3 C47.4,137.8 46.9,135.4 47.2,135.2 C47.5,135 47,131.3 45.6,129 C44.3,126.7 40.5,124.9 40.5,124.1 C40.5,123.3 41.1,122.9 40.4,122.3 Z" id="reunion"></path>
            </g>
        </g>
    </g>
</svg>