<?xml version="1.0" encoding="utf-8"?>
<!-- Generator: Adobe Illustrator 24.3.0, SVG Export Plug-In . SVG Version: 6.00 Build 0)  -->
<svg version="1.0" id="Calque_1" xmlns="http://www.w3.org/2000/svg" xmlns:xlink="http://www.w3.org/1999/xlink" x="0px" y="0px"
	 viewBox="0 0 305.7 297" enable-background="new 0 0 305.7 297" xml:space="preserve">
<g id="Réunion">
	<g id="Calque_7">
		<path fill="#7294A2" d="M17.44,142.33c0,0-3.78-3.44-5.22-4.78c-1.44-1.33-6.22-6-6.67-8.22c-0.44-2.22,0.89-7.33,0.67-8.67
			c-0.22-1.33-2.67-4.11-2.56-5.44s2.22-3.33,2.67-3.89c0.44-0.56,3.66-3.89,4.22-5.11s2-0.44,3.22,0s4-0.33,6.22-1.67
			c2.22-1.33,5.44-3.78,6.33-5.89c0.89-2.11,2.11-8.56,1.89-10.56s-2.22-4.56-2.33-6.33s1.33-3.11,1.56-4.44
			c0.22-1.33,0.5-2.56,0.8-3.56s0.03-2.67,0-3.78s1.31-1.89,2.08-2c0.78-0.11,1.78,2.44,4.22,2.44s7.33-1.22,7.33-0.67
			s-2.11,0.89-1.44,1.33C41.11,71.56,41,71,41.89,72s2.44,0.56,2.33-0.33s-1.67-2.11-0.67-1.89s4.33-1.11,4.33-1.11
			s3.56-1.11,4.44-2.33c0.89-1.22,0-2.44,2-3.56s6.67-4.22,9-6.11s6.44-5.56,7.44-6s4.11-0.67,5.33-1s2.56-2.44,4.89-1.56
			s3.89,1,5.44,0.78s2-1.89,3.56-1.56c1.56,0.33,2.89,2.44,5.56,3.78s6.67,1.78,9.44,1.56c2.78-0.22,3-2,5.22-1.56s4,2,8.44,2.22
			s4.44,1.33,5.33,1.89c0.89,0.56,3,1.44,4.33,1s0-1.78,2.33-1.22c2.33,0.56,5.33,0,6.78,0.67c1.44,0.67,2.56,1.67,3.89,1.33
			c1.33-0.33,1.33-0.78,3-0.22c1.46,0.49,3.68,2.07,4.21,2.47c0.09,0.07,0.18,0.12,0.28,0.18c0.62,0.35,2.98,1.66,4.51,2.13
			c1.78,0.56,6.11,0.22,7.89,1.11s7,2.33,8.33,3.89s2.67,3.11,4.11,4.89s3.67,3.11,4.67,4.22s1.33,4.22,2.89,5.78
			s3.11,4.33,3.22,8.56s-0.33,10.33,0.67,12.67c1,2.33,0.89,4.89,1.89,5.67s2.56-0.33,3.89,1.11s2.78,5.56,3.89,6.33
			c1.11,0.78,1.78,0,1.67,1.44s-0.67,3.44,0.67,5.44c1.33,2,8.78,9.89,9.56,11.33c0.78,1.44,0.22,2.22,1.67,3.44
			c1.44,1.22,4.22,3.67,5.44,6.56s1.67,3.44,2.78,3.44s3.11-1.22,4.78,0s2.89,3.56,4.67,4.33c1.78,0.78,4.33,0.22,5.67,2
			c1.33,1.78,0.33,2.56,1.22,4s3.11,2.22,2.67,3.67c-0.14,0.47-0.3,0.82-0.44,1.08c-0.33,0.6-0.46,1.28-0.34,1.95
			c0.19,1.01,0.49,2.47,0.84,3.75c0.61,2.22,1.17,1.89,0,2.33s-1.28,1.33-2.06,1.11s-0.78-1.11-0.78-1.11s-1.89,0.33-1.33,3.11
			c0.56,2.78,1.56,3.56-0.11,5.11c-1.67,1.56-2,0.89-3,2.44c-1,1.56-2.22,4.44-2.67,6.44s0.33,3.22-0.33,5.22
			c-0.67,2-0.56,2.44-1.11,4.33c-0.56,1.89-2.11,3-0.89,5.67s-0.56,3.78,0.33,5.33c0.89,1.56,3.11,1.56,2.33,3.56
			s-1.33,1.44-1.44,4.44s-0.33,6.78,0,8.33s1.89,4.11,1.56,5.22c-0.33,1.11-2.78,6.44-4.22,6.89s-4.78,3.22-5.67,3.89
			s-1.78,2.33-3.89,2.22s-4.89-1.78-6.11-1s-1.33,2.11-3.33,2.22s-4.22-0.89-6,0c-1.51,0.75-6.22,2.47-7.61,2.97
			c-0.26,0.09-0.52,0.15-0.8,0.17c-2.89,0.16-7.07-0.26-10.03-0.46c-2.53-0.17-1.68,2.54-3.23,3.21c-1.56,0.67-4.33-1.11-5.67,0
			s-2.56,4.44-4,3s-3.56-3.89-7-3.22s-3.89,2-6.22,1.67s-4-2-5.67-2.89s-2.11-3.33-3.78-2.78c-1.67,0.56-3.22,2.67-5.44,2
			s-1.22-1.44-3.33-1.44c-0.52,0-1.05,0.05-1.54,0.12c-1.44,0.21-2.86-0.3-3.96-1.26c-0.21-0.18-0.45-0.36-0.73-0.53
			c-1.67-1-2.52-1.44-5.04-2.33c-2.52-0.89-9.3-3-10.74-4.11s-4.78-1-6.11-0.56s-1.89,0.56-2.33-0.44
			c-0.24-0.53-0.76-1.07-1.19-1.45c-0.4-0.35-0.88-0.58-1.4-0.66c-1.06-0.18-3.09-0.56-4.73-1.11c-2.33-0.78-2.56-1.33-2.44-2.56
			c0.11-1.22,0.22-1.67-1.11-2.33s-3.89,0.33-6.89-0.67s-6.89-2.89-8-4.44c-1.11-1.56-2.44-4.11-3.78-5.33
			c-1.33-1.22-4.11-5.11-12.11-6.44s-10.44-0.44-11.56-1.56c-1.11-1.11-3.11-2.11-2.56-3.33c0.56-1.22,1.11-1.44,0.33-2.67
			c-0.78-1.22,0.44-2.33-2-3.89s-4.89-3.78-5.78-5.11s-4.56-2.89-5.78-3.78s-1.11-1.56-1.67-3.22s-2.33-4-2.67-5.78
			C30,181,28,181,28.78,179.56s2-5.33,2-8.78c0-3.44,0.11-7-0.78-8.67s-3.89-2.89-4.78-3.44s-1.44-2.89-1.11-3.11
			c0.33-0.22-0.22-3.89-1.56-6.22c-1.33-2.33-5.11-4.11-5.11-4.89S18.08,142.91,17.44,142.33z"/>
	</g>
	<g id="Calque_8">
		
			<linearGradient id="SVGID_1_" gradientUnits="userSpaceOnUse" x1="6.115" y1="380.8967" x2="21.565" y2="380.8967" gradientTransform="matrix(1 0 0 1 0 -262)">
			<stop  offset="0" style="stop-color:#FFFFFF"/>
			<stop  offset="0.5949" style="stop-color:#89BCCC"/>
		</linearGradient>
		
			<path fill="none" stroke="url(#SVGID_1_)" stroke-width="0.25" stroke-linecap="round" stroke-linejoin="round" stroke-miterlimit="10" d="
			M6.24,121.17c0,0,1.65-1,2.42-1.22c0.78-0.22,1.39,0.39,1.67,0s-0.5-0.61,0.67-1s1.78-0.44,1.94-0.89
			c0.17-0.44-0.39-0.83,0.56-0.83s1.72-0.33,2.44-0.56c0.72-0.22,0.72,0.39,1.5,0.72s1-0.33,1.39,0.33s1.5,2,2.61,2"/>
		
			<linearGradient id="SVGID_2_" gradientUnits="userSpaceOnUse" x1="74.8535" y1="331.69" x2="88.8766" y2="331.69" gradientTransform="matrix(1 0 0 1 0 -262)">
			<stop  offset="0.2974" style="stop-color:#89BCCC"/>
			<stop  offset="0.9744" style="stop-color:#FFFFFF"/>
		</linearGradient>
		
			<path fill="none" stroke="url(#SVGID_2_)" stroke-width="0.25" stroke-linecap="round" stroke-linejoin="round" stroke-miterlimit="10" d="
			M87.83,47.78c0,0,1.11,1.89,0.89,2.94c-0.22,1.06-1.5,2.5-1.5,3.39s-0.28,1.83-0.72,2.33s-0.56,0.39-0.44,1.22
			c0.11,0.83-1.56,1.61-1.33,2.11s0.33,0.94-0.33,1.44c0,0-1.28,0.67-2.28,1.72c-1,1.06-1.44,1.06-2.22,2.17
			c-0.78,1.11-2.44,2.5-2.44,4.06s0.78,1.61,0,2.5s-1,2.17-1,2.17c0.11,1.89-1.67,2.06-1.28,3.61c0.39,1.56,0.94,1.5,1.61,3.06
			s-0.17,2.28-0.83,3.94c-0.67,1.67-1.61,1.89-0.33,3.83s2.39,3.33,2.39,3.33"/>
		
			<path fill="none" stroke="#89BCCC" stroke-width="0.25" stroke-linecap="round" stroke-linejoin="round" stroke-miterlimit="10" d="
			M79.89,65.11c0,0,1.33,1.61,1.44,2.83s0.06,1.78-0.36,3.22s0.03,1.72,0,2.83s-1.37,0.44-0.34,1.28s1.7,2.22,1.7,2.22
			s1.22,0.17,2.17,1.44s1.56,2.17,1.56,2.17"/>
		
			<linearGradient id="SVGID_3_" gradientUnits="userSpaceOnUse" x1="100.194" y1="329.7195" x2="120.666" y2="341.539" gradientTransform="matrix(1 0 0 1 0 -262)">
			<stop  offset="0" style="stop-color:#FFFFFF"/>
			<stop  offset="0.5359" style="stop-color:#8EBECE"/>
			<stop  offset="0.7692" style="stop-color:#89BCCC"/>
		</linearGradient>
		
			<path fill="none" stroke="url(#SVGID_3_)" stroke-width="0.25" stroke-linecap="round" stroke-linejoin="round" stroke-miterlimit="10" d="
			M110.28,50.5c0,0-0.33,2.28,0,3.06c0.33,0.78,0.83,0.56,0.72,1.83s0.02,3.33,0.02,3.33s-0.52,2.06,0.87,4.28
			c1.39,2.22,1.72,2.83,1.94,3.56c0.22,0.72,1.72,2,1.72,2s0.83-0.22,1.28,1.14c0.44,1.36,0.89,1.19,0.67,2.42
			c-0.22,1.22-0.61,2.44-0.67,3.44s0.73,3.06,0.73,3.06s-0.56,1.89-0.39,3.5s0.22,2.06-0.28,3.17s-0.5,1.11-0.5,1.11
			s-0.72,0.44-0.94,0.89c-0.22,0.44-0.56,0.33-0.39,0.89s0.39,0.44-0.56,1.39s-1.22,1.06-1.67,2.06s-0.5,0.61-0.72,1.28
			s-0.33,1-0.33,1s-0.06-0.39-0.39,0.39s-1.5,1.11-1.5,2.06"/>
		
			<path fill="none" stroke="#89BCCC" stroke-width="0.25" stroke-linecap="round" stroke-linejoin="round" stroke-miterlimit="10" d="
			M115.56,68.56c-0.17,0.28,0.11,1.94,0.39,2.78c0.28,0.83,0.89,1.67,0.28,2.39s-0.89,1.28-1,1.89s-0.61-0.22-0.94,1.44
			c-0.33,1.67-0.55,3.5-0.55,3.5s-0.67-0.61-0.22,1.06c0.44,1.66,0.61,2,0.56,2.55c-0.06,0.56-0.33,0.61,0,1.11s0.22,2.11,0.22,2.11
			s-0.61,0.72-0.55,1.17C113.8,89,111.41,93,111.41,93s-0.72-0.94-0.72,0s0,1.56-0.22,1.67s-1.44,2.72-1.78,3"/>
		<path fill="none" stroke="#FFFFFF" stroke-width="0.25" stroke-miterlimit="10" d="M74.45,218.89c0,0,2.44-1.56,3.03-2
			s1.56-1.33,2.37-1.33S85,215.5,85,215.5"/>
		<path fill="none" stroke="#FFFFFF" stroke-width="0.25" stroke-miterlimit="10" d="M72.59,217.19c0,0,2.07-0.9,3.33-1.27
			c1.26-0.37,2.37-0.96,3.04-1.11s2.07-0.3,3.93,0c1.85,0.3,3.56,0.22,3.56,0.22"/>
		
			<path fill="none" stroke="#89BCCC" stroke-width="0.25" stroke-linecap="round" stroke-linejoin="round" stroke-miterlimit="10" d="
			M92.59,211.7c0,0,1.11-1.18,0.96-2s-0.12-1.11,0.01-2s-0.49-1.63-0.49-1.63s0.33-0.59,0.92-0.59s1.56,0.3,1.56-0.81s0-1.56,0-2.52
			s0.59-0.81,0.37-1.63c-0.22-0.81-0.44-1.11-0.81-1.48c-0.37-0.37,0.74-1.33,0.44-1.93s-2.96-1.33-2.59-2.44s1.32-2.89,1.32-2.89
			s0.88-2.96,0-4.3c-0.88-1.33-1.99-0.22-1.25-1.56c0.74-1.33,1.38-1.41,1.25-2.81c-0.14-1.41-0.43-1.48-1.03-1.56
			c-0.59-0.07-2.96-3.33-2.3-4.59c0.67-1.26,1.85,0.44,1.04-1.33c-0.81-1.78-0.83-2.57-1.15-2.88c-0.33-0.31-1.22,0.29-1.59-0.9
			c-0.37-1.19,0.37-1.19,0.52-1.7s0.3-0.67,0.22-1.26s-0.58-1.63-0.84-1.7c-0.27-0.07-0.42-2.69-0.93-2.72
			c-0.52-0.02-1.85,2.05-3.11,0.64s-1.11-3.19-1.26-3.85c-0.15-0.67,0.59-1.11,0.52-2.3s0.74-1.7-0.22-1.93
			c-0.96-0.22-2.74,0-2.74,0"/>
		
			<path fill="none" stroke="#89BCCC" stroke-width="0.25" stroke-linecap="round" stroke-linejoin="round" stroke-miterlimit="10" d="
			M166.67,212.07c0,0,1.03-0.96,1.99-0.96s1.7,0.07,1.7,0.07l0.67-0.81l0.3-0.44c0,0,1.04,0.07,1.41,0
			c0.37-0.07,1.33-0.59,1.33-0.59"/>
		
			<linearGradient id="SVGID_4_" gradientUnits="userSpaceOnUse" x1="179.485" y1="422.255" x2="212.055" y2="422.255" gradientTransform="matrix(1 0 0 1 0 -262)">
			<stop  offset="0.2513" style="stop-color:#89BCCC"/>
			<stop  offset="1" style="stop-color:#FFFFFF"/>
		</linearGradient>
		
			<path fill="none" stroke="url(#SVGID_4_)" stroke-width="0.25" stroke-linecap="round" stroke-linejoin="round" stroke-miterlimit="10" d="
			M211.93,139.7c0,0-0.89,1.56-2.07,2.07c-1.19,0.52-4.3,1.48-4.96,1.93c-0.67,0.44-1.56,1.7-1.93,2.37s-0.67,1.19-1.04,1.63
			s-0.67,0.81-1.19,1.26c-0.52,0.44-0.44,1.26-0.52,1.7c-0.07,0.44-1.48-0.44-0.67,1.33s1.41,1.93,1.41,1.93s1.56-0.37,1.33,0.37
			c-0.22,0.74-1.33,1.48-1.48,1.93c-0.15,0.44,0.22,1.48-0.3,1.78s-1.62,1.63-1.22,1.93c0.4,0.3,1.36-0.07,1.51,0.74
			c0.15,0.81,0.07,1.48-0.52,1.78s-0.52,1.19-0.52,1.19s-1.85-1.33-1.33,0s-0.09,2.07-0.09,2.07s0.39-0.15-0.87,0.44
			s-1.78,0.52-2.07,0.07c-0.3-0.44-0.07-0.96-0.81,0c-0.74,0.96-2.22,1.11-2.22,1.11l-1.04,1.26c0,0-0.52,2.3-0.67,3.11
			s-0.96,2.52-2.3,3.93c-1.33,1.41-1.48,2.22-2.67,2.81s-0.59-0.15-1.78,0s-4.3,2.37-4.3,2.37"/>
		
			<path fill="none" stroke="#89BCCC" stroke-width="0.25" stroke-linecap="round" stroke-linejoin="round" stroke-miterlimit="10" d="
			M191.33,168.59c0,0-0.22-1.63-0.89-0.59s-0.81,1.26-1.33,1.19c-0.52-0.07-0.89-1.75-1.33-1.06s-0.81,0.84-1.04,2.69
			c-0.22,1.85-1.04,3.19-1.41,3.63c-0.37,0.44-1.93,1.04-2.67,1.48s-2.22,0.67-2.22,0.67"/>
		
			<linearGradient id="SVGID_5_" gradientUnits="userSpaceOnUse" x1="144.625" y1="391.2856" x2="191.455" y2="391.2856" gradientTransform="matrix(1 0 0 1 0 -262)">
			<stop  offset="0.2462" style="stop-color:#89BCCC"/>
			<stop  offset="1" style="stop-color:#FFFFFF"/>
		</linearGradient>
		
			<path fill="none" stroke="url(#SVGID_5_)" stroke-width="0.25" stroke-linecap="round" stroke-linejoin="round" stroke-miterlimit="10" d="
			M191.33,110.02c0,0-1.33,1.1-1.89,2.54s-0.56,2-0.56,2s-2.56,0.67-3,1.44s-0.78,1.67-1.44,0.89c-0.67-0.78-1.44-1.44-2.56-2.33
			c-1.11-0.89-2.44-1.33-3.56-1c-1.11,0.33-2.78,0.67-2.78,0.67s-2.44-1.46-3.44-0.62s-1.67,1.4-1.44,2.51
			c0.22,1.11,0.11,1.67-0.56,2.33c-0.67,0.67-0.33-0.78-2.56,2.11c-2.22,2.89-3.89,4.56-4.22,4.78s-0.89-0.17-1.33,0.86
			s-0.56,1.7-0.56,1.7s-1.44-0.56-0.78,0.56c0.67,1.11-0.68,1.33-0.18,2.11c0.51,0.78,0.92,1.33-0.12,2.22s-2.15,0.89-2.93,1.67
			s-1.89,2.11-2.22,1.89s-0.56-1-2,0.11s-0.89-1-1.44,1.11c-0.56,2.11,0.67,2.26-1.56,3.41c-2.22,1.15-2.56,2.48-2.56,3.04
			s0.78,1.44,0,2.33s-1.56,2.44-2.22,2.17s-0.67-0.28-0.67-0.28"/>
		
			<path fill="none" stroke="#89BCCC" stroke-width="0.25" stroke-linecap="round" stroke-linejoin="round" stroke-miterlimit="10" d="
			M152,136.74c0,0-2.22,2.93-2.78,2.59c-0.56-0.33-0.67-0.33-1.89,0s-1.56,1.63-1.56,1.63s-0.89,2.04-1.89,3.04
			s-1.11,1.33-1.44,1.67c-0.33,0.33,0.22-0.56-2.11,0.78c-2.33,1.33-3.22,2.44-4.33,2.89s-2,0.31-2.44,0.93s-1.56-0.38-1.89-0.71"/>
		
			<path fill="none" stroke="#89BCCC" stroke-width="0.25" stroke-linecap="round" stroke-linejoin="round" stroke-miterlimit="10" d="
			M153.22,136.44c0,0,0.22-2-2-1s-4.11,0.22-5.11,1s-2.11,2.11-2.44,2s-1.22-1.32-2.22,0.01s-0.11,0.7-2.78,2.51
			s-2.44,1.81-3.44,2.37s-1.67,1.78-3,0s-1.41-2.37-1.41-2.37s-3.42,2.67-5.06,3.3s-2.16-0.93-2.9,0.4
			c-0.74,1.33-1.35,2.33-2.16,2.33s-2.25-0.33-2.25-0.33"/>
		
			<linearGradient id="SVGID_6_" gradientUnits="userSpaceOnUse" x1="122.725" y1="341.2725" x2="152.735" y2="341.2725" gradientTransform="matrix(1 0 0 1 0 -262)">
			<stop  offset="0.3333" style="stop-color:#89BCCC"/>
			<stop  offset="1" style="stop-color:#FFFFFF"/>
		</linearGradient>
		
			<path fill="none" stroke="url(#SVGID_6_)" stroke-width="0.25" stroke-linecap="round" stroke-linejoin="round" stroke-miterlimit="10" d="
			M122.85,97.67c0.19-2.11,2.04-4,2.48-4.89s2.11-1,2.67-2.06s0.78-0.28,2.33,0s1.78,0.89,1.78,0.89s0.67-0.83,1.78-2.17
			c1.11-1.33,0.67-1.44,1.44-2.44c0.78-1,2.67-3.89,3-5.39s2.67-4.84,3-5.28s0-2,0.5-3.22s0.61-1.33,1.05-1.78
			c0.44-0.44,1.44-1.64,1.44-1.64s1.67-1.81,2.78-2.64c1.11-0.84,2.22-0.38,2.56-0.61c0.33-0.22,2.95-5.15,2.95-5.15
			c-0.61,0.59-1.72,1.26-2.06,0.48s-0.44-1.3-0.89-0.48c-0.44,0.82,0.11,1.15,0.33,1.48c0.22,0.33,1.37,0.82,1.37,0.82"/>
		
			<path fill="none" stroke="#89BCCC" stroke-width="0.25" stroke-linecap="round" stroke-linejoin="round" stroke-miterlimit="10" d="
			M134,87.67c0,0-3.56,1.33-4.44,1.44c-0.89,0.11-0.89-1.33-1.89,0S126,90,125.11,90.72s-2.56,2.5-2.56,2.5s-0.67,1.87-1.89,1.99
			c-1.22,0.12-3.11,1.79-3.11,1.79"/>
		
			<linearGradient id="SVGID_7_" gradientUnits="userSpaceOnUse" x1="136.425" y1="338.085" x2="159.3555" y2="338.085" gradientTransform="matrix(1 0 0 1 0 -262)">
			<stop  offset="0.2513" style="stop-color:#89BCCC"/>
			<stop  offset="1" style="stop-color:#FFFFFF"/>
		</linearGradient>
		
			<path fill="none" stroke="url(#SVGID_7_)" stroke-width="0.25" stroke-linecap="round" stroke-linejoin="round" stroke-miterlimit="10" d="
			M157.56,61.44c0,0-0.11,5.1,0,5.61c0.11,0.5-0.11,1.67,0.44,2.64s1.33,2.19,1.22,2.31c-0.11,0.11-1.05,0.61-1.47,1.42
			s-0.86-0.08-1.09,1.25c-0.22,1.33,0,1-1.22,1.33s-1.21,0-2.22,0.89s-1.01,0.89-1.01,0.89s-2.33,0.66-3.22,1.5s-1,1.73-3.33,2.34
			c-2.33,0.61-3,1.08-3,1.08l-1.33,1.75c0,0-1.22,3.89-2.56,5c-1.33,1.11-2.22,1.28-2.22,1.28"/>
		
			<linearGradient id="SVGID_8_" gradientUnits="userSpaceOnUse" x1="143.525" y1="340.9979" x2="164.2748" y2="340.9979" gradientTransform="matrix(1 0 0 1 0 -262)">
			<stop  offset="0.2513" style="stop-color:#89BCCC"/>
			<stop  offset="1" style="stop-color:#FFFFFF"/>
		</linearGradient>
		
			<path fill="none" stroke="url(#SVGID_8_)" stroke-width="0.25" stroke-linecap="round" stroke-linejoin="round" stroke-miterlimit="10" d="
			M157.61,68.12c0,0,0.19-1.01,1.62,0.43s3.1,1.89,3.54,2.33c0.44,0.44,2,1.39,1.11,2.53s0.22-0.08-0.89,1.14s-2.78,2.89-2.78,2.89
			s-0.76,1-0.99,1.33s-0.91,0.22-1.62,1s-0.94,0.89-1.28,0.78c-0.33-0.11-0.89-2.67-1.67-1.28s-4.33,3.42-4.33,3.42
			s-0.67,1.86-1.56,2.64s-2.22,2.33-2.22,2.33l-0.11,0.67c0,0-2.78,1-2.78,1.89"/>
		
			<linearGradient id="SVGID_9_" gradientUnits="userSpaceOnUse" x1="150.985" y1="375.73" x2="186.015" y2="375.73" gradientTransform="matrix(1 0 0 1 0 -262)">
			<stop  offset="0.2462" style="stop-color:#89BCCC"/>
			<stop  offset="1" style="stop-color:#FFFFFF"/>
		</linearGradient>
		
			<path fill="none" stroke="url(#SVGID_9_)" stroke-width="0.25" stroke-linecap="round" stroke-linejoin="round" stroke-miterlimit="10" d="
			M185.89,99c0,0-2.78,1.44-3.33,1.44s-0.78-0.67-1.22-0.39s-0.22,1.06-1,1.17s-3.56,0.53-3.56,0.53s-1.22-0.2-2,1.14
			c-0.78,1.33,1.67,2,0,2.11s-3.22-2.33-2.44,0s2.11,3.34,1.22,4.45s-2.78,1.78-3.44,2.11c-0.67,0.33-0.89,1.22-2.06,2.22
			s-2.52,2.11-3.9,4.17c-1.38,2.06-2.05,2.72-2.71,2.39c-0.67-0.33-0.78-0.56-1.22-0.11c-0.44,0.44-2.78,1.56-2.78,1.56
			s-0.56,1.25-1,1.12c-0.44-0.12-1.33-0.54-1.56,0c-0.22,0.54-1.77,4.1-2.28,4.88c-0.51,0.78-0.39,0.22-1.5,0.67"/>
		
			<path fill="none" stroke="#89BCCC" stroke-width="0.25" stroke-linecap="round" stroke-linejoin="round" stroke-miterlimit="10" d="
			M169.21,112.49c0,0,0.12-1.49-1.66-1.16c-1.78,0.33-2.57,0.89-3.4,0.56c-0.83-0.33-0.49-0.55-1.83,0
			c-1.33,0.55-3.89,2.17-3.89,2.17s-0.11-0.17-2.22,0s-2.55-0.61-3.61,1.06s-1.61,3-1.5,3.44s-0.1,1.11-1.1,2.44
			s-2.33,2.94-4.44,5.19"/>
		
			<path fill="none" stroke="#89BCCC" stroke-width="0.25" stroke-linecap="round" stroke-linejoin="round" stroke-miterlimit="10" d="
			M151.43,117.28c-0.05,0.12-1.32-0.95-2.32,0s-2,0.65-2.89,1.46c-0.89,0.82,0-0.18-1.89,1.04s-2.56,1.78-3.44,2.56
			s-2.33,2.56-4.33,2.89"/>
		
			<path fill="none" stroke="#89BCCC" stroke-width="0.25" stroke-linecap="round" stroke-linejoin="round" stroke-miterlimit="10" d="
			M151.11,118.56c0,0-0.78-0.78-1.78,0s-2.56,2.1-3.11,2.5c-0.56,0.39-0.67,0.86-2.56,1.85s-3.11,1.43-4.78,2.32s-2.44-0.5-4,0.97"
			/>
		
			<linearGradient id="SVGID_10_" gradientUnits="userSpaceOnUse" x1="153.795" y1="360.8509" x2="179.755" y2="360.8509" gradientTransform="matrix(1 0 0 1 0 -262)">
			<stop  offset="0.2462" style="stop-color:#89BCCC"/>
			<stop  offset="1" style="stop-color:#FFFFFF"/>
		</linearGradient>
		
			<path fill="none" stroke="url(#SVGID_10_)" stroke-width="0.25" stroke-linecap="round" stroke-linejoin="round" stroke-miterlimit="10" d="
			M179.63,101.33c-0.35,0.05-2.19-0.77-3.07-1.66c-0.89-0.89-1.78-0.44-2.22-0.67s-2.78-2.78-4-2.67s-1.56,0.78-3.33,0
			s-2.13-2.67-2.84-2.22c-0.71,0.44-6.49,4-8.16,6.11s-1.84,2.67-2.09,3.44"/>
		
			<linearGradient id="SVGID_11_" gradientUnits="userSpaceOnUse" x1="136.455" y1="368.4428" x2="184.125" y2="368.4428" gradientTransform="matrix(1 0 0 1 0 -262)">
			<stop  offset="0.2462" style="stop-color:#89BCCC"/>
			<stop  offset="1" style="stop-color:#FFFFFF"/>
		</linearGradient>
		
			<path fill="none" stroke="url(#SVGID_11_)" stroke-width="0.25" stroke-linecap="round" stroke-linejoin="round" stroke-miterlimit="10" d="
			M184,92.33c-0.11-0.22,0.11-0.33-2.22-0.72s-3.33,0.17-4.22,0s0-0.72-2.22-0.89s-2.11-0.06-4.33,0s-3,0.06-3.44-0.5s0.54-1-0.78-1
			c-1.33,0-2.22-1-4.77,0s-4.11,3.11-5.33,4.22s-0.11,1.55-1.22,2.66s-4.36,3.12-4.01,4.34s2.24-0.33,1.18,1.78
			c-1.06,2.11-1.42,2.44-1.18,3.22s0.9,0.59-0.32,2.85s-1.56,3.59-2.67,3.71s-2.78,0.33-2.89,1.11s-9,11-9,11"/>
		<path fill="none" stroke="#FFFFFF" stroke-width="0.25" stroke-miterlimit="10" d="M184.32,88.35c-0.01-0.06-1.65,0.76-3.43,0.98
			s-4.56,1.39-4.56,1.39s1,0,0,0"/>
		<path fill="none" stroke="#FFFFFF" stroke-width="0.25" stroke-miterlimit="10" d="M184.32,86.22c0,0-3.06,1.68-3.99,2.56
			s-3.99,1.94-3.99,1.94"/>
		
			<path fill="none" stroke="#89BCCC" stroke-width="0.25" stroke-linecap="round" stroke-linejoin="round" stroke-miterlimit="10" d="
			M155.56,95.21c0,0-1.77-1.55-2.94-0.44s-1.84,2-3.28,2.89s-3.78,1.33-4.56,1.33s-4.11,0-4.11,0s1.33-0.56,0-0.89
			s-1.65-2.56-2.93-0.44c-1.29,2.11-1.62,2.33-2.84,2.78c-1.22,0.44-1.56-0.11-2.56,0.67c0,0-0.11,2.56-1.67,2.56s-3.11-0.44-4.89,0
			s-2.56,0.22-3.78,0s0.18-1.67-2.02,0s-2.98,2.78-3.98,2.78s-0.33-1.78-2.28-1.11s-3.5,2.7-4.45,2.96
			c-0.94,0.26-0.5-0.18-1.83,0.59c-1.33,0.78-1.28,2-2.2,0.56s0.3-2.36-1.14-2.4s-0.77-0.51-3.11,0c-2.33,0.51-2.89,0.32-3.56,1.25"
			/>
		
			<path fill="none" stroke="#89BCCC" stroke-width="0.25" stroke-linecap="round" stroke-linejoin="round" stroke-miterlimit="10" d="
			M107.44,108.89c0,0-0.89,0.79-0.78,2.4c0.11,1.6,0.44,2.6-0.67,2.77s-3.11,1.06-3.33,1.5s-1.33,2.53-1.67,2.65
			s-1.11-0.4-1.22,0.53s-0.84,1.93-0.84,1.93s-1.16,1.51-1.49,1.54c-0.33,0.02-0.96,1.58-1.81,1.46c-0.85-0.11-1.52-0.77-1.52-0.77"
			/>
		
			<path fill="none" stroke="#89BCCC" stroke-width="0.25" stroke-linecap="round" stroke-linejoin="round" stroke-miterlimit="10" d="
			M128.78,103.67c0.19-0.11-0.11,1.89-1.22,2.78s-2.78,1.67-3,2.44c-0.22,0.78-0.44,2.11-1,2.89s0.11,3-1,2.78s-1.6-0.75-2.58,0.02
			c-0.98,0.76-2.54,2.08-4.2,2.31c-1.67,0.23-1.96-0.45-3.2,0c-1.24,0.45-1.24-0.13-2.02,1.33s-1.56,2.56-1.89,2.84
			s-0.89-2.61-1.22,0s0.33,3.73,0.67,4.17c0.33,0.44,1.44-2.06,1.78,0.97c0.33,3.03,2.33,3.7,1.89,5.03s-0.33,2.44-0.89,3.22
			s-1.61,1.33-1.61,1.33"/>
		
			<path fill="none" stroke="#89BCCC" stroke-width="0.25" stroke-linecap="round" stroke-linejoin="round" stroke-miterlimit="10" d="
			M122.56,114.56c0,0,0.78,1-0.44,2.78s-2.13,3.72-2.13,3.72s-2.53,1.4-2.42,2.62s0.52,1.49,0.53,2.52s0.35,3.7,0.35,3.7
			s-0.77,1-0.89,1.89c-0.11,0.89,0.55,1.22,0,1.44"/>
		
			<path fill="none" stroke="#89BCCC" stroke-width="0.25" stroke-linecap="round" stroke-linejoin="round" stroke-miterlimit="10" d="
			M140.67,99c0,0,0.33,1.11-0.78,1.78s-2.67,0.17-3.33,0.98s-0.33,0.9-1.22,1.91c-0.89,1,0.22,1.12-1.33,1.67
			c-1.56,0.56-2.56-0.33-2.33,0.56c0.22,0.89-0.56,2.46-1.11,4.23c-0.56,1.77-0.89,2.99-1.22,3.33c-0.33,0.33-0.22-0.67-1.67,0.61
			s-2.33,3.89-2.33,3.89s-0.44,2.94-0.89,3.11c-0.44,0.17-1.22-0.87-1.11,1.15c0.11,2.02,1.56,3.35,0.44,4.46
			c-1.11,1.11-1.22,1.56-1.89,1.78s-3.44,2.22-3.44,2.22l-0.89,1.11"/>
		
			<path fill="none" stroke="#89BCCC" stroke-width="0.25" stroke-linecap="round" stroke-linejoin="round" stroke-miterlimit="10" d="
			M129.33,113.44c0,0,0.67,1,1.56,1.11s1.89-0.22,1.44,1.73s0.22,2.39-0.67,3.05c-0.89,0.67-1.22,1.1-0.78,1.72
			c0.45,0.61,1.33,0.86,0.78,1.85s-0.78,1.77-0.78,1.77s-0.33,1.33-2.06,2.56s-3.39-0.11-3.83,1.22"/>
		
			<linearGradient id="SVGID_12_" gradientUnits="userSpaceOnUse" x1="25.205" y1="371.4513" x2="94.245" y2="371.4513" gradientTransform="matrix(1 0 0 1 0 -262)">
			<stop  offset="0" style="stop-color:#FFFFFF"/>
			<stop  offset="0.5949" style="stop-color:#89BCCC"/>
		</linearGradient>
		
			<path fill="none" stroke="url(#SVGID_12_)" stroke-width="0.25" stroke-linecap="round" stroke-linejoin="round" stroke-miterlimit="10" d="
			M25.33,82c0,0,1.39,0.39,1.67,0.28s1.56-0.78,2.06-0.61s0.78,0.71,1.33,0.63c0.56-0.08,1.17-0.3,1.44-0.33
			c0.28-0.03,0-0.47,0.83-0.33s1.33,0.11,2,0.32s2.06,1.04,2.56,1.26s2.22,1.17,2.78,1.17s1.17-0.11,1.72,0.56
			c0.56,0.67,0.67,1.61,1.56,1.61s2.44,0.11,2.94,0s1.5-0.12,2,0.05c0.5,0.17,0.83,0.4,1.33,0.34s0.72,0.22,1.11,0.5
			s1.5,0.22,2.17,0.28s1.22-0.39,1.78,0.39s1.39,1.56,1.56,1.67s0.33-0.33,0.61,0.33c0.28,0.67,0.78,0.78,1.61,1.22s1.28,1,1.5,1.72
			s0.56,0.72,1.06,0.72s0.72,0.17,0.83,1.39s-0.33,1.22,0.39,1.83s0.83,1.22,1.39,1.22s1.17,0.17,1.5,0s0.72-0.83,1.28-0.5
			s1.06,0.44,1.28,0.94s0.11,1.06,0.78,1.44c0.67,0.39,1.22-0.11,1.72,0.28s0.33,0.61,0.67,1.06s1-0.28,1.39,0.28
			s0.72,1.06,0.44,1.56s-0.78,0.28-0.22,0.72s1,1.06,1.11,1.83s-0.28,1.89-0.5,2.44s-2.33,1.17-1.72,1.61s1.33,0.17,1.22,1.11
			s0.67,0.78,0.78,1.56s-0.67,1.11-0.22,1.61s0.59,0.61,0.46,1.61s0.09,1-0.3,1.5s-0.61,1.11-0.39,1.22s0.83,0,1.17,0.61
			c0.33,0.61-0.61,1.22,0,1.22s1-0.11,0.89,0.33s0.89,0.94,1.44,1.17c0.56,0.22,1.61,1,2,1.72s0.83,0.61,0.39,1.56
			c-0.44,0.94-0.67,1.06-1.33,2.11c-0.67,1.06-1.11,2.11-1.56,2.17c-0.44,0.06-0.33-0.11-0.78,0.67c-0.44,0.78-1,0.56-1.11,1.11
			c-0.11,0.56-0.72,0.61,0.11,1.17s1.33-0.5,1.61,0.28s0.33,1.06,1.11,1.56s1.06,0.06,1.5,1.06s1.61,2.06,2,2.06s0.5-0.39,1-0.44
			s0.56,0.5,1.06-0.72s0.67-1.44,1-1.28c0.33,0.17,1.67,0.39,2,0.5s-0.06-0.83,0.89-0.44s0.89,0.39,1.39-0.06s0.89-0.28,0.61-1.06
			s-0.09-1.06,0.09-1.17s0.3,0.5,0.74,0.28c0.44-0.22,0.44-1.22,1.67-1.28s2.17,1.22,3.39,0.78"/>
		
			<path fill="none" stroke="#89BCCC" stroke-width="0.25" stroke-linecap="round" stroke-linejoin="round" stroke-miterlimit="10" d="
			M78.33,123.56c0,0,0.78,0.44,1,0s0-0.78,0.83-0.61s0.94,0.43,1.72,0.38s0.78-0.27,1,0.43c0.22,0.69,1.17,0.3,1.06,0.8
			s-0.94,1-0.28,0.94c0.67-0.06,1-0.17,1,0.5s0.72,1.33,1,1.67c0.28,0.33,0.33,0.94,0.94,1.11s1,0.89,1.39,0.67s0.94-0.67,0.94-0.67
			"/>
		
			<path fill="none" stroke="#89BCCC" stroke-width="0.25" stroke-linecap="round" stroke-linejoin="round" stroke-miterlimit="10" d="
			M73.4,107.04c0,0,1.66,2.23,2.1,2.18s1.06-0.61,1.89,0.22s1.11,1.17,0.94,1.67s1.28,1.5,1.61,1.72s1.06,0.06,1,0.72
			c-0.06,0.67,0.33,1.33,0.39,1.83s0.44,0.83,0.78,1.17c0.33,0.33,0.94,0.56,0.89,1.39"/>
		
			<path fill="none" stroke="#89BCCC" stroke-width="0.25" stroke-linecap="round" stroke-linejoin="round" stroke-miterlimit="10" d="
			M67.83,99.43c0,0,0.11-1.21,0.78-1.1s0.78-0.33,1.78-0.67c1-0.33,1.67-0.89,2.22-1.5c0.56-0.61,0.39-1.28,1.61-0.78
			s1.56,0.61,2.11,0.56c0.56-0.06,0.67-0.56,1.33-0.06c0.67,0.5,0.39,0.64,0.78,1.43s1.33,1.51,1.78,1.57
			c0.44,0.06,0.78-0.89,0.89,0.06c0.11,0.94,0.33,0.39,1.5,0.89s0.56,0.89,1.61,1c1.06,0.11,1.78,0,2.33,0.39
			c0.56,0.39,0.83,0.5,0.61,1.17s0.56,1.22,1,1.89s-0.17,1.22,0.61,1.78s0.89,1.03,1.67,0.99s1.11-0.23,1.44,0s1.39,1.4,2.22,1.23"
			/>
		
			<path fill="none" stroke="#89BCCC" stroke-width="0.25" stroke-linecap="round" stroke-linejoin="round" stroke-miterlimit="10" d="
			M78.2,96.64c0,0,0.19-0.64,1.41-0.42S83.31,97,84.04,97s2.07-0.72,2.96-1.06c0.89-0.33,2.22-0.73,2.22-0.73"/>
		
			<path fill="none" stroke="#89BCCC" stroke-width="0.25" stroke-linecap="round" stroke-linejoin="round" stroke-miterlimit="10" d="
			M76.35,74.67c0,0,1.26,0.39,1.26,1.56s0,1.67,0.56,2.17s0.83-0.67,1.33,0.39s0.83,2.83,1.47,4s0.36,1.33,0.47,1.94
			s2.28,3.33,2.5,4.5s0,1.5,0,1.5"/>
		
			<path fill="none" stroke="#89BCCC" stroke-width="0.25" stroke-linecap="round" stroke-linejoin="round" stroke-miterlimit="10" d="
			M114.11,67.05c0,0-1.94,2.56-2.88,3.28s-1.78,0.94-1.67,1.78c0.11,0.83,0.89,0.78,0.33,1.67s-1.28,1.06-1.22,1.89
			s-1.17,2.72-1.17,2.72s-0.83-0.33-0.44,0.78s-0.5,0.22-0.17,1.94s-0.17,0.89-0.56,2s-0.61,1.61-0.56,2.06
			c0.06,0.44,0.78-0.17,0.56,1s-0.22,1.67-0.39,2.33s-0.17,1.11-0.17,1.11s0.33,0.89,0.06,1.61c-0.28,0.72,0.22,0.83,0.56,1.28
			c0.33,0.44-0.11,1.11-0.33,1.28s-1.89,1.09-2.83,1.44c-0.94,0.34-1.17,0.51-1.5,0.9s-1.17,1.56-1.17,1.56s0.06-1.28-1.22-0.67
			s-2.94,2-2.94,2"/>
		
			<path fill="none" stroke="#89BCCC" stroke-width="0.25" stroke-linecap="round" stroke-linejoin="round" stroke-miterlimit="10" d="
			M109.28,72c0,0-1.28,0.83-1.56,1.11s-1,1.67-1.17,2.44s0.33,0.56-0.06,1.56s-0.67,1.94-1.25,2.22s-0.97-0.67-1.3,0.44
			s-0.44,1.72-1.11,2.17c-0.67,0.44-1.17-0.12-1.17,1.08c0,1.2,0.06,1.75-0.67,2.75s-2.17,1.44-2.06,3.22s0.39,3,0.39,3.83
			s-0.39,1.28-0.39,1.28"/>
		
			<linearGradient id="SVGID_13_" gradientUnits="userSpaceOnUse" x1="75.805" y1="452.6851" x2="120.905" y2="452.6851" gradientTransform="matrix(1 0 0 1 0 -262)">
			<stop  offset="0" style="stop-color:#FFFFFF"/>
			<stop  offset="0.6949" style="stop-color:#90BFCE"/>
			<stop  offset="0.8051" style="stop-color:#89BCCC"/>
		</linearGradient>
		
			<path fill="none" stroke="url(#SVGID_13_)" stroke-width="0.25" stroke-linecap="round" stroke-linejoin="round" stroke-miterlimit="10" d="
			M75.93,222.44c0,0,1.41-3.7,2.07-4.59s3.26-1.93,3.26-1.93s4.96-0.37,5.19-0.89c0.22-0.52,0.44-1.41,1.63-1.33
			c1.19,0.07,1.56,0.52,2.15-0.37c0.59-0.89,1.63-1.63,2-1.78s1.85,1.85,2.74,0.59c0.89-1.26,2.22-3.11,2.22-3.11
			s1.26-0.22,1.04-1.04c-0.22-0.81-0.89-1.19-0.37-1.7c0.52-0.52,1.19-1.26,1.19-1.26v-0.74c0,0-0.74-3.56,0-3.78
			s1.48-0.22,2.15-0.81s3.48-2.74,3.93-3.63c0.44-0.89-0.15-2.37,0-2.89s0.07-1.7,1.56-1.26c1.48,0.44,2.52-0.52,2.52-0.52
			s-0.67-0.81-0.52-1.26s0.59-0.96,1.19-1.56s1.7-1.56,1.93-2.22c0.22-0.67-0.3-0.15,0.3-1.41c0.59-1.26,0.89-2.81,2.37-3.93
			s3.19-2.52,3.19-2.52s0.89-1.7,1.04-2.37s0.37-1.11,0.74-1.78c0.37-0.67-0.19-0.37,0.57-0.89c0.76-0.52,0.76-0.52,0.76-1.56
			s-0.49-3.33-0.76-3.93s-2.5,0-2.05-1.78c0.44-1.78,1.48-2.07,0.59-2.96s-1.93-1.11-2.22-1.56s-0.67-0.74-0.37-1.11
			s1.11-1.63,1.11-1.63"/>
		
			<path fill="none" stroke="#89BCCC" stroke-width="0.25" stroke-linecap="round" stroke-linejoin="round" stroke-miterlimit="10" d="
			M120.7,172.75c0,0,0.64-0.75,2.16-1.49s2.78-0.89,3.52-0.3s1.48,1.11,1.93,0.22c0.44-0.89,0.37-1.48,0.89-1.63
			c0.52-0.15,1.63-0.3,1.63-0.3"/>
		
			<path fill="none" stroke="#89BCCC" stroke-width="0.25" stroke-linecap="round" stroke-linejoin="round" stroke-miterlimit="10" d="
			M121.22,172.27c0.15-0.12,1.67-2.12,2.19-3.01s0.44-2.37,0-3.78s-0.07-1.63,0-2.44s-0.22-1.04-0.56-1.93s0.04-1.26,0-2.15
			s-0.82-1.56-0.36-2.3"/>
		
			<path fill="none" stroke="#89BCCC" stroke-width="0.25" stroke-linecap="round" stroke-linejoin="round" stroke-miterlimit="10" d="
			M91.62,174.73c0,0,0.82-1.6,1.27-2.46c0.44-0.86,1.33-1.07,2.22-1.26c0.89-0.19,1.85-0.26,2.37-0.71c0.52-0.44,1.11-1.85,1.56-2.3
			"/>
		
			<path fill="none" stroke="#89BCCC" stroke-width="0.25" stroke-linecap="round" stroke-linejoin="round" stroke-miterlimit="10" d="
			M89.16,167.19c0,0,1.51-1.11,1.81-1.7c0.3-0.59,1.93-1.56,1.93-1.56s1.19,0.79,1.41,0.54s-0.31-1.21,1.03-1.36s2-1.19,3-2
			c1-0.81,2.93-2.37,3.15-3.11s-1.04-1.48,0-2.59s1.85-1.85,2.07-2.67c0.22-0.81,1.11-2.89,1.11-2.89s-2.44-1.63-2-3.56
			s0.89-2.52,1.04-3.33s0.37-2,0.37-2"/>
		
			<path fill="none" stroke="#89BCCC" stroke-width="0.25" stroke-linecap="round" stroke-linejoin="round" stroke-miterlimit="10" d="
			M88.22,164.47c0,0,0.37-0.39,1.56-0.99c1.19-0.59,1.85-1.41,1.26-2s-2-0.67-0.81-1.33c1.19-0.67,2.3,0,2-1.19
			s-0.81-0.96-1.26-1.26c-0.44-0.3,0.15-0.89,0.15-1.93s-0.59-1.19-0.44-2.15c0.15-0.96,0.95-1.48,0.95-1.48s0.97,1.41,1.42,0
			c0.44-1.41,0.22-2.67-0.07-3.11c-0.3-0.44-0.72-1.63-0.69-2.44s2.03-3.19,2.25-3.85c0.22-0.67,1.11-3.41,1.11-3.41"/>
		
			<linearGradient id="SVGID_14_" gradientUnits="userSpaceOnUse" x1="145.4134" y1="497.1554" x2="171.6053" y2="482.0334" gradientTransform="matrix(1 0 0 1 0 -262)">
			<stop  offset="0" style="stop-color:#FFFFFF"/>
			<stop  offset="0.5128" style="stop-color:#89BCCC"/>
		</linearGradient>
		
			<path fill="none" stroke="url(#SVGID_14_)" stroke-width="0.25" stroke-linecap="round" stroke-linejoin="round" stroke-miterlimit="10" d="
			M155.41,252.22c0,0-0.07-2.15-0.37-2.74c-0.3-0.59-0.81-0.52-0.81-1.26c0-0.74-0.3-1.7-0.07-1.85s1.33,0.15,1.56-0.89
			c0.22-1.04,0.22-1.48,0.52-3.41c0.3-1.93,0.89-3.04,0.96-3.85c0.07-0.81,0-2.07,0-2.07s-1.26-0.22-1.11-2.44s0-2.22,0.67-3.78
			s-0.44-3.78-0.07-4.89s0.66-1.78,0.55-2.59s-0.26-0.59-0.92-1.93c-0.67-1.33-0.67-3.56-1.33-4.15c-0.67-0.59-2.37-0.89-2.37-2
			s0.67-2.07,0.81-2.74c0.15-0.67-0.39-0.67,0.66-1.11s1.61-0.52,1.59-1.11s-1.24,0.59,0-0.81s1.75-1.56,2.05-2.37
			s-0.52-0.59,0.81-1.48s2.96-0.74,3.41-1.19"/>
		
			<path fill="none" stroke="#89BCCC" stroke-width="0.25" stroke-linecap="round" stroke-linejoin="round" stroke-miterlimit="10" d="
			M153.41,211.63c0,0-0.3-1.11-0.81-2.89c-0.52-1.78-0.89-2.44-0.67-3.48s0.3-1.7,0.3-1.7s3.19-0.37,3.78-0.59s1.56-1.11,2-2.07
			s0.96-2.37,0.96-2.37l1.26-2.22c0,0,2.74-1.04,3.19-1.56"/>
		
			<path fill="none" stroke="#89BCCC" stroke-width="0.25" stroke-linecap="round" stroke-linejoin="round" stroke-miterlimit="10" d="
			M152.22,203.56c0,0-1.19,0.3-0.74-0.81s0.74-1.93,0.74-1.93s0.16-0.3-0.36-0.52c-0.53-0.22-0.48-1.04-0.48-1.04
			s2.03-1.78,1.88-2.81s-1.39-1.56,0.01-3.26s1.55-2.15,1.4-2.48s-0.52-0.78-0.81-1.3c-0.3-0.52-0.3-0.89,0.22-1.63
			s0.64-1.78,0.64-1.78s1.58,0.07,1.88-0.81c0.3-0.89,0.38-1.93,1.04-2.15c0.66-0.22,1.77-2.52,1.77-2.52"/>
		
			<path fill="none" stroke="#89BCCC" stroke-width="0.25" stroke-linecap="round" stroke-linejoin="round" stroke-miterlimit="10" d="
			M155.04,191.26c0,0,1.04-1.78,2.22-1.7c1.19,0.07,2.37,0.3,2.15-0.44s0-1.85,0-1.85"/>
		
			<linearGradient id="SVGID_15_" gradientUnits="userSpaceOnUse" x1="152.0641" y1="502.9809" x2="179.0559" y2="475.9891" gradientTransform="matrix(1 0 0 1 0 -262)">
			<stop  offset="0.1692" style="stop-color:#FFFFFF"/>
			<stop  offset="0.8487" style="stop-color:#91BFCF"/>
			<stop  offset="1" style="stop-color:#89BCCC"/>
		</linearGradient>
		
			<path fill="none" stroke="url(#SVGID_15_)" stroke-width="0.25" stroke-linecap="round" stroke-linejoin="round" stroke-miterlimit="10" d="
			M163.78,252.52c0,0,1.93-3.7,2.22-4.44c0.3-0.74,0.89-2.37,0.59-3.11s-1.04-2.22-1.04-2.22s0.44-0.67,0.07-1.41
			s0.52-1.56,0.52-2.15s-0.3,0.3-0.15-1.19s0.59-1.7,0.37-2.3c-0.22-0.59-0.14-1.33-1.14-2.59s-1.52-1.04-1.45-2.07
			c0.07-1.04,0.3-1.93,0.3-1.93s0.52-0.74,0.3-1.22s-0.6-1.59-0.6-1.59s-0.38-4.89,0-5.48s1.1-0.15,1.37-1.63
			c0.27-1.48-0.2-1.93,0-2.3c0.2-0.37,0.47-0.44,0-1.04c-0.47-0.59-1.29,0-0.55-0.96s2.01-2.15,2.08-2.81
			c0.07-0.67,1.18-1.7,1.18-1.7s0.3-0.07,0.3-1.93s-0.15-2.07-0.37-2.74s0.67-0.52,0.37-1.48c-0.3-0.96-0.81-1.78-0.81-1.78"/>
		
			<path fill="none" stroke="#89BCCC" stroke-width="0.25" stroke-linecap="round" stroke-linejoin="round" stroke-miterlimit="10" d="
			M114.11,117.33c0,0-0.67,2.74,0,4.87c0.67,2.13,1.34,2.24,0.89,3.02s-1.72,0.89-1.19,2.44c0.52,1.56-0.33,2-0.12,2.89
			c0.2,0.89,0.42,3.33,0.42,3.33"/>
	</g>
</g>
</svg>
