<svg id="wallis_et_futuna" data-name="wallis et futuna" xmlns="http://www.w3.org/2000/svg" viewBox="0 0 305.7 297">
    <defs>
        <style>.cls-1{fill:none;stroke:#7294a2;stroke-linecap:round;stroke-linejoin:round;stroke-width:0.5px;stroke-dasharray:1 2;}.cls-2,.cls-3{fill:#D8D8D8}.cls-3{font-size:8px;font-family:Poppins-LightItalic, Poppins;font-weight:300;font-style:italic;}</style>
        <linearGradient x1="38.6428275%" y1="109.516801%" x2="61.3571725%" y2="-9.51680135%" id="linearGradient-1">
            <stop stop-color="#5B95B6" offset="0%"></stop>
            <stop stop-color="#88DEE5" offset="100%"></stop>
        </linearGradient>
    </defs>
    <line class="cls-1" x1="107.78" y1="90.31" x2="213.28" y2="226.62" />
    <path class="cls-2" d="M108.91,212.69l.75.28a1.38,1.38,0,0,1,.85.94l0,.08a1.41,1.41,0,0,0,.75.9l.73.34a1.37,1.37,0,0,0,1.17,0l3-1.38a1.43,1.43,0,0,1,.62-.12l3.86.12a1.27,1.27,0,0,1,.47.09l4,1.62a1.24,1.24,0,0,1,.3.16l3.23,2.3a1.41,1.41,0,0,1,.58,1.06l.19,3.88a1.38,1.38,0,0,0,.35.85l.49.54a1.35,1.35,0,0,0,.8.45l3.39.56a1.35,1.35,0,0,0,1.19-.37l4.24-4.11.15-.13,7.12-5.13,7.58-5.84a1.49,1.49,0,0,1,.3-.18l6.49-2.81.11-.05,7.08-2.35.13-.05,2.54-1.13a1.38,1.38,0,0,0,.79-1.57l-.34-1.52a1.38,1.38,0,0,0-1.24-1.08l-9.85-.86h-.09l-5.87-.12a1.27,1.27,0,0,1-.34-.05l-2.85-.77a1.35,1.35,0,0,1-.48-.24L149,195.29a1.46,1.46,0,0,1-.34-.36l-1.24-2a1.6,1.6,0,0,1-.19-.47l-.32-1.65a1.4,1.4,0,0,0-.7-.94l-.35-.2a1.41,1.41,0,0,0-.45-.15l-5.87-1h-.19l-6.25-.12a1.4,1.4,0,0,0-.45.06l-5.22,1.69L121,192a1.26,1.26,0,0,0-.51.27l-3,2.5a1.21,1.21,0,0,1-.22.15l-4.38,2.43a1.5,1.5,0,0,0-.5.47l-2.25,3.55a1.38,1.38,0,0,0-.22.71l-.09,3a1.4,1.4,0,0,1-.41.94l-1.4,1.4a1.42,1.42,0,0,0-.34.55l-.76,2.28a1.47,1.47,0,0,0,0,.88l.17.5a1.39,1.39,0,0,0,1.32,1h0A1.38,1.38,0,0,1,108.91,212.69Z
    M26.09,116.5l1-.19a1.18,1.18,0,0,1,.56,0l3.13,1a1.11,1.11,0,0,1,.37.2L37,122.48a1.23,1.23,0,0,0,.37.21l2.18.72a1.15,1.15,0,0,0,.94-.11l1.59-1a1.13,1.13,0,0,1,.76-.14l1.9.31a1.14,1.14,0,0,1,.9.78l.8,2.58a1.27,1.27,0,0,0,.23.41l1.43,1.61a1.14,1.14,0,0,0,.81.37l3.11.1.25,0,4.69,1.23a1.16,1.16,0,0,1,.4.2l2.46,1.92a1,1,0,0,0,.28.16l.71.29a1.14,1.14,0,0,0,.68.05L62.7,132a1.16,1.16,0,0,1,.87.15l3.24,2.1.12.09,2.35,2,2.58,2a.43.43,0,0,1,.12.11l5,5.15a1,1,0,0,1,.13.16L79,146.52a1.14,1.14,0,0,0,.35.34l5.6,3.53.13.1,4.36,3.69a1.21,1.21,0,0,1,.21.24l2.15,3.26a.64.64,0,0,0,.1.13l1.63,1.84a1.09,1.09,0,0,0,.29.23l3.57,2a1.09,1.09,0,0,1,.17.13l5.57,4.76a1.15,1.15,0,0,0,.55.25l1.8.3h.09l2.87.24.16,0,4.42,1,.13,0,3.74.44a1.12,1.12,0,0,1,.49.18l1.16.77.1.07,4.65,3.83a1,1,0,0,0,.26.16l1.77.79a1.09,1.09,0,0,0,.5.1l6.08-.21a1.1,1.1,0,0,1,1.05.63h0a1.13,1.13,0,0,1-.53,1.52l-3,1.42-2.52,1.26a1.17,1.17,0,0,1-.26.1l-3,.65a1.15,1.15,0,0,1-.26,0l-18.06-.23a1.14,1.14,0,0,1-.51-.13l-6.12-3.23a1.25,1.25,0,0,0-.53-.13H95.3a1.12,1.12,0,0,0-.44.09l-3.46,1.45-.11,0-4.46,1.38a1.26,1.26,0,0,1-.33.05h-3a1.35,1.35,0,0,1-.29,0L79,178.53l-.17,0-8.59-.93H70l-2.09.1a1.1,1.1,0,0,0-.78.36l-.91,1a1.11,1.11,0,0,1-.82.36H60.31a1.17,1.17,0,0,1-.85-.39l-1.83-2.11a1.11,1.11,0,0,0-.55-.35l-4.53-1.22-.12,0L46,172.73a1.2,1.2,0,0,1-.45-.32l-2.8-3.32a1.19,1.19,0,0,1-.27-.69l-.19-4.85a1.19,1.19,0,0,0-.29-.7l-.31-.34a1.13,1.13,0,0,0-1-.38l-2.44.26a1.14,1.14,0,0,1-.83-.25l-3.12-2.53a1.15,1.15,0,0,1-.41-.73l-.54-4a.2.2,0,0,0,0-.07l-1-5.09a.94.94,0,0,0-.1-.28l-3.15-6.3s0-.07,0-.11l-2.26-5.92-2.33-6.42a1.14,1.14,0,0,0-.19-.34l-1.51-1.79a1.12,1.12,0,0,1-.26-.78l.09-1.82a.92.92,0,0,1,.05-.28l1.75-5.5.77-2.89A1.13,1.13,0,0,1,26.09,116.5Z
    M223.15,68.29l6.88-3a1.08,1.08,0,0,1,.53-.08l1.73.13a1.13,1.13,0,0,1,.59.23l4.86,3.82a1.06,1.06,0,0,0,.33.18l3.17,1.05a1.1,1.1,0,0,1,.61.51l1.49,2.63a1.25,1.25,0,0,1,.12.34l.63,3.4a1.16,1.16,0,0,0,.16.4l2,3.06.09.15.91,2a1.12,1.12,0,0,1,.08.26l.88,5.13a1,1,0,0,0,.18.44l3.2,4.65a1.09,1.09,0,0,0,.57.42l1.17.38a1.28,1.28,0,0,0,.32.06l2.35,0a1,1,0,0,1,.65.23l1,.74a1.11,1.11,0,0,1,.39.6l1.69,6.48a1,1,0,0,0,.09.24l1.43,2.65a1.1,1.1,0,0,1,0,1l-6.17,11.74a.41.41,0,0,1-.07.11l-1.74,2.58a1.12,1.12,0,0,1-.64.44l-2.49.66a1.11,1.11,0,0,0-.61.41l-3.95,5.36a1,1,0,0,0-.16.28l-1.47,4.1a1.11,1.11,0,0,0,.29,1.18l1.47,1.35a1.1,1.1,0,0,1,.35.71l.34,3.79a1.13,1.13,0,0,1-.47,1l-.52.36a1.12,1.12,0,0,1-.91.16l-2.53-.66a1.08,1.08,0,0,0-1.17.42l-.59.83a1.06,1.06,0,0,0-.21.53l-.05.59a1.11,1.11,0,0,0,.66,1.13l1,.43a1.1,1.1,0,0,1,.65,1.23v0a1.09,1.09,0,0,1-.54.74l-.8.46a1.05,1.05,0,0,0-.48.54L239,150.5a1.14,1.14,0,0,0-.08.4l0,1.79a1.1,1.1,0,0,0,.5.95l.85.55a1.1,1.1,0,0,1,.45,1.26l0,.1a1.08,1.08,0,0,1-.5.63l-1.84,1a1.11,1.11,0,0,0-.52.71l-.8,3.54a1.09,1.09,0,0,0,.12.79h0a1.11,1.11,0,0,0,1.51.41l1.48-.85a1.09,1.09,0,0,1,.95-.06l.55.21-1.86,2a1.08,1.08,0,0,0-.26,1l.4,1.55a1,1,0,0,0,.22.43l1.07,1.28a1.11,1.11,0,0,0,1.09.37l2.64-.59a1.12,1.12,0,0,1,.9.19l3.08,2.27a1.11,1.11,0,0,1,.44,1l-.19,1.71a1.09,1.09,0,0,1-.51.82l-5.12,3.16a1.1,1.1,0,0,1-.79.15l-1.51-.3a1.06,1.06,0,0,1-.48-.22L237,173.76a1.35,1.35,0,0,0-.26-.15l-4.37-1.88a1,1,0,0,0-.57-.08l-1.2.14a1.14,1.14,0,0,0-.74.42l-2.87,3.7-.09.14L225.21,179a1.1,1.1,0,0,1-1.05.56l-.88-.07a1.15,1.15,0,0,1-.64-.27l-1.84-1.61a1.37,1.37,0,0,0-.43-.23l-3.41-.94a1.14,1.14,0,0,1-.62-.43l-2.25-3.25a1.06,1.06,0,0,1-.19-.59l-.06-1.75a1.08,1.08,0,0,1,.11-.53l1.16-2.32a1.09,1.09,0,0,0,.06-.83l-2.06-6.37a1.14,1.14,0,0,0-.57-.65l-3.25-1.58a1.25,1.25,0,0,1-.36-.28l-.4-.48a1.1,1.1,0,0,1-.23-.94l.7-3.31a1.1,1.1,0,0,0-.6-1.22l-.2-.1a1.12,1.12,0,0,0-.88,0l-1.59.64a1.11,1.11,0,0,1-.91,0l-3.71-1.9a1.09,1.09,0,0,1-.6-1l0-1.67a1.1,1.1,0,0,0-.87-1.1l-.31-.07-.22,0-3.37-.06h-.08l-3.67.18a1.16,1.16,0,0,1-.63-.16l-.93-.57a1.08,1.08,0,0,1-.44-.53L188,140.29a1.05,1.05,0,0,1-.08-.35l-.07-1.54a1.18,1.18,0,0,1,.07-.45l1.22-3.14a.82.82,0,0,0,.07-.31l.15-1.9a1.13,1.13,0,0,0,0-.32l-1.54-6.93.61-.59a1.21,1.21,0,0,1,.43-.27l3.57-1.14,6.08-2,.14,0,5.91-1a.94.94,0,0,0,.32-.11l2.74-1.43a1.05,1.05,0,0,0,.42-.39l2-3.12a1.18,1.18,0,0,0,.17-.52l.51-7.62V107l-.17-2.85a1.13,1.13,0,0,0-.25-.63l-1.53-1.89a1.09,1.09,0,0,1-.24-.8l.56-6.1a1.1,1.1,0,0,1,.15-.44l1.95-3.41a1.08,1.08,0,0,0,.11-.28l1.38-5.44L214,78.67a1.2,1.2,0,0,1,.13-.33l2-3.38a1,1,0,0,1,.12-.17l3.84-4.32a.75.75,0,0,1,.19-.17L223,68.4A1.18,1.18,0,0,1,223.15,68.29Z
    M212.06,187.31h0a1.09,1.09,0,0,0-.29,1.93l.63.45a1.12,1.12,0,0,1,.38.48l1.31,3.14a1.2,1.2,0,0,0,.16.27l1,1.18a1.1,1.1,0,0,1-.07,1.48l-.83.83a1,1,0,0,0-.25.38l-.55,1.44a1.11,1.11,0,0,0,.38,1.29l.31.22a1.07,1.07,0,0,0,.71.2l5-.32a1.11,1.11,0,0,0,.74-.36l.84-.93a1.09,1.09,0,0,0-.07-1.55l-1.07-1-2.56-2.37-.15-.17-2.19-3.11-2.18-3.1A1.09,1.09,0,0,0,212.06,187.31Z
    M251.86,191.39V193a.88.88,0,0,0,0,.16l.5,2.5a.84.84,0,0,1,0,.47L251.19,199a.84.84,0,0,0,.36,1l1.71,1a.85.85,0,0,1,.39.5l.59,2.2a.83.83,0,0,1-.07.6l-1.57,3a.82.82,0,0,0,.31,1.09l.53.32a.83.83,0,0,0,1.12-.26l1.49-2.3a.85.85,0,0,0,.13-.51l-.35-4.78a.17.17,0,0,0,0-.07l-.74-4.44s0-.07,0-.1l-.15-4.31a.83.83,0,0,0-.75-.8l-1.54-.12Z" />
    <text class="cls-3" transform="translate(165.26 93.51)">Wallis</text>
    <text class="cls-3" transform="translate(56.89 113.5)">Futuna</text>
    <text class="cls-3" transform="translate(159.68 229.86)">Alofi</text>
</svg>