<?xml version="1.0" encoding="utf-8"?>
<!-- Generator: Adobe Illustrator 24.3.0, SVG Export Plug-In . SVG Version: 6.00 Build 0)  -->
<svg version="1.1" id="Calque_1" xmlns="http://www.w3.org/2000/svg" xmlns:xlink="http://www.w3.org/1999/xlink" x="0px" y="0px"
	 viewBox="0 0 95 95" style="enable-background:new 0 0 95 95;" xml:space="preserve">
<style type="text/css">
	.st0{fill:#FCFCFC;}
</style>
<g id="Territoires">
	<g id="Fiche-Territoire" transform="translate(-950.000000, -1122.000000)">
		<g id="np_about_2539535_000000" transform="translate(950.000000, 1122.000000)">
			<path id="Combined-Shape" class="st0" d="M69.4,6.5c0.3,0,0.7,0.1,0.9,0.2c7.2,4,13.3,9.8,17.6,16.9c2.2,3.6,3.8,7.4,5,11.4
				c1.2,4.1,1.8,8.4,1.8,12.8c0,3.2-0.3,6.4-1,9.4c-0.6,3-1.5,6-2.7,8.8c-1.2,2.8-2.6,5.5-4.3,8c-1.7,2.5-3.6,4.8-5.7,6.9
				c-2.1,2.1-4.5,4-6.9,5.7c-2.5,1.7-5.2,3.1-8,4.3c-2.8,1.2-5.8,2.1-8.8,2.7c-3.1,0.6-6.3,1-9.4,1l0,0h0c-4.8,0-9.6-0.7-14.1-2.2
				c-4.4-1.4-8.6-3.4-12.4-6.1c-0.4-0.3-0.7-0.7-0.8-1.3c-0.1-0.5,0-1,0.3-1.5c0.4-0.5,1-0.8,1.6-0.8c0.4,0,0.8,0.1,1.1,0.3
				c7.2,4.9,15.6,7.6,24.3,7.6c11.5,0,22.3-4.5,30.4-12.6c8.1-8.1,12.6-18.9,12.6-30.4c0-15.7-8.5-30.1-22.3-37.7
				c-0.6-0.3-1-1-1-1.7c0-0.3,0.1-0.7,0.2-1C68.1,6.8,68.7,6.5,69.4,6.5z M47.8,12.6c4.7,0,9.4,0.9,13.7,2.8c2.1,0.9,4.1,2,6,3.2
				c1.9,1.3,3.6,2.7,5.2,4.3c1.6,1.6,3,3.3,4.3,5.2c1.3,1.9,2.4,3.9,3.2,6c1.8,4.3,2.8,8.9,2.8,13.7s-0.9,9.4-2.8,13.7
				c-0.9,2.1-2,4.1-3.2,6c-1.3,1.9-2.7,3.6-4.3,5.2c-1.6,1.6-3.3,3-5.2,4.3c-1.9,1.3-3.9,2.4-6,3.2c-4.3,1.8-8.9,2.8-13.7,2.8h0
				c-4.2,0-8.2-0.7-12.1-2.1c-3.7-1.4-7.2-3.4-10.3-5.9c-3.1-2.5-5.6-5.5-7.7-8.9c-2.1-3.5-3.6-7.2-4.4-11.2c-0.1-0.5,0-1,0.3-1.5
				c0.3-0.4,0.7-0.7,1.2-0.8c0.1,0,0.3,0,0.4,0c0.9,0,1.7,0.7,1.9,1.6C20.1,68.5,33,79,47.8,79h0c8.3,0,16.2-3.2,22.1-9.2
				C75.8,64,79,56.1,79,47.8s-3.2-16.2-9.2-22.1c-5.9-5.9-13.8-9.2-22.1-9.2h0C35,16.5,23.6,24.2,18.8,36c-0.3,0.7-1,1.2-1.8,1.2
				c-0.3,0-0.5,0-0.7-0.1c-0.7-0.3-1.2-1-1.2-1.8c0-0.3,0-0.5,0.1-0.7c1.3-3.2,3.1-6.2,5.2-8.8c2.2-2.7,4.7-5,7.5-6.9
				C33.8,14.8,40.7,12.6,47.8,12.6z M14.9,76.5c0.5,0,1.1,0.2,1.4,0.6c0.7,0.8,0.7,2-0.1,2.8c-0.4,0.3-0.8,0.5-1.3,0.5
				c-0.5,0-1.1-0.2-1.4-0.6c-0.4-0.4-0.5-0.9-0.5-1.4c0-0.5,0.2-1,0.6-1.4C14,76.7,14.5,76.5,14.9,76.5z M48.8,61.5
				c1.8,0,3.5,0.7,4.8,2c1.3,1.3,2,3,2,4.8s-0.7,3.5-2,4.8c-1.3,1.3-3,2-4.8,2c-1.8,0-3.5-0.7-4.8-2c-1.3-1.3-2-3-2-4.8
				s0.7-3.5,2-4.8C45.2,62.2,46.9,61.5,48.8,61.5z M47.8,0.9c1.1,0,2.1,0,3.2,0.1c1.1,0.1,1.9,1,1.8,2.1c-0.1,1-0.9,1.8-1.9,1.8
				c0,0-0.1,0-0.1,0c-1-0.1-2-0.1-2.9-0.1c-11.5,0-22.3,4.5-30.4,12.6C9.3,25.5,4.8,36.3,4.8,47.8c0,7.7,2.1,15.3,6,21.9
				c0.2,0.3,0.3,0.6,0.3,1c0,0.7-0.4,1.3-1,1.7c-0.3,0.2-0.5,0.2-0.8,0.3l-0.2,0l-0.2,0c-0.6-0.1-1.2-0.4-1.5-1
				c-2.1-3.5-3.7-7.3-4.8-11.3c-1.1-4.1-1.7-8.3-1.7-12.6c0-3.2,0.3-6.4,1-9.4c0.6-3,1.5-6,2.7-8.8c1.2-2.8,2.6-5.5,4.3-8
				c1.7-2.5,3.6-4.8,5.7-6.9c2.1-2.1,4.5-4,6.9-5.7c2.5-1.7,5.2-3.1,8-4.3c2.8-1.2,5.8-2.1,8.8-2.7C41.4,1.2,44.6,0.9,47.8,0.9z
				 M48.8,65.4c-1.6,0-2.9,1.3-2.9,2.9c0,1.6,1.3,2.9,2.9,2.9c1.6,0,2.9-1.3,2.9-2.9C51.7,66.7,50.4,65.4,48.8,65.4z M48.8,22.4
				c2.2,0,4.4,0.9,5.9,2.5c0.8,0.8,1.4,1.7,1.8,2.7c0.4,1,0.7,2.1,0.7,3.3c0,0.2,0,0.3,0,0.5v0l-1.3,20.5v0
				c-0.1,1.8-0.9,3.5-2.2,4.8c-1.3,1.3-3.1,1.9-4.9,1.9l0,0c-1.8,0-3.6-0.7-4.9-1.9c-1.3-1.2-2.1-2.9-2.2-4.8v0l-1.3-20.5
				c0-0.2,0-0.3,0-0.5c0-1.1,0.2-2.2,0.7-3.3c0.4-1,1-1.9,1.8-2.7C44.4,23.3,46.5,22.4,48.8,22.4z M48.8,26.3c-2.5,0-4.5,2-4.5,4.5
				c0,0.1,0,0.2,0,0.3c0,0,0,0,0,0l1.3,20.5c0.1,1.7,1.5,3,3.2,3c1.7,0,3.1-1.3,3.2-3l0,0L53.2,31c0-0.1,0-0.2,0-0.3
				C53.3,28.3,51.2,26.3,48.8,26.3z M14.9,42.8c1.1,0.1,1.9,1,1.8,2.1c0,0.5-0.3,0.9-0.6,1.3c-0.4,0.3-0.8,0.5-1.3,0.5
				c-0.1,0-0.1,0-0.2,0c-0.5,0-1-0.3-1.3-0.7c-0.3-0.4-0.5-0.9-0.4-1.4c0-0.5,0.3-0.9,0.6-1.3C13.8,42.9,14.4,42.7,14.9,42.8z
				 M60.4,2.7c0.2,0,0.4,0,0.6,0.1c0.5,0.1,0.9,0.5,1.2,0.9c0.3,0.5,0.3,1,0.2,1.5c-0.2,0.8-1,1.4-1.9,1.4c-0.2,0-0.4,0-0.6-0.1
				c-1-0.3-1.6-1.4-1.3-2.4C58.8,3.3,59.6,2.7,60.4,2.7z"/>
		</g>
	</g>
</g>
</svg>
