<?xml version="1.0" encoding="UTF-8"?>
<svg width="58px" height="60px" viewBox="0 0 58 60" version="1.1" xmlns="http://www.w3.org/2000/svg" xmlns:xlink="http://www.w3.org/1999/xlink">
    <title>Group</title>
    <g id="Accueil" stroke="none" stroke-width="1" fill="none" fill-rule="evenodd">
        <g transform="translate(-600.000000, -1221.000000)" fill="#276F87" fill-rule="nonzero" id="à-propos">
            <g transform="translate(240.000000, 810.000000)">
                <g id="4-items" transform="translate(360.000000, 212.000000)">
                    <g id="Group-7" transform="translate(0.000000, 186.000000)">
                        <g id="Group" transform="translate(0.000000, 13.000000)">
                            <path d="M12.3,48.752 C9.70582395,46.4756799 7.41264628,43.8777086 5.476,41.021 C0.164,32.506 1.216,20.883 8.1,12.093 C8.292,11.844 9.126,10.893 10.092,9.793 C13.281,6.164 15.092,4.067 16.062,2.793 C17.045,4.085 18.885,6.217 22.145,9.924 C23.056,10.961 23.845,11.857 24.033,12.098 L25.605,10.862 C25.392,10.591 24.755,9.862 23.646,8.604 C21.852,6.562 17.725,1.869 17.115,0.833 C17.033591,0.352365128 16.6174804,-2.30043788e-08 16.13,-2.30043788e-08 L16,-2.30043788e-08 C15.5124608,-2.30043788e-08 15.0959066,0.35139017 15.014,0.832 C14.414,1.845 10.504,6.298 8.59,8.476 C7.415,9.813 6.739,10.584 6.523,10.863 C-0.877,20.31 -1.977,32.854 3.782,42.079 C5.8075131,45.0775976 8.20608081,47.8064809 10.92,50.2 C12.3,51.512 13.7,52.877 15,54.326 L15,60 L17,60 L17,54.465 C18.322,52.971 19.775,51.573 21.186,50.222 C21.722,49.708 22.258,49.195 22.786,48.675 L21.386,47.247 C20.861,47.761 20.33,48.269 19.799,48.778 C18.868,49.669 17.925,50.594 16.999,51.547 L16.999,43.389 L22.117,37.806 L20.643,36.455 L17,40.429 L17,32.384 L25.743,22.669 L24.257,21.331 L17,29.394 L17,22.333 L22.8,14.6 L21.2,13.4 L17,19 L17,7.99999998 L15,7.99999998 L15,19 L10.8,13.4 L9.2,14.6 L15,22.333 L15,29.394 L7.743,21.331 L6.257,22.669 L15,32.384 L15,40.429 L5.737,30.324 L4.263,31.676 L15,43.389 L15,51.411 C14.105,50.5 13.2,49.609 12.3,48.752 Z" id="Path"></path>
                            <path d="M50.571,48.156 C53.9100491,43.0382132 53.7995808,36.4037853 50.292,31.4 L48.654,32.549 C51.8475925,37.1113908 51.7743582,43.2027082 48.472,47.687 C46.0242356,51.0218125 42.1367247,52.9941526 38,53 C32.6564386,52.9977359 27.8585291,49.7258672 25.9052033,44.7521189 C23.9518775,39.7783706 25.2410459,34.1159414 29.155,30.478 L27.8,29.01 C23.2823577,33.2065196 21.7930066,39.740152 24.0456467,45.4799674 C26.2982869,51.2197828 31.8339757,54.9963777 38,55 C40.8978473,55.0041765 43.7335026,54.1597721 46.157,52.571 L52.673,59.087 C53.2571967,59.6738899 54.0519188,60.0026535 54.88,60.0000159 C55.7077195,60.000797 56.5017669,59.6723396 57.0870533,59.0870533 C57.6723396,58.5017669 58.000797,57.7077195 58.0000159,56.88 C58.0026535,56.0519188 57.6738899,55.2571967 57.087,54.673 L50.571,48.156 Z M55.671,57.673 C55.2248994,58.0908514 54.5311006,58.0908514 54.085,57.673 L47.78,51.366 C48.3479109,50.8780909 48.8780909,50.3479109 49.366,49.78 L55.673,56.087 C55.8834778,56.2970902 56.0012166,56.5826158 56.0000093,56.88 C55.9996789,57.1770808 55.8821732,57.4620411 55.673,57.673 L55.671,57.673 Z" id="Shape"></path>
                            <path d="M29.927,32.54 C28.0431715,34.5671197 26.9973112,37.2326878 26.9999948,40 C26.9999948,40.246 27.01,40.481 27.022,40.737 C27.3972982,46.6734516 32.4237844,51.2361494 38.3687456,51.0367938 C44.3137067,50.8374383 49.0232381,45.9482574 49.0000856,40 C49.0081664,37.5807254 48.209762,35.2277373 46.731,33.313 L45.146,34.532 C46.3549489,36.0977368 47.0073494,38.0218607 46.9999948,40 C47.0221264,44.8649021 43.1742604,48.8667902 38.3122349,49.0355186 C33.4502093,49.2042469 29.334177,45.4787323 29.019,40.624 C29.009,40.419 28.9999948,40.214 28.9999948,40 C29.0105113,36.6285361 30.8952907,33.5427399 33.89,31.994 L32.975,30.216 C31.8295332,30.8042788 30.797537,31.5911421 29.927,32.54 Z" id="Path"></path>
                            <path d="M42,-3.80469013e-06 C34.1087104,-0.00540403783 27.393307,5.74654061 26.1862323,13.5449669 C24.9791577,21.3433931 29.6413517,28.8564123 37.165,31.237 L37,37.976 C36.9895635,38.4045729 37.2534627,38.7921198 37.656054,38.9394424 C38.0586452,39.086765 38.5103528,38.9610844 38.779,38.627 L44.242,31.835 C52.5369711,30.6347012 58.4999063,23.236554 57.9111018,14.8758977 C57.3222973,6.51524148 50.3813242,0.0258602076 42,-3.80469013e-06 Z M43.6,29.9 C43.3383341,29.9298602 43.0990113,30.0617393 42.934,30.267 L39.069,35.067 L39.18,30.511 C39.1915769,30.0476368 38.8832228,29.6370499 38.435,29.519 C31.4608747,27.664092 27.044977,20.805307 28.2430734,13.6888702 C29.4411698,6.57243333 35.8594244,1.53764524 43.0564557,2.06853952 C50.2534869,2.59943379 55.8635015,8.52149594 56.0044135,15.7367057 C56.1453255,22.9519155 50.7708146,29.0885038 43.6,29.9 Z" id="Shape"></path>
                            <path d="M49,10 C48.9968457,9.95902263 48.9911683,9.91827869 48.983,9.878 L50.554,8.833 L49.446,7.167 L47.354,8.559 L43,6.382 L43,4 L41,4 L41,6.382 L36.646,8.559 L34.554,7.167 L33.446,8.833 L35.017,9.878 C35.0088317,9.91827869 35.0031543,9.95902263 35,10 L35,20.882 L32.553,22.105 L33.447,23.895 L36.5,22.368 L41,24.618 L41,27 L43,27 L43,24.618 L47.5,22.368 L50.553,23.9 L51.447,22.11 L49,20.882 L49,10 Z M47,20.382 L42,22.882 L37,20.382 L37,10.619 L42,8.119 L47,10.619 L47,20.382 Z" id="Shape"></path>
                            <polygon id="Path" points="41 16 43 16 43 14 45 14 45 12 43 12 43 14 41 14"></polygon>
                        </g>
                    </g>
                </g>
            </g>
        </g>
    </g>
</svg>