<?xml version="1.0" encoding="UTF-8"?>
<svg width="49px" height="73px" viewBox="0 0 49 73" version="1.1" xmlns="http://www.w3.org/2000/svg" xmlns:xlink="http://www.w3.org/1999/xlink">
    <title>Combined Shape</title>
    <g id="Accueil" stroke="none" stroke-width="1" fill="none" fill-rule="evenodd">
        <g transform="translate(-906.000000, -1208.000000)" fill="#276F87" id="à-propos">
            <g transform="translate(240.000000, 810.000000)">
                <g id="4-items" transform="translate(360.000000, 212.000000)">
                    <g id="Group-7" transform="translate(0.000000, 186.000000)">
                        <path d="M315.62668,47.0954779 L315.910693,47.1100202 C318.065008,47.2656879 319.954604,48.6010113 320.815804,50.576322 C321.677004,52.5516326 321.367443,54.8403915 320.012229,56.5176008 C321.946453,57.2902073 323.500348,58.7874509 324.341054,60.6886089 C324.847095,60.3135631 325.396657,60.0007592 325.977831,59.7569758 C325.116822,58.7233499 324.646753,57.4212549 324.649518,56.0775403 C324.651673,54.471576 325.320603,52.9381923 326.497349,51.8417742 C327.675155,50.7386465 329.263696,50.1799935 330.87488,50.3022984 C333.029733,50.4569559 334.920171,51.7921867 335.781556,53.7679216 C336.642941,55.7436565 336.332738,58.0329662 334.976416,59.709879 C335.58201,59.9526306 336.155491,60.2684725 336.684036,60.6503427 C337.510191,58.813749 339.003016,57.3571767 340.862319,56.5735282 C340.00131,55.5399023 339.531241,54.2378073 339.534006,52.8940927 C339.535981,50.3515037 341.20116,48.1077107 343.638982,47.3627278 C346.076803,46.6177449 348.716761,47.5459146 350.146968,49.650838 C351.577174,51.7557613 351.462929,54.5448394 349.865331,56.5264315 C352.902055,57.7392836 354.888723,60.6776964 354.877547,63.9397581 L354.877547,63.9397581 L354.877547,67.2600806 C354.877547,68.641906 353.754166,69.7620968 352.368464,69.7620968 L352.368464,69.7620968 L339.99006,69.7620968 L339.99006,70.4479435 C339.99006,71.8297689 338.866726,72.9499597 337.481024,72.9499597 L337.481024,72.9499597 L323.610482,72.9499597 C322.22478,72.9499597 321.101446,71.8297689 321.101446,70.4479435 L321.101446,70.4479435 L321.101446,69.7620968 L308.641867,69.7620968 C307.256165,69.7620968 306.132828,68.641906 306.132828,67.2600806 L306.132828,67.2600806 L306.132828,63.9323992 C306.12991,60.7232279 308.054385,57.8242996 311.018072,56.5735282 C310.157063,55.5399023 309.686994,54.2378073 309.689759,52.8940927 C309.688494,51.2857605 310.355951,49.7488828 311.533163,48.649496 C312.710968,47.5463683 314.299509,46.9877153 315.910693,47.1100202 Z M330.455723,52.3524798 C328.932965,52.3531976 327.562689,53.2745059 326.991062,54.6819519 C326.419436,56.0893979 326.760612,57.7019187 327.853705,58.7591129 C328.268625,59.1574753 328.444011,59.7434418 328.315933,60.3034214 C328.187855,60.8634011 327.775024,61.3155826 327.227922,61.4951411 C324.795785,62.3018945 323.155467,64.571632 323.157378,67.127621 L323.157378,67.127621 L323.157378,70.4479435 C323.157378,70.6917951 323.355615,70.8894758 323.600151,70.8894758 L323.600151,70.8894758 L337.481024,70.8894758 C337.72556,70.8894758 337.923819,70.6917951 337.923819,70.4479435 L337.923819,70.4479435 L337.923819,67.127621 C337.931124,64.5309537 336.238499,62.2334659 333.751416,61.4642339 C333.195409,61.2936877 332.771476,60.8423849 332.637108,60.2779839 C332.502564,59.7233286 332.670784,59.1390028 333.07988,58.7399798 L333.07988,58.7399798 L333.231752,58.5821984 C334.160122,57.5594614 334.44986,56.1013973 333.968643,54.7953156 C333.462098,53.4204927 332.195176,52.4688415 330.730241,52.3627823 C330.638735,52.3524798 330.547229,52.3524798 330.455723,52.3524798 Z M315.487108,49.1646169 C313.964351,49.1653347 312.594074,50.086643 312.022448,51.494089 C311.450822,52.901535 311.791997,54.5140558 312.88509,55.57125 C313.300011,55.9696124 313.475397,56.5555789 313.347319,57.1155585 C313.21924,57.6755382 312.80641,58.1277197 312.259307,58.3072782 C309.826313,59.1128671 308.185473,61.383326 308.18876,63.9397581 L308.18876,63.9397581 L308.18876,67.2600806 C308.18876,67.5039322 308.387,67.7016129 308.631536,67.7016129 L308.631536,67.7016129 L321.085211,67.7016129 L321.085211,67.1232056 C321.086239,65.3807885 321.656609,63.6806699 322.714608,62.2884274 C322.164745,60.3743222 320.684106,58.8657278 318.776898,58.276371 C318.220726,58.106087 317.796685,57.6546683 317.66259,57.090121 C317.526759,56.5358901 317.695198,55.9513637 318.105361,55.5535887 C318.822309,54.8499381 319.225453,53.8883893 319.224096,52.8852621 L319.224096,52.8852621 L319.224096,52.6747984 C319.113536,50.8073138 317.632681,49.3104595 315.761627,49.1749194 C315.67012,49.1646169 315.577139,49.1646169 315.487108,49.1646169 Z M345.341687,49.1646169 C343.818929,49.1653347 342.448652,50.086643 341.877026,51.494089 C341.3054,52.901535 341.646576,54.5140558 342.739669,55.57125 C343.154635,55.9694026 343.330226,56.5551682 343.20246,57.115103 C343.074694,57.6750379 342.662229,58.1273706 342.115361,58.3072782 C340.28434,58.912857 338.862606,60.3679371 338.303102,62.2089516 C339.400806,63.61446 339.994723,65.3461465 339.99006,67.127621 L339.99006,67.127621 L339.99006,67.7016129 L352.366988,67.7016129 C352.611524,67.7016129 352.809759,67.5039322 352.809759,67.2600806 L352.809759,67.2600806 L352.800904,63.9397581 C352.810071,61.3434247 351.118269,59.045428 348.631476,58.276371 C348.075305,58.106087 347.651263,57.6546683 347.517169,57.090121 C347.380717,56.5358778 347.549244,55.9510457 347.95994,55.5535887 C348.676888,54.8499381 349.080031,53.8883893 349.078675,52.8852621 L349.078675,52.8852621 L349.078675,52.6733266 C348.96812,50.8066528 347.487922,49.3104532 345.617681,49.1749194 C345.526175,49.1646169 345.433193,49.1646169 345.341687,49.1646169 Z M332.747801,2.19147177 C334.130723,0.569576613 336.391807,-0.142762097 339.469066,0.0794758065 C339.980661,0.116893038 340.387244,0.522965417 340.423976,1.03318548 C340.646837,4.10183468 339.931024,6.35659274 338.30753,7.73564516 C336.96003,8.87921371 335.287831,9.13824597 334.046596,9.13824597 C333.730098,9.13791771 333.413829,9.12121515 333.099066,9.08820565 L333.099066,9.08820565 L333.099066,12.031754 C342.463095,12.6529698 349.645507,20.5682246 349.332459,29.9214865 C349.01941,39.2747483 341.323733,46.6948243 331.939006,46.6920371 L331.939006,46.6920371 L331.899157,46.6920371 C324.894921,46.6747316 318.584104,42.4706314 315.886452,36.024794 C313.1888,29.5789566 314.630433,22.1485036 319.544367,17.1711895 C321.381385,15.3140832 323.611855,13.8904354 326.072289,13.0045968 C327.670865,12.4347448 329.344675,12.1020102 331.040181,12.0170363 L331.040181,12.0170363 L331.040181,9.10733871 C330.804036,9.12941532 330.530994,9.14413306 330.235813,9.14413306 C328.996054,9.14413306 327.323855,8.88510081 325.976355,7.74153226 C324.348434,6.36247984 323.637048,4.10772177 323.858434,1.03907258 C323.891995,0.528619188 324.29607,0.120034594 324.80744,0.0794758065 C327.883223,-0.142762097 330.145783,0.572520161 331.528705,2.19147177 C331.76075,2.46494168 331.964938,2.76075311 332.138253,3.07453629 C332.311568,2.76075311 332.515756,2.46494168 332.747801,2.19147177 Z M331.975904,14.0525 L331.931627,14.0525 C331.69253,14.0525 331.456386,14.0583871 331.22762,14.0686895 C327.367339,14.2406555 323.716025,15.8658169 321.00994,18.6164718 C319.520739,20.1207886 318.36258,21.9183313 317.609458,23.894254 C317.584367,23.9619556 317.562229,24.0296573 317.537139,24.0973589 C318.337078,25.5117339 320.106687,28.8423589 320.148012,30.6909073 C321.060603,31.8930572 322.344058,32.7628477 323.800873,33.1664315 C324.140758,33.2620985 324.426921,33.491663 324.593434,33.8022379 C325.10262,34.707379 324.745452,36.5706452 324.467982,37.6627016 C324.885663,38.174879 325.63247,38.9740524 326.346807,39.3316935 L326.346807,39.3316935 L326.52244,39.42 L326.64494,39.5671774 C327.080575,40.1723345 327.269917,40.9196951 327.174789,41.6585685 C327.078145,42.3610733 326.783903,43.021903 326.326145,43.5645161 C328.100952,44.2651712 329.991814,44.6276081 331.900633,44.6331096 L331.900633,44.6331096 L331.943434,44.6331096 C336.081228,44.6468603 340.046135,42.9792437 342.924157,40.0145968 C343.495298,39.4289464 344.01892,38.7990111 344.49009,38.1307258 C345.426727,36.8060874 346.144272,35.3402302 346.615392,33.7889919 C346.305078,33.0856876 345.953702,32.4011205 345.563072,31.7388105 C344.959428,31.4959677 343.63259,30.874879 342.654066,30.38625 C341.02762,29.5753024 341.693253,27.9416331 341.944157,27.3279032 C341.975151,27.2528427 342.013524,27.1586492 342.038614,27.088004 C341.880442,26.7643972 341.699949,26.4521221 341.498434,26.1534274 C341.138313,25.5882661 340.825422,25.0952218 340.726536,24.6286694 C340.441687,24.2989919 339.024819,23.8280242 338.335572,23.5984274 C335.757169,22.7418548 333.887199,21.886754 332.620873,20.9845565 C331.946386,20.5032863 331.792892,19.9616734 331.78256,19.5922581 C331.75009,18.6414919 332.586928,17.9747782 333.258464,17.4390524 C333.410482,17.3183669 333.625964,17.1461694 333.735181,17.0387298 C333.837018,16.3072581 334.377199,15.0989315 334.759458,14.3144758 C333.841562,14.1426686 332.909826,14.0549777 331.975904,14.0525 L331.975904,14.0525 Z M316.855271,26.5758266 C316.691977,27.4748333 316.608512,28.3864496 316.605843,29.3000806 C316.584924,34.9318105 319.677256,40.1169185 324.649518,42.7874194 C325.10262,42.3326411 325.365331,41.8763911 325.416988,41.4495766 C325.445309,41.2204491 325.410617,40.9879546 325.316627,40.7769758 C323.948464,39.9822177 322.828253,38.4324395 322.778072,38.3632661 L322.778072,38.3632661 L322.531596,38.0173992 L322.646717,37.6097177 C322.955181,36.5206048 323.138193,35.2769556 323.074729,34.7883266 C319.947289,33.8198992 318.546657,31.4871371 318.48762,31.3855847 L318.48762,31.3855847 L318.332651,31.1221371 L318.373976,30.8204234 C318.464006,30.1640121 317.765904,28.3890524 316.855271,26.5758266 Z M331.961145,24.8641532 C333.343255,23.8339484 335.190083,23.6698377 336.733085,24.4401144 C338.276087,25.2103912 339.250995,26.7831313 339.252126,28.5038508 L339.252126,28.5038508 L339.252126,29.1911694 C339.256144,30.6705569 338.575371,32.0690263 337.407229,32.9809879 L337.407229,32.9809879 L333.329307,36.1865121 C332.527885,36.8202101 331.394405,36.8202101 330.592982,36.1865121 L330.592982,36.1865121 L326.51506,32.9809879 C325.347295,32.0688713 324.667043,30.6703554 324.671633,29.1911694 L324.671633,29.1911694 L324.671633,28.5038508 C324.672074,26.7831593 325.646622,25.2101472 327.189536,24.4397584 C328.732449,23.6693696 330.579307,23.8336321 331.961145,24.8641532 Z M335.537535,26.1571037 C334.542048,25.8043636 333.431702,26.1160951 332.766988,26.9349395 C332.570785,27.1748783 332.276777,27.3141085 331.96631,27.3141085 C331.655843,27.3141085 331.361836,27.1748783 331.165633,26.9349395 C330.500918,26.1160951 329.390572,25.8043636 328.395085,26.1571037 C327.399598,26.5098437 326.735461,27.4503441 326.737922,28.5038508 L326.737922,28.5038508 L326.730534,29.1911694 C326.728479,30.0389351 327.118328,30.8403423 327.787289,31.3635081 L327.787289,31.3635081 L331.881446,34.5690323 C331.934221,34.6090203 332.007255,34.6090203 332.06003,34.5690323 L332.06003,34.5690323 L336.137952,31.3635081 C336.806913,30.8403423 337.196762,30.0389351 337.194707,29.1911694 L337.194707,29.1911694 L337.194707,28.5038508 C337.19716,27.4503441 336.533022,26.5098437 335.537535,26.1571037 Z M336.524639,14.7515927 C335.988886,15.8112702 335.512169,16.9739718 335.491506,17.2683266 C335.492982,17.9232661 334.945422,18.3589113 334.366867,18.8195766 C334.089375,19.0256087 333.831926,19.2572062 333.597922,19.5113105 L333.597922,19.5113105 L333.645151,19.5466331 C334.750602,20.3340323 336.515783,21.1332056 338.890512,21.9235484 C340.618795,22.5004839 342.251145,23.040625 342.456295,24.2666129 C342.494669,24.4270363 342.804608,24.9127218 342.990572,25.2070766 C343.495331,26.0003629 343.930723,26.6862097 343.797892,27.3499798 C343.745604,27.5701012 343.672974,27.7849174 343.580934,27.9916734 C343.504187,28.1771169 343.33003,28.6054032 343.356596,28.7525806 C343.382553,28.7733378 343.410773,28.7911113 343.440723,28.8055645 C344.68491,29.4251815 346.078163,30.0565726 346.329066,30.1404637 C346.528313,30.2066935 346.737892,30.2773387 347.180663,30.9940927 C347.238896,30.4593257 347.268947,29.9218797 347.270693,29.3839718 C347.285936,26.2783492 346.346405,23.2426611 344.578645,20.6857863 C342.63397,17.8662156 339.798598,15.777113 336.524639,14.7515927 Z M338.39756,2.10610887 L338.085903,2.11053631 C336.347781,2.16070533 335.084977,2.63709229 334.321114,3.53225806 C333.386867,4.62725806 333.360301,6.18145161 333.434096,7.05715726 C334.319639,7.13368952 335.872289,7.10719758 336.976265,6.1652621 C337.920843,5.35872984 338.39756,3.99586694 338.39756,2.10610887 L338.39756,2.10610887 Z M325.87747,2.11346774 L325.881882,2.42354371 C325.931882,4.15293795 326.406663,5.41089606 327.298765,6.17262097 C328.402741,7.10719758 329.955392,7.13368952 330.840934,7.05568548 C330.919157,6.18145161 330.89259,4.62431452 329.946536,3.53078629 C329.137741,2.58885081 327.77253,2.11346774 325.87747,2.11346774 L325.87747,2.11346774 Z" id="Combined-Shape"></path>
                    </g>
                </g>
            </g>
        </g>
    </g>
</svg>