<?xml version="1.0" encoding="UTF-8"?>
<svg width="68px" height="44px" viewBox="0 0 68 44" version="1.1" xmlns="http://www.w3.org/2000/svg" xmlns:xlink="http://www.w3.org/1999/xlink">
    <title>Combined Shape</title>
    <g id="Accueil" stroke="none" stroke-width="1" fill="none" fill-rule="evenodd">
        <g transform="translate(-601.000000, -1033.000000)" fill="#276F87" fill-rule="nonzero" id="à-propos">
            <g transform="translate(240.000000, 810.000000)">
                <g id="4-items" transform="translate(360.000000, 212.000000)">
                    <g id="Group-4" transform="translate(0.000000, 11.000000)">
                        <g id="noun_Graph_907123" transform="translate(1.000000, 0.000000)">
                            <path d="M55.5333333,-1.15463195e-13 C62.418656,-1.15463195e-13 68,5.556089 68,12.4102564 C68,19.2644238 62.418656,24.8205128 55.5333333,24.8205128 C53.6874378,24.8205128 51.9352631,24.4211802 50.3592278,23.7045604 L41.0749405,33.9612284 C41.6131468,34.9305015 41.9195067,36.0450739 41.9195067,37.2307692 C41.9195067,40.968834 38.8745627,44 35.1195067,44 C31.3636737,44 28.3195067,40.9691888 28.3195067,37.2307692 C28.3195067,35.4808707 28.9864948,33.8860118 30.0812518,32.6844582 L24.9530078,27.5792895 C23.7459568,28.6691938 22.1438591,29.3333333 20.3861733,29.3333333 C18.6276336,29.3333333 17.0251095,28.6689011 15.8180205,27.5785017 L11.8371862,31.5413113 C12.9325453,32.7429391 13.6,34.3382144 13.6,36.0888 C13.6,39.8268648 10.5550561,42.8580308 6.8,42.8580308 C3.04494395,42.8580308 3.66817687e-13,39.8268648 3.66817687e-13,36.0888 C3.66817687e-13,32.3499617 3.04458754,29.3195692 6.8,29.3195692 C7.97420014,29.3195692 9.07890879,29.6158257 10.0427897,30.1373636 L14.4075188,25.7919146 C13.8837135,24.832467 13.5861733,23.732866 13.5861733,22.5641026 C13.5861733,18.825683 16.6303403,15.7948718 20.3861733,15.7948718 C24.1412293,15.7948718 27.1861733,18.8260378 27.1861733,22.5641026 C27.1861733,23.7328786 26.8884943,24.832547 26.3645051,25.7920618 L31.8772217,31.2790433 C32.8409452,30.7576942 33.9454557,30.4615385 35.1195067,30.4615385 C36.8547071,30.4615385 38.4382747,31.1087946 39.6398238,32.1739637 L48.3495823,22.5543009 C45.1536427,20.3073881 43.0666667,16.601511 43.0666667,12.4102564 C43.0666667,5.556089 48.6480107,-1.15463195e-13 55.5333333,-1.15463195e-13 Z M35.1195067,32.7179487 C34.1649018,32.7179487 33.2792646,33.0116249 32.5487572,33.5131583 L32.534721,33.5300384 C32.4522992,33.6120874 32.3603407,33.6788568 32.2623974,33.7303467 C31.2389155,34.5555747 30.5861733,35.8172976 30.5861733,37.2307692 C30.5861733,39.7230777 32.6155891,41.7435897 35.1195067,41.7435897 C37.6227173,41.7435897 39.65284,39.7226532 39.65284,37.2307692 C39.65284,34.7388853 37.6227173,32.7179487 35.1195067,32.7179487 Z M6.8,31.5759795 C4.29636289,31.5759795 2.26666667,33.5962124 2.26666667,36.0888 C2.26666667,38.5806839 4.29678938,40.6016205 6.8,40.6016205 C9.30321062,40.6016205 11.3333333,38.5806839 11.3333333,36.0888 C11.3333333,34.6743034 10.6797003,33.4119215 9.65674654,32.5845271 C9.55838968,32.5353689 9.46698457,32.4688808 9.38501232,32.3872795 C9.380861,32.3831469 9.37674862,32.3789903 9.37267518,32.3748101 C8.6430691,31.8705971 7.75609278,31.5759795 6.8,31.5759795 Z M20.3861733,18.0512821 C17.8822558,18.0512821 15.85284,20.0717941 15.85284,22.5641026 C15.85284,23.5151552 16.148353,24.3975074 16.6529788,25.1251032 L16.6680544,25.1371923 C16.7506492,25.2194134 16.8178305,25.3111678 16.8695984,25.4088975 C17.6988074,26.4271095 18.9661885,27.0769231 20.3861733,27.0769231 C21.8057573,27.0769231 23.0731922,26.4269729 23.904497,25.4097687 C23.9538361,25.311055 24.0210175,25.2193006 24.1036123,25.1370795 C24.1087216,25.1319933 24.1138676,25.1269658 24.1190493,25.1219971 C24.6241623,24.3964964 24.9195067,23.5145565 24.9195067,22.5641026 C24.9195067,20.0722186 22.889384,18.0512821 20.3861733,18.0512821 Z M54.4007696,2.31829093 C49.3003209,2.87912834 45.3333333,7.1833519 45.3333333,12.4102564 C45.3333333,18.0182429 49.899856,22.5641026 55.5333333,22.5641026 C60.7836514,22.5641026 65.1072162,18.6155844 65.6710602,13.5386968 L55.5333333,13.5384615 C54.9074107,13.5384615 54.4,13.0333468 54.4,12.4102564 C54.4,12.4041775 54.4000483,12.3981098 54.4001445,12.3920537 Z M56.6668219,2.31839267 L56.666,11.282 L65.6711628,11.2827398 C65.1488528,6.57589321 61.394947,2.83872342 56.6668219,2.31839267 Z" id="Combined-Shape"></path>
                        </g>
                    </g>
                </g>
            </g>
        </g>
    </g>
</svg>