<?xml version="1.0" encoding="UTF-8"?>
<svg width="50px" height="61px" viewBox="0 0 50 61" version="1.1" xmlns="http://www.w3.org/2000/svg" xmlns:xlink="http://www.w3.org/1999/xlink">
    <title>Combined Shape</title>
    <g id="Accueil" stroke="none" stroke-width="1" fill="none" fill-rule="evenodd">
        <g transform="translate(-901.000000, -1022.000000)" fill="#276F87" id="à-propos">
            <g transform="translate(240.000000, 810.000000)">
                <g id="4-items" transform="translate(360.000000, 212.000000)">
                    <g id="Group-9" transform="translate(300.000000, 0.000000)">
                        <path d="M33.5924467,38.2321612 L33.6849304,38.1860317 C35.7551036,37.2148622 38.2506826,37.6136738 39.9173514,39.1738816 C40.8635888,38.7424262 41.9396314,38.6597634 42.9928,38.9548 C43.9588444,39.2268865 44.7775972,39.7831703 45.3569384,40.5402895 C46.2734445,40.1949115 47.308594,40.2236182 48.2619,40.6535 C49.6226892,41.2673236 50.4783954,42.5443681 50.5137597,43.9995475 C50.5173694,44.0645738 50.5170857,44.1295074 50.5112454,44.1940181 L50.5149,44.0935 C50.5149,44.1386136 50.5122388,44.183111 50.5070644,44.2268424 C50.5041147,44.257434 50.4991949,44.2878519 50.4930279,44.3180616 C50.4919446,44.3205045 50.4914683,44.3228123 50.4909849,44.3251175 C50.4854442,44.3552108 50.4759745,44.3920452 50.4646252,44.4284103 C50.4616797,44.4361994 50.4591171,44.4441039 50.4564697,44.4519695 C50.4482004,44.4780498 50.438628,44.5034111 50.4281151,44.5284647 C50.4205848,44.5450609 50.4131136,44.5616846 50.4052557,44.5780881 C50.395988,44.5987516 50.3854704,44.6191384 50.3742949,44.6392511 C50.3661929,44.6525653 50.3583853,44.6659274 50.3503131,44.67911 C50.3380381,44.7004204 50.3244266,44.7211321 50.3100692,44.741468 C50.3001804,44.7542454 50.2907224,44.7670314 50.2810034,44.7796054 C50.2675552,44.7982392 50.2525248,44.8165271 50.2368383,44.8344288 C50.2236678,44.8482296 50.2111608,44.8617758 50.1983306,44.8750067 C50.1873229,44.8876253 50.1747857,44.9000286 50.1619,44.9122 C48.2202132,46.7356741 46.1477807,48.45175 43.9892287,50.0254131 C44.3157303,50.6757656 44.5222479,51.3992961 44.5813,52.1667 C44.5939811,52.3334434 44.569608,52.4944357 44.5151142,52.641565 C44.4537439,52.8074582 44.3547508,52.9550248 44.2277712,53.073691 C44.2136232,53.0861454 44.1993749,53.0987793 44.184803,53.1110524 C44.0744342,53.2050058 43.9448686,53.2776323 43.8023544,53.3226976 C43.7959538,53.3237286 43.790184,53.3254975 43.7843933,53.3272214 C43.7058471,53.3516539 43.6226786,53.3668286 43.5366,53.3724 C41.6756,53.4984 39.7676,53.8094 37.9226,54.1104 L37.5242284,54.1744 L37.4341,54.2246 C32.9261,56.7426 28.1151,58.7176 23.1421,60.0916 L23.0562284,60.1094 L22.6988164,60.2027535 C21.6650312,60.4526344 20.61,60.5759 19.5565,60.5759 C17.5788449,60.5759 15.611146,60.1408139 13.7974518,59.2815694 C13.7936744,59.2799274 13.7900356,59.2782246 13.7864,59.2765 L1.7974,53.5885 C1.2384,53.3225 0.9984,52.6545 1.2654,52.0945 C1.5294,51.5345 2.1974,51.2935 2.7594,51.5615 L14.7474,57.2485 L14.7522284,57.2514 L15.0803015,57.4005885 C17.4307789,58.4226562 20.0654545,58.6094 22.5425,57.9269 L22.5762284,57.9184 L23.4425805,57.6730153 C26.0764496,56.9023096 28.6596484,55.9569317 31.1707841,54.8457393 L30.9876,54.8464 L30.9876,54.8464 C29.0726,54.8464 27.3036,54.6724 25.8356,54.4934 C25.2206,54.4194 24.7826,53.8604 24.8566,53.2444 C24.9316,52.6304 25.4916,52.1964 26.1066,52.2674 C29.4006,52.6674 31.8026,52.7114 34.1466,52.4124 C35.2846,52.2684 36.4226,52.0814 37.5626,51.8974 C39.0405179,51.6558847 40.5572817,51.4082997 42.0845188,51.2482748 C41.5969014,50.0812177 40.496539,49.2401685 39.1723,49.1207 L26.5113,47.9757 C25.5694703,47.8901867 24.7057379,47.6996973 23.893523,47.4331173 L23.9437,47.4353 C23.7041444,47.4353 23.4664415,47.3584161 23.270622,47.2115829 C21.7577369,46.6260635 20.4092737,45.7879792 19.0368845,44.9016085 C18.9822392,44.8736431 18.9301843,44.8405167 18.8808463,44.8029091 C18.7921912,44.7433179 18.702338,44.6850669 18.6123,44.6267 C16.2913,43.1207 13.8603,42.0127 11.2993,41.2747 L11.2732284,41.2654 L10.9120159,41.1677652 C9.38172276,40.7804026 7.76535719,40.7206832 6.20657364,40.9947526 C6.19417954,40.99906 6.18128599,41.001637 6.1683,41.004 L4.7213,41.263 L4.69022842,41.2664 L3.40022842,41.4984 L3.4011,48.0877 C3.4011,48.7067 2.8991,49.2087 2.2791,49.2087 C1.6581,49.2087 1.1571,48.7067 1.1571,48.0877 L1.1571,40.5627 L1.15548281,40.5191439 C1.17113199,40.0978798 1.42534311,39.7195824 1.80725946,39.5432294 C1.8112963,39.5422506 1.8146657,39.5407133 1.81804404,39.5391921 C1.84425588,39.5265282 1.87177606,39.5154261 1.89987955,39.5053755 C1.91216933,39.5017847 1.92390123,39.4978107 1.93571917,39.494027 C1.96559863,39.4836405 1.99691845,39.4750326 2.02884484,39.467729 C2.03353495,39.4675411 2.03723411,39.4667246 2.04094015,39.4659264 C2.0530987,39.4623757 2.06635042,39.4597252 2.0797,39.4573 L5.7727,38.7933 C7.8067,38.4273 9.9347,38.5383 11.9237,39.1193 L11.9502284,39.1284 L12.5105303,39.2960553 C14.9878841,40.066479 17.3463485,41.1604366 19.5363922,42.5538908 L25.6709,38.2369 L25.6715,38.2356 C28.0853999,36.5362875 31.2347408,36.5660527 33.5924467,38.2321612 Z M45.8068783,42.8203601 L45.6994919,42.9078781 C45.6757069,42.9298478 45.650875,42.9508612 45.6250349,42.9708333 L45.6793,42.9228 C43.9729508,44.4259133 42.1790353,45.7813186 40.3873275,47.0707804 C41.2220726,47.2979722 41.9773814,47.7075175 42.6104964,48.2536373 L41.8289,48.8142 C44.0595022,47.2429582 46.2035075,45.5116432 48.2110123,43.6619776 C48.0337303,43.0592632 47.5180324,42.7789297 47.3379,42.6975 C47.1344625,42.6065625 46.4502633,42.3583008 45.8068783,42.8203601 Z M40.3928,41.4918 L40.3781171,41.5026231 C40.3749609,41.5050291 40.3717886,41.5074214 40.3686,41.5098 C38.1469622,43.1663969 35.8571605,44.7892784 33.6140258,46.3671495 L37.0672284,46.6764 L37.5700613,46.3233322 C39.5692437,44.9116516 41.6009358,43.4484448 43.5109102,41.830894 C43.2264646,41.4913665 42.8389628,41.2420946 42.3848,41.1138 C41.6708,40.9158 40.9498,41.0538 40.3928,41.4918 Z M34.3014596,40.399922 L34.1605318,40.4937898 C34.1543148,40.4983463 34.1480375,40.50285 34.1417,40.5073 L26.7062342,45.7401489 C26.7082558,45.7403332 26.7102777,45.7405169 26.7123,45.7407 L30.1602284,46.0524 L31.1976,45.3228 C33.2664,43.87 35.39152,42.37688 37.475168,40.85624 L37.9782724,40.4843343 C36.9031971,39.7525295 35.4527335,39.6868452 34.3014596,40.399922 Z M27.1560571,39.9414928 L26.9713142,40.0659348 C26.9685214,40.0679338 26.9657167,40.0699222 26.9629,40.0719 L21.587918,43.8556956 C22.3364527,44.3058924 23.0722098,44.703219 23.8351313,45.0182109 L31.5073532,39.61723 C30.1187763,38.9996854 28.4921858,39.096551 27.1560571,39.9414928 Z M11.1663,0.000400000005 C14.5493,0.1304 17.7783,1.4764 20.2273,3.7354 C22.6763,1.4774 25.9003,0.1304 29.2413,0.0014 C32.0733,0.0094 34.5433,1.1744 36.4313,3.3704 C38.7503,6.0664 39.8563,10.0034 39.3173,13.6404 C38.5753,18.6654 34.9043,22.1754 31.4153,24.9464 C30.3343,25.8044 29.2083,26.6304 28.1193,27.4284 C25.6553,29.2374 23.1073,31.1054 21.0603,33.3804 C20.8493,33.6174 20.5443,33.7524 20.2273,33.7524 C19.9103,33.7524 19.6053,33.6174 19.3943,33.3804 C17.3553,31.1174 14.9183,29.3424 12.3373,27.4644 C9.4923,25.3924 6.5493,23.2514 4.2303,20.4084 C1.2953,16.8124 0.2803,12.1464 1.5163,7.9294 C2.8803,3.2754 6.8483,0.0144 11.1663,0.000400000005 Z M11.1263,2.2424 C7.2863,2.2574 4.5593,5.5274 3.6713,8.5604 C2.6423,12.0684 3.5013,15.9674 5.9683,18.9904 C8.1043,21.6074 10.8033,23.5724 13.6583,25.6504 C15.9013,27.2844 18.2123,28.9654 20.2273,30.9984 C22.2453,28.9574 24.5523,27.2644 26.7933,25.6214 C27.8653,24.8354 28.9743,24.0214 30.0203,23.1904 C33.1693,20.6924 36.4703,17.5664 37.1003,13.3134 C37.5403,10.3464 36.6083,7.0174 34.7313,4.8344 C33.7193,3.6574 31.9523,2.2524 29.2813,2.2434 C26.1893,2.3634 23.1753,3.7624 21.0553,6.0794 C20.6303,6.5444 19.8233,6.5444 19.3983,6.0794 C17.2793,3.7624 14.2653,2.3634 11.1263,2.2424 Z" id="Combined-Shape"></path>
                    </g>
                </g>
            </g>
        </g>
    </g>
</svg>