<?xml version="1.0" encoding="UTF-8"?>
<svg width="60px" height="60px" viewBox="0 0 60 60" version="1.1" xmlns="http://www.w3.org/2000/svg" xmlns:xlink="http://www.w3.org/1999/xlink">
    <title>Icons/60/Arrow</title>
    <g id="Territoires" stroke="none" stroke-width="1" fill="none" fill-rule="evenodd">
        <g id="Fiche-Territoire" transform="translate(-570.000000, -4530.000000)" fill="#122C33">
            <g id="écosystème" transform="translate(120.000000, 3937.000000)">
                <g id="texte" transform="translate(0.000000, 116.000000)">
                    <g id="color" transform="translate(450.000000, 477.000000)">
                        <path d="M30,0 C46.5685425,0 60,13.4314575 60,30 C60,46.5685425 46.5685425,60 30,60 C13.4314575,60 0,46.5685425 0,30 C0,13.4314575 13.4314575,0 30,0 Z M30,2 C14.536027,2 2,14.536027 2,30 C2,45.463973 14.536027,58 30,58 C45.463973,58 58,45.463973 58,30 C58,14.536027 45.463973,2 30,2 Z M28.6128994,23.2097046 L28.7071068,23.2928932 L35.2071068,29.7928932 C35.5675907,30.1533772 35.5953203,30.7206082 35.2902954,31.1128994 L35.2071068,31.2071068 L28.7071068,37.7071068 C28.3165825,38.0976311 27.6834175,38.0976311 27.2928932,37.7071068 C26.9324093,37.3466228 26.9046797,36.7793918 27.2097046,36.3871006 L27.2928932,36.2928932 L33.085,30.5 L27.2928932,24.7071068 C26.9324093,24.3466228 26.9046797,23.7793918 27.2097046,23.3871006 L27.2928932,23.2928932 C27.6533772,22.9324093 28.2206082,22.9046797 28.6128994,23.2097046 Z"></path>
                    </g>
                </g>
            </g>
        </g>
    </g>
</svg>