<?xml version="1.0" encoding="UTF-8"?>
<svg width="32px" height="32px" viewBox="0 0 32 32" version="1.1" xmlns="http://www.w3.org/2000/svg" xmlns:xlink="http://www.w3.org/1999/xlink">
    <title>Icons/Arrow/Circle</title>
    <g id="Accueil" stroke="none" stroke-width="1" fill="none" fill-rule="evenodd">
        <g id="MOBILE---Accueil" transform="translate(-256.000000, -1226.000000)" fill="#122C33">
            <g id="a-propos" transform="translate(31.000000, 624.000000)">
                <g id="navigation" transform="translate(1.000000, 602.000000)">
                    <g id="Icons/Arrow/Circle" transform="translate(224.000000, 0.000000)">
                        <path d="M16,0 C24.836556,0 32,7.163444 32,16 C32,24.836556 24.836556,32 16,32 C7.163444,32 0,24.836556 0,16 C0,7.163444 7.163444,0 16,0 Z M16,1.06666667 C7.75254774,1.06666667 1.06666667,7.75254774 1.06666667,16 C1.06666667,24.2474523 7.75254774,30.9333333 16,30.9333333 C24.2474523,30.9333333 30.9333333,24.2474523 30.9333333,16 C30.9333333,7.75254774 24.2474523,1.06666667 16,1.06666667 Z M15.260213,12.3785091 L15.3104569,12.4228764 L18.7771236,15.8895431 C18.9693817,16.0818012 18.9841708,16.3843244 18.8214909,16.5935464 L18.7771236,16.6437903 L15.3104569,20.1104569 C15.1021773,20.3187366 14.7644893,20.3187366 14.5562097,20.1104569 C14.3639516,19.9181988 14.3491625,19.6156756 14.5118425,19.4064536 L14.5562097,19.3562097 L17.6453333,16.2666667 L14.5562097,13.1771236 C14.3639516,12.9848655 14.3491625,12.6823423 14.5118425,12.4731203 L14.5562097,12.4228764 C14.7484678,12.2306183 15.0509911,12.2158292 15.260213,12.3785091 Z" id="color"></path>
                    </g>
                </g>
            </g>
        </g>
    </g>
</svg>