<?xml version="1.0" encoding="UTF-8"?>
<svg width="23px" height="24px" viewBox="0 0 23 24" version="1.1" xmlns="http://www.w3.org/2000/svg" xmlns:xlink="http://www.w3.org/1999/xlink">
    <title>Icons/Espèces</title>
    <g id="Territoires" stroke="none" stroke-width="1" fill="none" fill-rule="evenodd">
        <g id="Carte/Tuto" transform="translate(-924.000000, -381.000000)">
            <g id="intro" transform="translate(240.000000, 223.000000)">
                <g id="Group" transform="translate(360.000000, 6.000000)">
                    <g id="datas" transform="translate(1.000000, 152.000000)">
                        <g id="Icons/Espèces" transform="translate(322.000000, 0.000000)">
                            <g id="old" transform="translate(-3.600000, -6.000000)"></g>
                            <path d="M14.3366483,0.214553758 C14.6691522,0.526073085 14.7124547,1.03061006 14.4556,1.39193192 L14.3780985,1.48667084 L13.3269113,2.60988794 C14.6811741,3.5840481 15.7364259,5.00251016 16.3129785,6.67176373 C17.9248877,6.2765369 19.683538,6.05523001 21.585256,6.00822194 L22.074668,6 L22.5797361,6 L23.1299277,6.00782084 C23.6006534,6.01866064 23.8680224,6.32251588 23.9367162,6.67002481 L23.9505286,6.76569495 L23.9795607,7.24413457 C24.1495303,10.7439692 23.2597155,14.5216056 21.299158,18.6210338 L21.0485107,19.1351416 L20.7755542,19.6742553 C18.5074571,23.262815 15.668164,24.4826461 12.6627706,23.8333792 C11.6243889,23.6090535 10.6474238,23.1761926 9.7547724,22.614289 L9.57434637,22.497969 L9.57434637,22.497969 L9.40016853,22.3805814 L9.07950801,22.1511855 C9.07089337,22.1447758 9.06234385,22.1383931 9.05386138,22.1320392 L7.43961759,23.7482363 C7.10942701,24.0786471 6.5750665,24.0776586 6.24608998,23.7460285 C5.94702041,23.4445466 5.92064565,22.9735935 6.16639896,22.6422148 L6.24828823,22.5472974 L7.86303545,20.9319239 C7.05389314,19.890197 6.53890695,18.7268947 6.35307425,17.5043611 C3.34850697,16.3372604 1.2,13.2388359 1.2,9.6 C1.2,7.70586786 1.7821466,5.95816239 2.76426972,4.55306674 C2.8017144,4.4785126 2.8516851,4.40958566 2.91206043,4.34781335 C3.40589007,3.68531996 3.99056166,3.10521618 4.64596481,2.62948734 L3.57568968,1.48667084 C3.23585041,1.12393924 3.25440832,0.554393024 3.61713992,0.214553758 C3.94689592,-0.0943910287 4.44757309,-0.107139808 4.79120632,0.165621116 L4.889257,0.256003997 L6.26929408,1.72915458 C7.11917293,1.38704154 8.03930373,1.2 9,1.2 C9.94793037,1.2 10.8563662,1.38210369 11.6967888,1.71559862 L13.0645312,0.256003997 L13.1625819,0.165621116 C13.5062151,-0.107139808 14.0068923,-0.0943910287 14.3366483,0.214553758 Z M22.3062953,7.6952646 L22.0551387,7.69560441 C16.4428835,7.75134968 12.2539536,9.36412262 9.46586979,12.4719785 C7.5197468,14.9914309 7.53311838,17.6179277 9.06903061,19.7238816 L11.232,17.559 L11.2329879,13.2683473 C11.2329879,12.8002129 11.6108385,12.420715 12.0769408,12.420715 C12.5042012,12.420715 12.8573057,12.7395987 12.9131894,13.1533286 L12.9208937,13.2683473 L12.92,15.87 L15.122,13.666 L15.1221099,11.5554953 C15.1221099,11.0873609 15.4999604,10.707863 15.9660628,10.707863 C16.3933232,10.707863 16.7464277,11.0267466 16.8023114,11.4404766 L16.8100157,11.5554953 L16.81,11.978 L18.7757944,10.0114374 C19.1059849,9.68102665 19.6403455,9.68201513 19.969322,10.0136453 C20.2683915,10.3151272 20.2947663,10.7860802 20.049013,11.117459 L19.9671237,11.2123763 L18.031,13.149 L18.313985,13.1499894 C18.7412455,13.1499894 19.09435,13.4688731 19.1502337,13.882603 L19.157938,13.9976217 C19.157938,14.4267449 18.8404385,14.7813888 18.4285045,14.8375161 L18.313985,14.845254 L16.337,14.845 L14.172,17.011 L16.6874512,17.0119529 C17.1147117,17.0119529 17.4678162,17.3308365 17.5236999,17.7445665 L17.5314041,17.8595852 C17.5314041,18.2887084 17.2139047,18.6433523 16.8019707,18.6994796 L16.6874512,18.7072175 L12.477,18.707 L10.2653311,20.92033 C10.2767222,20.9283492 10.2882297,20.9364138 10.2998466,20.9445168 L10.3665655,20.9906377 L10.6511543,21.1778349 C11.3889169,21.6422396 12.1901481,21.9972386 13.0177145,22.176021 C15.327183,22.6749446 17.4584713,21.75929 19.3134218,18.8305638 C21.2940725,14.9845875 22.2889538,11.4439 22.3121598,8.20630485 L22.3096774,7.78572852 L22.3062953,7.6952646 Z M3.72773313,6.44706088 C3.26300947,7.386501 3,8.45708406 3,9.6 C3,12.2093083 4.37086152,14.4416021 6.34148158,15.5160775 C6.52426486,14.1757585 7.09631635,12.8064253 8.09821978,11.4815323 L8.09996163,8.06680329 C6.32554619,7.93222887 4.84821614,7.38952862 3.72773313,6.44706088 Z M14.2682675,6.43873863 L14.2145658,6.48578616 C13.1076396,7.40959397 11.6580261,7.93603786 9.90121135,8.06732328 L9.90018557,9.74556346 C11.2602882,8.65153923 12.8219196,7.79796642 14.5822235,7.1836997 L14.6600363,7.40991438 C14.5541162,7.07222362 14.422095,6.74785977 14.2682675,6.43873863 Z M9,3 C7.3483357,3 5.83979627,3.74081667 4.748483,4.94490032 C5.71605902,5.83507371 7.13538848,6.3000466 9,6.3000466 C10.8860611,6.3000466 12.2882061,5.83848747 13.2458252,4.93917958 C12.1543366,3.73793852 10.6484527,3 9,3 Z" id="color" fill="#FFCF3F"></path>
                        </g>
                    </g>
                </g>
            </g>
        </g>
    </g>
</svg>