<?xml version="1.0" encoding="utf-8"?>
<!-- Generator: Adobe Illustrator 24.3.0, SVG Export Plug-In . SVG Version: 6.00 Build 0)  -->
<svg version="1.1" id="Calque_1" xmlns="http://www.w3.org/2000/svg" xmlns:xlink="http://www.w3.org/1999/xlink" x="0px" y="0px"
	 viewBox="0 0 94 82" style="enable-background:new 0 0 94 82;" xml:space="preserve">
<style type="text/css">
	.st0{fill:#FFFFFF;}
</style>
<g id="Territoires">
	<g id="Fiche-Territoire" transform="translate(-870.000000, -782.000000)">
		<g id="fast-facts" transform="translate(713.000000, 649.000000)">
			<g id="np_people_1186951_000000" transform="translate(157.000000, 133.000000)">
				<path id="Path" class="st0" d="M12.8,43.7c0,0.1,0,0.3,0,0.4c0,0.1-0.1,0.3,0,0c0,0.2-0.1,0.4-0.2,0.6c0,0.1-0.1,0.2-0.1,0.2
					c0.1-0.3,0,0,0,0c-0.1,0.2-0.2,0.4-0.4,0.7c0.2-0.2-0.2,0.2-0.2,0.2c-0.1,0.1-0.3,0.3-0.4,0.4c0.2-0.2,0,0-0.1,0
					c-0.1,0.1-0.2,0.1-0.3,0.2c-0.1,0-0.2,0.1-0.2,0.1c-0.3,0.2,0.2,0-0.1,0c-0.2,0.1-0.4,0.1-0.6,0.2c-0.3,0.1-0.1,0,0,0
					c-0.1,0-0.2,0-0.3,0c-0.2,0-0.4,0-0.6,0c-0.4,0,0.2,0-0.1,0c-0.1,0-0.3-0.1-0.4-0.1c-0.1,0-0.5-0.2-0.3-0.1
					c-0.2-0.1-0.4-0.2-0.6-0.3c-0.1,0-0.1-0.1-0.2-0.1c0.3,0.2-0.1-0.1-0.1-0.1c-0.2-0.1-0.3-0.3-0.4-0.4c-0.3-0.3,0.1,0.1,0-0.1
					c-0.1-0.1-0.1-0.2-0.2-0.3c0-0.1-0.1-0.1-0.1-0.2c0,0-0.2-0.4-0.1-0.2c0.1,0.2-0.1-0.2-0.1-0.2c0-0.1,0-0.2-0.1-0.3
					c0-0.1,0-0.2-0.1-0.3c0-0.1,0-0.1,0,0.1c0-0.1,0-0.1,0-0.2c0-0.2,0-0.4,0-0.6c0,0,0.1-0.4,0-0.2c0,0.2,0-0.2,0-0.2
					c0-0.2,0.1-0.4,0.2-0.6c0.1-0.2-0.2,0.3,0-0.1c0.1-0.1,0.1-0.2,0.2-0.3c0-0.1,0.1-0.1,0.1-0.2C7.4,41.5,7,42,7.2,41.7
					c0.1-0.1,0.2-0.3,0.4-0.4c0.1-0.1,0.2-0.2,0.3-0.3c0,0-0.2,0.1,0,0c0.2-0.1,0.4-0.2,0.6-0.4c0.2-0.1-0.3,0.1,0.1,0
					c0.1,0,0.2-0.1,0.2-0.1c0.1,0,0.2-0.1,0.3-0.1c0.1,0,0.4-0.1,0.1,0c0.2,0,0.4,0,0.6,0c0.1,0,0.2,0,0.3,0c0.3,0-0.2-0.1,0.1,0
					c0.2,0,0.4,0.1,0.6,0.2c0.4,0.1-0.2-0.1,0.1,0c0.1,0.1,0.2,0.1,0.3,0.2c0.1,0,0.1,0.1,0.2,0.1c0.3,0.2-0.1-0.1,0.1,0.1
					c0.2,0.2,0.4,0.4,0.5,0.5c0,0,0.2,0.2,0,0c0.1,0.1,0.1,0.2,0.2,0.3c0.1,0.1,0.1,0.2,0.2,0.3c0,0.1,0.1,0.1,0.1,0.2
					c-0.1-0.1-0.1-0.1,0,0c0.1,0.2,0.1,0.4,0.2,0.7c0.1,0.3,0,0.1,0,0C12.8,43.3,12.8,43.5,12.8,43.7c0,0.8,0.7,1.5,1.5,1.5
					c0.8,0,1.5-0.6,1.5-1.5c0-2.6-1.7-4.9-4.1-5.8c-2.3-0.8-5,0-6.6,1.8c-1.6,2-1.9,4.8-0.6,7c1.3,2.2,3.9,3.3,6.4,2.9
					c2.8-0.5,4.9-3.1,4.9-6c0-0.8-0.7-1.5-1.5-1.5C13.5,42.3,12.9,42.9,12.8,43.7L12.8,43.7z"/>
				<path id="Path_1_" class="st0" d="M15.6,55.3c0,3.3,0.1,6.6,0,9.8v0.1c0,0.1-0.1,0.4,0,0.1c0,0.1,0,0.2-0.1,0.3
					c-0.1,0.2,0.2-0.3,0,0.1c-0.1,0.1-0.1,0.2-0.2,0.3c0-0.1,0.2-0.2,0,0c-0.1,0.1-0.2,0.2-0.3,0.3c0.2-0.2,0,0,0,0
					c-0.1,0.1-0.2,0.1-0.3,0.2c0.3-0.1-0.5,0.1-0.1,0c-0.3,0-0.5,0-0.8,0c-0.8,0-1.5,0.7-1.5,1.5v5.2v3.4v1v0.2v0v0.1
					c0-0.2,0-0.2,0,0c0,0,0,0.1,0,0.1c0.1-0.2,0.1-0.2,0,0c0,0,0,0,0,0c-0.1,0.1,0,0.1,0,0c0,0-0.1,0.1-0.1,0.1c0.1-0.1,0.1-0.1,0,0
					c0,0.1-0.3,0.2,0,0c-0.1,0-0.2,0-0.2,0.1c0.3-0.1-0.1,0-0.2,0h-1.4H8.4H7.8H7.6c-0.1,0-0.3,0-0.1,0c0.2,0-0.2-0.1-0.2-0.1
					c0.3,0.1,0,0,0,0c0,0-0.1,0-0.1-0.1c0.1,0.1,0.1,0.1,0,0c0,0,0,0,0,0c0.1,0.1,0,0.1,0,0c0,0-0.1-0.2,0,0c0-0.1-0.1-0.4-0.1-0.1
					c0,0,0-0.1,0-0.2c0-0.2,0-0.4,0-0.6v-3v-6.2c0-0.8-0.7-1.5-1.5-1.5H5.2c0,0-0.4,0-0.2,0c0.2,0-0.2-0.1-0.2-0.1c0,0-0.3-0.1,0,0
					c-0.1,0-0.2-0.1-0.3-0.2c-0.2-0.1-0.1,0,0,0c-0.1-0.1-0.2-0.1-0.2-0.2c-0.1-0.1-0.2-0.3,0,0c0-0.1-0.1-0.1-0.1-0.2
					c0-0.1-0.1-0.1-0.1-0.2c0.1,0.3,0,0,0-0.1c0-0.1-0.1-0.4,0-0.1c0-0.1,0-0.2,0-0.3c0-0.5,0-1,0-1.5v-6.7c0-0.5,0-1.1,0-1.6
					c0-0.1,0.1-0.4,0-0.1c0-0.1,0.2-0.5,0-0.3c0-0.1,0.1-0.2,0.1-0.3c0-0.1,0.2-0.3,0-0.1c0.1-0.1,0.1-0.1,0.2-0.2
					c0,0,0.3-0.3,0.1-0.1c0.1,0,0.1-0.1,0.2-0.1c0,0,0.4-0.2,0.2-0.1c-0.2,0.1,0.6-0.1,0.2-0.1c0.1,0,0.2,0,0.4,0c1.9,0,3.8,0,5.7,0
					H14h0.3h0.2c0.4,0-0.2,0,0.1,0c0,0,0.4,0.1,0.3,0.1c-0.2-0.1,0.2,0.1,0.2,0.1c0.1,0,0.4,0.3,0.1,0.1c0.1,0.1,0.1,0.1,0.2,0.2
					c0,0,0.3,0.3,0.1,0.1c0,0.1,0.1,0.1,0.1,0.2c0,0.1,0.1,0.4,0.1,0.1c0,0.1,0.1,0.2,0.1,0.3c0,0.1,0,0.1,0-0.1
					C15.6,55.1,15.6,55.2,15.6,55.3c0,0.8,0.7,1.5,1.5,1.5c0.8,0,1.5-0.6,1.5-1.5c-0.1-2.4-1.9-4.2-4.3-4.3c-0.7,0-1.3,0-2,0H5.5
					c-1.6,0-3.1,0.7-3.9,2.1c-0.6,0.9-0.6,2-0.6,3v7.1c0,0.8-0.1,1.6,0,2.3c0.2,1.3,0.8,2.5,2,3.2c0.9,0.6,1.8,0.7,2.8,0.7
					c-0.5-0.5-1-1-1.5-1.5v5.7V77c0,1.2,0.1,2.3,1,3.2c1.1,1.1,2.5,0.9,4,0.9h1.9c0.5,0,1,0,1.5-0.1c1.7-0.4,2.6-1.9,2.6-3.5v-2.9
					v-6.6l-1.5,1.5c0.8,0,1.6-0.1,2.4-0.4c0.9-0.4,1.6-1.2,2-2.1c0.4-0.9,0.4-1.8,0.4-2.7v-6.9v-2c0-0.8-0.7-1.5-1.5-1.5
					C16.2,53.8,15.6,54.4,15.6,55.3L15.6,55.3z"/>
				<path id="Path_2_" class="st0" d="M37.4,43.7c0,0.1,0,0.3,0,0.4c0,0.1-0.1,0.3,0,0c0,0.2-0.1,0.4-0.2,0.6c0,0.1-0.1,0.2-0.1,0.2
					c0.1-0.3,0,0,0,0c-0.1,0.2-0.2,0.4-0.4,0.7c0.2-0.2-0.2,0.2-0.2,0.2c-0.1,0.1-0.3,0.3-0.4,0.4c0.2-0.2,0,0-0.1,0
					c-0.1,0.1-0.2,0.1-0.3,0.2c-0.1,0-0.2,0.1-0.2,0.1c-0.3,0.2,0.2,0-0.1,0c-0.2,0.1-0.4,0.1-0.6,0.2c-0.3,0.1-0.1,0,0,0
					c-0.1,0-0.2,0-0.3,0c-0.2,0-0.4,0-0.6,0c-0.4,0,0.2,0-0.1,0c-0.1,0-0.3-0.1-0.4-0.1c-0.1,0-0.5-0.2-0.3-0.1
					c-0.2-0.1-0.4-0.2-0.6-0.3c-0.1,0-0.1-0.1-0.2-0.1c0.3,0.2-0.1-0.1-0.1-0.1c-0.2-0.1-0.3-0.3-0.4-0.4c-0.3-0.3,0.1,0.1,0-0.1
					c-0.1-0.1-0.1-0.2-0.2-0.3c0-0.1-0.1-0.1-0.1-0.2c0,0-0.2-0.4-0.1-0.2c0.1,0.2-0.1-0.2-0.1-0.2c0-0.1,0-0.2-0.1-0.3
					c0-0.1,0-0.2-0.1-0.3c0-0.1,0-0.1,0,0.1c0-0.1,0-0.1,0-0.2c0-0.2,0-0.4,0-0.6c0,0,0.1-0.4,0-0.2c0,0.2,0-0.2,0-0.2
					c0-0.2,0.1-0.4,0.2-0.6c0.1-0.2-0.2,0.3,0-0.1c0.1-0.1,0.1-0.2,0.2-0.3c0-0.1,0.1-0.1,0.1-0.2c0.2-0.3-0.2,0.2,0.1-0.1
					c0.1-0.1,0.2-0.3,0.4-0.4c0.1-0.1,0.2-0.2,0.3-0.3c0,0-0.2,0.1,0,0c0.2-0.1,0.4-0.2,0.6-0.4c0.2-0.1-0.3,0.1,0.1,0
					c0.1,0,0.2-0.1,0.2-0.1c0.1,0,0.2-0.1,0.3-0.1c0.1,0,0.4-0.1,0.1,0c0.2,0,0.4,0,0.6,0c0.1,0,0.2,0,0.3,0c0.3,0-0.2-0.1,0.1,0
					c0.2,0,0.4,0.1,0.6,0.2c0.4,0.1-0.2-0.1,0.1,0c0.1,0.1,0.2,0.1,0.3,0.2c0.1,0,0.1,0.1,0.2,0.1c0.3,0.2-0.1-0.1,0.1,0.1
					c0.2,0.2,0.4,0.4,0.5,0.5c0,0,0.2,0.2,0,0c0.1,0.1,0.1,0.2,0.2,0.3c0.1,0.1,0.1,0.2,0.2,0.3c0,0.1,0.1,0.1,0.1,0.2
					c-0.1-0.1-0.1-0.1,0,0c0.1,0.2,0.1,0.4,0.2,0.7c0.1,0.3,0,0.1,0,0C37.4,43.3,37.4,43.5,37.4,43.7c0,0.8,0.7,1.5,1.5,1.5
					c0.8,0,1.5-0.6,1.5-1.5c0-2.6-1.7-4.9-4.1-5.8c-2.3-0.8-5,0-6.6,1.8c-1.6,2-1.9,4.8-0.6,7c1.3,2.2,3.9,3.3,6.4,2.9
					c2.8-0.5,4.9-3.1,4.9-6c0-0.8-0.7-1.5-1.5-1.5C38,42.3,37.4,42.9,37.4,43.7L37.4,43.7z"/>
				<path id="Path_3_" class="st0" d="M38.2,55.7c1,4,2,8,2.9,12c0,0,0,0,0,0.1c0,0,0-0.1,0-0.1c0,0.1,0,0.2,0,0.3c0-0.2,0-0.2,0,0
					c0,0-0.2,0.4,0,0.1c0,0-0.3,0.4-0.2,0.3c0.1-0.2-0.2,0.2-0.2,0.1c-0.1,0.1-0.1,0.1-0.2,0.2c0.1-0.1,0.1-0.1,0,0
					c-0.1,0.1-0.2,0.1-0.4,0.2c0.3-0.1-0.1,0-0.2,0c-0.4,0.1,0.2,0-0.1,0h-0.2h-0.9c-0.9,0-1.4,0.7-1.5,1.5
					c-0.2,1.4-0.4,2.7-0.5,4.1c-0.1,0.8-0.2,1.7-0.3,2.5c0,0.2-0.1,0.4-0.1,0.7c0,0,0,0.1,0,0.1c0,0.1-0.1,0.2,0,0
					c0,0.1,0,0.1,0,0.2c-0.1,0.2,0.1-0.2,0,0c-0.2,0.2,0,0.1,0,0.1c0,0-0.3,0.2,0,0c0,0-0.1,0.1-0.2,0.1c-0.2,0.1,0.2-0.1,0,0
					c0,0-0.1,0-0.2,0c0.2-0.1,0,0-0.1,0h-1.1h-1.4h-0.5c-0.1,0-0.4,0-0.2,0c0.2,0-0.3-0.2-0.1,0c-0.1,0-0.1-0.1-0.2-0.1
					c0.2,0.1,0,0,0,0c0,0,0.2,0.2,0,0c0,0-0.2-0.3-0.1-0.1c0.1,0.2,0-0.1,0-0.1c0-0.1,0-0.2,0-0.1c0,0.1,0,0.1,0,0
					c0-0.1,0-0.3,0-0.4c-0.1-0.8-0.2-1.5-0.3-2.3c-0.2-1.6-0.4-3.2-0.6-4.8c-0.1-0.8-0.6-1.5-1.5-1.5h-0.6h-0.3c-0.1,0-0.4,0-0.3,0
					c0.2,0-0.2,0-0.2,0c-0.1,0-0.2,0-0.3-0.1c0.3,0.1-0.2-0.1-0.2-0.1c-0.3-0.2,0.1,0.1-0.1,0c-0.1-0.1-0.2-0.1-0.2-0.2
					c0,0-0.2-0.2,0,0c-0.1-0.1-0.1-0.2-0.2-0.3c0.1,0.3,0-0.4,0,0c0-0.1,0-0.2,0-0.3c0,0-0.1,0.3,0,0c0,0,0-0.1,0-0.1
					c0-0.2,0.1-0.4,0.1-0.6c0.5-2,0.9-3.9,1.4-5.9c0.4-1.7,0.8-3.5,1.2-5.2c0-0.2,0.1-0.4,0.1-0.5c0-0.2,0.1-0.3,0.2-0.5
					c-0.1,0.3,0.1-0.2,0.2-0.3c0.1-0.1,0.1-0.2,0.2-0.3c0,0.1-0.2,0.2,0,0c0.1,0,0.1-0.1,0.2-0.2c0.2-0.2-0.2,0.1,0.1-0.1
					c0.1,0,0.1-0.1,0.2-0.1c-0.3,0.1,0,0,0,0c0.1,0,0.4-0.1,0,0c0.1,0,0.2,0,0.3,0h0.2H33h3.5h0.3h0.1c0.4,0-0.2-0.1,0.1,0
					c0.1,0,0.2,0,0.2,0.1c-0.3,0,0,0,0.1,0c0.1,0,0.1,0.1,0.2,0.1c-0.3-0.2,0,0,0,0.1c0.1,0.1,0.1,0.1,0.2,0.2c-0.2-0.3,0,0,0,0.1
					c0.1,0.1,0.1,0.2,0.1,0.3c0,0.1,0.1,0.1,0.1,0.2c-0.1-0.1-0.1-0.1,0,0C38.1,55.2,38.2,55.4,38.2,55.7c0.2,0.8,1.1,1.2,1.8,1
					c0.8-0.2,1.2-1,1-1.8c-0.5-2.1-1.9-3.8-4.2-3.9c-0.9,0-1.7,0-2.6,0c-0.9,0-1.7,0-2.6,0c-2.3,0-3.7,1.8-4.2,3.9
					c-0.9,3.7-1.8,7.5-2.7,11.2c-0.3,1.2-0.5,2.2,0.1,3.4c0.5,1.1,1.6,1.8,2.8,2.2c0.7,0.2,1.4,0.2,2.2,0.2l-1.5-1.5
					c0.2,1.5,0.4,3,0.6,4.5c0.1,0.8,0.2,1.7,0.3,2.5c0,0.2,0,0.4,0.1,0.5c0.1,1.1,0.5,1.9,1.4,2.6c0.9,0.7,2.1,0.6,3.2,0.6
					c0.9,0,1.9,0.1,2.7-0.1c0.9-0.2,1.7-0.8,2.2-1.6c0.3-0.5,0.4-1.1,0.4-1.7c0.1-0.7,0.2-1.3,0.3-2c0.2-1.8,0.5-3.5,0.7-5.3
					l-1.5,1.5c0.8,0,1.7,0,2.4-0.3c1.3-0.5,2.4-1.5,2.8-2.9c0.3-1-0.1-2-0.3-3c-0.7-2.8-1.3-5.6-2-8.4c-0.2-0.8-0.4-1.6-0.6-2.4
					c-0.2-0.8-1.1-1.2-1.8-1C38.5,54.1,38,54.9,38.2,55.7L38.2,55.7z"/>
				<path id="Path_4_" class="st0" d="M61.9,43.7c0,0.1,0,0.3,0,0.4c0,0.1-0.1,0.3,0,0c0,0.2-0.1,0.4-0.2,0.6c0,0.1-0.1,0.2-0.1,0.2
					c0.1-0.3,0,0,0,0c-0.1,0.2-0.2,0.4-0.4,0.7c0.2-0.2-0.2,0.2-0.2,0.2c-0.1,0.1-0.3,0.3-0.4,0.4c0.2-0.2,0,0-0.1,0
					c-0.1,0.1-0.2,0.1-0.3,0.2c-0.1,0-0.2,0.1-0.2,0.1c-0.3,0.2,0.2,0-0.1,0c-0.2,0.1-0.4,0.1-0.6,0.2c-0.3,0.1-0.1,0,0,0
					c-0.1,0-0.2,0-0.3,0c-0.2,0-0.4,0-0.6,0c-0.4,0,0.2,0-0.1,0c-0.1,0-0.3-0.1-0.4-0.1c-0.1,0-0.5-0.2-0.3-0.1
					c-0.2-0.1-0.4-0.2-0.6-0.3c-0.1,0-0.1-0.1-0.2-0.1c0.3,0.2-0.1-0.1-0.1-0.1c-0.2-0.1-0.3-0.3-0.4-0.4c-0.3-0.3,0.1,0.1,0-0.1
					c-0.1-0.1-0.1-0.2-0.2-0.3c0-0.1-0.1-0.1-0.1-0.2c0,0-0.2-0.4-0.1-0.2c0.1,0.2-0.1-0.2-0.1-0.2c0-0.1,0-0.2-0.1-0.3
					c0-0.1,0-0.2-0.1-0.3c0-0.1,0-0.1,0,0.1c0-0.1,0-0.1,0-0.2c0-0.2,0-0.4,0-0.6c0,0,0.1-0.4,0-0.2c0,0.2,0-0.2,0-0.2
					c0-0.2,0.1-0.4,0.2-0.6c0.1-0.2-0.2,0.3,0-0.1c0.1-0.1,0.1-0.2,0.2-0.3c0-0.1,0.1-0.1,0.1-0.2c0.2-0.3-0.2,0.2,0.1-0.1
					c0.1-0.1,0.2-0.3,0.4-0.4c0.1-0.1,0.2-0.2,0.3-0.3c0,0-0.2,0.1,0,0c0.2-0.1,0.4-0.2,0.6-0.4c0.2-0.1-0.3,0.1,0.1,0
					c0.1,0,0.2-0.1,0.2-0.1c0.1,0,0.2-0.1,0.3-0.1c0.1,0,0.4-0.1,0.1,0c0.2,0,0.4,0,0.6,0c0.1,0,0.2,0,0.3,0c0.3,0-0.2-0.1,0.1,0
					c0.2,0,0.4,0.1,0.6,0.2c0.4,0.1-0.2-0.1,0.1,0c0.1,0.1,0.2,0.1,0.3,0.2c0.1,0,0.1,0.1,0.2,0.1c0.3,0.2-0.1-0.1,0.1,0.1
					c0.2,0.2,0.4,0.4,0.5,0.5c0,0,0.2,0.2,0,0c0.1,0.1,0.1,0.2,0.2,0.3c0.1,0.1,0.1,0.2,0.2,0.3c0,0.1,0.1,0.1,0.1,0.2
					c-0.1-0.1-0.1-0.1,0,0c0.1,0.2,0.1,0.4,0.2,0.7c0.1,0.3,0,0.1,0,0C61.9,43.3,61.9,43.5,61.9,43.7c0,0.8,0.7,1.5,1.5,1.5
					c0.8,0,1.5-0.6,1.5-1.5c0-2.6-1.7-4.9-4.1-5.8c-2.3-0.8-5,0-6.6,1.8c-1.6,2-1.9,4.8-0.6,7c1.3,2.2,3.9,3.3,6.4,2.9
					c2.8-0.5,4.9-3.1,4.9-6c0-0.8-0.7-1.5-1.5-1.5C62.6,42.3,61.9,42.9,61.9,43.7L61.9,43.7z"/>
				<path id="Path_5_" class="st0" d="M64.6,55.3c0,3.3,0.1,6.6,0,9.8v0.1c0,0.1-0.1,0.4,0,0.1c0,0.1,0,0.2-0.1,0.3
					c-0.1,0.2,0.2-0.3,0,0.1c-0.1,0.1-0.1,0.2-0.2,0.3c0-0.1,0.2-0.2,0,0c-0.1,0.1-0.2,0.2-0.3,0.3c0.2-0.2,0,0,0,0
					c-0.1,0.1-0.2,0.1-0.3,0.2c0.3-0.1-0.5,0.1-0.1,0c-0.3,0-0.5,0-0.8,0c-0.8,0-1.5,0.7-1.5,1.5v5.2v3.4v1v0.2v0v0.1
					c0-0.2,0-0.2,0,0c0,0,0,0.1,0,0.1c0.1-0.2,0.1-0.2,0,0c0,0,0,0,0,0c-0.1,0.1,0,0.1,0,0c0,0-0.1,0.1-0.1,0.1c0.1-0.1,0.1-0.1,0,0
					c0,0.1-0.3,0.2,0,0c-0.1,0-0.2,0-0.2,0.1c0.3-0.1-0.1,0-0.2,0h-1.4h-1.8h-0.6h-0.2c-0.1,0-0.3,0-0.1,0c0.2,0-0.2-0.1-0.2-0.1
					c0.3,0.1,0,0,0,0c0,0-0.1,0-0.1-0.1c0.1,0.1,0.1,0.1,0,0c0,0,0,0,0,0c0.1,0.1,0,0.1,0,0c0,0-0.1-0.2,0,0c0-0.1-0.1-0.4-0.1-0.1
					c0,0,0-0.1,0-0.2c0-0.2,0-0.4,0-0.6v-3v-6.2c0-0.8-0.7-1.5-1.5-1.5h-0.5c0,0-0.4,0-0.2,0c0.2,0-0.2-0.1-0.2-0.1c0,0-0.3-0.1,0,0
					c-0.1,0-0.2-0.1-0.3-0.2c-0.2-0.1-0.1,0,0,0c-0.1-0.1-0.2-0.1-0.2-0.2c-0.1-0.1-0.2-0.3,0,0c0-0.1-0.1-0.1-0.1-0.2
					c0-0.1-0.1-0.1-0.1-0.2c0.1,0.3,0,0,0-0.1c0-0.1-0.1-0.4,0-0.1c0-0.1,0-0.2,0-0.3c0-0.5,0-1,0-1.5v-6.7c0-0.5,0-1.1,0-1.6
					c0-0.1,0.1-0.4,0-0.1c0-0.1,0.2-0.5,0-0.3c0-0.1,0.1-0.2,0.1-0.3c0-0.1,0.2-0.3,0-0.1c0.1-0.1,0.1-0.1,0.2-0.2
					c0,0,0.3-0.3,0.1-0.1c0.1,0,0.1-0.1,0.2-0.1c0,0,0.4-0.2,0.2-0.1c-0.2,0.1,0.6-0.1,0.2-0.1c0.1,0,0.2,0,0.4,0c1.9,0,3.8,0,5.7,0
					H63h0.3h0.2c0.4,0-0.2,0,0.1,0c0,0,0.4,0.1,0.3,0.1c-0.2-0.1,0.2,0.1,0.2,0.1c0.1,0,0.4,0.3,0.1,0.1c0.1,0.1,0.1,0.1,0.2,0.2
					c0,0,0.3,0.3,0.1,0.1c0,0.1,0.1,0.1,0.1,0.2c0,0.1,0.1,0.4,0.1,0.1c0,0.1,0.1,0.2,0.1,0.3c0,0.1,0,0.1,0-0.1
					C64.6,55.1,64.6,55.2,64.6,55.3c0,0.8,0.7,1.5,1.5,1.5c0.8,0,1.5-0.6,1.5-1.5c-0.1-2.4-1.9-4.2-4.3-4.3c-0.7,0-1.3,0-2,0h-6.8
					c-1.6,0-3.1,0.7-3.9,2.1C50,54,50,55,50,56.1v7.1c0,0.8-0.1,1.6,0,2.3c0.2,1.3,0.8,2.5,2,3.2c0.9,0.6,1.8,0.7,2.8,0.7l-1.5-1.5
					v5.7V77c0,1.2,0.1,2.3,1,3.2c1.1,1.1,2.5,0.9,4,0.9h1.9c0.5,0,1,0,1.5-0.1c1.7-0.4,2.6-1.9,2.6-3.5v-2.9v-6.6
					c-0.5,0.5-1,1-1.5,1.5c0.8,0,1.6-0.1,2.4-0.4c0.9-0.4,1.6-1.2,2-2.1c0.4-0.9,0.4-1.8,0.4-2.7v-6.9v-2c0-0.8-0.7-1.5-1.5-1.5
					C65.3,53.8,64.6,54.4,64.6,55.3L64.6,55.3z"/>
				<path id="Path_6_" class="st0" d="M86.5,43.7c0,0.1,0,0.3,0,0.4c0,0.1-0.1,0.3,0,0c0,0.2-0.1,0.4-0.2,0.6c0,0.1-0.1,0.2-0.1,0.2
					c0.1-0.3,0,0,0,0c-0.1,0.2-0.2,0.4-0.4,0.7c0.2-0.2-0.2,0.2-0.2,0.2c-0.1,0.1-0.3,0.3-0.4,0.4c0.2-0.2,0,0-0.1,0
					c-0.1,0.1-0.2,0.1-0.3,0.2c-0.1,0-0.2,0.1-0.2,0.1c-0.3,0.2,0.2,0-0.1,0c-0.2,0.1-0.4,0.1-0.6,0.2c-0.3,0.1-0.1,0,0,0
					c-0.1,0-0.2,0-0.3,0c-0.2,0-0.4,0-0.6,0c-0.4,0,0.2,0-0.1,0c-0.1,0-0.3-0.1-0.4-0.1c-0.1,0-0.5-0.2-0.3-0.1
					c-0.2-0.1-0.4-0.2-0.6-0.3c-0.1,0-0.1-0.1-0.2-0.1c0.3,0.2-0.1-0.1-0.1-0.1c-0.2-0.1-0.3-0.3-0.4-0.4c-0.3-0.3,0.1,0.1,0-0.1
					c-0.1-0.1-0.1-0.2-0.2-0.3c0-0.1-0.1-0.1-0.1-0.2c0,0-0.2-0.4-0.1-0.2c0.1,0.2-0.1-0.2-0.1-0.2c0-0.1,0-0.2-0.1-0.3
					c0-0.1,0-0.2-0.1-0.3c0-0.1,0-0.1,0,0.1c0-0.1,0-0.1,0-0.2c0-0.2,0-0.4,0-0.6c0,0,0.1-0.4,0-0.2c0,0.2,0-0.2,0-0.2
					c0-0.2,0.1-0.4,0.2-0.6c0.1-0.2-0.2,0.3,0-0.1c0.1-0.1,0.1-0.2,0.2-0.3c0-0.1,0.1-0.1,0.1-0.2c0.2-0.3-0.2,0.2,0.1-0.1
					c0.1-0.1,0.2-0.3,0.4-0.4c0.1-0.1,0.2-0.2,0.3-0.3c0,0-0.2,0.1,0,0c0.2-0.1,0.4-0.2,0.6-0.4c0.2-0.1-0.3,0.1,0.1,0
					c0.1,0,0.2-0.1,0.2-0.1c0.1,0,0.2-0.1,0.3-0.1c0.1,0,0.4-0.1,0.1,0c0.2,0,0.4,0,0.6,0c0.1,0,0.2,0,0.3,0c0.3,0-0.2-0.1,0.1,0
					c0.2,0,0.4,0.1,0.6,0.2c0.4,0.1-0.2-0.1,0.1,0c0.1,0.1,0.2,0.1,0.3,0.2c0.1,0,0.1,0.1,0.2,0.1c0.3,0.2-0.1-0.1,0.1,0.1
					c0.2,0.2,0.4,0.4,0.5,0.5c0,0,0.2,0.2,0,0c0.1,0.1,0.1,0.2,0.2,0.3c0.1,0.1,0.1,0.2,0.2,0.3c0,0.1,0.1,0.1,0.1,0.2
					c-0.1-0.1-0.1-0.1,0,0c0.1,0.2,0.1,0.4,0.2,0.7c0.1,0.3,0,0.1,0,0C86.4,43.3,86.5,43.5,86.5,43.7c0,0.8,0.7,1.5,1.5,1.5
					c0.8,0,1.5-0.6,1.5-1.5c0-2.6-1.7-4.9-4.1-5.8c-2.3-0.8-5,0-6.6,1.8c-1.6,2-1.9,4.8-0.6,7c1.3,2.2,3.9,3.3,6.4,2.9
					c2.8-0.5,4.9-3.1,4.9-6c0-0.8-0.7-1.5-1.5-1.5C87.1,42.3,86.5,42.9,86.5,43.7L86.5,43.7z"/>
				<path id="Path_7_" class="st0" d="M87.3,55.7c1,4,2,8,2.9,12c0,0,0,0,0,0.1c0,0,0-0.1,0-0.1c0,0.1,0,0.2,0,0.3c0-0.2,0-0.2,0,0
					c0,0-0.2,0.4,0,0.1c0,0-0.3,0.4-0.2,0.3c0.1-0.2-0.2,0.2-0.2,0.1c-0.1,0.1-0.1,0.1-0.2,0.2c0.1-0.1,0.1-0.1,0,0
					c-0.1,0.1-0.2,0.1-0.4,0.2c0.3-0.1-0.1,0-0.2,0c-0.4,0.1,0.2,0-0.1,0h-0.2h-0.9c-0.9,0-1.4,0.7-1.5,1.5
					c-0.2,1.4-0.4,2.7-0.5,4.1c-0.1,0.8-0.2,1.7-0.3,2.5c0,0.2-0.1,0.4-0.1,0.7c0,0,0,0.1,0,0.1c0,0.1-0.1,0.2,0,0
					c0,0.1,0,0.1,0,0.2c-0.1,0.2,0.1-0.2,0,0c-0.2,0.2,0,0.1,0,0.1c0,0-0.3,0.2,0,0c0,0-0.1,0.1-0.2,0.1c-0.2,0.1,0.2-0.1,0,0
					c0,0-0.1,0-0.2,0c0.2-0.1,0,0-0.1,0h-1.1h-1.4h-0.5c-0.1,0-0.4,0-0.2,0c0.2,0-0.3-0.2-0.1,0c-0.1,0-0.1-0.1-0.2-0.1
					c0.2,0.1,0,0,0,0c0,0,0.2,0.2,0,0c0,0-0.2-0.3-0.1-0.1c0.1,0.2,0-0.1,0-0.1c0-0.1,0-0.2,0-0.1c0,0.1,0,0.1,0,0
					c0-0.1,0-0.3,0-0.4c-0.1-0.8-0.2-1.5-0.3-2.3c-0.2-1.6-0.4-3.2-0.6-4.8c-0.1-0.8-0.6-1.5-1.5-1.5h-0.6h-0.3c-0.1,0-0.4,0-0.3,0
					c0.2,0-0.2,0-0.2,0c-0.1,0-0.2,0-0.3-0.1c0.3,0.1-0.2-0.1-0.2-0.1c-0.3-0.2,0.1,0.1-0.1,0c-0.1-0.1-0.2-0.1-0.2-0.2
					c0,0-0.2-0.2,0,0c-0.1-0.1-0.1-0.2-0.2-0.3c0.1,0.3,0-0.4,0,0c0-0.1,0-0.2,0-0.3c0,0-0.1,0.3,0,0c0,0,0-0.1,0-0.1
					c0-0.2,0.1-0.4,0.1-0.6c0.5-2,0.9-3.9,1.4-5.9c0.4-1.7,0.8-3.5,1.2-5.2c0-0.2,0.1-0.4,0.1-0.5c0-0.2,0.1-0.3,0.2-0.5
					c-0.1,0.3,0.1-0.2,0.2-0.3c0.1-0.1,0.1-0.2,0.2-0.3c0,0.1-0.2,0.2,0,0c0.1,0,0.1-0.1,0.2-0.2c0.2-0.2-0.2,0.1,0.1-0.1
					c0.1,0,0.1-0.1,0.2-0.1c-0.3,0.1,0,0,0,0c0.1,0,0.4-0.1,0,0c0.1,0,0.2,0,0.3,0h0.2h1.2h3.5h0.3H86c0.4,0-0.2-0.1,0.1,0
					c0.1,0,0.2,0,0.2,0.1c-0.3,0,0,0,0.1,0c0.1,0,0.1,0.1,0.2,0.1c-0.3-0.2,0,0,0,0.1c0.1,0.1,0.1,0.1,0.2,0.2c-0.2-0.3,0,0,0,0.1
					c0.1,0.1,0.1,0.2,0.1,0.3c0,0.1,0.1,0.1,0.1,0.2c-0.1-0.1-0.1-0.1,0,0C87.2,55.2,87.2,55.4,87.3,55.7c0.2,0.8,1.1,1.2,1.8,1
					c0.8-0.2,1.2-1,1-1.8c-0.5-2.1-1.9-3.8-4.2-3.9c-0.9,0-1.7,0-2.6,0c-0.9,0-1.7,0-2.6,0c-2.3,0-3.7,1.8-4.2,3.9
					c-0.9,3.7-1.8,7.5-2.7,11.2c-0.3,1.2-0.5,2.2,0.1,3.4c0.5,1.1,1.6,1.8,2.8,2.2c0.7,0.2,1.4,0.2,2.2,0.2c-0.5-0.5-1-1-1.5-1.5
					c0.2,1.5,0.4,3,0.6,4.5c0.1,0.8,0.2,1.7,0.3,2.5c0,0.2,0,0.4,0.1,0.5c0.1,1.1,0.5,1.9,1.4,2.6c0.9,0.7,2.1,0.6,3.2,0.6
					c0.9,0,1.9,0.1,2.7-0.1c0.9-0.2,1.7-0.8,2.2-1.6c0.3-0.5,0.4-1.1,0.4-1.7c0.1-0.7,0.2-1.3,0.3-2c0.2-1.8,0.5-3.5,0.7-5.3
					c-0.5,0.5-1,1-1.5,1.5c0.8,0,1.7,0,2.4-0.3c1.3-0.5,2.4-1.5,2.8-2.9c0.3-1-0.1-2-0.3-3c-0.7-2.8-1.3-5.6-2-8.4
					c-0.2-0.8-0.4-1.6-0.6-2.4c-0.2-0.8-1.1-1.2-1.8-1C87.5,54.1,87.1,54.9,87.3,55.7L87.3,55.7z"/>
				<path id="Path_8_" class="st0" d="M18.9,31c0-0.1,0-0.3,0-0.4c0-0.2,0-0.2,0,0c0-0.1,0-0.1,0-0.2c0-0.1,0.1-0.3,0.1-0.4
					c0-0.1,0.2-0.5,0.1-0.2c0.1-0.2,0.2-0.4,0.4-0.7c0.2-0.3-0.2,0.2,0.1-0.1c0.1-0.1,0.2-0.2,0.3-0.3c0.1-0.1,0.2-0.2,0.3-0.3
					c0.2-0.2-0.1,0.1,0.1-0.1c0.1-0.1,0.2-0.1,0.3-0.2c0,0,0.4-0.2,0.3-0.1C20.7,28.1,21,28,21.1,28c0.1,0,0.3-0.1,0.4-0.1
					c0.3-0.1-0.2,0,0.1,0c0.1,0,0.3,0,0.4,0c0.1,0,0.3,0,0.4,0c0.4,0-0.3-0.1,0.1,0c0.3,0.1,0.5,0.1,0.8,0.2
					c-0.3-0.1,0.1,0.1,0.2,0.1c0.1,0.1,0.2,0.1,0.3,0.2c0,0,0.1,0.1,0.2,0.1c-0.1-0.1-0.1-0.1,0,0c0.1,0.1,0.2,0.2,0.3,0.3
					c0.1,0.1,0.2,0.2,0.3,0.3c0.2,0.2-0.1-0.2,0.1,0.1c0.1,0.2,0.3,0.4,0.4,0.7c-0.1-0.3,0,0.1,0,0.1c0,0.1,0.1,0.3,0.1,0.4
					c0,0.1,0,0.2,0,0.3c0-0.1,0-0.2,0-0.1c0,0.2,0,0.3,0,0.5c0,0.8,0.7,1.5,1.5,1.5c0.8,0,1.5-0.6,1.5-1.5c0-3.3-2.7-6.1-6.1-6.1
					c-3.3,0-6,2.8-6.1,6.1c0,0.8,0.7,1.5,1.5,1.5C18.3,32.4,18.9,31.8,18.9,31L18.9,31z"/>
				<path id="Path_9_" class="st0" d="M43.5,31c0-0.1,0-0.3,0-0.4c0-0.2,0-0.2,0,0c0-0.1,0-0.1,0-0.2c0-0.1,0.1-0.3,0.1-0.4
					c0-0.1,0.2-0.5,0.1-0.2c0.1-0.2,0.2-0.4,0.4-0.7c0.2-0.3-0.2,0.2,0.1-0.1c0.1-0.1,0.2-0.2,0.3-0.3c0.1-0.1,0.2-0.2,0.3-0.3
					c0.2-0.2-0.1,0.1,0.1-0.1c0.1-0.1,0.2-0.1,0.3-0.2c0,0,0.4-0.2,0.3-0.1c-0.2,0.1,0.2-0.1,0.2-0.1c0.1,0,0.3-0.1,0.4-0.1
					c0.3-0.1-0.2,0,0.1,0c0.1,0,0.3,0,0.4,0c0.1,0,0.3,0,0.4,0c0.4,0-0.3-0.1,0.1,0c0.3,0.1,0.5,0.1,0.8,0.2
					c-0.3-0.1,0.1,0.1,0.2,0.1c0.1,0.1,0.2,0.1,0.3,0.2c0,0,0.1,0.1,0.2,0.1c-0.1-0.1-0.1-0.1,0,0c0.1,0.1,0.2,0.2,0.3,0.3
					c0.1,0.1,0.2,0.2,0.3,0.3c0.2,0.2-0.1-0.2,0.1,0.1c0.1,0.2,0.3,0.4,0.4,0.7c-0.1-0.3,0,0.1,0,0.1c0,0.1,0.1,0.3,0.1,0.4
					c0,0.1,0,0.2,0,0.3c0-0.1,0-0.2,0-0.1c0,0.2,0,0.3,0,0.5c0,0.8,0.7,1.5,1.5,1.5c0.8,0,1.5-0.6,1.5-1.5c0-3.3-2.7-6.1-6.1-6.1
					c-3.3,0-6,2.8-6.1,6.1c0,0.8,0.7,1.5,1.5,1.5C42.8,32.4,43.4,31.8,43.5,31L43.5,31z"/>
				<path id="Path_10_" class="st0" d="M68,31c0-0.1,0-0.3,0-0.4c0-0.2,0-0.2,0,0c0-0.1,0-0.1,0-0.2c0-0.1,0.1-0.3,0.1-0.4
					c0-0.1,0.2-0.5,0.1-0.2c0.1-0.2,0.2-0.4,0.4-0.7c0.2-0.3-0.2,0.2,0.1-0.1c0.1-0.1,0.2-0.2,0.3-0.3c0.1-0.1,0.2-0.2,0.3-0.3
					c0.2-0.2-0.1,0.1,0.1-0.1c0.1-0.1,0.2-0.1,0.3-0.2c0,0,0.4-0.2,0.3-0.1c-0.2,0.1,0.2-0.1,0.2-0.1c0.1,0,0.3-0.1,0.4-0.1
					c0.3-0.1-0.2,0,0.1,0c0.1,0,0.3,0,0.4,0s0.3,0,0.4,0c0.4,0-0.3-0.1,0.1,0c0.3,0.1,0.5,0.1,0.8,0.2c-0.3-0.1,0.1,0.1,0.2,0.1
					c0.1,0.1,0.2,0.1,0.3,0.2c0,0,0.1,0.1,0.2,0.1c-0.1-0.1-0.1-0.1,0,0c0.1,0.1,0.2,0.2,0.3,0.3c0.1,0.1,0.2,0.2,0.3,0.3
					c0.2,0.2-0.1-0.2,0.1,0.1c0.1,0.2,0.3,0.4,0.4,0.7c-0.1-0.3,0,0.1,0,0.1c0,0.1,0.1,0.3,0.1,0.4c0,0.1,0,0.2,0,0.3
					c0-0.1,0-0.2,0-0.1c0,0.2,0,0.3,0,0.5c0,0.8,0.7,1.5,1.5,1.5c0.8,0,1.5-0.6,1.5-1.5c0-3.3-2.7-6.1-6.1-6.1c-3.3,0-6,2.8-6.1,6.1
					c0,0.8,0.7,1.5,1.5,1.5C67.3,32.4,68,31.8,68,31L68,31z"/>
				<path id="Path_11_" class="st0" d="M31.2,18.6c0-0.1,0-0.3,0-0.4c0-0.2,0-0.2,0,0c0-0.1,0-0.1,0-0.2c0-0.1,0.1-0.3,0.1-0.4
					c0-0.1,0.2-0.5,0.1-0.2c0.1-0.2,0.2-0.4,0.4-0.7c0.2-0.3-0.2,0.2,0.1-0.1c0.1-0.1,0.2-0.2,0.3-0.3c0.1-0.1,0.2-0.2,0.3-0.3
					c0.2-0.2-0.1,0.1,0.1-0.1c0.1-0.1,0.2-0.1,0.3-0.2c0,0,0.4-0.2,0.3-0.1c-0.2,0.1,0.2-0.1,0.2-0.1c0.1,0,0.3-0.1,0.4-0.1
					c0.3-0.1-0.2,0,0.1,0c0.1,0,0.3,0,0.4,0c0.1,0,0.3,0,0.4,0c0.4,0-0.3-0.1,0.1,0c0.3,0.1,0.5,0.1,0.8,0.2
					c-0.3-0.1,0.1,0.1,0.2,0.1c0.1,0.1,0.2,0.1,0.3,0.2c0,0,0.1,0.1,0.2,0.1c-0.1-0.1-0.1-0.1,0,0c0.1,0.1,0.2,0.2,0.3,0.3
					c0.1,0.1,0.2,0.2,0.3,0.3c0.2,0.2-0.1-0.2,0.1,0.1c0.1,0.2,0.3,0.4,0.4,0.7c-0.1-0.3,0,0.1,0,0.1c0,0.1,0.1,0.3,0.1,0.4
					c0,0.1,0,0.2,0,0.3c0-0.1,0-0.2,0-0.1c0,0.2,0,0.3,0,0.5c0,0.8,0.7,1.5,1.5,1.5c0.8,0,1.5-0.6,1.5-1.5c0-3.3-2.7-6.1-6.1-6.1
					c-3.3,0-6,2.8-6.1,6.1c0,0.8,0.7,1.5,1.5,1.5C30.5,20.1,31.2,19.5,31.2,18.6L31.2,18.6z"/>
				<path id="Path_12_" class="st0" d="M55.7,18.6c0-0.1,0-0.3,0-0.4c0-0.2,0-0.2,0,0c0-0.1,0-0.1,0-0.2c0-0.1,0.1-0.3,0.1-0.4
					c0-0.1,0.2-0.5,0.1-0.2c0.1-0.2,0.2-0.4,0.4-0.7c0.2-0.3-0.2,0.2,0.1-0.1c0.1-0.1,0.2-0.2,0.3-0.3c0.1-0.1,0.2-0.2,0.3-0.3
					c0.2-0.2-0.1,0.1,0.1-0.1c0.1-0.1,0.2-0.1,0.3-0.2c0,0,0.4-0.2,0.3-0.1c-0.2,0.1,0.2-0.1,0.2-0.1c0.1,0,0.3-0.1,0.4-0.1
					c0.3-0.1-0.2,0,0.1,0c0.1,0,0.3,0,0.4,0s0.3,0,0.4,0c0.4,0-0.3-0.1,0.1,0c0.3,0.1,0.5,0.1,0.8,0.2c-0.3-0.1,0.1,0.1,0.2,0.1
					c0.1,0.1,0.2,0.1,0.3,0.2c0,0,0.1,0.1,0.2,0.1c-0.1-0.1-0.1-0.1,0,0c0.1,0.1,0.2,0.2,0.3,0.3c0.1,0.1,0.2,0.2,0.3,0.3
					c0.2,0.2-0.1-0.2,0.1,0.1c0.1,0.2,0.3,0.4,0.4,0.7c-0.1-0.3,0,0.1,0,0.1c0,0.1,0.1,0.3,0.1,0.4c0,0.1,0,0.2,0,0.3
					c0-0.1,0-0.2,0-0.1c0,0.2,0,0.3,0,0.5c0,0.8,0.7,1.5,1.5,1.5c0.8,0,1.5-0.6,1.5-1.5c0-3.3-2.7-6.1-6.1-6.1c-3.3,0-6,2.8-6.1,6.1
					c0,0.8,0.7,1.5,1.5,1.5C55.1,20.1,55.7,19.5,55.7,18.6L55.7,18.6z"/>
				<path id="Path_13_" class="st0" d="M43.5,7c0-0.1,0-0.3,0-0.4c0-0.2,0-0.2,0,0c0-0.1,0-0.1,0-0.2c0-0.1,0.1-0.3,0.1-0.4
					c0-0.1,0.2-0.5,0.1-0.2c0.1-0.2,0.2-0.4,0.4-0.7c0.2-0.3-0.2,0.2,0.1-0.1c0.1-0.1,0.2-0.2,0.3-0.3c0.1-0.1,0.2-0.2,0.3-0.3
					c0.2-0.2-0.1,0.1,0.1-0.1c0.1-0.1,0.2-0.1,0.3-0.2c0,0,0.4-0.2,0.3-0.1C45.2,4.1,45.6,4,45.6,4c0.1,0,0.3-0.1,0.4-0.1
					c0.3-0.1-0.2,0,0.1,0c0.1,0,0.3,0,0.4,0c0.1,0,0.3,0,0.4,0c0.4,0-0.3-0.1,0.1,0c0.3,0.1,0.5,0.1,0.8,0.2
					c-0.3-0.1,0.1,0.1,0.2,0.1c0.1,0.1,0.2,0.1,0.3,0.2c0,0,0.1,0.1,0.2,0.1c-0.1-0.1-0.1-0.1,0,0c0.1,0.1,0.2,0.2,0.3,0.3
					C48.9,4.8,49,4.9,49.1,5c0.2,0.2-0.1-0.2,0.1,0.1c0.1,0.2,0.3,0.4,0.4,0.7c-0.1-0.3,0,0.1,0,0.1c0,0.1,0.1,0.3,0.1,0.4
					c0,0.1,0,0.2,0,0.3c0-0.1,0-0.2,0-0.1c0,0.2,0,0.3,0,0.5c0,0.8,0.7,1.5,1.5,1.5c0.8,0,1.5-0.6,1.5-1.5c0-3.3-2.7-6.1-6.1-6.1
					c-3.3,0-6,2.8-6.1,6.1c0,0.8,0.7,1.5,1.5,1.5C42.8,8.4,43.4,7.8,43.5,7L43.5,7z"/>
			</g>
		</g>
	</g>
</g>
</svg>
