<?xml version="1.0" encoding="UTF-8"?>
<svg width="24px" height="24px" viewBox="0 0 24 24" version="1.1" xmlns="http://www.w3.org/2000/svg" xmlns:xlink="http://www.w3.org/1999/xlink">
    <title>Icons/Habitants</title>
    <g id="Territoires" stroke="none" stroke-width="1" fill="none" fill-rule="evenodd">
        <g id="Carte/Tuto" transform="translate(-754.000000, -381.000000)" fill="#FFCF3F">
            <g id="intro" transform="translate(240.000000, 223.000000)">
                <g id="Group" transform="translate(360.000000, 6.000000)">
                    <g id="datas" transform="translate(1.000000, 152.000000)">
                        <g id="Icons/Habitants" transform="translate(153.000000, 0.000000)">
                            <path d="M12,15.6 C12.615403,15.6 13.1226086,16.0632482 13.1919267,16.6600546 L13.2,16.8 L13.2,22.8 C13.2,23.415403 12.7367518,23.9226086 12.1399454,23.9919267 L12,24 L4.8,24 C4.18459699,24 3.67739141,23.5367518 3.60807328,22.9399454 L3.6,22.8 L3.6,16.8 C3.6,16.1372583 4.1372583,15.6 4.8,15.6 C5.41540301,15.6 5.92260859,16.0632482 5.99192672,16.6600546 L6,16.8 L6,21.6 L10.8,21.6 L10.8,16.8 C10.8,16.184597 11.2632482,15.6773914 11.8600546,15.6080733 L12,15.6 Z M12,12 C13.7450936,12 15.2726792,12.9312622 16.1129026,14.3239324 C16.9474591,13.6226431 18.0243728,13.2 19.2,13.2 L19.8,13.2 C22.0422761,13.2 23.8741517,14.9571331 23.9937854,17.1695578 L24,17.4 L24,21.6735502 C24,22.3362918 23.4627417,22.8735502 22.8,22.8735502 C22.184597,22.8735502 21.6773914,22.4103019 21.6080733,21.8134955 L21.6,21.6735502 L21.6,17.4 C21.6,16.4643647 20.8861343,15.6954616 19.973352,15.6082399 L19.8,15.6 L19.2,15.6 L19.0208852,15.6065829 C17.7790533,15.6982019 16.8,16.7347658 16.8,18 L16.8,21.6735502 L16.7919267,21.8134955 C16.7226086,22.4103019 16.215403,22.8735502 15.6,22.8735502 C14.9372583,22.8735502 14.4,22.3362918 14.4,21.6735502 L14.4,16.8 C14.4,15.5347658 13.4209467,14.4982019 12.1791148,14.4065829 L12,14.4 L4.8,14.4 L4.62088519,14.4065829 C3.37905335,14.4982019 2.4,15.5347658 2.4,16.8 L2.4,16.8 L2.4,20.4735502 L2.39192672,20.6134955 C2.32260859,21.2103019 1.81540301,21.6735502 1.2,21.6735502 C0.5372583,21.6735502 0,21.1362918 0,20.4735502 L0,20.4735502 L0,16.8 L0.00587436868,16.5604316 C0.130705349,14.0207622 2.22936553,12 4.8,12 L4.8,12 L12,12 Z M19.2,3.6 C21.5195959,3.6 23.4,5.48040405 23.4,7.8 C23.4,10.1195959 21.5195959,12 19.2,12 C16.8804041,12 15,10.1195959 15,7.8 C15,5.48040405 16.8804041,3.6 19.2,3.6 Z M8.4,0 C11.3823376,0 13.8,2.41766235 13.8,5.4 C13.8,8.38233765 11.3823376,10.8 8.4,10.8 C5.41766235,10.8 3,8.38233765 3,5.4 C3,2.41766235 5.41766235,0 8.4,0 Z M19.2,6 C18.2058875,6 17.4,6.80588745 17.4,7.8 C17.4,8.79411255 18.2058875,9.6 19.2,9.6 C20.1941125,9.6 21,8.79411255 21,7.8 C21,6.80588745 20.1941125,6 19.2,6 Z M8.4,2.4 C6.74314575,2.4 5.4,3.74314575 5.4,5.4 C5.4,7.05685425 6.74314575,8.4 8.4,8.4 C10.0568542,8.4 11.4,7.05685425 11.4,5.4 C11.4,3.74314575 10.0568542,2.4 8.4,2.4 Z" id="color"></path>
                        </g>
                    </g>
                </g>
            </g>
        </g>
    </g>
</svg>