<?xml version="1.0" encoding="UTF-8"?>
<svg width="139px" height="170px" viewBox="0 0 139 170" version="1.1" xmlns="http://www.w3.org/2000/svg" xmlns:xlink="http://www.w3.org/1999/xlink">
    <title>Group 37</title>
    <g id="Agir-Ensemble" stroke="none" stroke-width="1" fill="none" fill-rule="evenodd">
        <g transform="translate(-51.000000, -778.000000)" fill="#F3F5F7" id="Group-2">
            <g transform="translate(51.000000, 778.000000)" id="Group-37">
                <path d="M28.3536395,6.27871989 C17.6016397,6.32071989 9.96603983,15.4767197 7.47963987,23.9691196 C4.59843992,33.7915194 7.00363988,44.7087192 13.9112398,53.1731191 C19.8920397,60.500719 27.4492395,66.0027189 35.4432394,71.8211188 C41.7236393,76.3963187 48.1944392,81.1031186 53.8364391,86.7955185 C59.486839,81.0807186 65.9464389,76.3403187 72.2212388,71.7399188 C75.2228387,69.5391188 78.3280387,67.2599189 81.2568386,64.9331189 C90.0740385,57.938719 99.3168383,49.1859192 101.080838,37.2775194 C102.312838,28.9699195 99.7032383,19.6487197 94.4476384,13.5363198 C91.6140384,10.2407198 86.6664385,6.30671989 79.1876387,6.28151989 C70.5300388,6.61751989 62.0908389,10.5347198 56.154839,17.0223197 C54.9648391,18.3243197 52.7052391,18.3243197 51.5152391,17.0223197 C45.5820392,10.5347198 37.1428394,6.61751989 28.3536395,6.27871989 M53.8364391,94.5067184 C52.9488391,94.5067184 52.0948391,94.1287184 51.5040391,93.4651184 C45.7948392,87.1287185 38.9712393,82.1587186 31.7444395,76.9003187 C23.7784396,71.0987188 15.5380397,65.1039189 9.04483985,57.143519 C0.826839986,47.0747192 -2.01515997,34.0099194 1.44563998,22.2023196 C5.26483991,9.17111984 16.3752397,0.0403199993 28.4656395,0.00111999998 C37.9380394,0.365119994 46.9792392,4.13391993 53.8364391,10.4591198 C60.693639,4.13671993 69.7208388,0.365119994 79.0756387,0.00391999993 C87.0052385,0.0263199996 93.9212384,3.28831994 99.2076383,9.43711984 C105.700838,16.9859197 108.797638,28.0095195 107.288438,38.1931193 C105.210838,52.2631191 94.9320384,62.0911189 85.1628385,69.8499188 C82.1360386,72.2523188 78.9832387,74.5651187 75.9340387,76.7995187 C69.0348388,81.8647186 61.9004389,87.0951185 56.168839,93.4651184 C55.5780391,94.1287184 54.7240391,94.5067184 53.8364391,94.5067184" id="Fill-1"></path>
                <path d="M3.58147994,137.784358 C1.84267997,137.784358 0.439879993,136.378758 0.439879993,134.645558 L0.439879993,113.575558 C0.439879993,111.839558 1.84267997,110.433958 3.58147994,110.433958 C5.31747991,110.433958 6.72307989,111.839558 6.72307989,113.575558 L6.72307989,134.645558 C6.72307989,136.378758 5.31747991,137.784358 3.58147994,137.784358" id="Fill-3"></path>
                <path d="M37.1459194,166.276597 C36.6923194,166.276597 36.2387194,166.181397 35.8019194,165.974197 L2.23271996,150.047797 C0.667519989,149.302997 -0.00447999992,147.432597 0.743119987,145.864598 C1.48231997,144.296598 3.35271994,143.621798 4.92631992,144.372198 L38.4927193,160.295797 C40.0607193,161.037797 40.7299193,162.913797 39.9851193,164.478997 C39.4475193,165.615797 38.3191193,166.276597 37.1459194,166.276597" id="Fill-5"></path>
                <path d="M3.57195994,116.716038 C2.07955996,116.716038 0.757959987,115.649238 0.483559992,114.128838 C0.175559997,112.423638 1.31235998,110.791238 3.02315995,110.480438 L13.3635598,108.621238 C19.0587597,107.596438 25.0171596,107.907238 30.5863595,109.534038 C32.2523595,110.015638 33.2071594,111.757238 32.7227594,113.426038 C32.2383595,115.089238 30.5079595,116.058038 28.8279595,115.562438 C24.1967596,114.210038 19.2379597,113.949638 14.4751598,114.803638 L4.13475993,116.662838 C3.94155993,116.699238 3.75675994,116.716038 3.57195994,116.716038" id="Fill-7"></path>
                <path d="M51.9705191,126.089318 C50.9849191,126.089318 50.0105191,125.624518 49.4029192,124.756518 C48.4033192,123.336918 48.7421192,121.376918 50.1617191,120.377318 L69.0785188,107.063318 C70.5009188,106.063718 72.4581188,106.408118 73.4549187,107.824918 C74.4545187,109.241718 74.1157187,111.204518 72.6961188,112.201318 L53.7765191,125.518118 C53.2277191,125.904518 52.5921191,126.089318 51.9705191,126.089318" id="Fill-9"></path>
                <path d="M61.157879,168.365677 C59.783079,168.365677 58.517479,167.455677 58.133879,166.064077 C57.671879,164.392477 58.651879,162.662077 60.323479,162.200077 C73.7690787,158.484477 86.7694785,153.147677 98.9662783,146.338078 L99.4002783,146.100078 C100.909478,145.257278 102.830278,145.803278 103.667478,147.323677 C104.510278,148.841277 103.961478,150.753677 102.441078,151.593677 L102.015478,151.828877 C89.3930785,158.879277 75.9222787,164.409277 61.9978789,168.256477 C61.7178789,168.326477 61.437879,168.365677 61.157879,168.365677" id="Fill-11"></path>
                <path d="M83.9652786,153.569917 C78.6032787,153.569917 73.6500787,153.082717 69.5396788,152.581517 C67.8176788,152.374317 66.5912789,150.809117 66.7984789,149.084317 C67.0084789,147.365117 68.5764788,146.149918 70.2984788,146.348718 C79.5216786,147.468717 86.2472785,147.591917 92.8104784,146.754718 C95.9968784,146.351518 99.1832783,145.827918 102.375278,145.312718 C107.686878,144.444718 113.177678,143.548718 118.679678,143.179118 C120.466078,143.039118 121.910878,144.371918 122.028478,146.102318 C122.143278,147.832717 120.832878,149.330717 119.102478,149.442717 C113.891678,149.795517 108.549278,150.666317 103.383278,151.509117 C100.118478,152.038317 96.8620784,152.570317 93.6000784,152.987517 C90.3100785,153.401917 87.0676785,153.569917 83.9652786,153.569917" id="Fill-13"></path>
                <path d="M123.025838,120.970638 C121.751838,120.970638 120.550638,120.186638 120.080238,118.923838 C119.388638,117.061838 117.859838,115.678638 115.877438,115.118638 C113.878238,114.564238 111.859438,114.950638 110.299838,116.177038 C108.933438,117.255038 106.959438,117.014238 105.889838,115.656238 C104.814638,114.289838 105.047038,112.315838 106.410638,111.243438 C109.569038,108.757038 113.631838,107.967438 117.579838,109.073438 C121.516638,110.182238 124.579838,112.976638 125.974238,116.737038 C126.576238,118.363838 125.747438,120.175438 124.120638,120.777438 C123.762238,120.906238 123.389838,120.970638 123.025838,120.970638" id="Fill-15"></path>
                <path d="M101.859238,137.067838 C100.873638,137.067838 99.8992383,136.603038 99.2916383,135.735038 C98.2920383,134.318238 98.6308383,132.355438 100.050438,131.358638 C107.064438,126.419438 114.319238,121.315038 120.949638,115.468638 C122.254438,114.326238 124.239638,114.446638 125.382038,115.748638 C126.530038,117.053438 126.404038,119.035838 125.102038,120.183838 C118.214038,126.251438 110.816438,131.459438 103.662438,136.493838 C103.113638,136.885838 102.483638,137.067838 101.859238,137.067838" id="Fill-17"></path>
                <path d="M135.502918,126.603398 C133.766918,126.603398 132.361318,125.194998 132.361318,123.461798 C132.361318,120.930598 130.359318,119.830198 129.746118,119.552998 C129.138518,119.281398 126.999318,118.508598 125.100918,120.182998 C123.810118,121.328198 121.816518,121.210598 120.671318,119.902998 C119.523318,118.603798 119.649318,116.618598 120.951318,115.470598 C124.087318,112.704198 128.452518,112.079798 132.333318,113.829798 C136.225318,115.585398 138.641718,119.278598 138.641718,123.461798 C138.641718,125.194998 137.238918,126.603398 135.502918,126.603398" id="Fill-19"></path>
                <path d="M116.129718,142.388958 C115.141318,142.388958 114.169718,141.924158 113.559318,141.056158 C112.559718,139.639358 112.898518,137.676558 114.320918,136.679758 C120.998918,131.975758 127.399718,126.759358 133.352518,121.173358 C134.620918,119.988958 136.606118,120.047758 137.790518,121.310558 C138.983318,122.573358 138.916118,124.561358 137.653318,125.754158 C131.490518,131.541758 124.857318,136.942958 117.935718,141.814958 C117.381318,142.201358 116.751318,142.388958 116.129718,142.388958" id="Fill-21"></path>
                <path d="M51.9581991,169.612517 C46.4085992,169.612517 40.8869993,168.388917 35.7993994,165.972517 C34.2313994,165.230517 33.5621994,163.357317 34.3069994,161.789317 C35.0461994,160.221317 36.9165994,159.552117 38.4901993,160.296917 C45.3025992,163.528117 53.0529991,164.197317 60.318999,162.195317 C61.9793989,161.736117 63.7209989,162.707717 64.1829989,164.384917 C64.6449989,166.053717 63.6649989,167.786917 61.9933989,168.246117 C58.706199,169.161717 55.3293991,169.612517 51.9581991,169.612517" id="Fill-23"></path>
                <path d="M82.5176786,135.320638 C81.5292786,135.320638 80.5576786,134.855838 79.9472786,133.987838 C78.9504787,132.568238 79.2892786,130.608238 80.7088786,129.608638 L84.5532786,126.903838 C91.7940784,121.819038 99.2812783,116.557838 106.480078,111.190238 C107.877278,110.154238 109.837278,110.445438 110.873278,111.831438 C111.912078,113.223038 111.620878,115.191438 110.232078,116.227438 C102.966078,121.645438 95.4396784,126.934638 88.1652785,132.044638 L84.3208786,134.743838 C83.7692786,135.133038 83.1420786,135.320638 82.5176786,135.320638" id="Fill-25"></path>
                <path d="M64.2423589,132.818838 C63.2567589,132.818838 62.2823589,132.354038 61.6747589,131.486038 C60.675159,130.069238 61.013959,128.106438 62.4335589,127.109638 L89.1819585,108.282438 C90.5959585,107.288438 92.5587584,107.624438 93.5583584,109.041238 C94.5579584,110.463638 94.2163584,112.423638 92.7967584,113.420438 L66.0483589,132.247638 C65.4967589,132.634038 64.8695589,132.818838 64.2423589,132.818838" id="Fill-27"></path>
                <path d="M108.357478,116.849878 C107.385878,116.849878 106.433878,116.404678 105.817878,115.561878 C102.810678,111.443078 96.9754783,110.479878 92.7894784,113.419878 C91.3782784,114.416678 89.4154785,114.077878 88.4158785,112.661078 C87.4162785,111.241478 87.7578785,109.281478 89.1746785,108.281878 C96.1270784,103.387478 105.868278,104.994678 110.888678,111.854678 C111.910678,113.254678 111.608278,115.220278 110.205478,116.239478 C109.651078,116.653878 109.001478,116.849878 108.357478,116.849878" id="Fill-29"></path>
                <path d="M90.9845985,113.992478 C90.2341985,113.992478 89.4809985,113.723678 88.8817985,113.183278 C84.3513986,109.092478 77.6957987,108.683678 72.6949988,112.197678 C71.2753988,113.197278 69.3153988,112.852878 68.3185988,111.436078 C67.3217989,110.016478 67.6605988,108.059278 69.0801988,107.059678 C76.4861987,101.846078 86.3645985,102.445278 93.0901984,108.515678 C94.3781984,109.680478 94.4789984,111.665678 93.3169984,112.956478 C92.6981984,113.642478 91.8441984,113.992478 90.9845985,113.992478" id="Fill-31"></path>
                <path d="M9.85963983,115.583998 C8.36723986,115.583998 7.04563988,114.519998 6.77123988,112.999598 C6.46603989,111.294398 7.60003987,109.661998 9.31083984,109.353998 L13.3624398,108.625998 C15.0564397,108.315198 16.7000397,109.454798 17.0080397,111.162798 C17.3160397,112.867998 16.1792397,114.500398 14.4712398,114.811198 L10.4196398,115.536398 C10.2292398,115.569998 10.0444398,115.583998 9.85963983,115.583998" id="Fill-33"></path>
                <path d="M118.891638,149.446357 C117.264838,149.446357 115.890038,148.194757 115.764038,146.545558 C115.400038,141.757558 111.662038,137.969158 106.882438,137.537958 L71.4316388,134.331958 C62.5192389,133.522758 56.104439,129.356358 49.3144392,124.954758 C42.8156393,120.737958 36.0088394,117.635558 28.8380395,115.569158 C27.1692395,115.087558 26.2060396,113.345958 26.6848395,111.679958 C27.1636395,110.019558 28.9108395,109.045158 30.5712395,109.532358 C38.3384393,111.769558 45.7080392,115.132358 52.4896391,119.528358 C59.117239,123.831958 64.6332389,127.407558 71.9944388,128.073958 L107.445238,131.279958 C115.293638,131.991158 121.422838,138.207158 122.027638,146.066758 C122.159238,147.797157 120.865638,149.306357 119.135238,149.437957 C119.056838,149.443557 118.970038,149.446357 118.891638,149.446357" id="Fill-35"></path>
            </g>
        </g>
    </g>
</svg>