<?xml version="1.0" encoding="UTF-8"?>
<svg width="81px" height="74px" viewBox="0 0 81 74" version="1.1" xmlns="http://www.w3.org/2000/svg" xmlns:xlink="http://www.w3.org/1999/xlink">
    <title>noun_Charity_1109476</title>
    <defs>
        <filter id="filter-1">
            <feColorMatrix in="SourceGraphic" type="matrix" values="0 0 0 0 1.000000 0 0 0 0 1.000000 0 0 0 0 1.000000 0 0 0 1.000000 0"></feColorMatrix>
        </filter>
    </defs>
    <g id="Ecogestes" stroke="none" stroke-width="1" fill="none" fill-rule="evenodd">
        <g id="Ecogestes_corails" transform="translate(-607.000000, -3034.000000)">
            <g id="agir" transform="translate(120.000000, 2620.000000)">
                <g id="Group-8" transform="translate(483.000000, 202.000000)">
                    <g id="noun_Charity_1109476" transform="translate(4.000000, 212.000000)" filter="url(#filter-1)">
                        <g transform="translate(0.000000, 0.000000)">
                            <path d="M33.8024691,-5.4666501e-05 C28.7247764,0.0167824691 24.6612765,3.95632412 24.6666613,9.13580247 C24.6711432,13.4666397 27.5509099,17.3656385 30.804784,20.5555556 C34.058658,23.7454726 37.745666,26.1925558 40.4259259,27.2646605 C40.8654214,27.4424245 41.3568008,27.4424245 41.7962963,27.2646605 C44.4765562,26.1925558 48.1635642,23.7454726 51.4174383,20.5555556 C54.6713124,17.3656385 57.5510744,13.4666397 57.5555609,9.13580247 C57.5609457,3.95632412 53.4974458,0.016780642 48.4197531,-5.4666501e-05 C46.1264584,-0.00757211852 43.3126751,0.770751111 41.1111111,2.79783951 C38.9095472,0.770751111 36.0957639,-0.00757211852 33.8024691,-5.4666501e-05 Z M33.8024691,3.654282 C35.7050585,3.64801728 38.1954216,4.40540089 39.5979938,6.50925926 C39.9379407,7.01132369 40.504784,7.31207365 41.1111111,7.31207365 C41.7174382,7.31207365 42.2842815,7.01132369 42.6242284,6.50925926 C44.0268006,4.40540089 46.5171638,3.64803921 48.4197531,3.654282 C51.7736825,3.66540272 53.9047975,5.71229114 53.901239,9.13580247 C53.8985852,11.6918483 51.7590049,15.1037682 48.8479938,17.9575617 C46.1986504,20.5548302 43.0945304,22.5598529 41.1111111,23.496142 C39.1276919,22.5598529 36.0235718,20.5548302 33.3742284,17.9575617 C30.4632173,15.1037682 28.3236325,11.6918483 28.3209832,9.13580247 C28.3174247,5.71229114 30.4485397,3.66540454 33.8024691,3.654282 Z M17.1867284,31.0617284 C16.8916894,31.088376 16.6075524,31.1863543 16.3587963,31.3472222 L3.65432099,39.5694444 L3.65432099,36.5432099 C3.66205875,36.0487135 3.46903277,35.5721973 3.11932823,35.2224928 C2.76962369,34.8727882 2.29310748,34.6797622 1.79861111,34.6875 C1.31401457,34.6950611 0.852270761,34.8948233 0.514963466,35.2428388 C0.17765617,35.5908542 -0.00758250891,36.0586137 -0.000223941926,36.5432099 L-0.000223941926,71.2592593 C-0.00931904756,71.918199 0.336883257,72.5311116 0.906039281,72.863301 C1.4751953,73.1954904 2.17912568,73.1954904 2.74828171,72.863301 C3.31743773,72.5311116 3.66364004,71.918199 3.65432099,71.2592593 L3.65432099,67.6334877 C13.6028792,67.732295 26.4369942,69.429992 37.0570988,71.4876543 C37.7212585,71.6851612 38.4399936,71.4900316 38.9130876,70.9837716 C39.3861815,70.4775116 39.5322394,69.747222 39.2902527,69.0979459 C39.048266,68.4486697 38.459868,67.9921135 37.7708333,67.9189815 C26.9771623,65.8276912 14.0040131,64.0774971 3.65432099,63.9791667 L3.65432099,43.9375 L17.9290123,34.7160494 L52.0740741,34.7160494 C53.1048292,34.7160494 53.9012346,35.5124538 53.9012346,36.5432099 C53.9012346,37.1950631 53.5400963,37.7313347 53.0447531,38.0563272 L28.6921296,45.7646605 C27.9314759,45.9994646 27.4103553,46.699687 27.4038304,47.49573 C27.3973055,48.291773 27.9068777,49.0004437 28.6635802,49.2476852 L45.1080247,54.7291667 C45.5709406,54.8788429 46.0744325,54.8377415 46.5069444,54.6149691 L72.4012346,41.625 C72.4500933,41.5986339 72.497725,41.5700549 72.5439815,41.5393519 C72.9656581,41.2748302 73.4580514,41.1111111 74,41.1111111 C75.53531,41.1111111 76.7407407,42.3165419 76.7407407,43.8518519 C76.7407407,44.6642887 76.4052357,45.3773984 75.8557099,45.878858 C75.8263291,45.9056716 75.8006119,45.9388985 75.7700617,45.9645062 L43.6805556,69.8032407 C43.0739008,70.1567791 42.723472,70.8266524 42.779017,71.5266054 C42.8345621,72.2265584 43.2862558,72.8327789 43.9410771,73.0862124 C44.5958984,73.3396458 45.3380183,73.1954632 45.8503086,72.7152778 L78.025463,48.8194444 C78.0545429,48.8012196 78.0831036,48.7821791 78.1111111,48.7623457 C79.5083864,47.5910116 80.3950617,45.8086914 80.3950617,43.8518519 C80.3950617,40.3415988 77.510253,37.4567901 74,37.4567901 C72.8152783,37.4567901 71.7012695,37.8024414 70.7453704,38.3703704 L70.7453704,38.341821 L70.6026235,38.4274691 L45.5362654,51.0177469 L35.1442901,47.5347222 L54.4151235,41.4537037 C54.5436617,41.4197638 54.6681124,41.3718982 54.7862654,41.3109568 C56.446936,40.3684087 57.5555556,38.5735588 57.5555556,36.5432099 C57.5555556,33.5375126 55.0797704,31.0617284 52.0740741,31.0617284 L17.3580247,31.0617284 C17.3009573,31.0590507 17.2437958,31.0590507 17.1867284,31.0617284 Z" id="Shape" fill="#000000" fill-rule="nonzero"></path>
                        </g>
                    </g>
                </g>
            </g>
        </g>
    </g>
</svg>