<?xml version="1.0" encoding="utf-8"?>
<!-- Generator: Adobe Illustrator 24.3.0, SVG Export Plug-In . SVG Version: 6.00 Build 0)  -->
<svg version="1.0" id="Calque_1" xmlns="http://www.w3.org/2000/svg" xmlns:xlink="http://www.w3.org/1999/xlink" x="0px" y="0px"
	 viewBox="0 0 141 146" enable-background="new 0 0 141 146" xml:space="preserve">
<g>
	<g opacity="0.3" enable-background="new    ">
		<g>
			<g>
				<defs>
					<path id="SVGID_1_" d="M29.77,117.98c-6.28-5.51-11.83-11.8-16.51-18.71C0.4,78.66,2.94,50.54,19.6,29.27
						c0.46-0.6,2.48-2.9,4.82-5.57c7.72-8.78,12.1-13.86,14.45-16.94c2.38,3.13,6.83,8.29,14.72,17.26c2.2,2.51,4.11,4.68,4.57,5.26
						l3.8-2.99c-0.52-0.66-2.06-2.42-4.74-5.46c-4.34-4.94-14.33-16.3-15.81-18.81C41.22,0.85,40.21,0,39.03,0h-0.31
						c-1.18,0-2.19,0.85-2.39,2.01c-1.45,2.45-10.91,13.23-15.55,18.5c-2.84,3.24-4.48,5.1-5,5.78
						C-2.12,49.15-4.78,79.51,9.15,101.83c4.9,7.26,10.71,13.86,17.27,19.65c3.34,3.18,6.73,6.48,9.87,9.98v13.73h4.84v-13.39
						c3.2-3.62,6.72-7,10.13-10.27c1.3-1.24,2.59-2.49,3.87-3.74l-3.39-3.46c-1.27,1.24-2.56,2.47-3.84,3.71
						c-2.25,2.16-4.54,4.39-6.78,6.7V105l12.39-13.51l-3.57-3.27l-8.82,9.62V78.37L62.3,54.86l-3.6-3.24L41.14,71.13V54.05
						l14.04-18.71l-3.87-2.9L41.14,45.98V19.36H36.3v26.62L26.14,32.43l-3.87,2.9L36.3,54.05v17.09L18.74,51.62l-3.6,3.24
						L36.3,78.37v19.47L13.88,73.38l-3.57,3.27L36.3,105v19.41C34.13,122.21,31.94,120.05,29.77,117.98z"/>
				</defs>
				<clipPath id="SVGID_2_">
					<use xlink:href="#SVGID_1_"  overflow="visible"/>
				</clipPath>
				<g clip-path="url(#SVGID_2_)">
					<defs>
						<rect id="SVGID_3_" width="141" height="146"/>
					</defs>
					<clipPath id="SVGID_4_">
						<use xlink:href="#SVGID_3_"  overflow="visible"/>
					</clipPath>
					<path clip-path="url(#SVGID_4_)" fill="#1C496B" d="M29.77,117.98c-6.28-5.51-11.83-11.8-16.51-18.71
						C0.4,78.66,2.94,50.54,19.6,29.27c0.46-0.6,2.48-2.9,4.82-5.57c7.72-8.78,12.1-13.86,14.45-16.94
						c2.38,3.13,6.83,8.29,14.72,17.26c2.2,2.51,4.11,4.68,4.57,5.26l3.8-2.99c-0.52-0.66-2.06-2.42-4.74-5.46
						c-4.34-4.94-14.33-16.3-15.81-18.81C41.22,0.85,40.21,0,39.03,0h-0.31c-1.18,0-2.19,0.85-2.39,2.01
						c-1.45,2.45-10.91,13.23-15.55,18.5c-2.84,3.24-4.48,5.1-5,5.78C-2.12,49.15-4.78,79.51,9.15,101.83
						c4.9,7.26,10.71,13.86,17.27,19.65c3.34,3.18,6.73,6.48,9.87,9.98v13.73h4.84v-13.39c3.2-3.62,6.72-7,10.13-10.27
						c1.3-1.24,2.59-2.49,3.87-3.74l-3.39-3.46c-1.27,1.24-2.56,2.47-3.84,3.71c-2.25,2.16-4.54,4.39-6.78,6.7V105l12.39-13.51
						l-3.57-3.27l-8.82,9.62V78.37L62.3,54.86l-3.6-3.24L41.14,71.13V54.05l14.04-18.71l-3.87-2.9L41.14,45.98V19.36H36.3v26.62
						L26.14,32.43l-3.87,2.9L36.3,54.05v17.09L18.74,51.62l-3.6,3.24L36.3,78.37v19.47L13.88,73.38l-3.57,3.27L36.3,105v19.41
						C34.13,122.21,31.94,120.05,29.77,117.98z"/>
				</g>
			</g>
			<g>
				<defs>
					<path id="SVGID_5_" d="M29.77,117.98c-6.28-5.51-11.83-11.8-16.51-18.71C0.4,78.66,2.94,50.54,19.6,29.27
						c0.46-0.6,2.48-2.9,4.82-5.57c7.72-8.78,12.1-13.86,14.45-16.94c2.38,3.13,6.83,8.29,14.72,17.26c2.2,2.51,4.11,4.68,4.57,5.26
						l3.8-2.99c-0.52-0.66-2.06-2.42-4.74-5.46c-4.34-4.94-14.33-16.3-15.81-18.81C41.22,0.85,40.21,0,39.03,0h-0.31
						c-1.18,0-2.19,0.85-2.39,2.01c-1.45,2.45-10.91,13.23-15.55,18.5c-2.84,3.24-4.48,5.1-5,5.78
						C-2.12,49.15-4.78,79.51,9.15,101.83c4.9,7.26,10.71,13.86,17.27,19.65c3.34,3.18,6.73,6.48,9.87,9.98v13.73h4.84v-13.39
						c3.2-3.62,6.72-7,10.13-10.27c1.3-1.24,2.59-2.49,3.87-3.74l-3.39-3.46c-1.27,1.24-2.56,2.47-3.84,3.71
						c-2.25,2.16-4.54,4.39-6.78,6.7V105l12.39-13.51l-3.57-3.27l-8.82,9.62V78.37L62.3,54.86l-3.6-3.24L41.14,71.13V54.05
						l14.04-18.71l-3.87-2.9L41.14,45.98V19.36H36.3v26.62L26.14,32.43l-3.87,2.9L36.3,54.05v17.09L18.74,51.62l-3.6,3.24
						L36.3,78.37v19.47L13.88,73.38l-3.57,3.27L36.3,105v19.41C34.13,122.21,31.94,120.05,29.77,117.98z"/>
				</defs>
				<clipPath id="SVGID_6_">
					<use xlink:href="#SVGID_5_"  overflow="visible"/>
				</clipPath>
				<g clip-path="url(#SVGID_6_)">
					<defs>
						<rect id="SVGID_7_" width="141" height="146"/>
					</defs>
					<clipPath id="SVGID_8_">
						<use xlink:href="#SVGID_7_"  overflow="visible"/>
					</clipPath>
					
						<path clip-path="url(#SVGID_8_)" fill="none" stroke="#1C496B" stroke-width="33.88" stroke-linejoin="round" stroke-miterlimit="10" d="
						M29.77,117.98c-6.28-5.51-11.83-11.8-16.51-18.71C0.4,78.66,2.94,50.54,19.6,29.27c0.46-0.6,2.48-2.9,4.82-5.57
						c7.72-8.78,12.1-13.86,14.45-16.94c2.38,3.13,6.83,8.29,14.72,17.26c2.2,2.51,4.11,4.68,4.57,5.26l3.8-2.99
						c-0.52-0.66-2.06-2.42-4.74-5.46c-4.34-4.94-14.33-16.3-15.81-18.81C41.22,0.85,40.21,0,39.03,0h-0.31
						c-1.18,0-2.19,0.85-2.39,2.01c-1.45,2.45-10.91,13.23-15.55,18.5c-2.84,3.24-4.48,5.1-5,5.78
						C-2.12,49.15-4.78,79.51,9.15,101.83c4.9,7.26,10.71,13.86,17.27,19.65c3.34,3.17,6.73,6.48,9.87,9.98v13.73h4.84v-13.39
						c3.2-3.62,6.72-7,10.13-10.27c1.3-1.24,2.59-2.49,3.87-3.74l-3.39-3.46c-1.27,1.24-2.56,2.47-3.84,3.71
						c-2.25,2.16-4.54,4.39-6.78,6.7V105l12.39-13.51l-3.57-3.27l-8.82,9.62V78.37L62.3,54.86l-3.6-3.24L41.14,71.13V54.05
						l14.04-18.71l-3.87-2.9L41.14,45.98V19.36H36.3v26.62L26.14,32.43l-3.87,2.9L36.3,54.05v17.09L18.74,51.62l-3.6,3.24
						L36.3,78.37v19.47L13.88,73.38l-3.57,3.27L36.3,105v19.41C34.13,122.21,31.94,120.05,29.77,117.98z"/>
				</g>
			</g>
			<g>
				<defs>
					<path id="SVGID_9_" d="M134.72,139.57c-1.08,1.01-2.76,1.01-3.84,0l-15.26-15.26c1.37-1.18,2.66-2.46,3.84-3.84l15.26,15.26
						c0.51,0.51,0.79,1.2,0.79,1.92C135.52,138.37,135.23,139.06,134.72,139.57L134.72,139.57z M122.38,116.54
						c8.08-12.39,7.81-28.44-0.68-40.55l-3.96,2.78c7.73,11.04,7.55,25.78-0.44,36.63c-5.92,8.07-15.33,12.84-25.34,12.86
						c-12.93-0.01-24.54-7.92-29.27-19.96s-1.61-25.74,7.86-34.54l-3.28-3.55c-10.93,10.16-14.54,25.97-9.09,39.86
						c5.45,13.89,18.85,23.03,33.77,23.04c7.01,0.01,13.88-2.03,19.74-5.88l15.77,15.77c1.41,1.42,3.34,2.22,5.34,2.21
						c2,0,3.92-0.79,5.34-2.21s2.21-3.34,2.21-5.34c0.01-2-0.79-3.93-2.21-5.34L122.38,116.54z"/>
				</defs>
				<clipPath id="SVGID_10_">
					<use xlink:href="#SVGID_9_"  overflow="visible"/>
				</clipPath>
				<g clip-path="url(#SVGID_10_)">
					<defs>
						<rect id="SVGID_11_" width="141" height="146"/>
					</defs>
					<clipPath id="SVGID_12_">
						<use xlink:href="#SVGID_11_"  overflow="visible"/>
					</clipPath>
					<rect x="50.68" y="65.2" clip-path="url(#SVGID_12_)" fill="#1C496B" width="94.68" height="85"/>
				</g>
			</g>
			<g>
				<defs>
					<path id="SVGID_13_" d="M72.42,78.75c-4.56,4.91-7.09,11.36-7.08,18.05c0,0.6,0.02,1.16,0.05,1.78
						c0.91,14.37,13.07,25.41,27.46,24.93c14.39-0.48,25.78-12.31,25.73-26.71c0.02-5.85-1.91-11.55-5.49-16.18l-3.84,2.95
						c2.93,3.79,4.5,8.45,4.49,13.23c0.05,11.77-9.26,21.46-21.02,21.87c-11.77,0.41-21.73-8.61-22.49-20.36
						c-0.02-0.5-0.05-0.99-0.05-1.51c0.03-8.16,4.59-15.63,11.83-19.37l-2.21-4.3C77.03,74.55,74.53,76.45,72.42,78.75z"/>
				</defs>
				<clipPath id="SVGID_14_">
					<use xlink:href="#SVGID_13_"  overflow="visible"/>
				</clipPath>
				<g clip-path="url(#SVGID_14_)">
					<defs>
						<rect id="SVGID_15_" width="141" height="146"/>
					</defs>
					<clipPath id="SVGID_16_">
						<use xlink:href="#SVGID_15_"  overflow="visible"/>
					</clipPath>
					<rect x="60.34" y="68.12" clip-path="url(#SVGID_16_)" fill="#1C496B" width="63.24" height="60.4"/>
				</g>
			</g>
			<g>
				<defs>
					<path id="SVGID_17_" d="M105.51,72.36c-0.63,0.07-1.21,0.39-1.61,0.89l-9.35,11.62l0.27-11.03c0.03-1.12-0.72-2.11-1.8-2.4
						c-16.88-4.49-27.56-21.09-24.66-38.31c2.9-17.22,18.43-29.41,35.85-28.12c17.42,1.28,30.99,15.62,31.33,33.08
						C135.87,55.54,122.87,70.39,105.51,72.36z M101.64,0c-19.1-0.01-35.35,13.91-38.27,32.78c-2.92,18.87,8.36,37.05,26.57,42.81
						l-0.4,16.31c-0.03,1.04,0.61,1.98,1.59,2.33c0.97,0.36,2.07,0.05,2.72-0.76l13.22-16.44c20.07-2.9,34.5-20.81,33.08-41.04
						C138.72,15.77,121.92,0.06,101.64,0z"/>
				</defs>
				<clipPath id="SVGID_18_">
					<use xlink:href="#SVGID_17_"  overflow="visible"/>
				</clipPath>
				<g clip-path="url(#SVGID_18_)">
					<defs>
						<rect id="SVGID_19_" width="141" height="146"/>
					</defs>
					<clipPath id="SVGID_20_">
						<use xlink:href="#SVGID_19_"  overflow="visible"/>
					</clipPath>
					<rect x="57.91" y="-5" clip-path="url(#SVGID_20_)" fill="#1C496B" width="87.33" height="104.38"/>
				</g>
			</g>
			<g>
				<defs>
					<path id="SVGID_21_" d="M113.74,49.32l-12.1,6.05l-12.1-6.05V25.7l12.1-6.05l12.1,6.05V49.32z M118.58,24.2
						c-0.01-0.1-0.02-0.2-0.04-0.3l3.8-2.53l-2.68-4.03l-5.06,3.37l-10.54-5.27V9.68h-4.84v5.76l-10.54,5.27l-5.06-3.37l-2.68,4.03
						l3.8,2.53c-0.02,0.1-0.03,0.2-0.04,0.3v26.33l-5.92,2.96l2.16,4.33l7.39-3.7l10.89,5.44v5.76h4.84v-5.76l10.89-5.44l7.39,3.71
						l2.16-4.33l-5.92-2.97V24.2z"/>
				</defs>
				<clipPath id="SVGID_22_">
					<use xlink:href="#SVGID_21_"  overflow="visible"/>
				</clipPath>
				<g clip-path="url(#SVGID_22_)">
					<defs>
						<rect id="SVGID_23_" width="141" height="146"/>
					</defs>
					<clipPath id="SVGID_24_">
						<use xlink:href="#SVGID_23_"  overflow="visible"/>
					</clipPath>
					<rect x="73.78" y="4.68" clip-path="url(#SVGID_24_)" fill="#1C496B" width="55.72" height="65.66"/>
				</g>
			</g>
			<g>
				<defs>
					<polygon id="SVGID_25_" points="99.22,38.72 104.06,38.72 104.06,33.88 108.9,33.88 108.9,29.04 104.06,29.04 104.06,33.88 
						99.22,33.88 					"/>
				</defs>
				<clipPath id="SVGID_26_">
					<use xlink:href="#SVGID_25_"  overflow="visible"/>
				</clipPath>
				<g clip-path="url(#SVGID_26_)">
					<defs>
						<rect id="SVGID_27_" width="141" height="146"/>
					</defs>
					<clipPath id="SVGID_28_">
						<use xlink:href="#SVGID_27_"  overflow="visible"/>
					</clipPath>
					<rect x="94.22" y="24.04" clip-path="url(#SVGID_28_)" fill="#1C496B" width="19.68" height="19.68"/>
				</g>
			</g>
		</g>
	</g>
</g>
</svg>
