<?xml version="1.0" encoding="UTF-8"?>
<svg width="59px" height="90px" viewBox="0 0 59 90" version="1.1" xmlns="http://www.w3.org/2000/svg" xmlns:xlink="http://www.w3.org/1999/xlink">
    <title>Group</title>
    <defs>
        <filter id="filter-1">
            <feColorMatrix in="SourceGraphic" type="matrix" values="0 0 0 0 1.000000 0 0 0 0 1.000000 0 0 0 0 1.000000 0 0 0 1.000000 0"></feColorMatrix>
        </filter>
    </defs>
    <g id="Ecogestes" stroke="none" stroke-width="1" fill="none" fill-rule="evenodd">
        <g id="Ecogestes_corails" transform="translate(-603.000000, -2863.000000)">
            <g id="agir" transform="translate(120.000000, 2620.000000)">
                <g id="Group-8" transform="translate(483.000000, 202.000000)">
                    <g id="noun_love-apps_1813494" transform="translate(0.000000, 41.000000)" filter="url(#filter-1)">
                        <g transform="translate(0.000000, 0.000000)" id="Group" fill="#000000" fill-rule="nonzero">
                            <path d="M24.7585846,60.8008948 C25.9757676,62.0180777 27.5915244,62.6884992 29.3079465,62.6884992 C31.0238576,62.6884992 32.6396144,62.0180777 33.8567973,60.8008948 L45.7399165,48.9305505 C47.9693746,46.7016034 49.2759812,43.7439817 49.4195699,40.6034248 C49.6060821,37.0367006 48.264728,33.5435592 45.7358286,31.0151707 C43.0822471,28.3753861 39.4107696,27.0468068 35.673885,27.3564679 C33.370844,27.5537109 31.1674465,28.3886717 29.3079466,29.7509764 C27.4479357,28.3896937 25.2445382,27.5537108 22.9394533,27.3564679 C19.2000137,27.0498727 15.5341571,28.376408 12.8759767,31.0192586 C10.4538747,33.4403388 9.13704823,36.6616324 9.16821869,40.0903888 C9.20041116,43.4322765 10.5167266,46.5718114 12.8764876,48.9315725 L24.7585846,60.8008948 Z M15.8315543,33.9830124 C17.4411791,32.3825854 19.6077852,31.4975473 21.862793,31.4975473 C22.1029592,31.4975473 22.3446584,31.5077671 22.5863577,31.5282068 C24.5536769,31.6958123 26.4152208,32.5665426 27.8281138,33.9789245 C28.6446789,34.7965117 29.9712143,34.7965117 30.7877795,33.9789245 C32.2006724,32.5665426 34.0622163,31.6958123 36.0269805,31.5282068 C38.5385062,31.3166562 41.0025097,32.2119141 42.7802509,33.9789245 C44.4690794,35.6672422 45.3653594,38.0045196 45.2391444,40.3908522 C45.2386334,40.3959621 45.2386334,40.401072 45.2381224,40.4072039 C45.1435889,42.5043152 44.2708146,44.4798103 42.7812728,45.9698629 L30.8971318,57.8412292 C30.0437751,58.6945859 28.5726291,58.6935638 27.7182504,57.8402072 L15.8356422,45.9708848 C14.2566769,44.3919195 13.3757267,42.2886764 13.354265,40.0505314 C13.3333145,37.7561773 14.2142646,35.599791 15.8315543,33.9830124 Z" id="Shape"></path>
                            <path d="M52.158998,0.879928221 L6.44565317,0.879928221 C3.10785342,0.879928221 0.39244186,3.59533978 0.39244186,6.93313953 L0.39244186,14.6511628 L0.39244186,75.3488372 L0.39244186,83.0668605 C0.39244186,86.4046602 3.10785342,89.1200718 6.44565317,89.1200718 L52.158998,89.1200718 C55.4967977,89.1200718 58.2122093,86.4046602 58.2122093,83.0668605 L58.2122093,75.3488372 L58.2122093,14.6511628 L58.2122093,6.93313953 C58.2122093,3.59533978 55.4967977,0.879928221 52.158998,0.879928221 Z M6.44565317,5.06597473 L52.158998,5.06597473 C53.1886469,5.06597473 54.0261628,5.90400167 54.0261628,6.93313953 L54.0261628,12.5581395 L4.57848837,12.5581395 L4.57848837,6.93313953 C4.57848837,5.90400167 5.4160043,5.06597473 6.44565317,5.06597473 Z M54.0261628,73.255814 L4.57848837,73.255814 L4.57848837,16.744186 L54.0261628,16.744186 L54.0261628,73.255814 Z M52.158998,84.9340253 L6.44565317,84.9340253 C5.4160043,84.9340253 4.57848837,84.0959983 4.57848837,83.0668605 L4.57848837,77.4418605 L54.0261628,77.4418605 L54.0261628,83.0668605 C54.0261628,84.0959983 53.1886469,84.9340253 52.158998,84.9340253 Z" id="Shape"></path>
                        </g>
                    </g>
                </g>
            </g>
        </g>
    </g>
</svg>