<?xml version="1.0" encoding="UTF-8"?>
<svg width="139px" height="58px" viewBox="0 0 139 58" version="1.1" xmlns="http://www.w3.org/2000/svg" xmlns:xlink="http://www.w3.org/1999/xlink">
    <title>logo</title>
    <g id="🔥-Symbols" stroke="none" stroke-width="1" fill="none" fill-rule="evenodd">
        <g id="Header/Light" transform="translate(-55.000000, -26.000000)">
            <g id="logo" transform="translate(55.000000, 26.000000)">
                <path d="M9.51350159,39 C14.8014702,39 19,42.9326079 19,48.4864971 C19,54.0673921 14.7735359,58 9.51350159,58 C4.27767704,58 4.54747351e-13,54.0673921 4.54747351e-13,48.4864971 C4.54747351e-13,42.9326079 4.27767704,39 9.51350159,39 Z M42.6280965,40 L42.6280965,43.5682337 L46,43.5682337 L46,46.564126 L42.6280965,46.564126 L42.6280965,53.5454131 C42.6280965,54.5093565 43.036841,54.9256047 44.233538,54.9256047 L46,54.9256047 L46,58 L43.6075588,58 C40.7253864,58 38.7950455,56.8279325 38.7950455,53.5189411 L38.7950455,46.564126 L37,46.564126 L37,43.5682337 L38.7950455,43.5682337 L38.7950455,40 L42.6280965,40 Z M105.045265,43 C108.534102,43 111,45.2418631 111,49.3252899 L111,49.3252899 L111,58 L107.326427,58 L107.326427,49.8331463 C107.326427,47.4837262 106.04155,46.2566405 104.101367,46.2566405 C102.133612,46.2566405 100.849653,47.4837262 100.849653,49.8331463 L100.849653,49.8331463 L100.849653,58 L97.177,58 L97.177,49.8331463 C97.177,47.4837262 95.8921227,46.2566405 93.9510206,46.2566405 C91.9584498,46.2566405 90.6726535,47.4837262 90.6726535,49.8331463 L90.6726535,49.8331463 L90.6726535,58 L87,58 L87,43.4236813 C88.48248,43.5789375 89.5697545,44.0054246 90.6726535,45.0024317 C90.7388274,44.9276094 90.8050013,44.8499813 90.8702562,44.7695473 C91.804044,43.6808829 93.2580324,43 94.948225,43 C97.2036534,43 99.0657144,43.9876543 100.062,45.8292181 C101.005897,44.1485223 102.920346,43 105.045265,43 Z M56,43 L56,46.9244295 L55.0451,46.9244295 C52.9038092,46.9244295 51.612524,47.7783389 51.612524,50.6337449 L51.612524,50.6337449 L51.612524,58 L48,58 L48,45.003367 C49.1113372,44.1934156 49.9559173,43.8913206 51.612524,43.5209502 L51.612524,43.5209502 L51.612524,45.5093528 C52.5158811,43.9885896 54.0124336,43 56,43 L56,43 Z M120.062774,43 C124.129301,43 127,45.8586743 127,50.1848199 C127,50.6571306 126.975068,51.1294413 126.898493,51.6008331 L126.898493,51.6008331 L116.607072,51.6008331 C116.786046,53.7510414 118.20893,54.9575472 119.987089,54.9575472 C120.985245,54.9575472 121.686001,54.6166381 122.181072,54.1121661 C124.054506,53.361431 124.914647,53.2153271 126.59219,53.361431 C125.782802,55.9591399 123.473955,58 120.062774,58 C115.973097,58 113,55.0623009 113,50.5 C113,45.9110512 115.896521,43 120.062774,43 Z M138,43 L138,46.9244295 L137.044304,46.9244295 C134.903255,46.9244295 133.61302,47.7783389 133.61302,50.6337449 L133.61302,50.6337449 L133.61302,58 L130,58 L130,44.7863823 C131.155515,43.9147026 131.98915,43.5995137 133.61302,43.2291433 L133.61302,43.2291433 L133.61302,45.5093528 C134.516275,43.9885896 136.012658,43 138,43 L138,43 Z M34.8346054,44 C34.9303113,44.140387 35,44.2996722 35,44.4805554 L35,44.4805554 L35,56.9317992 C35,57.4222536 34.5902303,57.8200167 34.0828964,57.8200167 L34.0828964,57.8200167 L32.1790005,57.8200167 C31.6716666,57.8200167 31.2618969,57.4222536 31.2618969,56.9317992 L31.2618969,56.9317992 L31.2618969,56.0219837 C30.3327139,57.2287716 28.7159355,58 26.8863742,58 C23.4651225,58 21,55.8429003 21,51.9390628 L21,51.9390628 L21,45.9753166 C22.4439504,44.9098155 23.269994,44.4985537 24.6507599,44.1871826 C24.6851397,44.279874 24.712086,44.3761651 24.712086,44.4805554 L24.712086,44.4805554 L24.712086,51.4252105 C24.712086,53.7109983 26.0110838,54.9438838 27.9735183,54.9438838 C29.9889162,54.9438838 31.2618969,53.7109983 31.2618969,51.4252105 L31.2618969,51.4252105 L31.2618969,45.2760815 C32.3945709,44.5534486 33.2559235,44.2816738 34.8346054,44 Z M65.0632155,43 C69.1294836,43 72,45.8586743 72,50.1848199 C72,50.6571306 71.97507,51.1294413 71.8984991,51.6008331 L71.8984991,51.6008331 L68.5489697,51.6008331 C68.1358433,51.5686719 67.7084711,51.5659152 67.2748664,51.6008331 L67.2748664,51.6008331 L61.6077334,51.6008331 C61.7858051,53.7510414 63.2085983,54.9575472 64.987535,54.9575472 C66.0087764,54.9575472 66.7166115,54.6010169 67.2134317,54.0763293 C69.1063343,53.3072164 69.9682015,53.1464102 71.6198168,53.2796496 C70.8336301,55.915952 68.5097939,58 65.0632155,58 C60.973798,58 58,55.0623009 58,50.5 C58,45.9110512 60.8972272,43 65.0632155,43 Z M9.51350159,42.347792 C6.13903455,42.347792 3.82700319,44.7131304 3.82700319,48.4864971 C3.82700319,52.2598637 6.13903455,54.6782826 9.51350159,54.6782826 C12.8609654,54.6782826 15.1729968,52.2598637 15.1729968,48.4864971 C15.1729968,44.7131304 12.8609654,42.347792 9.51350159,42.347792 Z M80.6352056,49.0098097 C83.4278434,48.8370278 85.8558896,51.006091 84.7092053,50.8407406 C82.8092881,50.5667048 81.5779493,50.8964767 79.44908,51.7575994 C77.478938,52.5536967 74.7603728,51.1946648 74.0475431,50.4756691 C73.9157514,50.3428314 74.0783266,50.1579734 74.286115,50.1988465 C77.2259363,50.7840756 77.9791694,49.1733023 80.6352056,49.0098097 Z M64.9626049,46.0158049 C63.2593488,46.0158049 61.9131264,47.143286 61.6335538,49.1363636 L61.6335538,49.1363636 L68.3165861,49.1363636 C68.2658357,47.2213918 66.792292,46.0158049 64.9626049,46.0158049 Z M119.962157,46.0158049 C118.259683,46.0158049 116.912485,47.143286 116.632894,49.1363636 L116.632894,49.1363636 L123.316352,49.1363636 C123.265598,47.2213918 121.791961,46.0158049 119.962157,46.0158049 Z M56.6049496,24.2801689 L56.6049496,37 L53.3492209,37 L53.3492209,24.2801689 L56.6049496,24.2801689 Z M131.559522,23.7942811 C135.334526,23.7942811 138,26.3105661 138,30.1200307 C138,30.5350129 137.976749,30.9509053 137.905137,31.3667976 L128.350909,31.3667976 C128.516454,33.2596992 129.837101,34.3217262 131.48884,34.3217262 C132.90435,34.3217262 133.682787,33.629179 134.106882,32.7746432 L137.668908,32.7746432 C136.962083,35.1298496 134.792316,37 131.559522,37 C127.761268,37 125,34.4136412 125,30.3975956 C125,26.3569786 127.690585,23.7942811 131.559522,23.7942811 Z M120.002739,21 L120.002739,24.1727994 L123,24.1727994 L123,26.8353585 L120.002739,26.8353585 L120.002739,33.0403902 C120.002739,33.8974842 120.365726,34.2680701 121.428963,34.2680701 L123,34.2680701 L123,37 L120.872574,37 C118.311659,37 116.595808,35.9585259 116.595808,33.0175709 L116.595808,26.8353585 L115,26.8353585 L115,24.1727994 L116.595808,24.1727994 L116.595808,21 L120.002739,21 Z M113.604859,24.2801689 L113.604859,37 L110.349301,37 L110.349301,24.2801689 L113.604859,24.2801689 Z M7.5077951,21 C10.8075724,21 12.6383073,22.7413306 12.6383073,25.126059 C12.6383073,27.0743251 11.4864143,28.2888286 9.94877506,28.7939681 C11.7340757,29.1147634 13,30.7874167 13,32.6679092 C13,35.2125833 11.0792873,37 7.80178174,37 L1,37 L1,21 L7.5077951,21 Z M28.5004495,24 C32.1498721,24 35,26.5227758 35,30.5004479 C35,34.4539315 32.0806418,37 28.408742,37 C24.7602185,37 22,34.4539315 22,30.5004479 C22,26.5227758 24.851027,24 28.5004495,24 Z M95,24 L95,27.4011363 L94.1649498,27.4011363 C92.2909831,27.4011363 91.1612616,28.1406327 91.1612616,30.6162587 L91.1612616,37 L88,37 L88,24.1851021 L91.1612616,24.1851021 L91.1612616,26.1738094 C91.9526898,24.856211 93.2613506,24 95,24 Z M61.625817,24 L65.0123911,33.9724634 L68.3970588,24 L72,24 L67.0426198,37 L62.932598,37 L58,24 L61.625817,24 Z M18.604859,24.2801689 L18.604859,37 L15.3493009,37 L15.3493009,24.2801689 L18.604859,24.2801689 Z M79.5585921,24 C83.3335957,24 86,26.4770863 86,30.2272069 C86,30.6357246 85.9758191,31.0451382 85.9051366,31.4545517 L76.3499785,31.4545517 C76.5145944,33.3179657 77.8361711,34.3634484 79.4879096,34.3634484 C80.9034197,34.3634484 81.6818572,33.6816898 82.1068822,32.8404659 L85.6689083,32.8404659 C84.9602232,35.1589828 82.7904564,37 79.5585921,37 C75.7603377,37 73,34.4539315 73,30.4995521 C73,26.5227758 75.6896552,24 79.5585921,24 Z M101.547605,24 C104.752678,24 106.688919,25.6591551 106.880281,28.1595341 L103.67615,28.1595341 C103.579998,27.1821377 102.767418,26.5227758 101.452395,26.5227758 C100.209015,26.5227758 99.5632873,27.0002757 99.5632873,27.7277238 C99.5632873,30.0229481 106.90479,28.5913445 107,33.2041899 C107,35.3632417 105.01474,37 101.787043,37 C98.4631931,37 96.1432856,35.1589828 96,32.8180691 L99.3709829,32.8180691 C99.4907019,33.7721728 100.423944,34.499621 101.762533,34.499621 C103.077556,34.499621 103.794927,33.9316381 103.794927,33.2041899 C103.794927,30.9546551 96.310138,32.3862587 96.310138,27.7725174 C96.310138,25.6824478 98.2718313,24 101.547605,24 Z M50,20 L50,36.795116 L46.8001776,36.795116 L46.8001776,34.9341614 C46.0568384,36.0918899 44.660746,37 42.7007105,37 C39.5239787,37 37,34.3892953 37,30.462502 C37,26.5366033 39.5239787,24.017157 42.722913,24.017157 C44.3676732,24.017157 45.9440497,24.7892742 46.8001776,25.96937 L46.8001776,20 L50,20 Z M7.28240535,30.077149 L4.16347439,30.077149 L4.16347439,34.3866486 L7.35011136,34.3866486 C8.88685969,34.3866486 9.79109131,33.6302948 9.79109131,32.2784367 C9.79109131,30.9030837 8.82004454,30.077149 7.28240535,30.077149 Z M28.4554948,26.77362 C26.7669963,26.77362 25.2394356,27.9776721 25.2394356,30.5004479 C25.2394356,32.9999311 26.6995643,34.2272759 28.408742,34.2272759 C30.0972405,34.2272759 31.7165087,32.9999311 31.7165087,30.5004479 C31.7165087,27.9776721 30.1421952,26.77362 28.4554948,26.77362 Z M43.5115453,26.808589 C41.821492,26.808589 40.2220249,28.0799432 40.2220249,30.462502 C40.2220249,32.8459555 41.821492,34.2076733 43.5115453,34.2076733 C45.2460036,34.2076733 46.8232682,32.8915847 46.8232682,30.5081312 C46.8232682,28.1255723 45.2460036,26.808589 43.5115453,26.808589 Z M79.4637287,26.6132589 C77.8836028,26.6132589 76.6327085,27.5906554 76.3741594,29.3178968 L82.5784089,29.3178968 C82.5319073,27.6587416 81.1619688,26.6132589 79.4637287,26.6132589 Z M131.465589,26.4498036 C129.884533,26.4498036 128.634569,27.4417569 128.374159,29.1963311 L134.579339,29.1963311 C134.531907,27.5109206 133.163829,26.4498036 131.465589,26.4498036 Z M7.05612472,23.5898565 L4.16347439,23.5898565 L4.16347439,27.6011522 L7.05612472,27.6011522 C8.54832962,27.6011522 9.40712695,26.9134757 9.40712695,25.6068 C9.40712695,24.3236191 8.54832962,23.5898565 7.05612472,23.5898565 Z M134.083631,18 L134.083631,20.6318613 L128.657819,23.0562314 L128.657819,20.7474375 L134.083631,18 Z M112.000458,19 C113.140041,19 114,19.8263274 114,20.8825422 C114,21.938757 113.140041,22.7650845 112.000458,22.7650845 C110.837039,22.7650845 110,21.938757 110,20.8825422 C110,19.8263274 110.837039,19 112.000458,19 Z M54.9990834,19 C56.1393217,19 57,19.8263274 57,20.8825422 C57,21.938757 56.1393217,22.7650845 54.9990834,22.7650845 C53.8377635,22.7650845 53,21.938757 53,20.8825422 C53,19.8263274 53.8377635,19 54.9990834,19 Z M17.0004584,19 C18.1400413,19 19,19.8263274 19,20.8825422 C19,21.938757 18.1400413,22.7650845 17.0004584,22.7650845 C15.8370387,22.7650845 15,21.938757 15,20.8825422 C15,19.8263274 15.8370387,19 17.0004584,19 Z M28.5325634,1 C28.6892455,1.09713779 28.8110044,1.19422109 28.7628671,1.54579459 L28.7628671,1.54579459 L28.3277442,2.85689041 C28.2239187,3.16887655 27.9586919,3.41111352 27.6340014,3.45352855 C24.7863528,3.83055107 22.802343,6.07289252 22.802343,9.48871657 C22.802343,13.2419758 25.1959913,15.6332411 28.5004719,15.6332411 C31.8049525,15.6332411 34.1995447,13.2419758 34.1995447,9.48871657 C34.1995447,8.29261262 33.9522514,7.24449001 33.513353,6.36602753 C33.4255733,6.19071206 33.4302926,5.98523478 33.5378935,5.82028743 L33.5378935,5.82028743 L34.4628838,4.38948696 C34.6733663,4.06524759 35.1434124,4.05393692 35.3727722,4.3649805 C36.3959247,5.75336593 37,7.50180788 37,9.48871657 C37,14.4852075 33.2415191,18 28.5004719,18 C23.807562,18 20,14.4852075 20,9.48871657 C20,4.50353627 23.8245517,0.984031032 28.5325634,1 Z M111.72949,2 L111.72949,12.097035 C111.72949,14.55885 113.18956,15.720575 115.488674,15.720575 C117.81044,15.720575 119.271453,14.55885 119.271453,12.097035 L119.271453,2 L122,2 L122,12.0512129 C122,16.0853549 118.935458,18 115.464135,18 C111.969217,18 109,16.0853549 109,12.0512129 L109,2 L111.72949,2 Z M8.50557222,1.25133158 C11.9792389,1.25133158 14.9750167,2.90838421 16.2434056,5.99522632 L12.9624056,5.99522632 C12.0746278,4.31491053 10.4936278,3.52127895 8.50557222,3.52127895 C5.19907222,3.52127895 2.80396111,5.7447 2.80396111,9.30843684 C2.80396111,12.8721737 5.19907222,15.1197526 8.50557222,15.1197526 C10.4936278,15.1197526 12.0746278,14.3243316 12.9624056,12.6449105 L16.2434056,12.6449105 C14.9750167,15.7317526 11.9792389,17.3664368 8.50557222,17.3664368 C3.80885,17.3664368 -9.44444441e-05,14.0523316 -9.44444441e-05,9.30843684 C-9.44444441e-05,4.58780526 3.80885,1.25133158 8.50557222,1.25133158 Z M132.744862,1.45533158 C136.608862,1.45533158 138.504862,3.61164737 138.504862,6.17596316 C138.504862,8.03791053 137.474708,10.0349632 134.735015,10.6934895 L138.763323,17.2295421 L135.577785,17.2295421 L131.831015,10.9198579 L129.794708,10.9198579 L129.794708,17.2295421 L127.124246,17.2295421 L127.124246,1.45533158 L132.744862,1.45533158 Z M43.8571352,1 L49.5238018,13.5467952 L55.1666667,1 L58,1 L58,17 L55.3534195,17 L55.3534195,6.04231424 L50.4291869,17 L48.594615,17 L43.6484114,6.04231424 L43.6484114,17 L41,17 L41,1 L43.8571352,1 Z M69.4317463,1 C73.1674102,1 75,3.16436958 75,5.76615053 C75,8.04486416 73.5296456,10.5077988 69.4317463,10.5077988 L66.5811501,10.5077988 L66.5811501,17 L64,17 L64,1 L69.4317463,1 Z M90,1 L90,3.1408962 L85.8043726,3.1408962 L85.8043726,17 L83.2188719,17 L83.2188719,3.1408962 L79,3.1408962 L79,1 L90,1 Z M104,1 L104,3.13786463 L97.6720049,3.13786463 L97.6720049,7.82775418 L103.295966,7.82775418 L103.295966,9.9656188 L97.6720049,9.9656188 L97.6720049,14.8630416 L104,14.8630416 L104,17 L95,17 L95,1 L104,1 Z M132.744862,3.56601579 L129.794708,3.56601579 L129.794708,8.85480526 L132.744862,8.85480526 C134.828246,8.85480526 135.765169,7.74264737 135.765169,6.17596316 C135.765169,4.58780526 134.828246,3.56601579 132.744862,3.56601579 Z M69.4317463,3.14077477 L66.5811501,3.14077477 L66.5811501,8.36702399 L69.4317463,8.36702399 C71.446346,8.36702399 72.3519345,7.37694969 72.3519345,5.76615053 C72.3519345,4.10816176 71.446346,3.14077477 69.4317463,3.14077477 Z" id="Combined-Shape" fill="#FFFFFF"></path>
                <path d="M33,0.688298229 C33.0048044,0.0659048154 32.5572825,-0.212320397 31.9722105,0.184240864 L27.2829171,7.95648024 C27.2829171,7.95648024 26.4101526,9.22385028 27.730439,9.86973024 C28.7562522,10.3719809 29.3083897,9.25998343 29.3083897,9.25998343 L33,0.688298229 Z" id="Fill-36" fill="#FFCF3F"></path>
            </g>
        </g>
    </g>
</svg>