<?xml version="1.0" encoding="UTF-8"?>
<svg width="20px" height="20px" viewBox="0 0 20 20" version="1.1" xmlns="http://www.w3.org/2000/svg" xmlns:xlink="http://www.w3.org/1999/xlink">
    <title>Shape</title>
    <g id="Ecogestes" stroke="none" stroke-width="1" fill="none" fill-rule="evenodd">
        <g id="Ecogestes_corails" transform="translate(-1356.000000, -312.000000)" fill="#000000" fill-rule="nonzero">
            <g id="intro" transform="translate(0.000000, 48.000000)">
                <g id="share" transform="translate(1348.000000, 256.000000)">
                    <g id="np_download_2176275_000000" transform="translate(8.000000, 8.000000)">
                        <path d="M9.98901107,0 C9.60001357,0.00625246347 9.28600403,0.323567486 9.28600403,0.714341451 L9.28600403,0.725283362 L9.28600403,0.724501854 L9.28600403,13.2794485 L4.79532564,8.78627819 C4.66565848,8.65653908 4.48755509,8.57759597 4.29072672,8.57759597 C3.89625011,8.57759597 3.57678145,8.89804223 3.57678145,9.29193742 C3.57678145,9.48967133 3.65645664,9.66786554 3.78612781,9.79681635 L9.49461051,15.5084667 C9.49617286,15.5100298 9.49929736,15.513156 9.50242186,15.5155007 L9.503984,15.5170639 C9.51101428,15.5240979 9.51804435,15.5311319 9.52585649,15.5373839 L9.52663756,15.5381654 C9.53601126,15.5467626 9.54616583,15.5553598 9.55632079,15.5639576 L9.55788294,15.5655208 C9.56256979,15.5694286 9.56959986,15.574118 9.57662993,15.579589 L9.57819228,15.581152 C9.58756577,15.5881859 9.59928289,15.5967831 9.61178088,15.6045992 L9.61490538,15.6061622 C9.62115438,15.6108517 9.63052787,15.6163224 9.64068324,15.6217934 L9.64380774,15.6233566 C9.65161888,15.6280459 9.66177365,15.6342983 9.67349097,15.6397693 L9.67739654,15.6413323 C9.68286426,15.6444585 9.69301903,15.649148 9.7031744,15.6530557 L9.70786104,15.6546189 C9.71411004,15.657745 9.72504588,15.6624344 9.7367624,15.6679054 L9.74144905,15.6694684 C9.74847932,15.6725946 9.76097731,15.6765023 9.7734759,15.6804103 L9.77816255,15.6819733 C9.78284919,15.6835365 9.79300396,15.6874443 9.80315853,15.6905705 L9.80784518,15.6921337 C9.81487545,15.6936967 9.82737344,15.6976045 9.83987203,15.6999492 L9.84455868,15.7007307 C9.85080767,15.7022939 9.86252459,15.7054201 9.87424191,15.7069832 L9.87892855,15.7077647 C9.88595883,15.7093279 9.89767554,15.7108911 9.90939166,15.7124541 L9.91329723,15.7132356 C9.92188965,15.7147988 9.93438784,15.7155803 9.94688583,15.7163618 L9.94844818,15.7163618 C9.95938383,15.7171436 9.97188242,15.7179251 9.98516028,15.7179251 L9.98594156,15.7179251 C9.99062821,15.7179251 9.9968772,15.7187066 10.0031262,15.7187066 C10.0085941,15.7187066 10.0148431,15.7187066 10.0210921,15.7179251 L10.0203108,15.7179251 C10.0421833,15.7171436 10.0632719,15.7163618 10.0843625,15.7132356 L10.081238,15.7140171 C10.086706,15.7132356 10.0882681,15.7124541 10.0898305,15.7124541 L10.0851436,15.7132356 C10.1038906,15.7108911 10.1187322,15.7085464 10.1335738,15.7054201 L10.128887,15.7062016 C10.1452906,15.7030754 10.1562266,15.7007307 10.1679427,15.6983862 L10.1632559,15.6999492 C10.1773162,15.6968229 10.1866901,15.6944782 10.1952827,15.6921337 L10.1905961,15.6936967 C10.2101241,15.6882258 10.2241847,15.6835365 10.2382444,15.6796288 L10.2335578,15.6811918 C10.2476179,15.6765023 10.2554303,15.6733763 10.2640209,15.6702499 L10.2593342,15.6718131 C10.2765189,15.6647791 10.2890175,15.6600897 10.3015154,15.6538372 L10.2968288,15.6554004 C10.320263,15.6444585 10.3374463,15.6358615 10.3546315,15.626483 L10.3507257,15.6280463 C10.3538502,15.626483 10.3546315,15.6257015 10.3554126,15.62492 L10.3530692,15.626483 C10.3702538,15.6171045 10.3827524,15.6085074 10.3960303,15.5999106 L10.3936868,15.6014736 C10.4054038,15.5936581 10.4147774,15.5874056 10.4233701,15.5811536 L10.4218077,15.5827166 C10.4389924,15.5694302 10.4546144,15.5577067 10.4686762,15.5452018 L10.4678951,15.5459835 C10.4694573,15.5444203 10.4710196,15.5428573 10.4725818,15.5412941 C10.4842987,15.5311339 10.496016,15.5217552 10.5053885,15.5115944 L16.2130713,9.80074429 C16.3466439,9.67100518 16.4294366,9.48968173 16.4294366,9.2888226 C16.4294366,8.89412709 16.1099479,8.57448115 15.7154913,8.57448115 C15.7076801,8.57448115 15.7014311,8.57448115 15.6936188,8.57526265 L15.6951811,8.57526265 C15.503024,8.58073361 15.3296199,8.66201483 15.20464,8.79018733 L10.7147614,13.2833576 L10.7147614,0.728410994 L10.7147614,0.719032299 C10.7147614,0.324336789 10.3952728,0.00469084819 10.0008162,0.00469084819 L9.98988053,0.00469084819 L9.9906616,0.00469084819 L9.98901107,0 Z M0.724099844,18.5713171 L0.713945276,18.5713171 C0.319468665,18.5713171 0,18.890983 0,19.2856585 C0,19.6803341 0.320268536,20 0.713945276,20 L0.724881119,20 L19.2759002,20 L19.2860547,20 C19.6805313,20 20,19.6803341 20,19.2856585 C20,18.890983 19.6805113,18.5713171 19.2860547,18.5713171 L19.2751189,18.5713171 L0.724099844,18.5713171 Z" id="Shape"></path>
                    </g>
                </g>
            </g>
        </g>
    </g>
</svg>