<?xml version="1.0" encoding="UTF-8"?>
<svg width="10px" height="16px" viewBox="0 0 10 16" version="1.1" xmlns="http://www.w3.org/2000/svg" xmlns:xlink="http://www.w3.org/1999/xlink">
    <title>Icons/Pin</title>
    <g id="Accueil" stroke="none" stroke-width="1" fill="none" fill-rule="evenodd">
        <g transform="translate(-123.000000, -624.000000)" fill="#FFFFFF" id="intro">
            <g transform="translate(0.000000, 48.000000)">
                <g id="contenu" transform="translate(120.000000, 191.000000)">
                    <g id="Icons/Pin" transform="translate(0.000000, 385.000000)">
                        <path d="M7.82537406,0 C10.3798976,0 12.4507481,2.07085051 12.4507481,4.62537406 C12.4507481,6.94395024 10.744777,8.86407553 8.51958657,9.19899823 L8.51918017,16 L7.13156795,16 L7.13148716,9.19904722 C4.90613751,8.86426284 3.2,6.94406333 3.2,4.62537406 C3.2,2.07085051 5.27085051,0 7.82537406,0 Z M7.82537406,1.38761222 C6.03720757,1.38761222 4.58761222,2.83720757 4.58761222,4.62537406 C4.58761222,6.41354055 6.03720757,7.8631359 7.82537406,7.8631359 C9.61354055,7.8631359 11.0631359,6.41354055 11.0631359,4.62537406 C11.0631359,2.83720757 9.61354055,1.38761222 7.82537406,1.38761222 Z" id="color"></path>
                    </g>
                </g>
            </g>
        </g>
    </g>
</svg>