<?xml version="1.0" encoding="utf-8"?>
<!-- Generator: Adobe Illustrator 24.3.0, SVG Export Plug-In . SVG Version: 6.00 Build 0)  -->
<svg version="1.1" id="Calque_1" xmlns="http://www.w3.org/2000/svg" xmlns:xlink="http://www.w3.org/1999/xlink" x="0px" y="0px"
	 viewBox="0 0 98 96" style="enable-background:new 0 0 98 96;" xml:space="preserve">
<style type="text/css">
	.st0{fill:#FFFFFF;}
</style>
<g id="Territoires">
	<g id="Fiche-Territoire" transform="translate(-713.000000, -792.000000)">
		<g id="fast-facts" transform="translate(713.000000, 649.000000)">
			<g id="np_hilly-area_2123354_000000" transform="translate(0.000000, 143.000000)">
				<path id="Combined-Shape" class="st0" d="M58,33.7c0.7-0.3,1.6,0.3,1.8,1l0,0l15,58.8c0.3,0.7-0.3,1.6-1,1.8
					c-0.7,0.3-1.6-0.3-1.8-1l0,0l-15-58.8C56.6,34.8,57.2,33.9,58,33.7z M39.4,34.8c0.1-0.7,1-1.2,1.8-1c0.7,0.1,1.2,1,1,1.8l0,0
					l-15,58.8c-0.1,0.7-1,1.2-1.8,1c-0.9-0.1-1.3-1-1.2-1.8l0,0L39.4,34.8z M48.9,88.7c0.9,0,1.5,0.6,1.5,1.5l0,0v3.7
					c0,0.7-0.6,1.5-1.5,1.5c-0.7,0-1.5-0.6-1.5-1.5l0,0v-3.7C47.4,89.5,48,88.7,48.9,88.7z M83.7,75.4c0.4,0,0.9,0.3,1.2,0.6
					c1,1.3,4.4,5.9,4.4,8.5s-1.8,4.9-4.1,5.4l0,0v4c0,0.9-0.6,1.5-1.5,1.5c-0.9,0-1.5-0.6-1.5-1.5l0,0v-4c-2.4-0.7-4.1-2.9-4.1-5.4
					c0-2.6,3.4-7.2,4.4-8.5C82.8,75.5,83.3,75.4,83.7,75.4z M15.2,76.7c0.4,0,0.9,0.3,1.2,0.6c1,1.3,4.1,5.6,4.1,7.9s-1.6,4.4-3.8,5
					l0,0v3.7c0,0.9-0.6,1.5-1.5,1.5c-0.9,0-1.5-0.6-1.5-1.5l0,0v-3.7c-2.2-0.6-3.8-2.6-3.8-5c0-2.5,3.1-6.8,4.1-7.9
					C14.3,76.8,14.7,76.7,15.2,76.7z M15.2,80.6c-1.3,1.9-2.4,3.8-2.4,4.6c0,1.3,1,2.4,2.4,2.4c1.3,0,2.4-1,2.4-2.4
					C17.5,84.5,16.5,82.6,15.2,80.6z M83.7,79.3c-1.5,2.1-2.6,4.3-2.6,5.1c0,1.5,1.2,2.6,2.6,2.6c1.5,0,2.6-1.2,2.6-2.6
					C86.4,83.6,85.2,81.4,83.7,79.3z M48.9,71.4c0.9,0,1.5,0.6,1.5,1.5l0,0v8.5c0,0.7-0.6,1.5-1.5,1.5c-0.9,0-1.5-0.6-1.5-1.5l0,0
					v-8.5C47.4,72.1,48,71.4,48.9,71.4z M8.4,55.2c0.4,0,0.9,0.1,1.2,0.6c1,1.3,4.1,5.6,4.1,7.9s-1.6,4.4-3.8,5l0,0v3.7
					c0,0.9-0.6,1.5-1.5,1.5c-0.7,0-1.5-0.7-1.5-1.5l0,0v-3.7c-2.2-0.6-3.8-2.6-3.8-5c0-2.5,3.2-6.8,4.1-7.9
					C7.5,55.4,8,55.2,8.4,55.2z M91.9,52.3c0.4,0,0.9,0.3,1.2,0.6c1,1.3,4.4,5.9,4.4,8.5c0,2.6-1.8,4.9-4.1,5.4l0,0v4
					c0,0.9-0.6,1.5-1.5,1.5c-0.9,0-1.5-0.6-1.5-1.5l0,0v-4c-2.4-0.7-4.1-2.9-4.1-5.4c0-2.6,3.4-7.2,4.4-8.5
					C91.1,52.4,91.5,52.3,91.9,52.3z M23.6,47.7c0.4,0,0.9,0.3,1.2,0.6c1,1.3,4.1,5.6,4.1,7.9s-1.6,4.4-3.8,5l0,0l0,3.5
					c0,0.9-0.6,1.5-1.5,1.5c-0.9,0-1.5-0.6-1.5-1.3l0,0v-3.7c-2.2-0.6-3.8-2.6-3.8-5c0-2.5,3.1-6.8,4.1-7.9
					C22.7,47.9,23.1,47.7,23.6,47.7z M8.4,59.2c-1.3,1.9-2.4,3.8-2.4,4.6c0,1.2,1.2,2.2,2.4,2.4c1.3,0,2.4-1,2.4-2.4
					C10.8,63,9.7,61.1,8.4,59.2z M91.9,56.2c-1.5,2.1-2.6,4.3-2.6,5.1c0,1.5,1.2,2.6,2.6,2.6c1.5,0,2.6-1.2,2.6-2.6
					C94.6,60.5,93.4,58.3,91.9,56.2z M48.9,50.6c0.9,0,1.5,0.6,1.5,1.5l0,0v10.4c0,0.9-0.6,1.5-1.5,1.5c-0.9,0-1.5-0.6-1.5-1.5l0,0
					V52.1C47.4,51.2,48,50.6,48.9,50.6z M75.3,40.6c0.4,0,0.9,0.3,1.2,0.6c1,1.3,4.4,5.9,4.4,8.5s-1.8,4.9-4.1,5.4l0,0v4
					c0,0.7-0.6,1.5-1.5,1.5c-0.9,0-1.5-0.6-1.5-1.5l0,0v-4c-2.4-0.7-4.1-2.9-4.1-5.4c0-2.6,3.4-7.2,4.4-8.5
					C74.4,40.8,74.9,40.6,75.3,40.6z M23.6,51.5c-1.3,1.9-2.4,3.8-2.4,4.6c0,1.3,1,2.4,2.4,2.4c1.3,0,2.4-1,2.4-2.4
					C25.9,55.4,24.9,53.4,23.6,51.5z M75.3,44.6c-1.5,2.1-2.6,4.3-2.6,5.1c0,1.3,1.2,2.6,2.6,2.6c1.5,0,2.6-1.2,2.6-2.6
					C78,48.9,76.8,46.7,75.3,44.6z M11.4,28.4c0.4,0,0.9,0.3,1.2,0.6c1,1.3,4.1,5.6,4.1,7.9s-1.6,4.4-3.8,5l0,0v3.7
					c0,0.9-0.6,1.5-1.5,1.5c-0.7,0-1.5-0.6-1.5-1.5l0,0V42c-2.2-0.6-3.8-2.6-3.8-5c0-2.4,3.2-6.6,4.1-7.9
					C10.5,28.6,10.9,28.4,11.4,28.4z M48.9,32.9c0.9,0,1.5,0.6,1.5,1.5l0,0v6.9c0,0.9-0.6,1.5-1.5,1.5c-0.7,0-1.5-0.6-1.5-1.5l0,0
					v-6.9C47.4,33.4,48,32.9,48.9,32.9z M11.4,32.4C10,34.3,9,36.2,9,37c0,1.3,1,2.4,2.4,2.4c1.3,0,2.4-1,2.4-2.4
					C13.7,36.2,12.7,34.3,11.4,32.4z M40.9,2.6c0.4-0.4,1.2-0.4,1.8,0l0,0l19.6,15.3l2.2-1.6c0.4-0.4,1.2-0.4,1.8,0l0,0l12.6,10
					l4.9-2.2c0.4-0.3,1-0.1,1.5,0.1l0,0l11.8,9.3c0.7,0.4,0.7,1.5,0.3,2.1c-0.3,0.4-0.7,0.6-1.2,0.6c-0.3,0-0.6-0.1-1.2-0.4l0,0
					l-11-8.7l-4.7,2.2l-12.5,5.6c-0.4,0.3-0.9,0.3-1.3,0l0,0l-12.2-7.2l-10-5.9L28.9,32.9c-0.4,0.4-1.2,0.4-1.8,0l0,0L13.7,22.4
					L2.8,30.9c-0.6,0.4-1.6,0.3-2.1-0.3c-0.4-0.6-0.3-1.6,0.3-2.1l0,0L13,19.3c0.4-0.4,1.2-0.4,1.8,0l0,0l2.4,1.9L40.9,2.6z
					 M65.2,19.2l-8.8,6.9l9.9,5.7l9.6-4.4L65.2,19.2z M41.8,5.6L19.3,23.1l8.7,6.8l14.1-11c0.6-0.4,1.2-0.4,1.6-0.1l0,0l10,5.9
					l6.2-4.9L41.8,5.6z M96.1,8.7c0.9,0,1.5,0.6,1.5,1.5c0,0.9-0.6,1.5-1.5,1.5c-2.8,0-5.1,2.4-5.1,5.1c0,0.9-0.6,1.5-1.5,1.5
					c-0.9,0-1.5-0.6-1.5-1.5c0-2.8-2.4-5.1-5.1-5.1c-0.9,0-1.5-0.6-1.5-1.5c0-0.9,0.6-1.5,1.5-1.5c2.8,0,5.1,1.3,6.6,3.4
					C90.9,10.1,93.3,8.7,96.1,8.7z M10.2,0.5c4,0,7.2,3.2,7.2,7.2c0,4-3.2,7.2-7.2,7.2c-4,0-7.2-3.2-7.2-7.2C3,3.7,6.2,0.5,10.2,0.5
					z M10.2,3.4c-2.4,0-4.3,1.9-4.3,4.3c0,2.4,1.9,4.3,4.3,4.3c2.4,0,4.3-1.9,4.3-4.3C14.4,5.4,12.5,3.4,10.2,3.4z"/>
			</g>
		</g>
	</g>
</g>
</svg>
