<?xml version="1.0" encoding="UTF-8"?>
<svg width="80px" height="48px" viewBox="0 0 80 48" version="1.1" xmlns="http://www.w3.org/2000/svg" xmlns:xlink="http://www.w3.org/1999/xlink">
    <title>Group 23</title>
    <defs>
        <filter id="filter-1">
            <feColorMatrix in="SourceGraphic" type="matrix" values="0 0 0 0 1.000000 0 0 0 0 1.000000 0 0 0 0 1.000000 0 0 0 1.000000 0"></feColorMatrix>
        </filter>
    </defs>
    <g id="Territoires" stroke="none" stroke-width="1" fill="none" fill-rule="evenodd">
        <g id="Fiche-Territoire" transform="translate(-1135.000000, -837.000000)">
            <g id="fast-facts" transform="translate(713.000000, 649.000000)">
                <g id="Group-23" transform="translate(422.000000, 195.000000)">
                    <g filter="url(#filter-1)" id="noun_fog_204258">
                        <g transform="translate(0.000000, 13.000000)">
                            <path d="M69.994,3 C68.193,3 67.417,2.5335 66.24,1.8285 C64.882,1.014 63.191,0 59.989,0 C56.787,0 55.097,1.014 53.739,1.8285 C52.564,2.53425 51.788,3 49.99,3 C48.191,3 47.414,2.5335 46.238,1.8285 C44.881,1.014 43.19,0 39.988,0 C36.787,0 35.097,1.014 33.739,1.8285 C32.564,2.53425 31.788,3 29.99,3 C28.193,3 27.417,2.53425 26.242,1.8285 C24.885,1.014 23.195,0 19.994,0 C16.793,0 15.103,1.014 13.746,1.8285 C12.571,2.53425 11.795,3 9.998,3 C8.2,3 7.424,2.53425 6.249,1.8285 C4.891,1.014 3.201,0 0,0 L0,3 C1.798,3 2.574,3.46575 3.749,4.1715 C5.107,4.986 6.797,6 9.998,6 C13.199,6 14.889,4.986 16.246,4.1715 C17.421,3.46575 18.197,3 19.994,3 C21.791,3 22.567,3.46575 23.742,4.1715 C25.1,4.986 26.789,6 29.99,6 C33.191,6 34.881,4.986 36.239,4.1715 C37.414,3.46575 38.19,3 39.988,3 C41.787,3 42.564,3.4665 43.74,4.1715 C45.098,4.986 46.788,6 49.99,6 C53.191,6 54.881,4.986 56.238,4.1715 C57.414,3.46575 58.19,3 59.989,3 C61.789,3 62.565,3.4665 63.742,4.1715 C65.101,4.986 66.791,6 69.994,6 C73.197,6 74.888,4.986 76.246,4.1715 C77.423,3.4665 78.2,3 80,3 L80,0 C76.797,0 75.106,1.014 73.748,1.8285 C72.571,2.5335 71.794,3 69.994,3 Z" id="Path" fill="#000000" fill-rule="nonzero"></path>
                            <path d="M69.994,14 C68.193,14 67.417,13.5335 66.24,12.8285 C64.882,12.014 63.191,11 59.989,11 C56.787,11 55.097,12.014 53.739,12.8285 C52.564,13.53425 51.788,14 49.99,14 C48.191,14 47.414,13.5335 46.238,12.8285 C44.881,12.014 43.19,11 39.988,11 C36.787,11 35.097,12.014 33.739,12.8285 C32.564,13.53425 31.788,14 29.99,14 C28.193,14 27.417,13.53425 26.242,12.8285 C24.885,12.014 23.195,11 19.994,11 C16.793,11 15.103,12.014 13.746,12.8285 C12.571,13.53425 11.795,14 9.998,14 C8.2,14 7.424,13.53425 6.249,12.8285 C4.891,12.014 3.201,11 0,11 L0,14 C1.798,14 2.574,14.46575 3.749,15.1715 C5.107,15.986 6.797,17 9.998,17 C13.199,17 14.889,15.986 16.246,15.1715 C17.421,14.46575 18.197,14 19.994,14 C21.791,14 22.567,14.46575 23.742,15.1715 C25.1,15.986 26.789,17 29.99,17 C33.191,17 34.881,15.986 36.239,15.1715 C37.414,14.46575 38.19,14 39.988,14 C41.787,14 42.564,14.4665 43.74,15.1715 C45.098,15.986 46.788,17 49.99,17 C53.191,17 54.881,15.986 56.238,15.1715 C57.414,14.46575 58.19,14 59.989,14 C61.789,14 62.565,14.4665 63.742,15.1715 C65.101,15.986 66.791,17 69.994,17 C73.197,17 74.888,15.986 76.246,15.1715 C77.423,14.4665 78.2,14 80,14 L80,11 C76.797,11 75.106,12.014 73.748,12.8285 C72.571,13.5335 71.794,14 69.994,14 Z" id="Path" fill="#000000" fill-rule="nonzero"></path>
                            <path d="M69.994,25 C68.193,25 67.417,24.5335 66.24,23.8285 C64.882,23.014 63.191,22 59.989,22 C56.787,22 55.097,23.014 53.739,23.8285 C52.564,24.53425 51.788,25 49.99,25 C48.191,25 47.414,24.5335 46.238,23.8285 C44.881,23.014 43.19,22 39.988,22 C36.787,22 35.097,23.014 33.739,23.8285 C32.564,24.53425 31.788,25 29.99,25 C28.193,25 27.417,24.53425 26.242,23.8285 C24.885,23.014 23.195,22 19.994,22 C16.793,22 15.103,23.014 13.746,23.8285 C12.571,24.53425 11.795,25 9.998,25 C8.2,25 7.424,24.53425 6.249,23.8285 C4.891,23.014 3.201,22 0,22 L0,25 C1.798,25 2.574,25.46575 3.749,26.1715 C5.107,26.986 6.797,28 9.998,28 C13.199,28 14.889,26.986 16.246,26.1715 C17.421,25.46575 18.197,25 19.994,25 C21.791,25 22.567,25.46575 23.742,26.1715 C25.1,26.986 26.789,28 29.99,28 C33.191,28 34.881,26.986 36.239,26.1715 C37.414,25.46575 38.19,25 39.988,25 C41.787,25 42.564,25.4665 43.74,26.1715 C45.098,26.986 46.788,28 49.99,28 C53.191,28 54.881,26.986 56.238,26.1715 C57.414,25.46575 58.19,25 59.989,25 C61.789,25 62.565,25.4665 63.742,26.1715 C65.101,26.986 66.791,28 69.994,28 C73.197,28 74.888,26.986 76.246,26.1715 C77.423,25.4665 78.2,25 80,25 L80,22 C76.797,22 75.106,23.014 73.748,23.8285 C72.571,24.5335 71.794,25 69.994,25 Z" id="Path" fill="#000000" fill-rule="nonzero"></path>
                        </g>
                    </g>
                    <path id="Path-7" d="M1,-6.5 C1.51283584,-6.5 1.93550716,-6.11395981 1.99327227,-5.61662113 L2,-5.5 L2,-0.5 C2.55228475,-0.5 3,-0.0522847498 3,0.5 C3,1.01283584 2.61395981,1.43550716 2.11662113,1.49327227 L2,1.5 L2,6.5 C2,7.05228475 1.55228475,7.5 1,7.5 C0.487164161,7.5 0.0644928393,7.11395981 0.00672773133,6.61662113 L0,6.5 L0,-5.5 C0,-6.05228475 0.44771525,-6.5 1,-6.5 Z M78.4893617,-6.5 C79.0021975,-6.5 79.4248689,-6.11395981 79.482634,-5.61662113 L79.4893617,-5.5 L79.4893617,6.5 C79.4893617,7.05228475 79.0416465,7.5 78.4893617,7.5 C77.9765259,7.5 77.5538545,7.11395981 77.4960894,6.61662113 L77.4893617,6.5 L77.4902427,1.37178909 C77.3774631,1.43534601 77.2511116,1.47765141 77.1166211,1.49327227 L77,1.5 L76,1.5 C75.4477153,1.5 75,1.05228475 75,0.5 C75,-0.0128358391 75.3860402,-0.435507161 75.8833789,-0.493272269 L76,-0.5 L77,-0.5 C77.1781301,-0.5 77.3453821,-0.453425246 77.4902427,-0.371789087 L77.4893617,-5.5 C77.4893617,-6.05228475 77.937077,-6.5 78.4893617,-6.5 Z M7,-0.5 C7.55228475,-0.5 8,-0.0522847498 8,0.5 C8,1.01283584 7.61395981,1.43550716 7.11662113,1.49327227 L7,1.5 L6,1.5 C5.44771525,1.5 5,1.05228475 5,0.5 C5,-0.0128358391 5.38604019,-0.435507161 5.88337887,-0.493272269 L6,-0.5 L7,-0.5 Z M12,-0.5 C12.5522847,-0.5 13,-0.0522847498 13,0.5 C13,1.01283584 12.6139598,1.43550716 12.1166211,1.49327227 L12,1.5 L11,1.5 C10.4477153,1.5 10,1.05228475 10,0.5 C10,-0.0128358391 10.3860402,-0.435507161 10.8833789,-0.493272269 L11,-0.5 L12,-0.5 Z M17,-0.5 C17.5522847,-0.5 18,-0.0522847498 18,0.5 C18,1.01283584 17.6139598,1.43550716 17.1166211,1.49327227 L17,1.5 L16,1.5 C15.4477153,1.5 15,1.05228475 15,0.5 C15,-0.0128358391 15.3860402,-0.435507161 15.8833789,-0.493272269 L16,-0.5 L17,-0.5 Z M22,-0.5 C22.5522847,-0.5 23,-0.0522847498 23,0.5 C23,1.01283584 22.6139598,1.43550716 22.1166211,1.49327227 L22,1.5 L21,1.5 C20.4477153,1.5 20,1.05228475 20,0.5 C20,-0.0128358391 20.3860402,-0.435507161 20.8833789,-0.493272269 L21,-0.5 L22,-0.5 Z M27,-0.5 C27.5522847,-0.5 28,-0.0522847498 28,0.5 C28,1.01283584 27.6139598,1.43550716 27.1166211,1.49327227 L27,1.5 L26,1.5 C25.4477153,1.5 25,1.05228475 25,0.5 C25,-0.0128358391 25.3860402,-0.435507161 25.8833789,-0.493272269 L26,-0.5 L27,-0.5 Z M32,-0.5 C32.5522847,-0.5 33,-0.0522847498 33,0.5 C33,1.01283584 32.6139598,1.43550716 32.1166211,1.49327227 L32,1.5 L31,1.5 C30.4477153,1.5 30,1.05228475 30,0.5 C30,-0.0128358391 30.3860402,-0.435507161 30.8833789,-0.493272269 L31,-0.5 L32,-0.5 Z M37,-0.5 C37.5522847,-0.5 38,-0.0522847498 38,0.5 C38,1.01283584 37.6139598,1.43550716 37.1166211,1.49327227 L37,1.5 L36,1.5 C35.4477153,1.5 35,1.05228475 35,0.5 C35,-0.0128358391 35.3860402,-0.435507161 35.8833789,-0.493272269 L36,-0.5 L37,-0.5 Z M42,-0.5 C42.5522847,-0.5 43,-0.0522847498 43,0.5 C43,1.01283584 42.6139598,1.43550716 42.1166211,1.49327227 L42,1.5 L41,1.5 C40.4477153,1.5 40,1.05228475 40,0.5 C40,-0.0128358391 40.3860402,-0.435507161 40.8833789,-0.493272269 L41,-0.5 L42,-0.5 Z M47,-0.5 C47.5522847,-0.5 48,-0.0522847498 48,0.5 C48,1.01283584 47.6139598,1.43550716 47.1166211,1.49327227 L47,1.5 L46,1.5 C45.4477153,1.5 45,1.05228475 45,0.5 C45,-0.0128358391 45.3860402,-0.435507161 45.8833789,-0.493272269 L46,-0.5 L47,-0.5 Z M52,-0.5 C52.5522847,-0.5 53,-0.0522847498 53,0.5 C53,1.01283584 52.6139598,1.43550716 52.1166211,1.49327227 L52,1.5 L51,1.5 C50.4477153,1.5 50,1.05228475 50,0.5 C50,-0.0128358391 50.3860402,-0.435507161 50.8833789,-0.493272269 L51,-0.5 L52,-0.5 Z M57,-0.5 C57.5522847,-0.5 58,-0.0522847498 58,0.5 C58,1.01283584 57.6139598,1.43550716 57.1166211,1.49327227 L57,1.5 L56,1.5 C55.4477153,1.5 55,1.05228475 55,0.5 C55,-0.0128358391 55.3860402,-0.435507161 55.8833789,-0.493272269 L56,-0.5 L57,-0.5 Z M62,-0.5 C62.5522847,-0.5 63,-0.0522847498 63,0.5 C63,1.01283584 62.6139598,1.43550716 62.1166211,1.49327227 L62,1.5 L61,1.5 C60.4477153,1.5 60,1.05228475 60,0.5 C60,-0.0128358391 60.3860402,-0.435507161 60.8833789,-0.493272269 L61,-0.5 L62,-0.5 Z M67,-0.5 C67.5522847,-0.5 68,-0.0522847498 68,0.5 C68,1.01283584 67.6139598,1.43550716 67.1166211,1.49327227 L67,1.5 L66,1.5 C65.4477153,1.5 65,1.05228475 65,0.5 C65,-0.0128358391 65.3860402,-0.435507161 65.8833789,-0.493272269 L66,-0.5 L67,-0.5 Z M72,-0.5 C72.5522847,-0.5 73,-0.0522847498 73,0.5 C73,1.01283584 72.6139598,1.43550716 72.1166211,1.49327227 L72,1.5 L71,1.5 C70.4477153,1.5 70,1.05228475 70,0.5 C70,-0.0128358391 70.3860402,-0.435507161 70.8833789,-0.493272269 L71,-0.5 L72,-0.5 Z" fill="#FFFFFF" fill-rule="nonzero"></path>
                </g>
            </g>
        </g>
    </g>
</svg>