<?xml version="1.0" encoding="UTF-8"?>
<svg width="25px" height="25px" viewBox="0 0 25 25" version="1.1" xmlns="http://www.w3.org/2000/svg" xmlns:xlink="http://www.w3.org/1999/xlink">
    <title>Icons/Tracé</title>
    <g id="Territoires" stroke="none" stroke-width="1" fill="none" fill-rule="evenodd">
        <g id="Carte/Tuto" transform="translate(-601.000000, -381.000000)" fill="#FFCF3F">
            <g id="intro" transform="translate(240.000000, 223.000000)">
                <g id="Group" transform="translate(360.000000, 6.000000)">
                    <g id="Icons/Tracé" transform="translate(1.000000, 152.000000)">
                        <path d="M4.34486154,22.1660755 C3.51201432,21.0167856 2.92438106,19.9249322 2.5767155,18.8941245 C2.36491177,18.266139 1.68412812,17.9287571 1.05614266,18.1405608 C0.428157196,18.3523645 0.0907752353,19.0331482 0.30257896,19.6611336 C0.732558043,20.9359961 1.43394207,22.2392044 2.40148479,23.5743677 C2.79037393,24.1110163 3.54067057,24.2307991 4.07731924,23.84191 C4.61396792,23.4530208 4.73375068,22.7027242 4.34486154,22.1660755 Z M2.33742663,15.4843419 C2.5798541,14.4419939 3.13948412,13.4355921 4.03596376,12.4576914 C4.48381386,11.9691663 4.45084018,11.2100841 3.96231499,10.762234 C3.47378981,10.3143839 2.71470767,10.3473576 2.26685758,10.8358828 C1.10253397,12.1059538 0.340305003,13.4766962 -0.000182267909,14.9406649 C-0.150314511,15.5861778 0.251270836,16.2311756 0.896783709,16.3813079 C1.54229658,16.5314401 2.18729439,16.1298548 2.33742663,15.4843419 Z M6.57288232,10.8897201 C7.30499221,10.9232948 8.15077013,11.4493425 9.32151784,12.5925692 C9.79568705,13.055592 10.5554313,13.0465561 11.0184541,12.5723869 C11.4814769,12.0982177 11.472441,11.3384734 10.9982718,10.8754506 C9.43975165,9.353567 8.16413499,8.56017286 6.68283138,8.49223989 C6.02078551,8.4618783 5.45947836,8.97395958 5.42911676,9.63600545 C5.40092385,10.2507623 5.84044955,10.7786578 6.43345376,10.8752441 L6.57288232,10.8897201 Z M12.1252779,15.4809936 C13.4803891,16.7914563 14.6690808,17.6238641 15.9891123,18.0369936 C16.6216014,18.2349433 17.2948051,17.8826795 17.4927548,17.2501904 C17.6907046,16.6177013 17.3384408,15.9444976 16.7059517,15.7465479 C15.8158225,15.4679647 14.9037931,14.8292958 13.7936743,13.7557535 C13.3172624,13.2950386 12.557571,13.3077635 12.096856,13.7841754 C11.6361411,14.2605873 11.648866,15.0202787 12.1252779,15.4809936 Z M20.8649555,17.4030948 C22.417087,16.5225751 23.4533416,15.1780233 23.9548958,13.5058635 C24.1453006,12.8710623 23.7850461,12.2021006 23.1502449,12.0116959 C22.5154437,11.8212911 21.8464821,12.1815456 21.6560773,12.8163468 C21.3282431,13.9093316 20.6823436,14.7473934 19.6807293,15.3156063 C19.1042853,15.6426213 18.9020831,16.3750196 19.2290981,16.9514637 C19.5561132,17.5279077 20.2885114,17.7301099 20.8649555,17.4030948 Z M24.0919257,8.80860807 C23.8246689,7.39211071 23.313544,5.95200523 22.6207077,4.62676096 C22.3136568,4.03943968 21.5886249,3.81223569 21.0013036,4.11928663 C20.4139823,4.42633757 20.1867783,5.15136951 20.4938293,5.73869078 C21.0795156,6.85898058 21.5112379,8.07536776 21.7335357,9.253576 C21.8564102,9.90482743 22.4839633,10.3331616 23.1352147,10.2102871 C23.7864661,10.0874126 24.2148002,9.45985949 24.0919257,8.80860807 Z M19.9166668,1.03810314 C19.5197827,0.686289234 19.1124451,0.389571913 18.6987124,0.154802696 C18.1223042,-0.172275425 17.3898838,0.0298465752 17.0628056,0.606254819 C16.7357275,1.18266306 16.9378495,1.91508347 17.5142578,2.2421616 C17.7756704,2.39049803 18.0482467,2.58905112 18.3246521,2.83406784 C18.820594,3.27369056 19.5790191,3.2280348 20.0186418,2.73209284 C20.4582645,2.23615088 20.4126087,1.47772586 19.9166668,1.03810314 Z" id="color"></path>
                    </g>
                </g>
            </g>
        </g>
    </g>
</svg>