<?xml version="1.0" encoding="UTF-8"?>
<svg width="56px" height="56px" viewBox="0 0 56 56" version="1.1" xmlns="http://www.w3.org/2000/svg" xmlns:xlink="http://www.w3.org/1999/xlink">
    <title>Combined Shape</title>
    <defs>
        <circle id="path-1" cx="28" cy="28" r="28"></circle>
    </defs>
    <g id="Territoires" stroke="none" stroke-width="1" fill="none" fill-rule="evenodd">
        <g id="Carte/Zoom" transform="translate(-44.000000, -469.000000)">
            <g id="02-territoire" transform="translate(0.000000, 445.000000)">
                <g id="back" transform="translate(23.000000, 24.000000)">
                    <g id="Combined-Shape" transform="translate(21.000000, 0.000000)">
                        <mask id="mask-2" fill="white">
                            <use xlink:href="#path-1"></use>
                        </mask>
                        <circle stroke="#276F87" stroke-width="2" cx="28" cy="28" r="27"></circle>
                        <path d="M13.8010567,17 L14.1148387,17.4982039 C14.4198156,18.0585797 14.1212424,18.5642443 13.7418224,19.2033711 C13.6393629,19.3757944 13.4568571,19.6833379 13.3223791,19.9577231 C13.6785857,19.8690246 14.1468573,19.7007461 14.5550941,19.5075988 L14.5550941,19.5075988 L14.9465211,19.3210832 L15.3331454,19.5250069 C16.2816956,20.0298425 18.47897,21.3752418 18.3917194,22.9510915 C18.3468934,23.7560099 17.7321369,24.4241503 17.0197236,25.1983973 C16.2208603,26.0654877 15.3147347,27.0511191 15.251498,28.146173 C15.2138762,28.7894446 14.8576696,29.0762642 14.6511498,29.1898314 C14.0155811,29.5305333 13.3824139,29.1301464 12.8228893,28.7753523 C12.6283765,28.6518375 12.3041885,28.4462559 12.1825179,28.4189002 C11.9071582,28.3857419 11.8295132,28.4727825 11.7974946,28.5092567 C11.5941767,28.7305886 11.5237358,29.2909644 11.5333414,29.7991158 C11.9303717,30.0643824 12.3145945,30.3462282 12.6732025,30.6106659 C13.0510217,30.8891959 13.5489105,31.2572534 13.7986553,31.384084 C13.8282725,31.3774523 13.8546878,31.3733075 13.8827041,31.3708207 C14.7384004,31.1726996 17.9962901,30.5377176 20.0782977,31.8284056 C20.958008,32.3730312 21.528739,33.1746339 21.7720802,34.2108317 C22.2499573,36.2467532 19.0384946,45.1845814 16.9484823,46.6750484 C16.6058836,46.92042 16.2953035,47 16.0335516,47 C15.6797464,47 15.4163937,46.8541033 15.2835166,46.7587731 C13.6817875,45.6156397 13.9403375,42.5642443 14.3437715,39.5377176 C14.3950012,39.1555678 14.4382263,38.8355899 14.4558365,38.6109422 C14.4886555,38.2055817 14.3517761,38.0232108 13.9091194,37.5150594 C13.570523,37.1237911 13.1510797,36.6380216 12.8204879,35.9052224 C12.348214,34.8499586 12.6043626,33.7350097 12.8669149,32.953302 C12.5059055,32.7485493 12.1072743,32.4534402 11.643005,32.1127383 C10.9746173,31.6195082 10.2149767,31.0599613 9.52817831,30.7466151 C7.99528918,30.0444874 7.08596174,28.1718707 6.48241167,26.9325781 C6.33272484,26.6258635 6.17983616,26.3092014 6.09578741,26.1890025 C5.88446484,25.8856038 5.56588005,25.2862669 5.06398894,24.3337939 C4.681367,23.6101133 4.08181925,22.4727825 3.76483539,21.9903288 C3.1524802,22.0624482 1.68683008,22.4130975 0.486133637,22.7571152 L0.486133637,22.7571152 L0.166748383,22.8499586 L-0.135026656,22.6999171 C-0.54966716,22.4943355 -0.83863477,22.1221332 -0.950699772,21.6537718 C-1.27568828,20.2810169 0.0899038112,18.1978447 0.692653425,17.3663996 L0.692653425,17.3663996 L0.960008499,17 L13.8010567,17 Z M19.1665689,33.410887 C17.9778794,32.6714562 15.9118811,32.8513401 14.7223911,33.073501 C14.713586,33.0950539 14.7063818,33.1182647 14.6991776,33.1373308 C14.5006625,33.6628903 14.1684698,34.543244 14.432623,35.1284885 C14.6503493,35.6126002 14.9321128,35.9392097 15.2314864,36.2840564 C15.7189692,36.846919 16.327322,37.5457309 16.227264,38.7659574 C16.2064519,39.0146449 16.1616259,39.3686101 16.1055934,39.788892 C15.958308,40.8856038 15.5420666,44.0339873 16.1047929,45.0212766 C17.3198977,43.7637469 20.4192955,36.3354518 20.0414763,34.6460348 C19.9142025,34.1014092 19.6260354,33.6977065 19.1665689,33.410887 Z M49.7606477,17.1530818 C51.4967026,17.1530818 55.346466,18.4073545 55.7808911,18.5513545 L55.7808911,18.5513545 L56.0310147,18.6348091 L56.2005063,18.8369 C56.8965738,19.6829 57.4083397,20.9756273 56.5493628,21.8404455 L56.5493628,21.8404455 L56.5075261,21.8823019 C56.215055,22.1687813 55.5986269,22.5952377 51.4925887,22.6365364 C51.5526513,22.7298091 51.6127139,22.8214455 51.6752447,22.9098091 L51.6752447,22.9098091 L52.2051117,23.6633545 L48.0681999,26.4607182 L48.502625,27.3263545 L48.3833227,27.6822636 C46.4366374,33.5126273 45.3727896,33.6116273 44.9153268,33.6541727 L44.9153268,33.6541727 L44.7927333,33.6590818 C43.7264171,33.6590818 43.2689543,32.5537182 42.8666174,31.5776273 C42.7719983,31.3550818 42.6395316,31.0294455 42.5202292,30.8019909 C42.1968787,31.0515364 41.7270743,31.5350818 41.4448625,31.8263545 C40.6706314,32.6232636 40.2024725,33.1059909 39.5804548,33.1059909 L39.5804548,33.1059909 L39.3887482,33.0871727 C38.7041996,32.9636273 38.2623695,32.3311727 37.6099091,30.4019 L37.6099091,30.4019 L37.3729499,30.4428091 C36.3815062,30.6179 35.3341139,30.9558091 34.8429173,31.2397182 C35.0420288,31.2994455 35.2847474,31.3518091 35.4320241,31.3820818 C35.8039183,31.4606273 36.0984717,31.5244455 36.349418,31.6733545 L36.349418,31.6733545 L36.4193048,31.7156692 L36.4193048,31.7156692 L36.4853232,31.7573265 L36.4853232,31.7573265 L36.5470958,31.7997697 C36.5669371,31.8142088 36.586008,31.8290195 36.6042455,31.8444422 L36.6563951,31.8927874 C37.110363,32.3571948 36.8865634,33.4664315 34.6775396,40.2233545 C34.4101378,41.0431727 34.2003302,41.6797182 34.1229893,41.9472636 C33.7905883,43.1205364 32.4889585,43.6474455 31.3494154,43.6474455 C30.5126534,43.6474455 29.893104,43.3676273 29.6084239,42.8636273 L29.6084239,42.8636273 L29.5960839,42.8415465 C29.4770506,42.6237713 29.1959106,41.9164167 28.8029273,35.1956273 C27.9390137,35.1686273 26.5880175,35.1170818 25.6048016,35.0524455 L25.6048016,35.0524455 L25.2987293,35.0344455 L25.0675296,34.8348091 C23.40717,33.4095364 24.5351943,29.1230818 24.9696194,27.6929 C25.029682,27.2216273 25.3406908,26.2340818 26.9072541,26.2340818 C27.6724347,26.2340818 28.6268535,26.4680818 29.5467158,26.6963545 C30.3415162,26.8902636 31.1634683,27.0939909 31.6777026,27.0939909 C31.7352968,27.0939909 31.7805494,27.0915364 31.8126376,27.0882636 C32.0446601,26.6235364 32.2849104,26.2349 32.4823763,25.9166273 C32.5662994,25.7767182 32.6691462,25.6114455 32.7497782,25.4674455 C32.7037028,25.4666273 32.6535135,25.4641727 32.5992104,25.4641727 C31.2671379,25.4641727 29.0760886,25.8691727 29.0546964,25.8732636 L29.0546964,25.8732636 L28.6062841,25.9575364 L28.2714148,25.6515364 C27.9357226,25.3471727 26.8422549,24.2729 26.8973808,23.2117182 L26.8973808,23.2117182 L26.9031402,23.1127182 C26.9434562,22.2814455 27.0652269,19.7565364 29.1394422,19.2582636 C29.4455145,19.1862636 29.7129163,19.0946273 29.9687992,19.0087182 C30.4805652,18.8360818 31.0071411,18.6569 31.6373866,18.6569 C32.3342769,18.6569 33.024585,18.8737182 33.8119805,19.3368091 C33.9979276,19.4464455 34.2406461,19.4996273 34.5500095,19.4996273 C35.479745,19.4996273 36.7566916,19.0103545 37.9908538,18.5358091 C38.918121,18.1807182 39.8717171,17.8133545 40.7438584,17.6292636 C42.2577641,17.3101727 44.4595095,17.3036273 46.4029036,17.2987182 C47.5695984,17.2962636 48.776609,17.2921727 49.2209074,17.2013545 C49.3805257,17.1694455 49.5557768,17.1530818 49.7606477,17.1530818 Z M51.7446577,35 C51.9531648,35 52.3473163,35.0506766 52.6646494,35.3938958 C53.4438073,36.2292926 53.8507618,39.9916499 53.3477843,41.6816393 C53.0085031,42.8287744 52.189107,43 51.7309402,43 C50.8731348,43 50.1872564,42.3872733 49.5818544,41.848258 C49.4080985,41.6931567 49.1456357,41.4582014 49.0432111,41.4013821 C49.0258356,41.4013821 48.8017819,41.3499376 48.1744318,41.3499376 C47.0852568,41.3499376 45.7445931,41.5035032 45.729961,41.504271 L45.729961,41.504271 L44.8282595,41.6063922 L43.647634,37.6367214 L48.8987194,35.2288127 L49.4318756,35.7739706 C49.8516332,36.2001152 50.0592258,36.2461849 50.0619693,36.2461849 C50.0874448,36.2176655 50.2127692,36.0657453 50.3226297,35.9317335 L50.4396597,35.7885594 C50.69755,35.4714464 50.9645853,35.1420482 51.4629903,35.0314809 L51.4629903,35.0314809 Z M49.7598249,18.9727182 C49.6479276,18.9727182 49.5977383,18.9817182 49.5895106,18.9825364 C48.9633789,19.1118091 47.8345318,19.1159 46.4070175,19.1183545 C44.6438111,19.1232636 42.4502934,19.1289909 41.1256259,19.4079909 C40.3941791,19.5618091 39.546721,19.8874455 38.6498964,20.2327182 C37.2610525,20.7669909 35.8220194,21.3200818 34.5500095,21.3200818 C33.9140045,21.3200818 33.3512266,21.1809909 32.8814221,20.9028091 C32.2330756,20.5223545 31.8603586,20.4773545 31.6373866,20.4773545 C31.310745,20.4773545 30.978344,20.5894455 30.5562605,20.7326273 L30.3251636,20.8097537 C30.0897471,20.8869568 29.8404464,20.9633545 29.5689307,21.0296273 C28.8251422,21.2071727 28.7568519,22.6553545 28.7313459,23.2019 L28.7313459,23.2019 L28.7239409,23.3099 C28.7453331,23.4269 28.950204,23.7222636 29.2011503,24.0045364 C29.9729131,23.8769 31.4983376,23.6494455 32.6000331,23.6494455 C33.3520493,23.6494455 34.168242,23.7361727 34.5212124,24.3809 C35.0181684,25.2841727 34.5212124,26.0884455 34.0390663,26.8689909 C33.8366637,27.2011727 33.605464,27.5750818 33.3948336,28.0193545 C33.1973677,28.4276273 32.7423732,28.9160818 31.6777026,28.9160818 C30.9413191,28.9160818 30.0510767,28.6959909 29.1081768,28.4636273 C28.2928069,28.2623545 27.4502855,28.0545364 26.9072541,28.0545364 C26.8513054,28.0545364 26.8035845,28.0578091 26.7698507,28.0610818 L26.7698507,28.0610818 L26.7443447,28.1420818 C26.0976437,30.2284455 25.8417607,32.5226273 26.1363141,33.2679909 C26.3747213,33.2813436 26.627304,33.2940052 26.8835272,33.3058548 L27.2692755,33.3230054 C28.491118,33.3752919 29.6762534,33.4079 29.695638,33.4079 L29.695638,33.4079 L30.5340455,33.4324455 L30.5792982,34.2669909 C30.7545492,37.3482636 31.0137233,40.7928091 31.1914426,41.8229 C31.2358725,41.8286273 31.2885301,41.8327182 31.3485926,41.8327182 C31.8940923,41.8327182 32.3202897,41.6060818 32.3622512,41.4547182 C32.4428831,41.1789909 32.6568046,40.5162636 32.9373708,39.6629 C33.4672378,38.0437182 34.6059582,34.5582636 34.9202582,33.1362636 C34.2603927,32.9947182 33.4219852,32.7803545 33.0073067,32.1200818 C32.786803,31.7707182 32.7267405,31.3632636 32.8320556,30.9410818 C33.1570517,29.6385364 35.2756969,29.0028091 36.722135,28.7180818 C37.1376363,28.2607182 37.5547832,28.0308091 37.9669933,28.0308091 C38.4516077,28.0308091 38.8662862,28.3441727 39.0217907,28.8285364 L39.0217907,28.8285364 L39.0728027,28.9938091 C39.3805205,29.9813545 39.6059608,30.5769909 39.762288,30.9386273 C39.8898181,30.8118091 40.0198165,30.6776273 40.1267773,30.5655364 C40.986577,29.6810818 41.7953646,28.8473545 42.6650376,28.8473545 C43.7140755,28.8596273 44.161665,29.9379909 44.5541286,30.8870818 C44.62571,31.0597182 44.7211519,31.2896273 44.8141255,31.4933545 C45.2929804,30.6858091 45.9931618,29.0060818 46.5246743,27.4646273 L46.5246743,27.4646273 L45.7158867,25.8519909 L49.6734336,23.1781727 C49.0349603,22.0957182 49.131225,21.6825364 49.3015394,21.3593545 C49.4767904,21.0263545 49.8256469,20.8193545 50.2131739,20.8193545 L50.2131739,20.8193545 L50.8351916,20.8218091 C53.3463004,20.8218091 54.6199558,20.6769909 55.123494,20.5591727 C55.0790642,20.4511727 55.0091283,20.3145364 54.9260281,20.1877182 C53.6499043,19.7802636 50.888672,18.9727182 49.7598249,18.9727182 Z M48.4524412,37.3764277 L46.0006544,38.5005279 L46.3637127,39.7259814 C46.8858948,39.6860543 47.5571412,39.6438238 48.1744318,39.6438238 C49.0651593,39.6438238 49.6394681,39.7267492 50.0372776,39.9117958 C50.3902764,40.076111 50.699379,40.3556003 51.0615228,40.6780881 C51.1639473,40.7686918 51.3038665,40.8938478 51.4419567,41.0082542 C51.6394897,40.0369517 51.5260911,38.5604185 51.3431902,37.5253863 C50.6774309,38.0060466 49.5004634,38.147327 48.4524412,37.3764277 L48.4524412,37.3764277 Z M11.8815433,18.8411163 L1.86133129,18.8411163 C1.41547268,19.5158884 1.03525214,20.2503454 0.866354177,20.7427466 C2.6233733,20.2710694 3.50708588,20.1400939 3.98816492,20.1400939 C4.34837386,20.1400939 4.48205139,20.2122133 4.58851315,20.2710694 C5.00635551,20.4940591 5.33054355,20.9997237 6.62409385,23.4501243 C6.97869953,24.1240674 7.38133307,24.887538 7.53902453,25.1130146 C7.70472064,25.3492678 7.86561397,25.68168 8.07133329,26.1036198 C8.45875801,26.9027356 9.06951227,28.1544626 9.82114824,28.7852998 C9.91240117,28.2398453 10.1093154,27.6761536 10.5023434,27.2450953 C10.8281323,26.8878143 11.4220768,26.4832827 12.3850354,26.5885604 C12.8220889,26.6374689 13.2327271,26.8778668 13.6329592,27.1273833 C14.0123793,25.7944183 14.9857439,24.7391545 15.7317766,23.9284333 C16.0639693,23.5670075 16.5642595,23.0215529 16.620292,22.8143133 C16.5506516,22.5664548 15.7533891,21.8916828 14.880883,21.3669522 C14.1340499,21.6802984 12.9461608,22.0632771 12.1833184,21.7366676 C11.8407197,21.5907709 11.5829702,21.3188726 11.4572973,20.9715391 C11.2107543,20.2884775 11.5093274,19.5283227 11.8815433,18.8411163 L11.8815433,18.8411163 Z M21.7269585,13 L26.7807501,15.8261039 L24.605877,18.9828058 L19.946804,21 L14.8747143,16.3841344 L21.7269585,13 Z M21.6659645,15.0109418 L18.0481469,16.7991403 L20.3528501,18.89449 L23.2544235,17.6369676 L24.1196674,16.3841344 L21.6659645,15.0109418 Z" fill="#276F87" mask="url(#mask-2)"></path>
                    </g>
                </g>
            </g>
        </g>
    </g>
</svg>