<?xml version="1.0" encoding="utf-8"?>
<!-- Generator: Adobe Illustrator 24.3.0, SVG Export Plug-In . SVG Version: 6.00 Build 0)  -->
<svg version="1.0" id="Calque_1" xmlns="http://www.w3.org/2000/svg" xmlns:xlink="http://www.w3.org/1999/xlink" x="0px" y="0px"
	 viewBox="0 0 305.7 297" enable-background="new 0 0 305.7 297" xml:space="preserve">
<g id="New_Caledonia">
	<path fill="#7294A2" d="M33.24,78.12c-1.57-1.99-1.24-5.43-3.02-0.94c-0.01,0.02-0.01,0.04-0.01,0.06c0.05,1.1,0.72,3.31,2.16,2.33
		c0.62,2.06,1.05-0.44,0.9-1.4C33.26,78.15,33.25,78.14,33.24,78.12z M44.97,83.23c0,0.01,0.01,0.02,0.02,0.03
		c0.75,0.6,2.4,1.59,3.26,2c2.92,1.37-2.43-4.89-3.19-6.12c-0.02-0.02-0.04-0.04-0.07-0.04C44.09,79.16,44.81,82.56,44.97,83.23z
		 M213.96,237.47c-0.02-0.01-0.03-0.01-0.05-0.02c-1.96-0.36-2.38,1.42-3,2.78c-1.13,1.38,0.86,1.83,1.94,1.78
		c0.33-0.17,0.86-0.49,0.8-0.93c-0.3-0.13-1.52,0.05-1.23-0.61c0.82,0.04,1.59-1.34,2.09-0.62c0.04,0.05,0.12,0.09,0.18,0.06
		C215.71,239.41,214.77,237.85,213.96,237.47z M187.35,126.84c0.69,1.01,2.86,0.23,3.25-0.77
		C189.57,125.93,184.73,125.91,187.35,126.84z M15.14,61.67c-0.01-0.01-0.02-0.02-0.02-0.04c-0.71-2.18-1.27-5.45-2.86-7.24
		c-1.33-1.1-1.8,0.44-0.41,0.94c0.04,0.01,0.06,0.04,0.07,0.08c0.31,2.85,0.64,6.73,2.32,9.34c0.04,0.06,0.12,0.07,0.18,0.03
		C15.58,63.9,16.39,62.98,15.14,61.67z M259.69,251.32c-1.61-2.14-4.07-4.86-7.1-3.84c-0.03,0.01-0.06,0.04-0.08,0.07
		c-0.9,1.73-0.17,5.06-0.79,6.91c-0.02,0.06,0.01,0.13,0.07,0.15c5.04,1.87,6.22,3.46,6.41-2.76c0-0.07,0.07-0.14,0.14-0.13
		c0.99,0.13,0.99,2.12,2.03,2.39C260.43,253.32,260.37,251.87,259.69,251.32z M250.78,152.65c-0.29-2.04,0.11-3.98,2.36-4.31
		c0.08-0.01,0.13-0.09,0.11-0.16c-0.51-1.36-1.99-2.63-3.48-2.6c-0.66-0.15-1.31-0.9-1.23-1.6c0-0.02,0.01-0.03,0.01-0.05
		c0.4-1.09,1.29-1.79,0.26-2.8c-0.43-1.2-1.21-1.35-2.38-1.32c-0.01,0-0.02,0-0.03,0c-1.28-0.23-2.41-1.23-3.4-1.96
		c-0.01-0.01-0.03-0.01-0.04-0.02c-0.96-0.17-1.62-0.82-1.14-1.81c2.74-3.78-2.56-4.73,1.51-10.24c-0.18-0.63-0.46-1.5-1.32-1.32
		c-1.83-0.94-6.81-4.68-7.33-0.61c0,0.02-0.01,0.05-0.03,0.07c-0.99,1.29-2.61,0.4-3.71-0.14c-0.01-0.01-0.03-0.01-0.04-0.01
		c-2.52-0.04-4.87,1.7-4.37,4.4c0.01,0.06,0.07,0.1,0.13,0.09c4.95-1.25,13.04,0.9,6.68,6.47c-0.02,0.01-0.03,0.03-0.03,0.05
		c-1.17,3.49-4.93,3.81-8.05,3.3c-0.09-0.01-0.16,0.08-0.12,0.16c0.91,1.72,3.6,2.57,2.53,4.78c-0.01,0.03-0.02,0.07-0.01,0.1
		c0.22,0.95,1.75,0.79,1.96,1.69c0.41,2.21,3.2,4.19,5.27,4.78c0.01,0,0.03,0,0.04,0.01c9.3,0.02,3.9,2.69,8.83,3.17
		c0.64,0.08,0.87,1.84,1.03,2.33c0.01,0.02,0.02,0.03,0.04,0.04C247.28,156.35,251.01,156.31,250.78,152.65z M192.84,124.75
		c4.48,0.23,6.99-4.11,8.56-7.66c0.04-0.09-0.05-0.17-0.14-0.14c-2.99,0.95-3.69-1.59-2.55-4.02c0.65-1.32,1-3.71,2.18-4.65
		c0.02-0.02,0.05-0.03,0.08-0.03c3.84-0.17,5.11-0.66,1.04-2.95c-0.03-0.02-0.05-0.04-0.06-0.07c-0.81-2.54-3.32-3.89-4.64-1.22
		c-0.04,0.09,0.04,0.19,0.14,0.17c1.13-0.32,2.24,2.41,2.4,3.35c0,0.02,0,0.05-0.01,0.07c-2.15,5.77-3.01,4.15-2.85,11.14
		c0,0.02,0,0.05-0.02,0.07c-0.93,1.63-2.49,3.55-4.04,4.6C191.76,123.69,192.03,124.1,192.84,124.75z M294.61,174.06
		c-6.48,3.71-12.61,1.25-9.53-6.29c0.04-0.11-0.08-0.21-0.18-0.15c-5.66,3.56-2.73,4.14-9.33,2.46c-3.73,0.3,1.13,2.8,1.3,8.54
		c0,0.02,0.01,0.04,0.02,0.06c1.06,1.46,3.33,3.02,1.46,4.85c-0.35,0.57-1.84,0.93-1.32,1.7c0.47,0.83,2.41-0.62,3.4-0.12
		c4.92,0.47,1.12,2.83,5.14,4.02c2.79,0.63,5.91-1.17,8.44-2.18c0.04-0.02,0.07-0.06,0.06-0.11c-0.72-4.24,2.06-8.59,0.71-12.72
		C294.76,174.06,294.67,174.02,294.61,174.06z M224.59,223.96c-1.03-2.75-3.79-1.75-2.3-3.42c0.12-0.13,0.2-0.29,0.21-0.47
		c0.49-5.62-6.7-7.85-11.27-8.57c-0.18-0.03-0.35-0.12-0.47-0.26c-1.54-1.78,0.15-1.1-2.55-1.95c-0.85-0.5-2.45,0.42-3.21-0.2
		c-0.13-0.84,3.98-1.3,1.32-2.2c-0.8-0.37-1.84-1.83-2.49-1.19c-0.27,0.26-0.67,0.32-0.96,0.08c-2.58-2.18-5.76-4.44-7.79-7.08
		c-0.25-0.44-2.12-1.24-0.97-1.7c-0.26-0.11-0.93-0.34-1.3-0.57c-0.13-0.08-0.22-0.2-0.27-0.34c-0.56-1.6-1.48-2.93-3.07-3.82
		c-0.15-0.08-0.25-0.23-0.29-0.39c-0.68-2.48-4.78-1.09-5.35-3.11c-0.02-0.29-0.37-0.58-0.61-0.69c-0.43-1.14,2.15,0.19,1.77-0.89
		c-3.45-1.08-8.65-2.34-10.59-5.61c-2.21-0.33-4.08-4.3-6.51-4.04c-0.14,0.01-0.28,0.08-0.39,0.16c-1.67,1.17-1.43-0.27-1.64-1.64
		c-0.05-0.3-0.28-0.53-0.57-0.6c-0.94-0.2-0.81-0.86,0.38-1.14c-0.16-1.06-1.89-0.74-2.75-1.04c-0.12-0.04-0.22-0.14-0.3-0.24
		c-2.87-3.95-5.19-2.69-2.17,1.67c1.09,1.15,0.23,2.14-1.16,1.89c1.32-0.77-2-1.81-2.24-2.24c-1.35-1.75,1.16,0.49,1.2-0.97
		c-0.66-1.15-1.41-3.46-2.49-5.05c-0.37-0.54-1.26-0.4-1.34,0.25c-0.04,0.3-0.16,0.6-0.38,0.86c-0.6-1.62-1.76-1.48-2.2-0.69
		c-0.25,0.45-0.94,0.32-1.09-0.17c-0.12-0.39-0.21-0.79-0.28-1.14c-0.05-0.25-0.25-0.47-0.51-0.48c-1.55-0.02-2.05-5.1-5.52-3.74
		c-0.28,0.11-0.6,0.03-0.81-0.18c-1.89-1.96-6.58-0.89-7.02-4.27c-0.31-1.34-1.79-1.45-2.62-2.32c-1.62-1.9-0.27-0.88,1.21-0.28
		c0.66,0.27,1.26-0.51,0.84-1.09c-0.31-0.43-0.64-0.85-0.98-1.21c-0.33-0.01-1.96-2.16-2.21-1.4c-0.86,0.37-0.48,0.17-0.37-0.47
		c-0.02-1.06-2.63-0.19-4.25-2.38c-0.08-0.11-0.19-0.2-0.31-0.25c-5.59-2.57-4.93-4.86-3.92-9.94c0.06-0.31-0.07-0.64-0.34-0.8
		c-1.14-0.65-3.35-0.57-4.59-0.91c-0.23-0.06-0.38-0.25-0.44-0.48c-0.26-0.94-1.18-1.57-2.03-1.97c-3.95-2.82,0.14-5.07-4.95-8.78
		c-0.59-0.37-1.11-0.3-1.63-0.05c-0.22,0.11-0.57,0.1-0.77-0.05c-1.28-0.96-6.11-1.69-7.37-1.96c-0.1-0.02-0.18-0.06-0.26-0.13
		c-2-1.59-4.46-3.61-7.11-3.3c-0.59-0.31-1.16-0.7-0.99-1.3c0.07-0.26,0.01-0.53-0.18-0.71c-0.79-0.72-2.01-1.65-2.95-1.82
		c-0.13-0.02-0.24-0.07-0.34-0.15c-3.09-2.66-6.17-6.42-8.77-9.38c-0.65-0.99-2.41-1.27-3.42-1.77c-0.07-0.04-0.13-0.09-0.19-0.15
		c-1.68-1.96-4.71-2.42-6.41-4.38c-0.05-0.05-0.08-0.11-0.11-0.17c-2.42-5.42-11.48-8.65-16.66-10.39
		c-0.12-0.04-0.26-0.06-0.38-0.01c-1.51,0.58,0.71,4.75,1.39,5.78c-1.47,0.38-1.83-1.32-2.44-2.21c-0.21-0.31-0.62-0.45-0.95-0.27
		c-5.48,2.94-17.53-19.5-18.74-12.09c-0.04,0.22,0.04,0.44,0.18,0.61c0.44,0.51,0.99,0.74,0.87,1.18c-0.14,0.56,0.35,1.07,0.9,0.88
		c0.73-0.24,1.52-0.39,1.9,0.46c0.62,0.81,0.5,1.86-0.19,2.42c-0.31,0.25-0.38,0.69-0.13,1c0.43,0.55,0.84,1.19,0.91,1.72
		c-0.23,1.08-1.43,0.55-2.2,0.31c-0.19-0.06-0.4-0.03-0.57,0.07c-2.54,1.61,0.17,2.44,0.8,4.29c2.88,1.02,1.68-2.18,3.17-2.44
		c0.49,0.37,0.44,0.96,0.26,1.5c-0.14,0.41,0.13,0.86,0.56,0.93c2.1,0.34,4.42,0.29,5.24,2.83c1.08,7.28-5.62,0.53-2.36,5.45
		c2.51,0.42,1.97,3.86,2.78,5.69c0.26,1.27,3.84,3.34,4.95,4.07c0.06,0.04,0.1,0.08,0.15,0.14c0.37,0.53,0.42,1.36,1.2,0.97
		c0.89-1.28,1.93,2.96,2.43,4.07c0.07,0.16,0.21,0.25,0.37,0.32c1.03,0.44,1.87,2.73,2.27,3.7c0.04,0.1,0.1,0.18,0.18,0.25
		c1.23,0.99,4.39,1.16,2.79,3.37c-0.99,0.84-3.19-0.58-1.75,1.35c2.48,1.63,4.76,5.3,7.75,6c0.23,0.05,0.42,0.2,0.52,0.42
		c0.51,1.12,1.38,2.02,2.69,1.86c0.14-0.02,0.28-0.01,0.41,0.05c1.71,0.76,2.23,2.88,4.36,1.42c-0.36,1.59,1.25,1.23,2.17,1.89
		c0.35,0.44,0.39,0.86,0.24,1.19c-0.31,0.67-0.17,1.47,0.49,1.81c0.85,0.43,1.29,0.86-0.22,1.64c-0.53,0.15,3.06,6.15,3.01,5.14
		c0.57-0.5,1.14-0.93,0.51-1.63c1.46-1.38,1.65,0.29,2.5,1.12c0.61-0.01,0.84-0.27,0.85-0.88c0.65-0.52,1.77-0.48,0.89,0.46
		c2.14,0.72,0.99,0.56,0.85,2.32c2.98-1.48,1.21,3.34,2.16,4.88c0.03,0.05,0.06,0.08,0.1,0.12c1.07,1.03,4.48,5.92,5.77,7.06
		c0.12,0.11,0.28,0.16,0.44,0.16c1.65,0.05,0.69,1.45,0.58,2.54c-0.74,1,1.02,2.5,1.93,1.51c0.6-0.67,0.26-1.64,0.41-2.43
		c0.09-0.49,0.68-0.68,1.09-0.4c0.57,0.4,1.11,0.93,1.08,1.52c-0.02,0.33,0.18,0.64,0.51,0.65c0.46,0.02,0.94,0.15,1.28,0.39
		c0.11,0.08,0.2,0.19,0.24,0.32c0.25,0.84-0.54,1.78-1.16,2.27c0.51,0.32,1.33,0.52,1.78-0.07c0.59-0.84,0.59,0.12,0.77,0.53
		c0.69,0.68,1.56-0.31,1.31-0.92c0.62-0.48,2-0.65,1.97,0.38c-0.6,1.51,2.45,5.24,3.33,6.34c0.17,0.86,1.18,0.41,1.77,0.73
		c0.88,1.15,2.62,1.45,3.59,2.06c0.2,0.13,0.31,0.36,0.32,0.6c0.12,3.65,6.19,5.1,8.66,6.42c1.54,0.62,2.84-0.84,4.29-1.05
		c1.32,0.64-1.01,0.79,0,1.4c2.95,0.39-1.41,1.09,2.62,3.55c0.48,0.07,6.16,3.34,8.38,4.05c0.35,0.11,0.78-0.04,0.9-0.39
		c0.15-0.45,0.7-0.43,1.27-0.45c0.54,0.18,0.58,0.82,0.54,1.44c-0.04,0.64,0.69,1.02,1.18,0.61c1.3-1.08,2.26-3.6,2.27-1.41
		c0,0.18,0.06,0.36,0.17,0.5c0.95,1.18,2.09,2.26,1.61,3.96c0.02,0.7,0.44,0.7,1.02,0.86c-0.17-0.5-0.22-1.04,0.25-1.48
		c2.53-0.57-0.58,1.52,2.71,3.47c1.12,1.83-1.58-1.25-0.77,1.13c1.48,1.28,3.62-0.9,4.75,0.88c1.27,0.34,2.39,1.64,2.98,2.87
		c0.09,0.19,0.26,0.32,0.46,0.38c1.31,0.37,2.55,1.36,3.16,2.56c1,1.02,1.71-0.31,1.08-1.2c2.93,0.83,1.67-0.93,2.48-2.64
		c1.41-1.23,0.75,0.59,1.64,1.39c0.26,0.23,0.31,0.58,0.14,0.88c-0.36,0.61-0.01,1.16,0.96,0.37c6.41,0.97,0.67,4.82,4.47,5.41
		c1.98,2.4-3.99-0.71-2.16,1.38c2.47,0.22,1.82,4.17-0.16,1.63c-0.77-0.17-0.15,1.12-0.57,1.54c-0.71,0.51,0.67,1,1.04,1.28
		c0,0,0.39-0.53,0.68-0.92c0.19-0.26,0.55-0.37,0.85-0.24c0.88,0.4,1.59,1.36,2.65,1.42c3.07,2.72-0.64,2.3,4.63,3.98
		c0.46-0.28,1.61-0.32,1.12-1.16c1.34,0.96,2.95-1.08,2.58,0.31c-1.25,1.35-0.26,1.94,0.86,2.74c0.31,0.22,0.42,0.64,0.22,0.97
		c-0.27,0.45-0.4,1,0.03,1.36c1.21-0.6,0.93-1.4,2.08-1.97c0.22-0.11,0.38-0.31,0.41-0.55c0.13-1.33,1.16-1.64,2.46-1.24
		c1.04-0.35,0.42,1.09,0.43,2.04c0.01,0.38,0.33,0.68,0.7,0.68c1.24-0.01,0.42,0.87-0.63,1.07c-0.66,0.2-3-0.76-1.48,0.69
		c4.42,1.89,1.6-0.4,1.91,4.76c1.6,0.62,1.34-0.03,1.22-0.68c-0.07-0.4,0.19-0.78,0.6-0.82c1.75-0.17,1.28-1.53,2.38-3.2
		c0.14-0.21,0.4-0.34,0.65-0.33c5.62,0.14,1.42,1.78,3.42,2.94c1.17,0.72,2.56,0.87,3.77,0.24c0.28-0.15,0.64-0.06,0.85,0.17
		c1.07,1.17,2.62,2.71,4.22,1.83c0.49,0.19,0.34,0.8,0.18,1.28c-0.11,0.34,0.04,0.72,0.36,0.87s0.73,0.19,1.14,0.2
		c0.55,0.01,0.95,0.62,0.64,1.08c-0.68,1.02,1.11,2.45,2.57,2.07c0.08-0.02,0.17-0.06,0.24-0.11c0.75-0.48,1.06-1.31,2.05-0.71
		c1.51,0.34,1.72-0.12,0.54-0.76c-0.22-0.12-0.38-0.33-0.41-0.58c-0.12-0.92,0.18-2.26,0.26-3.05c0.18-1.14,1.15-1.43,1.58-0.28
		c-1.33,0.38-0.47,0.93-0.2,1.86c0.96,2.68,1.5-2.64,1.97-0.24c0.63,0.55,0.8,1.61,1.29,2.32c0.16,0.23,0.45,0.34,0.72,0.29
		c0.81-0.17,1-0.03,0.86,0.21c-0.31,0.53,0.25,1.16,0.79,0.87c1.14-0.61,1.97-1.73,1.95-2.75c2.42-1.79,1.23,0.8,2.56-1.2
		c0.68-1.45,1.53-3.1,0.89-4.52c-0.15-0.32-0.07-0.75,0.23-0.94c1.68-1.07-0.54-2.21-1.78-3.29
		C224.68,224.15,224.63,224.06,224.59,223.96z M7.33,47.93c-0.51-0.11,0,4.74,1.41,4.81S9.04,48.3,7.33,47.93z M22.59,80.36
		c-0.37,0.08-2.37,0.19-0.59,1.92s2.74,3.72,2.59,2.32C24.44,83.19,24.81,79.91,22.59,80.36z M146.21,196.81
		c0.02,0.7,0.87,1.37,1.02,0.86c0,0,0.05-1.16,0.25-1.48"/>
	<g>
		<g>
			<g>
				
					<linearGradient id="SVGID_1_" gradientUnits="userSpaceOnUse" x1="59.7738" y1="365.2187" x2="73.8413" y2="365.2187" gradientTransform="matrix(1 0 0 1 0 -262)">
					<stop  offset="0.2513" style="stop-color:#89BCCC"/>
					<stop  offset="1" style="stop-color:#FFFFFF"/>
				</linearGradient>
				<path fill="url(#SVGID_1_)" d="M73.72,101.95c-2.23-0.1-3.59,2.4-5.78,2.29c-1.37-0.07-2.41-1.25-3.77-1.44
					c-1.37-0.18-2.98-0.11-4.31,0.28c-0.15,0.05-0.09,0.29,0.07,0.24c0.77-0.23,1.56-0.29,2.36-0.31c0.83-0.02,1.7-0.07,2.5,0.18
					c1.14,0.36,2.05,1.32,3.31,1.3c2.14-0.03,3.46-2.39,5.63-2.29C73.88,102.2,73.88,101.95,73.72,101.95L73.72,101.95z"/>
			</g>
		</g>
		<g>
			<g>
				
					<linearGradient id="SVGID_2_" gradientUnits="userSpaceOnUse" x1="66.0757" y1="369.7958" x2="79.9306" y2="369.7958" gradientTransform="matrix(1 0 0 1 0 -262)">
					<stop  offset="0.2513" style="stop-color:#89BCCC"/>
					<stop  offset="1" style="stop-color:#FFFFFF"/>
				</linearGradient>
				<path fill="url(#SVGID_2_)" d="M79.84,106.53c-0.88-0.25-1.96-0.14-2.85,0.07c-1.24,0.3-1.77,1.64-3.05,1.89
					c-0.77,0.15-1.57,0.01-2.33-0.1c-0.72-0.1-1.43-0.16-2.15-0.17c-1.13-0.01-2.51-0.13-3.35,0.77c-0.11,0.12,0.07,0.29,0.18,0.18
					c0.92-0.98,2.78-0.74,3.99-0.67c1.22,0.07,2.5,0.48,3.73,0.24c0.46-0.09,0.88-0.29,1.24-0.59c0.48-0.4,0.86-0.94,1.46-1.19
					c0.86-0.35,2.17-0.44,3.06-0.19C79.93,106.82,80,106.58,79.84,106.53L79.84,106.53z"/>
			</g>
		</g>
		<g>
			<g>
				
					<linearGradient id="SVGID_3_" gradientUnits="userSpaceOnUse" x1="42.4294" y1="359.7188" x2="52.117" y2="359.7188" gradientTransform="matrix(1 0 0 1 0 -262)">
					<stop  offset="0" style="stop-color:#FFFFFF"/>
					<stop  offset="0.7846" style="stop-color:#89BCCC"/>
				</linearGradient>
				<path fill="url(#SVGID_3_)" d="M42.52,95.82c1.7,0.58,3.41,1.14,5.11,1.74c1.53,0.54,3.05,1.17,4.28,2.27
					c0.12,0.11,0.3-0.07,0.18-0.18c-1.18-1.05-2.62-1.7-4.09-2.23c-1.79-0.65-3.6-1.23-5.41-1.84
					C42.43,95.53,42.36,95.77,42.52,95.82L42.52,95.82z"/>
			</g>
		</g>
		<g>
			<g>
				
					<linearGradient id="SVGID_4_" gradientUnits="userSpaceOnUse" x1="43.3744" y1="366.2113" x2="53.6062" y2="366.2113" gradientTransform="matrix(1 0 0 1 0 -262)">
					<stop  offset="0" style="stop-color:#FFFFFF"/>
					<stop  offset="0.7846" style="stop-color:#89BCCC"/>
				</linearGradient>
				<path fill="url(#SVGID_4_)" d="M43.46,104.35c1.52,0.54,3.17-0.3,4.71-0.36c1.78-0.07,3.54,0.32,5.28,0.7
					c0.16,0.03,0.22-0.21,0.07-0.24c-1.63-0.36-3.28-0.72-4.96-0.72c-0.77,0-1.52,0.1-2.27,0.27c-0.92,0.2-1.83,0.43-2.75,0.11
					C43.37,104.06,43.31,104.3,43.46,104.35L43.46,104.35z"/>
			</g>
		</g>
		<g>
			<g>
				
					<linearGradient id="SVGID_5_" gradientUnits="userSpaceOnUse" x1="47.3432" y1="371.062" x2="55.1611" y2="371.062" gradientTransform="matrix(1 0 0 1 0 -262)">
					<stop  offset="0" style="stop-color:#FFFFFF"/>
					<stop  offset="0.7846" style="stop-color:#89BCCC"/>
				</linearGradient>
				<path fill="url(#SVGID_5_)" d="M47.59,111.88c0.28-0.79,1.02-1.24,1.74-1.58c0.8-0.38,1.63-0.7,2.43-1.1s1.64-0.81,2.36-1.34
					c0.54-0.4,0.98-0.89,1.04-1.58c0.02-0.16-0.23-0.16-0.25,0c-0.08,0.88-0.91,1.4-1.6,1.8c-0.83,0.49-1.69,0.93-2.57,1.34
					c-1.22,0.56-2.89,0.99-3.39,2.4C47.3,111.96,47.54,112.03,47.59,111.88L47.59,111.88z"/>
			</g>
		</g>
		<g>
			<g>
				
					<linearGradient id="SVGID_6_" gradientUnits="userSpaceOnUse" x1="53.8973" y1="373.6145" x2="59.2088" y2="373.6145" gradientTransform="matrix(1 0 0 1 0 -262)">
					<stop  offset="0" style="stop-color:#FFFFFF"/>
					<stop  offset="0.7846" style="stop-color:#89BCCC"/>
				</linearGradient>
				<path fill="url(#SVGID_6_)" d="M54.06,116.28c1.75-0.72,2.62-2.51,2.6-4.33c0-0.3-0.01-0.65,0.22-0.88
					c0.22-0.22,0.62-0.31,0.9-0.43c0.38-0.16,0.96-0.28,1.26-0.59c0.27-0.28,0.15-0.66,0.09-1c-0.11-0.67-0.22-1.34-0.32-2.02
					c-0.03-0.16-0.27-0.09-0.24,0.07c0.09,0.56,0.18,1.12,0.27,1.68c0.04,0.27,0.22,0.87,0.02,1.09c-0.18,0.2-0.54,0.27-0.77,0.37
					c-0.66,0.27-1.53,0.43-1.66,1.25c-0.06,0.38,0,0.77-0.04,1.16c-0.05,0.5-0.19,0.98-0.4,1.43c-0.41,0.87-1.1,1.59-1.99,1.95
					C53.84,116.1,53.91,116.34,54.06,116.28L54.06,116.28z"/>
			</g>
		</g>
		<g>
			<g>
				
					<linearGradient id="SVGID_7_" gradientUnits="userSpaceOnUse" x1="57.3887" y1="380.3944" x2="73.1257" y2="380.3944" gradientTransform="matrix(1 0 0 1 0 -262)">
					<stop  offset="0" style="stop-color:#FFFFFF"/>
					<stop  offset="0.7846" style="stop-color:#89BCCC"/>
				</linearGradient>
				<path fill="url(#SVGID_7_)" d="M57.51,123.12c0.74,0.09,1.24-0.58,1.68-1.07c0.52-0.57,1.02-1.18,1.35-1.88
					c0.37-0.79,0.39-1.68,0.72-2.49c0.21-0.51,0.57-1.01,1.13-1.16c0.48-0.12,0.98,0.04,1.46,0.01c0.83-0.05,1.59-0.47,2.42-0.57
					c0.75-0.09,1.51-0.1,2.24-0.29c0.64-0.17,1.12-0.51,1.59-0.97c0.8-0.79,1.85-1.06,2.84-0.41c0.14,0.09,0.26-0.13,0.13-0.22
					c-0.55-0.36-1.2-0.5-1.84-0.35c-0.82,0.18-1.19,0.84-1.84,1.29c-0.74,0.52-1.69,0.56-2.56,0.64c-0.83,0.08-1.56,0.29-2.36,0.51
					c-0.81,0.22-1.75-0.14-2.51,0.27c-0.58,0.32-0.9,0.95-1.08,1.55c-0.29,0.98-0.39,1.91-0.97,2.78c-0.44,0.66-1.52,2.22-2.41,2.11
					C57.35,122.85,57.35,123.1,57.51,123.12L57.51,123.12z"/>
			</g>
		</g>
		<g>
			<g>
				
					<linearGradient id="SVGID_8_" gradientUnits="userSpaceOnUse" x1="55.841" y1="359.5482" x2="57.4445" y2="359.5482" gradientTransform="matrix(1 0 0 1 0 -262)">
					<stop  offset="0.2513" style="stop-color:#89BCCC"/>
					<stop  offset="1" style="stop-color:#FFFFFF"/>
				</linearGradient>
				<path fill="url(#SVGID_8_)" d="M55.92,94.98c-0.19,0.86,0,1.68,0.48,2.41c0.25,0.39,0.52,0.76,0.66,1.21
					c0.15,0.47,0.18,0.96,0.09,1.45c-0.03,0.16,0.21,0.22,0.24,0.07c0.15-0.84-0.02-1.67-0.47-2.39c-0.25-0.39-0.54-0.76-0.68-1.21
					c-0.16-0.47-0.18-0.97-0.07-1.46C56.19,94.89,55.95,94.82,55.92,94.98L55.92,94.98z"/>
			</g>
		</g>
		<g>
			<g>
				
					<linearGradient id="SVGID_9_" gradientUnits="userSpaceOnUse" x1="61.434" y1="387.9651" x2="75.2355" y2="387.9651" gradientTransform="matrix(1 0 0 1 0 -262)">
					<stop  offset="0" style="stop-color:#FFFFFF"/>
					<stop  offset="0.7846" style="stop-color:#89BCCC"/>
				</linearGradient>
				<path fill="url(#SVGID_9_)" d="M61.61,130.76c0.55-0.39,1.11-0.79,1.53-1.33c0.18-0.24,0.34-0.51,0.43-0.8
					c0.16-0.51,0.05-1.04,0.55-1.4c0.61-0.43,1.47-0.53,2.13-0.91c0.83-0.48,1.41-1.27,2.47-1.22c0.93,0.05,1.81,0.39,2.75,0.37
					c0.68-0.01,1.35-0.16,1.93-0.53c0.47-0.3,0.84-0.74,1.03-1.27c0.27-0.77,0.16-1.68,0.77-2.31c0.11-0.12-0.06-0.29-0.18-0.18
					c-0.43,0.44-0.54,0.99-0.64,1.58c-0.16,0.88-0.45,1.6-1.26,2.06c-0.9,0.51-1.98,0.45-2.96,0.28c-0.75-0.14-1.55-0.4-2.31-0.14
					c-0.68,0.24-1.19,0.85-1.82,1.2c-0.66,0.37-1.49,0.46-2.1,0.91c-0.58,0.42-0.41,1.05-0.66,1.64c-0.33,0.81-1.09,1.35-1.78,1.84
					C61.36,130.64,61.48,130.86,61.61,130.76L61.61,130.76z"/>
			</g>
		</g>
		<g>
			<g>
				
					<linearGradient id="SVGID_10_" gradientUnits="userSpaceOnUse" x1="74.7634" y1="374.3732" x2="83.7448" y2="374.3732" gradientTransform="matrix(1 0 0 1 0 -262)">
					<stop  offset="0.2513" style="stop-color:#89BCCC"/>
					<stop  offset="1" style="stop-color:#FFFFFF"/>
				</linearGradient>
				<path fill="url(#SVGID_10_)" d="M74.83,112.95c0.67,0.51,1.33,1.04,2.01,1.53c0.56,0.41,1.18,0.8,1.87,0.96
					c1.01,0.22,2.21-0.18,1.97-1.4c-0.14-0.74-0.85-1.4-0.66-2.18c0.18-0.76,1.04-1.06,1.7-1.28c0.51-0.17,1.19-0.38,1.57-0.8
					c0.01-0.01,0.09-0.13,0.09-0.13c0.01-0.01-0.11,0.06-0.01,0.07c0.06,0.01,0.28-0.2,0.33-0.23c0.13-0.09,0.01-0.31-0.13-0.22
					c-0.13,0.09-0.3,0.17-0.41,0.29c-0.03,0.03-0.05,0.08-0.03,0.12c-0.07-0.18,0.09-0.1-0.04-0.06c-0.09,0.03-0.19,0.15-0.27,0.2
					c-0.27,0.19-0.57,0.32-0.88,0.43c-0.49,0.17-0.99,0.31-1.43,0.61c-0.85,0.59-0.88,1.41-0.46,2.29c0.27,0.55,0.76,1.44,0.09,1.92
					c-0.57,0.4-1.43,0.19-2.01-0.07c-1.16-0.53-2.16-1.47-3.17-2.24C74.82,112.64,74.7,112.85,74.83,112.95L74.83,112.95z"/>
			</g>
		</g>
		<g>
			<g>
				
					<linearGradient id="SVGID_11_" gradientUnits="userSpaceOnUse" x1="84.1666" y1="381.3399" x2="93.6465" y2="381.3399" gradientTransform="matrix(1 0 0 1 0 -262)">
					<stop  offset="0.2513" style="stop-color:#89BCCC"/>
					<stop  offset="1" style="stop-color:#FFFFFF"/>
				</linearGradient>
				<path fill="url(#SVGID_11_)" d="M84.32,119.54c0.7-0.28,1.42-0.53,2.14-0.75c0.7-0.21,1.74-0.66,2.44-0.29
					c0.89,0.46,0.87,1.85,1.99,2.04c0.57,0.1,1.12-0.18,1.62-0.4c0.07-0.03,0.41-0.12,0.44-0.18c0.06-0.11-0.06-0.23-0.15-0.13
					c-0.09,0.1-0.06,0.21,0.07,0.24c0.17,0.05,0.57-0.21,0.71-0.27c0.15-0.07,0.02-0.28-0.13-0.22c-0.09,0.04-0.52,0.15-0.57,0.24
					c-0.05,0.1,0.04,0.22,0.14,0.14c0.09-0.07,0.09-0.19-0.01-0.24c-0.13-0.07-0.42,0.11-0.53,0.16c-0.71,0.31-1.59,0.74-2.21,0.03
					c-0.61-0.7-0.78-1.75-1.9-1.79c-0.66-0.02-1.35,0.24-1.98,0.43c-0.73,0.22-1.44,0.47-2.14,0.75
					C84.1,119.35,84.17,119.6,84.32,119.54L84.32,119.54z"/>
			</g>
		</g>
		<g>
			<g>
				
					<linearGradient id="SVGID_12_" gradientUnits="userSpaceOnUse" x1="69.6789" y1="394.3674" x2="75.2292" y2="394.3674" gradientTransform="matrix(1 0 0 1 0 -262)">
					<stop  offset="0" style="stop-color:#FFFFFF"/>
					<stop  offset="0.7846" style="stop-color:#89BCCC"/>
				</linearGradient>
				<path fill="url(#SVGID_12_)" d="M69.93,136.39c0.08-0.93,0.4-1.83,0.92-2.6c0.53-0.78,1.28-1.36,2.04-1.91
					c1.11-0.8,2.88-1.97,2.18-3.59c-0.06-0.15-0.28-0.02-0.22,0.13c0.42,0.98-0.31,1.87-1.02,2.46c-0.66,0.54-1.4,1-2.05,1.55
					c-1.2,1.01-1.96,2.4-2.1,3.97C69.66,136.55,69.91,136.55,69.93,136.39L69.93,136.39z"/>
			</g>
		</g>
		<g>
			<g>
				
					<linearGradient id="SVGID_13_" gradientUnits="userSpaceOnUse" x1="76.7657" y1="398.7277" x2="81.9632" y2="398.7277" gradientTransform="matrix(1 0 0 1 0 -262)">
					<stop  offset="0.1077" style="stop-color:#FFFFFF"/>
					<stop  offset="1" style="stop-color:#89BCCC"/>
				</linearGradient>
				<path fill="url(#SVGID_13_)" d="M78.21,127.45c1.62,1.81,2.78,4.29,2.63,6.76c-0.04,0.7-0.21,1.38-0.4,2.05
					c-0.11,0.39-0.4,0.92-0.31,1.33c0.05,0.23,0.2,0.36,0.41,0.47c0.44,0.23,0.84,0.26,1.06,0.78c0.79,1.84-1.8,2.81-2.76,3.93
					c-0.46,0.54-0.89,1.11-1.27,1.71c-0.31,0.47-0.68,1.01-0.79,1.58c-0.03,0.16,0.21,0.22,0.24,0.07c0.21-1.08,1.18-2.19,1.86-3.01
					c0.37-0.45,0.75-0.81,1.23-1.14c0.57-0.39,1.17-0.81,1.54-1.41c0.54-0.87,0.42-2.15-0.61-2.57c-0.13-0.05-0.41-0.09-0.49-0.2
					c-0.22-0.28-0.08-0.7,0.01-0.99c0.16-0.53,0.31-1.06,0.42-1.6c0.16-0.84,0.17-1.7,0.05-2.55c-0.3-2-1.27-3.87-2.62-5.37
					C78.28,127.15,78.11,127.33,78.21,127.45L78.21,127.45z"/>
			</g>
		</g>
		<g>
			<g>
				
					<linearGradient id="SVGID_14_" gradientUnits="userSpaceOnUse" x1="86.569" y1="405.2677" x2="95.4019" y2="405.2677" gradientTransform="matrix(1 0 0 1 0 -262)">
					<stop  offset="0" style="stop-color:#FFFFFF"/>
					<stop  offset="0.7641" style="stop-color:#89BCCC"/>
				</linearGradient>
				<path fill="url(#SVGID_14_)" d="M86.93,149.95c-0.45-1.01,0.81-1.9,1.43-2.5c0.62-0.61,1.3-1.19,1.88-1.85
					c0.28-0.31,0.6-0.78,0.43-1.22c-0.08-0.22-0.33-0.32-0.32-0.55c0.02-0.28,0.76-0.56,1.02-0.7c1.11-0.62,2.54-1.2,3.27-2.29
					c0.31-0.47,0.39-0.97,0.33-1.52c-0.11-1-0.07-1.84,0.42-2.74c0.08-0.14-0.14-0.27-0.22-0.13c-0.36,0.66-0.56,1.39-0.53,2.15
					c0.04,0.9,0.24,1.61-0.41,2.37c-0.53,0.61-1.28,1-1.98,1.39c-0.37,0.21-0.74,0.42-1.11,0.62c-0.28,0.16-0.78,0.33-1.01,0.57
					c-0.3,0.32,0,0.42,0.14,0.71c0.48,0.99-1.04,1.99-1.65,2.59c-0.8,0.79-2.5,1.91-1.91,3.24
					C86.77,150.22,86.99,150.1,86.93,149.95L86.93,149.95z"/>
			</g>
		</g>
		<g>
			<g>
				
					<linearGradient id="SVGID_15_" gradientUnits="userSpaceOnUse" x1="86.4446" y1="389.2392" x2="108.4" y2="389.2392" gradientTransform="matrix(1 0 0 1 0 -262)">
					<stop  offset="0.2513" style="stop-color:#89BCCC"/>
					<stop  offset="1" style="stop-color:#FFFFFF"/>
				</linearGradient>
				<path fill="url(#SVGID_15_)" d="M86.67,129.62c2.29-1.87,5.77-1.72,8.55-1.48c1.57,0.14,3.07,0.47,4.6,0.8
					c0.99,0.21,2.07,0.2,2.73-0.67c-0.07,0-0.14,0-0.22,0c0.08,0.11,0.15,0.21,0.23,0.32c0.03,0.04,0.08,0.07,0.14,0.06
					c2.19-0.65,3.22-3.33,5.58-3.57c0.16-0.02,0.16-0.27,0-0.25c-1.06,0.11-1.91,0.7-2.67,1.4c-0.46,0.43-2.5,2.69-3.06,1.92
					c-0.06-0.08-0.16-0.08-0.22,0c-1.02,1.33-3.17,0.35-4.49,0.11c-1.42-0.26-2.86-0.41-4.3-0.45c-2.42-0.06-5.1,0.05-7.06,1.65
					C86.37,129.54,86.54,129.72,86.67,129.62L86.67,129.62z"/>
			</g>
		</g>
		<g>
			<g>
				
					<linearGradient id="SVGID_16_" gradientUnits="userSpaceOnUse" x1="102.2092" y1="393.9077" x2="116.0162" y2="393.9077" gradientTransform="matrix(1 0 0 1 0 -262)">
					<stop  offset="0.2513" style="stop-color:#89BCCC"/>
					<stop  offset="1" style="stop-color:#FFFFFF"/>
				</linearGradient>
				<path fill="url(#SVGID_16_)" d="M115.93,129.87c-1.45-0.38-3.1-0.4-4.51,0.17c-0.54,0.22-0.6,0.72-0.88,1.19
					c-0.41,0.68-1,1.26-1.57,1.81c-0.75,0.71-1.52,0.85-2.52,0.89c-0.43,0.02-0.95,0.18-1.14-0.33c-0.1-0.27-0.08-0.58-0.25-0.83
					c-0.23-0.35-0.57-0.44-0.94-0.3c-0.68,0.25-1.31,0.78-1.87,1.23c-0.12,0.1,0.05,0.28,0.18,0.18c0.52-0.43,2.15-1.85,2.54-0.69
					c0.1,0.31,0.03,0.82,0.38,0.98c0.2,0.09,0.48,0.03,0.68,0.02c0.35-0.01,0.69-0.02,1.04-0.04c0.59-0.04,1.12-0.18,1.6-0.53
					c0.95-0.69,1.87-1.74,2.36-2.81c0.35-0.76,1.58-0.87,2.33-0.93c0.84-0.07,1.68,0.02,2.5,0.23
					C116.02,130.15,116.08,129.91,115.93,129.87L115.93,129.87z"/>
			</g>
		</g>
		<g>
			<g>
				
					<linearGradient id="SVGID_17_" gradientUnits="userSpaceOnUse" x1="107.2734" y1="400.6007" x2="117.3892" y2="400.6007" gradientTransform="matrix(1 0 0 1 0 -262)">
					<stop  offset="0.2513" style="stop-color:#89BCCC"/>
					<stop  offset="1" style="stop-color:#FFFFFF"/>
				</linearGradient>
				<path fill="url(#SVGID_17_)" d="M117.38,133.05c0-0.4-0.39-0.28-0.57-0.08c-0.45,0.48-0.64,1.3-0.85,1.91
					c-0.59,1.69-1.64,2.88-3.16,3.82c-1.33,0.82-2.9,1.26-4.14,2.21c-1.04,0.8-1.73,2.15-1.18,3.44c0.06,0.15,0.28,0.02,0.22-0.13
					c-0.66-1.55,0.65-2.93,1.9-3.62c1.11-0.62,2.32-1.05,3.4-1.73c0.92-0.58,1.78-1.29,2.39-2.19c0.33-0.48,0.56-1.01,0.75-1.56
					c0.1-0.29,0.2-0.59,0.31-0.88c0.08-0.22,0.17-0.44,0.28-0.65c0.06-0.11,0.4-0.52,0.4-0.55
					C117.13,133.21,117.38,133.21,117.38,133.05L117.38,133.05z"/>
			</g>
		</g>
		<g>
			<g>
				
					<linearGradient id="SVGID_18_" gradientUnits="userSpaceOnUse" x1="111.9958" y1="405.4197" x2="113.5915" y2="405.4197" gradientTransform="matrix(1 0 0 1 0 -262)">
					<stop  offset="0.2513" style="stop-color:#89BCCC"/>
					<stop  offset="1" style="stop-color:#FFFFFF"/>
				</linearGradient>
				<path fill="url(#SVGID_18_)" d="M112.75,139.02c-0.84,1.24-0.37,2.92-0.62,4.31c-0.14,0.77-0.2,1.46,0.09,2.21
					c0.31,0.79,0.72,1.55,1.13,2.28c0.08,0.14,0.29,0.01,0.22-0.13c-0.4-0.72-0.81-1.46-1.11-2.22c-0.32-0.82-0.17-1.55-0.04-2.39
					c0.2-1.29-0.24-2.8,0.54-3.95C113.06,139.01,112.84,138.88,112.75,139.02L112.75,139.02z"/>
			</g>
		</g>
		<g>
			<g>
				
					<linearGradient id="SVGID_19_" gradientUnits="userSpaceOnUse" x1="95.0668" y1="415.9134" x2="103.6782" y2="415.9134" gradientTransform="matrix(1 0 0 1 0 -262)">
					<stop  offset="0" style="stop-color:#FFFFFF"/>
					<stop  offset="0.7641" style="stop-color:#89BCCC"/>
				</linearGradient>
				<path fill="url(#SVGID_19_)" d="M95.3,163.62c0.54-0.89,1.19-1.69,1.99-2.37c0.56-0.47,1.24-0.89,1.56-1.57
					c0.4-0.83,0-1.81-0.02-2.68c-0.01-0.59,0.04-1.2,0.19-1.77c0.16-0.62,0.47-0.87,1.01-1.15c0.79-0.4,1.52-0.9,2.18-1.5
					c0.7-0.64,0.99-1.07,0.93-2.03c-0.06-1.07-0.12-2.14-0.13-3.21c-0.01-1.05,0.07-2.1,0.64-3.01c0.08-0.14-0.13-0.26-0.22-0.13
					c-0.95,1.54-0.69,3.53-0.6,5.25c0.03,0.54,0.14,1.13,0.08,1.67c-0.07,0.66-0.71,1.16-1.19,1.56c-0.42,0.35-0.87,0.66-1.35,0.94
					c-0.34,0.19-0.73,0.33-1.04,0.57c-0.55,0.44-0.64,1.26-0.71,1.91c-0.06,0.53-0.06,1.06,0,1.59c0.06,0.54,0.24,1.11,0.08,1.65
					c-0.26,0.9-1.27,1.42-1.92,2.02c-0.67,0.63-1.24,1.35-1.71,2.14C95,163.64,95.22,163.76,95.3,163.62L95.3,163.62z"/>
			</g>
		</g>
		<g>
			<g>
				
					<linearGradient id="SVGID_20_" gradientUnits="userSpaceOnUse" x1="104.5661" y1="424.7187" x2="115.7512" y2="424.7187" gradientTransform="matrix(1 0 0 1 0 -262)">
					<stop  offset="0" style="stop-color:#FFFFFF"/>
					<stop  offset="0.7641" style="stop-color:#89BCCC"/>
				</linearGradient>
				<path fill="url(#SVGID_20_)" d="M104.75,169.97c0.64-0.44,1.14-1.03,1.43-1.75c0.3-0.74,0.22-1.43,0.27-2.21
					c0.07-1.02,0.82-1.52,1.46-2.2c0.5-0.52,0.75-1.1,0.81-1.82c0.03-0.41-0.09-0.92-0.01-1.33c0.15-0.73,0.89-0.69,1.43-0.85
					c0.74-0.22,1.45-0.52,2.12-0.91c1.4-0.8,2.58-1.92,3.47-3.27c0.09-0.13-0.13-0.26-0.22-0.13c-0.97,1.47-2.3,2.66-3.88,3.45
					c-0.79,0.39-1.59,0.6-2.44,0.83c-0.55,0.15-0.74,0.4-0.73,0.98c0.01,0.99,0.09,1.95-0.61,2.75c-0.45,0.52-1.06,0.91-1.39,1.52
					c-0.41,0.74-0.18,1.58-0.31,2.38c-0.16,0.97-0.73,1.8-1.53,2.35C104.49,169.84,104.62,170.06,104.75,169.97L104.75,169.97z"/>
			</g>
		</g>
		<g>
			<g>
				
					<linearGradient id="SVGID_21_" gradientUnits="userSpaceOnUse" x1="119.1374" y1="408.0796" x2="125.191" y2="408.0796" gradientTransform="matrix(1 0 0 1 0 -262)">
					<stop  offset="0.2513" style="stop-color:#89BCCC"/>
					<stop  offset="1" style="stop-color:#FFFFFF"/>
				</linearGradient>
				<path fill="url(#SVGID_21_)" d="M124.96,137.72c-0.76,1.64-1.55,3.27-2.39,4.88c-0.38,0.74-0.75,1.49-1.24,2.17
					c-0.43,0.6-1,1.06-1.45,1.64c-0.84,1.1-0.82,2.65-0.73,3.97c0.12,1.58,1.36,2.83,2.25,4.07c0.09,0.13,0.31,0.01,0.22-0.13
					c-0.44-0.62-0.89-1.25-1.33-1.87c-0.54-0.77-0.86-1.43-0.89-2.39c-0.02-0.74-0.04-1.49,0.11-2.21c0.17-0.84,0.65-1.42,1.23-2.01
					c0.97-1,1.58-2.2,2.22-3.43c0.77-1.5,1.51-3.02,2.22-4.56C125.24,137.7,125.03,137.57,124.96,137.72L124.96,137.72z"/>
			</g>
		</g>
		<g>
			<g>
				
					<linearGradient id="SVGID_22_" gradientUnits="userSpaceOnUse" x1="123.0446" y1="418.3748" x2="136.7557" y2="418.3748" gradientTransform="matrix(1 0 0 1 0 -262)">
					<stop  offset="0.2513" style="stop-color:#89BCCC"/>
					<stop  offset="1" style="stop-color:#FFFFFF"/>
				</linearGradient>
				<path fill="url(#SVGID_22_)" d="M123.24,159.02c1.11-0.49,1.96-1.35,2.82-2.18c0.34-0.32,1.25-1.44,1.75-1.2
					c0.2,0.09,0.35,0.36,0.57,0.46c0.19,0.09,0.4,0.14,0.61,0.17c0.7,0.1,1.41-0.08,2.12-0.02c0.66,0.06,1.18,0.08,1.8-0.17
					c1.34-0.54,2.61-1.29,3.79-2.12c0.13-0.09,0.01-0.31-0.13-0.22c-1.2,0.84-2.53,1.68-3.91,2.17c-0.75,0.26-1.45,0.04-2.21,0.07
					c-0.84,0.04-1.69,0.22-2.37-0.41c-0.24-0.22-0.36-0.38-0.69-0.21c-0.46,0.23-0.87,0.68-1.24,1.03c-0.95,0.9-1.83,1.87-3.05,2.41
					C122.97,158.87,123.09,159.08,123.24,159.02L123.24,159.02z"/>
			</g>
		</g>
		<g>
			<g>
				
					<linearGradient id="SVGID_23_" gradientUnits="userSpaceOnUse" x1="116.1407" y1="433.9954" x2="127.4701" y2="433.9954" gradientTransform="matrix(1 0 0 1 0 -262)">
					<stop  offset="0" style="stop-color:#FFFFFF"/>
					<stop  offset="0.7641" style="stop-color:#89BCCC"/>
				</linearGradient>
				<path fill="url(#SVGID_23_)" d="M125.29,162.61c0.06,0.95,0.49,1.77,0.87,2.63c0.49,1.11,1.05,2.44,1.05,3.67
					c-0.01,1.29-0.9,1.92-1.64,2.83c-0.57,0.71-0.87,1.56-1.07,2.43c-0.22,0.95-0.23,2.1-0.66,2.98c-0.31,0.63-1.09,0.62-1.7,0.76
					c-0.47,0.11-0.94,0.24-1.41,0.4c-1.76,0.58-3.4,1.5-4.56,2.97c-0.1,0.12,0.08,0.3,0.18,0.18c1.37-1.72,3.39-2.66,5.48-3.2
					c0.78-0.2,1.88-0.14,2.24-0.98c0.37-0.88,0.43-1.91,0.63-2.84c0.24-1.12,0.63-2.09,1.42-2.93c0.6-0.65,1.19-1.25,1.32-2.16
					c0.15-1.11-0.29-2.3-0.68-3.32c-0.43-1.12-1.13-2.19-1.21-3.41C125.53,162.45,125.28,162.45,125.29,162.61L125.29,162.61z"/>
			</g>
		</g>
		<g>
			<g>
				
					<linearGradient id="SVGID_24_" gradientUnits="userSpaceOnUse" x1="128.1604" y1="441.0579" x2="134.1754" y2="441.0579" gradientTransform="matrix(1 0 0 1 0 -262)">
					<stop  offset="0" style="stop-color:#FFFFFF"/>
					<stop  offset="0.7641" style="stop-color:#89BCCC"/>
				</linearGradient>
				<path fill="url(#SVGID_24_)" d="M128.41,185.36c0.52-1.24,0.91-2.51,1.4-3.75c0.54-1.39,1.67-1.85,2.84-2.62
					c0.75-0.49,1.47-1.18,1.53-2.13c0.09-1.37-0.67-2.65-0.24-4.03c0.05-0.15-0.19-0.22-0.24-0.07c-0.36,1.16,0.05,2.28,0.19,3.44
					c0.21,1.69-1.1,2.41-2.36,3.15c-0.88,0.52-1.54,1.12-1.93,2.09c-0.51,1.27-0.9,2.58-1.43,3.85
					C128.11,185.44,128.35,185.5,128.41,185.36L128.41,185.36z"/>
			</g>
		</g>
		<g>
			<g>
				
					<linearGradient id="SVGID_25_" gradientUnits="userSpaceOnUse" x1="132.2187" y1="438.5808" x2="141.5319" y2="438.5808" gradientTransform="matrix(1 0 0 1 0 -262)">
					<stop  offset="0" style="stop-color:#FFFFFF"/>
					<stop  offset="0.7641" style="stop-color:#89BCCC"/>
				</linearGradient>
				<path fill="url(#SVGID_25_)" d="M132.34,179.16c1.72,0.06,3.61,0.06,5.25-0.54c0.85-0.31,1.39-0.88,1.91-1.6
					c0.67-0.95,1.34-1.9,2.01-2.86c0.09-0.13-0.12-0.26-0.22-0.13c-0.59,0.83-1.17,1.67-1.76,2.5c-0.28,0.4-0.56,0.82-0.91,1.17
					c-0.39,0.39-0.87,0.61-1.4,0.77c-1.56,0.47-3.27,0.49-4.89,0.43C132.18,178.9,132.18,179.15,132.34,179.16L132.34,179.16z"/>
			</g>
		</g>
		<g>
			<g>
				
					<linearGradient id="SVGID_26_" gradientUnits="userSpaceOnUse" x1="129.7766" y1="444.8847" x2="143.7113" y2="444.8847" gradientTransform="matrix(1 0 0 1 0 -262)">
					<stop  offset="0" style="stop-color:#FFFFFF"/>
					<stop  offset="0.7641" style="stop-color:#89BCCC"/>
				</linearGradient>
				<path fill="url(#SVGID_26_)" d="M129.93,188.62c1.29-0.51,2.02-1.85,2.77-2.94c0.5-0.74,1.03-1.42,1.8-1.89
					c0.88-0.54,1.91-0.79,2.93-0.87c0.9-0.07,1.84,0.07,2.71-0.21c0.78-0.25,1.38-0.8,1.94-1.38c1.04-1.08,2.22-2.61,1.3-4.13
					c-0.08-0.14-0.3-0.01-0.22,0.13c0.58,0.95,0.21,2.03-0.4,2.86c-0.52,0.7-1.2,1.44-1.93,1.92c-0.83,0.55-1.75,0.53-2.71,0.54
					c-0.76,0.01-1.51,0.09-2.24,0.29c-1.31,0.37-2.33,1.12-3.12,2.21c-0.81,1.13-1.53,2.69-2.9,3.24
					C129.71,188.44,129.78,188.68,129.93,188.62L129.93,188.62z"/>
			</g>
		</g>
		<g>
			<g>
				
					<linearGradient id="SVGID_27_" gradientUnits="userSpaceOnUse" x1="145.3857" y1="435.48" x2="148.8755" y2="435.48" gradientTransform="matrix(1 0 0 1 0 -262)">
					<stop  offset="0.2513" style="stop-color:#89BCCC"/>
					<stop  offset="1" style="stop-color:#FFFFFF"/>
				</linearGradient>
				<path fill="url(#SVGID_27_)" d="M148.63,165.12c-0.16,1.41-0.36,2.8-0.66,4.18c-0.2,0.94-0.49,1.88-1.01,2.7
					c-0.44,0.68-1.05,1.26-1.36,2.03c-0.27,0.66-0.23,1.24,0.04,1.89c0.33,0.83,0.42,1.65,0.55,2.52c0.22,1.45,0.97,2.69,2.21,3.5
					c0.13,0.09,0.26-0.13,0.13-0.22c-0.69-0.45-1.25-1.05-1.62-1.78c-0.39-0.76-0.47-1.57-0.58-2.41c-0.05-0.36-0.1-0.73-0.21-1.08
					c-0.14-0.46-0.42-0.88-0.46-1.37c-0.07-0.89,0.54-1.64,1.05-2.3c1.65-2.15,1.89-5.05,2.19-7.67
					C148.89,164.96,148.64,164.96,148.63,165.12L148.63,165.12z"/>
			</g>
		</g>
		<g>
			<g>
				
					<linearGradient id="SVGID_28_" gradientUnits="userSpaceOnUse" x1="146.8432" y1="452.3322" x2="148.6879" y2="452.3322" gradientTransform="matrix(1 0 0 1 0 -262)">
					<stop  offset="0.2513" style="stop-color:#89BCCC"/>
					<stop  offset="1" style="stop-color:#FFFFFF"/>
				</linearGradient>
				<path fill="url(#SVGID_28_)" d="M148.59,196.18c-0.11-1.74,0.27-3.52,0.03-5.25c-0.12-0.9-0.45-1.74-0.87-2.54
					c-0.3-0.58-0.68-1.16-0.66-1.83c0.02-0.73,0.45-1.44,0.9-1.98c0.1-0.12-0.07-0.3-0.18-0.18c-0.6,0.72-1.13,1.69-0.92,2.67
					c0.12,0.56,0.44,1.04,0.69,1.54c0.27,0.54,0.5,1.09,0.65,1.68c0.49,1.9-0.02,3.95,0.1,5.89
					C148.35,196.34,148.6,196.35,148.59,196.18L148.59,196.18z"/>
			</g>
		</g>
		<g>
			<g>
				
					<linearGradient id="SVGID_29_" gradientUnits="userSpaceOnUse" x1="154.1007" y1="441.1276" x2="163.7678" y2="441.1276" gradientTransform="matrix(1 0 0 1 0 -262)">
					<stop  offset="0.2513" style="stop-color:#89BCCC"/>
					<stop  offset="1" style="stop-color:#FFFFFF"/>
				</linearGradient>
				<path fill="url(#SVGID_29_)" d="M163.53,172.76c-0.3,1.02-0.76,2-1.21,2.96c-0.51,1.09-1.04,2.2-1.73,3.19
					c-0.92,1.31-2.51,2.06-3.77,2.99c-1.22,0.9-2.32,2.02-2.7,3.53c-0.04,0.16,0.2,0.22,0.24,0.07c0.85-3.38,4.82-3.98,6.57-6.65
					c0.67-1.01,1.2-2.12,1.71-3.22c0.42-0.91,0.86-1.84,1.14-2.81C163.81,172.67,163.57,172.6,163.53,172.76L163.53,172.76z"/>
			</g>
		</g>
		<g>
			<g>
				
					<linearGradient id="SVGID_30_" gradientUnits="userSpaceOnUse" x1="157.9799" y1="447.903" x2="161.1533" y2="447.903" gradientTransform="matrix(1 0 0 1 0 -262)">
					<stop  offset="0.1769" style="stop-color:#FBFCFD"/>
					<stop  offset="1" style="stop-color:#89BCCC"/>
					<stop  offset="1" style="stop-color:#FFFFFF"/>
				</linearGradient>
				<path fill="url(#SVGID_30_)" d="M160.5,179.02c-0.36,0.92-1.11,1.74-1.64,2.57c-0.27,0.42-0.55,0.85-0.75,1.32
					c-0.19,0.46-0.13,0.84-0.01,1.32c0.24,0.99,0.48,1.91,0.54,2.94c0.04,0.86,0.04,1.72,0.19,2.57c0.23,1.29,0.88,2.58,2.13,3.12
					c0.15,0.06,0.27-0.15,0.13-0.22c-1.52-0.66-2-2.36-2.12-3.88c-0.07-0.84-0.05-1.68-0.15-2.51c-0.09-0.8-0.37-1.53-0.52-2.31
					c-0.2-1.03,0.55-1.9,1.1-2.72c0.45-0.69,1.04-1.38,1.35-2.15C160.8,178.94,160.56,178.87,160.5,179.02L160.5,179.02z"/>
			</g>
		</g>
		<g>
			<g>
				
					<linearGradient id="SVGID_31_" gradientUnits="userSpaceOnUse" x1="162.7788" y1="443.8173" x2="168.8255" y2="443.8173" gradientTransform="matrix(1 0 0 1 0 -262)">
					<stop  offset="0.2513" style="stop-color:#89BCCC"/>
					<stop  offset="1" style="stop-color:#FFFFFF"/>
				</linearGradient>
				<path fill="url(#SVGID_31_)" d="M168.59,177.02c-1.29,1.86-2.91,3.48-4.17,5.37c-0.29,0.43-2.54,4.22-1.24,4.28
					c0.16,0.01,0.16-0.24,0-0.25c-0.13-0.01-0.15-0.34-0.14-0.43c0.01-0.1,0.05-0.22,0.08-0.31c0.06-0.21,0.12-0.41,0.19-0.61
					c0.16-0.45,0.35-0.88,0.57-1.3c0.41-0.79,0.92-1.53,1.46-2.24c1.12-1.48,2.4-2.85,3.46-4.38
					C168.9,177.01,168.68,176.89,168.59,177.02L168.59,177.02z"/>
			</g>
		</g>
		<g>
			<g>
				
					<linearGradient id="SVGID_32_" gradientUnits="userSpaceOnUse" x1="158.5966" y1="459.7545" x2="168.1545" y2="459.7545" gradientTransform="matrix(1 0 0 1 0 -262)">
					<stop  offset="0.1744" style="stop-color:#FFFFFF"/>
					<stop  offset="0.8462" style="stop-color:#89BCCC"/>
				</linearGradient>
				<path fill="url(#SVGID_32_)" d="M167.91,190.07c-0.22,0.85-0.39,1.73-0.68,2.57c-0.29,0.84-0.8,1.51-1.48,2.07
					c-1.06,0.88-2.47,1.46-3.31,2.59c-1,1.35,0,2.88-0.36,4.36c-0.4,1.66-1.85,3.01-3.4,3.62c-0.15,0.06-0.08,0.3,0.07,0.24
					c1.37-0.54,2.59-1.57,3.24-2.9c0.3-0.62,0.47-1.29,0.42-1.98c-0.07-0.98-0.46-1.97,0.04-2.9c0.77-1.41,2.6-2.03,3.75-3.09
					c1.29-1.19,1.54-2.88,1.95-4.51C168.19,189.98,167.95,189.91,167.91,190.07L167.91,190.07z"/>
			</g>
		</g>
		<g>
			<g>
				
					<linearGradient id="SVGID_33_" gradientUnits="userSpaceOnUse" x1="170.556" y1="451.7974" x2="180.6278" y2="451.7974" gradientTransform="matrix(1 0 0 1 0 -262)">
					<stop  offset="0.2513" style="stop-color:#89BCCC"/>
					<stop  offset="1" style="stop-color:#FFFFFF"/>
				</linearGradient>
				<path fill="url(#SVGID_33_)" d="M170.8,194.8c0.7-1.13,1.47-2.21,2.33-3.23c0.42-0.5,0.86-1.07,1.43-1.42
					c0.52-0.31,1.14-0.36,1.72-0.45c1.01-0.16,1.73-0.63,2.32-1.46c0.75-1.05,1.36-2.21,2.01-3.32c0.08-0.14-0.13-0.26-0.22-0.13
					c-0.65,1.08-1.24,2.23-1.97,3.26c-0.39,0.55-0.86,1.04-1.52,1.26c-0.53,0.17-1.1,0.19-1.64,0.31c-1.11,0.25-1.8,1.14-2.5,1.99
					c-0.8,0.97-1.53,2-2.19,3.07C170.5,194.81,170.71,194.94,170.8,194.8L170.8,194.8z"/>
			</g>
		</g>
		<g>
			<g>
				
					<linearGradient id="SVGID_34_" gradientUnits="userSpaceOnUse" x1="181.5237" y1="451.3422" x2="183.7825" y2="451.3422" gradientTransform="matrix(1 0 0 1 0 -262)">
					<stop  offset="0.2513" style="stop-color:#89BCCC"/>
					<stop  offset="1" style="stop-color:#FFFFFF"/>
				</linearGradient>
				<path fill="url(#SVGID_34_)" d="M183.66,186.46c-0.09,0-0.24-0.02-0.28,0.09c-0.04,0.1,0.07,0.19,0.06,0.3
					c-0.02,0.29-0.18,0.61-0.26,0.89c-0.09,0.3-0.17,0.59-0.26,0.89c-0.35,1.18-0.75,2.35-1.39,3.41c-0.08,0.14,0.13,0.26,0.22,0.13
					c0.58-0.97,0.97-2.03,1.3-3.1c0.17-0.54,0.32-1.09,0.48-1.64c0.06-0.2,0.18-0.44,0.16-0.65c0-0.05-0.01-0.13-0.05-0.17
					c-0.04-0.05-0.01-0.09-0.07,0.02c-0.05,0.1-0.02,0.07,0.08,0.07C183.82,186.71,183.82,186.46,183.66,186.46L183.66,186.46z"/>
			</g>
		</g>
		<g>
			<g>
				
					<linearGradient id="SVGID_35_" gradientUnits="userSpaceOnUse" x1="187.0304" y1="457.3737" x2="189.3081" y2="457.3737" gradientTransform="matrix(1 0 0 1 0 -262)">
					<stop  offset="0.2513" style="stop-color:#89BCCC"/>
					<stop  offset="1" style="stop-color:#FFFFFF"/>
				</linearGradient>
				<path fill="url(#SVGID_35_)" d="M189.06,191.84c-0.35,1-0.77,1.99-1.05,3.02c-0.35,1.3-0.37,2.72-0.97,3.94
					c-0.07,0.14,0.14,0.27,0.22,0.13c0.6-1.21,0.63-2.62,0.97-3.91c0.28-1.06,0.71-2.07,1.07-3.1
					C189.36,191.76,189.11,191.69,189.06,191.84L189.06,191.84z"/>
			</g>
		</g>
		<g>
			<g>
				
					<linearGradient id="SVGID_36_" gradientUnits="userSpaceOnUse" x1="176.9553" y1="469.7506" x2="173.4841" y2="466.2794" gradientTransform="matrix(1 0 0 1 0 -262)">
					<stop  offset="0.2051" style="stop-color:#FFFFFF"/>
					<stop  offset="0.8897" style="stop-color:#90BFCE"/>
				</linearGradient>
				<path fill="url(#SVGID_36_)" d="M171.96,212.32c0.89-0.65,1.82-1.3,2.53-2.15c0.72-0.86,0.72-1.85,1.12-2.85
					c0.29-0.73,0.88-0.98,1.41-1.48c0.39-0.37,0.49-0.82,0.58-1.33c0.29-1.63,0.57-3.25,0.85-4.88c0.03-0.16-0.21-0.22-0.24-0.07
					c-0.26,1.47-0.51,2.93-0.77,4.4c-0.14,0.81-0.22,1.45-0.94,1.96c-0.39,0.28-0.74,0.55-0.98,0.98c-0.49,0.91-0.41,2-1.03,2.85
					c-0.7,0.96-1.72,1.66-2.67,2.35C171.71,212.2,171.83,212.42,171.96,212.32L171.96,212.32z"/>
			</g>
		</g>
		<g>
			<g>
				
					<linearGradient id="SVGID_37_" gradientUnits="userSpaceOnUse" x1="184.1817" y1="475.1801" x2="186.5611" y2="475.1801" gradientTransform="matrix(1 0 0 1 0 -262)">
					<stop  offset="0.2513" style="stop-color:#89BCCC"/>
					<stop  offset="1" style="stop-color:#FFFFFF"/>
				</linearGradient>
				<path fill="url(#SVGID_37_)" d="M184.41,203.61c-0.07,1.74-0.14,3.48-0.2,5.21c-0.05,1.55-0.07,3.11,0.26,4.63
					c0.16,0.75,0.44,1.45,0.74,2.16c0.34,0.82,0.52,1.63,0.62,2.51c0.17,1.54,0.32,3.08,0.48,4.63c0.08,0,0.17,0,0.25,0
					c-0.01-0.1-0.02-0.2-0.03-0.3c-0.08,0-0.17,0-0.25,0c0.01,0.05,0.01,0.1,0.02,0.15c0.02,0.16,0.27,0.16,0.25,0
					c-0.01-0.05-0.01-0.1-0.02-0.15c-0.02-0.16-0.27-0.16-0.25,0c0.01,0.1,0.02,0.2,0.03,0.3c0.02,0.16,0.27,0.16,0.25,0
					c-0.16-1.54-0.31-3.09-0.48-4.63c-0.08-0.71-0.19-1.41-0.44-2.09c-0.27-0.74-0.62-1.45-0.83-2.21c-0.43-1.63-0.41-3.33-0.36-5
					c0.06-1.74,0.13-3.48,0.2-5.21C184.66,203.45,184.41,203.45,184.41,203.61L184.41,203.61z"/>
			</g>
		</g>
		<g>
			<g>
				
					<linearGradient id="SVGID_38_" gradientUnits="userSpaceOnUse" x1="193.7058" y1="488.3932" x2="201.5375" y2="480.5615" gradientTransform="matrix(1 0 0 1 0 -262)">
					<stop  offset="0.1795" style="stop-color:#FFFFFF"/>
					<stop  offset="0.8385" style="stop-color:#89BCCC"/>
				</linearGradient>
				<path fill="url(#SVGID_38_)" d="M197.08,214.44c0.62,1.55,1.54,3.22,1.66,4.91c0.11,1.56-0.57,3.02-0.96,4.5
					c-0.56,2.09-0.55,4.68,0.13,6.75c0.05,0.15,0.29,0.09,0.24-0.07c-0.77-2.34-0.61-5.13,0.11-7.45c0.4-1.29,0.87-2.62,0.69-3.99
					c-0.21-1.63-1.04-3.2-1.64-4.71C197.26,214.22,197.02,214.29,197.08,214.44L197.08,214.44z"/>
			</g>
		</g>
		<g>
			<g>
				
					<linearGradient id="SVGID_39_" gradientUnits="userSpaceOnUse" x1="194.2537" y1="470.7373" x2="206.1226" y2="470.7373" gradientTransform="matrix(1 0 0 1 0 -262)">
					<stop  offset="0.2513" style="stop-color:#89BCCC"/>
					<stop  offset="1" style="stop-color:#FFFFFF"/>
				</linearGradient>
				<path fill="url(#SVGID_39_)" d="M194.37,207.91c1.29,0.17,2.46,0.75,3.64,1.26c0.64,0.27,1.85,0.99,2.51,0.45
					c0.39-0.32,0.58-0.86,0.93-1.22c0.35-0.37,0.88-0.59,1.35-0.31c0.25,0.14,0.44,0.37,0.68,0.52c0.74,0.48,1.67,0.38,2.51,0.3
					c0.16-0.01,0.16-0.26,0-0.25c-0.13,0.01-0.26,0.02-0.39,0.04c-0.16,0.01-0.16,0.26,0,0.25c0.07-0.01,0.13-0.01,0.2-0.02
					c0.16-0.01,0.16-0.26,0-0.25c-0.07,0.01-0.13,0.01-0.2,0.02c0,0.08,0,0.17,0,0.25c0.13-0.01,0.26-0.02,0.39-0.04
					c0-0.08,0-0.17,0-0.25c-0.39,0.04-0.79,0.08-1.19,0.06c-0.74-0.03-1.14-0.33-1.72-0.75c-0.77-0.56-1.54-0.14-2.05,0.55
					c-0.16,0.22-0.29,0.45-0.45,0.67c-0.3,0.39-0.78,0.36-1.21,0.22c-0.64-0.2-1.24-0.47-1.85-0.73c-1.02-0.45-2.04-0.87-3.15-1.02
					C194.21,207.64,194.22,207.89,194.37,207.91L194.37,207.91z"/>
			</g>
		</g>
		<g>
			<g>
				
					<linearGradient id="SVGID_40_" gradientUnits="userSpaceOnUse" x1="203.6059" y1="483.466" x2="210.2354" y2="483.466" gradientTransform="matrix(1 0 0 1 0 -262)">
					<stop  offset="0.2513" style="stop-color:#89BCCC"/>
					<stop  offset="1" style="stop-color:#FFFFFF"/>
				</linearGradient>
				<path fill="url(#SVGID_40_)" d="M203.76,214.24c2.09-0.87,3.67,1.15,4.53,2.76c0.34,0.62,0.62,1.38,1.24,1.78
					c0.25,0.16,0.54,0.13,0.23,0.61c-0.09,0.14-0.34,0.3-0.45,0.42c-0.27,0.28-0.51,0.59-0.71,0.93c-0.37,0.62-0.68,1.37-0.61,2.12
					c0.07,0.76,0.61,1.29,0.92,1.95c0.44,0.93,0.45,1.99,0.55,3c0.04,0.42-0.01,1.14,0.46,1.33c0.15,0.06,0.22-0.18,0.07-0.24
					c-0.36-0.14-0.31-1.38-0.34-1.72c-0.03-0.36-0.06-0.72-0.12-1.08c-0.14-0.86-0.45-1.5-0.9-2.24c-0.63-1.03-0.38-2.1,0.24-3.08
					c0.3-0.48,0.68-0.81,1.07-1.21c0.14-0.15,0.34-0.3,0.29-0.54c-0.05-0.22-0.24-0.27-0.41-0.37c-0.45-0.29-0.72-0.68-0.97-1.15
					c-0.4-0.74-0.77-1.5-1.3-2.17c-0.91-1.14-2.4-1.96-3.85-1.35C203.55,214.06,203.62,214.3,203.76,214.24L203.76,214.24z"/>
			</g>
		</g>
		<g>
			<g>
				
					<linearGradient id="SVGID_41_" gradientUnits="userSpaceOnUse" x1="209.9412" y1="485.3997" x2="219.6943" y2="485.3997" gradientTransform="matrix(1 0 0 1 0 -262)">
					<stop  offset="0.2513" style="stop-color:#89BCCC"/>
					<stop  offset="1" style="stop-color:#FFFFFF"/>
				</linearGradient>
				<path fill="url(#SVGID_41_)" d="M210.06,219.25c1.25,0.14,2.44,0.55,3.09,1.7c0.58,1.02,1.01,2.15,1.78,3.04
					c0.26,0.3,0.53,0.43,0.93,0.39c0.34-0.04,0.65-0.17,0.98,0.01c0.28,0.15,0.48,0.43,0.65,0.68c0.63,0.95,1.22,1.87,1.99,2.7
					c0.11,0.12,0.29-0.06,0.18-0.18c-0.48-0.51-0.92-1.05-1.31-1.63c-0.29-0.43-0.53-0.9-0.85-1.31c-0.23-0.3-0.54-0.56-0.92-0.61
					c-0.31-0.04-0.59,0.12-0.89,0.1c-0.45-0.03-0.68-0.48-0.9-0.81c-0.37-0.56-0.71-1.15-1.02-1.75c-0.25-0.49-0.47-1-0.85-1.41
					c-0.73-0.79-1.82-1.06-2.85-1.18C209.9,218.98,209.9,219.23,210.06,219.25L210.06,219.25z"/>
			</g>
		</g>
	</g>
</g>
</svg>
