<?xml version="1.0" encoding="utf-8"?>
<!-- Generator: Adobe Illustrator 24.3.0, SVG Export Plug-In . SVG Version: 6.00 Build 0)  -->
<svg version="1.0" id="Calque_1" xmlns="http://www.w3.org/2000/svg" xmlns:xlink="http://www.w3.org/1999/xlink" x="0px" y="0px"
	 viewBox="0 0 305.7 297" enable-background="new 0 0 305.7 297" xml:space="preserve">
<g id="Saint_Pierre_and_Miquelon">
	<g id="Calque_9">
		<g>
			<path fill="#7294A2" d="M144.35,264.91c-0.18,0-0.36,0-0.52-0.08c-1.12-0.57-1.32-1.96-1.25-3.14c0.02-0.3-0.09-0.6-0.3-0.83
				c-0.65-0.69-1.67-1.24-2.38-0.57c-0.2,0.19-0.47,0.28-0.74,0.28c-0.44,0-1.11-0.01-1.71-0.02c-0.76-0.01-1.3-0.74-1.08-1.46
				c1.05-3.52,2.69-7.61,5.25-10.07c0.14-0.13,0.32-0.21,0.5-0.28c0.75-0.26,1.57-1.02,2.08-1.69c0.18-0.23,0.26-0.51,0.22-0.8
				c-0.39-3.59-1.36-8.7-4.56-10.77c-0.13-0.08-0.27-0.15-0.43-0.17c-1.51-0.19-4.14,1.54-5.59,1.98c-0.09,0.03-0.17,0.04-0.27,0.05
				c-0.53,0.03-1.25,0.08-1.64,0.47c-0.15,0.16-0.37,0.23-0.58,0.26c-2.46,0.34-5.42,1.35-5.8,4.03c-0.05,0.34-0.28,0.64-0.59,0.79
				c-1.78,0.85-3.81,2.77-4.66,4.49c-0.1,0.21-0.27,0.36-0.46,0.49c-1.79,1.17-3.66,5.64-4.43,7.24c-1.51,3.37-4.95,8.47-8.07,10.67
				c-0.11,0.08-0.24,0.13-0.37,0.17c-1.62,0.44-1.78,1.26-1.27,2.53c0.16,0.4,0.55,0.65,0.99,0.69c0.39,0.04,0.74,0.19,0.93,0.56
				c0,0,1.18,0.01,1.92,0.01c0.39,0,0.75,0.21,0.96,0.54c1.18,1.89,0.21,3.28,2.68,5.61c0.22,0.21,0.53,0.33,0.84,0.31
				c1.82-0.16,2.77-3.14,4.08-4.62c0.31-0.35,0.79-0.46,1.23-0.33c0.71,0.22,2.41-0.23,3.29-0.4c0.36-0.07,0.66-0.3,0.81-0.63
				c0.12-0.25,0.24-0.54,0.38-0.83c0.46-0.93,1.82-0.81,2.11,0.18c1.83,6.24,3.79,0.58,7.36,3.91c2.71,0.88,0.63-5.14,3.76-4.29
				c0.76,0.34,0,2.12-0.06,2.65c0.54,1.34,1.99,0.28,2.81-0.33c0.14-0.1,0.29-0.17,0.46-0.2c1.11-0.22,2.98-0.77,3.66-1.57
				c0.85,0.2,1.67-0.2,1.97-1.06C146.1,267.6,145.8,264.94,144.35,264.91z"/>
			<path fill="#7294A2" d="M135.93,231.55c-0.02,0.81,4.16,0.5,5.32,0.52c0.19,0,0.38-0.02,0.54-0.12c0.97-0.55,1.47-1.55,1.16-2.68
				c-0.11-0.45-0.91-0.48-1.57-0.47c-0.32,0.01-0.66-0.06-0.88-0.29c-0.45-0.45-1.9-0.17-2.33-0.23c-0.09,0.48-0.74,0.56-1.3,0.59
				c-0.39,0.02-0.74,0.24-0.93,0.58C135.47,230.33,134.68,231.75,135.93,231.55z"/>
			<path fill="#7294A2" d="M106.42,208.5c-1.16-2.88,0.68-7.23-0.37-10.18c-0.14-0.38-0.48-0.61-0.86-0.73
				c-1.12-0.35-1.52-2.46-1.66-3.5c-0.01-0.06-0.01-0.11-0.01-0.17c0.01-0.84,0.49-2.56,0.22-3.63c-0.11-0.44-0.5-0.74-0.95-0.82
				c-1.37-0.25-2.83-1.09-4.07-1.05c-0.68-0.07-1.79-1.97-2.4-3.02c-0.2-0.34-0.55-0.55-0.94-0.55c-1.91-0.03-4.93-0.54-6.67-0.68
				c-0.27-0.02-0.55,0.04-0.75,0.21c-1.1,0.93-3.68-0.05-4.68-0.77c-1.43-0.1-2.91-1.53-3.73-2.77c-0.2-0.31-0.55-0.48-0.91-0.49
				c-0.66-0.01-1.51-0.02-1.64-0.53c-0.96,0.28-2.59-0.42-3.51-0.94c-0.14-0.08-0.26-0.18-0.35-0.31
				c-6.03-8.01-1.21-27.73-0.66-37.58c0.43-3.28,3.79-7.1,3.48-10.48c-0.01-0.15-0.07-0.29-0.14-0.43
				c-0.54-1.06-0.83-2.92-0.22-3.94c-0.5-4.28-3.38,1.79-4.45,3.54c-0.16,0.26-0.41,0.44-0.7,0.51
				c-12.31,2.96-7.72-6.47-13.72-13.99c0.53,0,1.58-0.33,2.08,0.06c0.2,0.15,0.42,0.26,0.67,0.25c0.63-0.04,1.59,0.06,2.15,0.11
				c0.18,0.02,0.35,0.08,0.5,0.18c0.28,0.18,0.74,0.48,1.04,0.68c0.19,0.12,0.4,0.18,0.62,0.18c0.58,0,1.35,0.01,1.54,0.58
				c0.48-0.08,2.56,0.3,3.14-0.22c0.17-0.16,0.36-0.3,0.59-0.31c1.71-0.02,4.07,0.66,5.89,0.58c0.28-0.01,0.56,0.06,0.79,0.23
				c0.64,0.47,1.54,0.08,1.94,1.3c0.74,0.23,1.97,0.91,2.27,1.69c0.56-0.05,1.05,0.28,1.17,0.85c-0.95,1.69-2.54,0.58-3.72,3.46
				c-1.92,0.36-0.97,1.74-0.14,2.74c0.19-0.62,0.91-0.65,1.51-0.63c0.27,0.01,0.53-0.08,0.74-0.25c0.6-0.48,1.63-0.98,1.51-1.75
				c0.46-0.29,1.17-0.72,1.52-1.25c0.17-0.26,0.43-0.43,0.74-0.49c0.55-0.11,1.06-0.4,1.23-1.01c0.57,0.12,1.23-0.31,1.65-0.76
				c0.16-0.17,0.36-0.28,0.58-0.33c0.62-0.13,1.86-0.39,2.49-0.52c0.26-0.05,0.51,0,0.75,0.11c3.06,1.37,4.32-1.34,4.5-3.83
				c0.01-0.18,0.16-11.33,0.08-11.49c-0.56-1.11,0.7,6.93-1.55,6.51c-0.63-0.12-1.19-0.5-1.18-1.14c0.11-4.68,2.87-3.54,3.43-8.07
				c0.03-0.21,1.16-7.37,1.31-7.53c0.97-1.1,2.36-5.12,3.06-6.67c0.12-0.26,0.14-0.55,0.05-0.82c-0.48-1.42-0.99-3.84-1.13-5.12
				c-0.22-2.1,0.7-6.91-0.54-8.86c-0.07-0.11-0.16-0.2-0.27-0.28c-2.67-2.06-6.56-4.81-10.04-4.74c-0.16,0-0.3-0.02-0.45-0.08
				c-6.85-3-18.05-5.91-21.49-12.97c-0.1-0.21-0.26-0.39-0.47-0.5c-0.76-0.38-1.52-1.86-2.36-1.61c-0.44-0.5-1.28-1.14-2.04-1.13
				c-0.27,0-0.53-0.14-0.72-0.33c-1.07-1.03-1.74-2.7-3.35-2.91c-1.46,0.3-2.81-1.35-3.76,0.17c-0.14,0.22-0.38,0.37-0.63,0.44
				c-0.45,0.12-1.14,0.3-1.62,0.42c-0.3,0.08-0.55,0.28-0.7,0.55c-0.38,0.69-1.15,0.71-1.93,0.54c-4.09-1.88-8.26-8.24-6.24-12.76
				c0.05-0.12,0.12-0.24,0.21-0.33c0.79-0.82,2.69-1.02,3.87-1.07c0.29-0.01,0.55-0.13,0.75-0.33c0.34-0.35,0.76-0.8,1.2-0.58
				c1.41-0.42,2.37-2.44,2.79-3.84c0.07-0.23,0.2-0.43,0.38-0.58c1.19-0.92,3.26-2.37,4.75-2.68c0.25-0.05,0.47-0.2,0.64-0.4
				c0.25-0.3,0.58-0.64,0.94-0.79c0.35-0.15,0.6-0.47,0.66-0.85c0.43-2.52,0.51-7.72-2.28-7.15c-2.79,0.69-1.27,2.46-3.92,2.57
				c-0.66,0.99-2.42,0.9-2.82,2.03c-0.12,0.32-0.39,0.58-0.72,0.68c-0.86,0.27-1.72,1.08-2.16,1.72c-0.31,0.11-0.9,0.04-1.3,0.2
				c-0.32,0.13-0.67,0.16-0.98,0c-2.5-1.24-3.95,1.85-6.23,2.5c-0.23,0.07-0.46,0.17-0.61,0.35c-1.57,1.93-1.64,5.48-2.33,7.83
				c-0.09,0.29-0.33,0.5-0.61,0.63c-3.04,1.34-1.92,5.95-0.48,8.51c0.19,0.35,0.55,0.56,0.95,0.57c0.57,0.02,1.19,0.1,1.6,0.43
				c0.11,0.09,0.19,0.2,0.25,0.32c1.46,2.74,1.41,9.48,2.06,12.45c1.1,4.21,2.5,9.97-0.25,13.74c-0.08,0.1-0.14,0.22-0.17,0.34
				c-0.96,3.22-0.62,7.64,0.69,10.75c0.07,0.16,0.1,0.32,0.08,0.49c-0.28,4.02,0.39,10.48,1.05,14.37c0.03,0.17,0.09,0.32,0.19,0.46
				c0.51,0.73,2.22,3.18,2.91,4.18c0.16,0.23,0.42,0.34,0.7,0.4c0.57,0.13,1.07,0.95,1.43,1.56c0.17,0.29,0.46,0.5,0.8,0.53
				c1.64,0.17,3.27,1.63,4.56,2.69c0.26,0.22,0.39,0.54,0.41,0.88c0.06,1.05,1.59,1.14,2.72,1.25c0.49,0.05,0.88,0.42,0.99,0.9
				c0.78,3.45,2.86,7.68,3.44,11.04c1.14,4.95,3.29,11.72,5.65,16.35c5.03,9.86,5.39,24.2,3.31,35c-0.02,0.09-0.04,0.17-0.07,0.25
				c-2,4.79-6.7,11.28-5.45,16.85c0.12,0.55-0.2,1.06-0.73,1.23c-1.78,0.59-2.93,3.21-2.76,5.03c0.03,0.31-0.03,0.61-0.21,0.85
				c-0.56,0.75-1.78,1.87-2.44,2.46c-0.19,0.18-0.44,0.26-0.7,0.29c-2.32,0.21-5.37,2.31-7.6,2.7c-0.25,0.04-0.48,0.15-0.65,0.33
				c-0.72,0.74-1.86,1.94-2.88,1.91c-0.34-0.01-0.67,0.1-0.9,0.35c-2.61,2.72-6.52,8.77-8.62,11.65c-0.15,0.2-0.23,0.44-0.22,0.69
				c0.08,1.93,0.62,5.28,0.45,7.08c-0.42,0.73-0.36,1.88,0.17,2.55c1.21,0.9,1.84-1.41,2.34-2.53c0.12-0.28,0.36-0.5,0.64-0.6
				c4-1.52,6.45-1.34,10.18,1.16c0.23,0.15,0.41,0.38,0.48,0.65c0.35,1.48-0.63,4.46,0.1,5.42c0.3,1.35-0.86,6.4,1.9,5.92
				c-4.49,0.49-3.43,4.06-2.23,7.1c0.32,0.8,1.4,1,1.94,0.31c0.13-0.17,0.26-0.37,0.39-0.56c0.2-0.31,0.54-0.51,0.92-0.52
				c1.02-0.03,2.59-0.03,3.57,0.27c0.38,0.11,0.67,0.42,0.77,0.8c1.21,4.65,0.73,10.48,6.01,3.82c1.41-1.86,2.87-4.3,5.49-3.9
				c0.33,0.05,0.67-0.08,0.91-0.31c2.64-2.56,5.97-7.3,9.35-8.76c0.17-0.08,0.32-0.19,0.44-0.34c1.73-2.31,4.2-4.2,6.38-6.09
				c0.04-0.03,0.07-0.06,0.12-0.09c1.76-1.24,4.78-1.84,6.63-3.01c0.13-0.08,0.23-0.19,0.32-0.32c1.09-1.57,3.64-3.86,5.23-5.02
				c0.17-0.12,0.36-0.18,0.56-0.2c3.36-0.31,6.25-3.74,7.52-6.59c1.95-1.35,2.05-6.18,2.14-8.42
				C106.51,208.8,106.48,208.65,106.42,208.5z M63.72,58.17c0.38-0.53,0-1.5,2.06,1.44s19.33,10.72,21.44,11.5
				c2.11,0.78,0.78,0.83,0,0.83s-5.56-1.33-6.67-1.61s-6.33-2.67-7.5-3.28s-3.69-0.44-3.69-0.44s-1.2,0.5-1.7,1.11
				s-1.11,0.83-1.89,1.06s-1.06-0.06-2.06-0.89s-0.33-2.39-0.28-3.11s-0.56-1.78-0.89-3.56C62.22,59.44,63.42,58.6,63.72,58.17z
				 M45.72,61.61c-1.11,1.83-1.06,2.83-1.22,4.5c-0.17,1.67-1.33,3-1.94,3.83s-0.89-0.67-0.83-1.72c0.06-1.06-1.22-5.78-1.56-7.89
				c-0.33-2.11-0.94-8.06-0.94-8.06c-0.1-0.95,2.78,0.67,3.67,0.83c0.89,0.17,2.39,0,3.67,0.11s0.94,0.33,1.83,0.56
				c0.89,0.22,0.44,0.94,0.5,1.5s-0.39,1.17-0.94,2.67S46.83,59.78,45.72,61.61z M47.11,75.19c-0.74,0.52-1.12-0.9-0.96-1.11
				C46.59,73.48,47.85,74.67,47.11,75.19z M49.78,72.52c-0.74-0.22-0.67,0.44-1.33,0.81c-0.67,0.37-0.96-1.48-0.81-2.51
				c0,0,1.49,1.77,1.41,1.18c-0.09-0.59,1.19-1.81,1.19-1.81c0.74-1,1.33,1,1.98,2.11C52.85,73.41,50.52,72.74,49.78,72.52z
				 M55.28,70.81c-1.35,0.07-3.72-0.74-2.91-1.48s3.33-1.93,3.93,0C56.3,69.33,56.63,70.74,55.28,70.81z M63.73,192.22
				c-1.31-1.33,2.12-2.07,2.12-2.07C65.47,191.93,65.04,193.56,63.73,192.22z M68.74,208.96c-0.74,1.48-1.33,0.44-2.22-0.89
				s1.48-1.78,1.48-1.78C69.66,205.23,69.48,207.48,68.74,208.96z"/>
			<path fill="#7294A2" d="M146.66,250.9c-1.78,1.32-4.01,5.17-1.29,6.21c0.6,0.23,1.29-0.08,1.49-0.7
				c0.16-0.46,0.22-0.99,0.22-1.43c0-0.22,0.06-0.43,0.18-0.61C148.18,253,149.45,250.57,146.66,250.9z"/>
			<path fill="#7294A2" d="M148.48,249.31c-1.13,1.81,1.08,1.68,2.24,1.61C151.91,249.05,149.66,249.21,148.48,249.31z"/>
			<path fill="#7294A2" d="M155.05,250.84c-0.02,0.04-0.04,0.08-0.06,0.11c-0.69,1.25,1.15,2.42,1.92,1.22
				c0.07-0.11,0.14-0.23,0.19-0.35C157.72,250.53,155.74,249.59,155.05,250.84z"/>
			<path fill="#7294A2" d="M176.14,193.48c-0.21-0.52-0.76-0.82-1.31-0.71c-0.98,0.19-2.02,0.77-2.47,1.56
				c-0.42,0.74,0.14,1.65,0.98,1.67c0.66,0.01,1.37-0.04,1.38-0.58C176.36,195.61,176.57,194.55,176.14,193.48z"/>
			<path fill="#7294A2" d="M172.67,201.12c-0.36-0.21-0.84-0.19-1.17,0.06c-0.31,0.24-0.83,0.31-1.17,0.33
				c-0.04,0.12-0.11,0.27-0.17,0.42c-0.3,0.72,0.2,1.53,0.98,1.57c0.45,0.02,0.89,0.13,0.97,0.5
				C174.53,204.53,174.2,202,172.67,201.12z"/>
		</g>
		<g>
			<g>
				
					<linearGradient id="SVGID_1_" gradientUnits="userSpaceOnUse" x1="37.8458" y1="353.392" x2="72.2746" y2="353.392" gradientTransform="matrix(1 0 0 1 0 -262)">
					<stop  offset="0" style="stop-color:#FFFFFF"/>
					<stop  offset="0.8436" style="stop-color:#91C0CF"/>
				</linearGradient>
				<path fill="url(#SVGID_1_)" d="M37.99,87.75c0.6,0.26,1.24,0.39,1.9,0.35c0.31-0.02,0.63-0.07,0.93-0.16
					c0.31-0.09,0.6-0.24,0.9-0.36c0.29-0.11,0.59-0.19,0.89-0.1c0.28,0.09,0.45,0.29,0.46,0.58c0.01,0.24,0.04,0.48,0.29,0.58
					c0.24,0.09,0.5,0,0.75,0.01c0.53,0.02,1.01,0.31,1.42,0.62c0.43,0.33,0.82,0.71,1.25,1.03c0.49,0.37,1.05,0.62,1.63,0.81
					c0.61,0.2,1.24,0.36,1.8,0.67c1.04,0.56,1.74,1.63,2.88,2.01c1.27,0.42,2.6-0.1,3.88-0.19c0.29-0.02,0.61-0.04,0.9,0.05
					c0.12,0.04,0.24,0.09,0.32,0.19c0.12,0.14,0.12,0.32,0.12,0.49c0,0.28,0.01,0.54,0.18,0.77c0.15,0.21,0.38,0.35,0.62,0.44
					c0.31,0.1,0.65,0.09,0.98,0.05c0.36-0.04,0.72-0.11,1.08-0.16c0.74-0.12,1.49-0.23,2.23-0.35c0.73-0.11,1.48-0.2,2.21-0.35
					c0.3-0.06,0.57-0.18,0.81-0.36c0.23-0.18,0.43-0.39,0.64-0.58c0.51-0.46,1.14-0.6,1.79-0.74c0.74-0.16,1.49-0.32,2.23-0.48
					c0.37-0.08,0.73-0.16,1.1-0.24c0.16-0.03,0.09-0.27-0.07-0.24c-0.74,0.16-1.49,0.32-2.23,0.48c-0.68,0.15-1.4,0.25-2.06,0.47
					c-0.28,0.09-0.54,0.23-0.77,0.41c-0.23,0.18-0.43,0.4-0.65,0.59c-0.25,0.22-0.51,0.36-0.84,0.43c-0.35,0.08-0.72,0.12-1.07,0.17
					c-0.73,0.11-1.47,0.23-2.2,0.34c-0.75,0.12-1.5,0.26-2.25,0.34c-0.59,0.07-1.46-0.03-1.5-0.79c-0.02-0.27,0.04-0.55-0.12-0.8
					c-0.13-0.2-0.36-0.32-0.59-0.37c-0.58-0.13-1.22-0.01-1.8,0.08c-0.66,0.11-1.32,0.25-1.99,0.23c-0.64-0.02-1.21-0.22-1.73-0.59
					c-0.48-0.34-0.9-0.77-1.36-1.13c-0.49-0.38-1.03-0.63-1.61-0.82c-0.61-0.2-1.24-0.36-1.81-0.65c-0.98-0.5-1.64-1.46-2.65-1.91
					c-0.21-0.09-0.43-0.16-0.66-0.18c-0.12-0.01-0.24-0.01-0.37,0c-0.13,0.01-0.3,0.05-0.43,0c-0.16-0.07-0.12-0.26-0.13-0.4
					c-0.01-0.12-0.03-0.24-0.08-0.34c-0.11-0.2-0.3-0.34-0.52-0.42c-0.59-0.21-1.16,0.14-1.69,0.35c-0.62,0.24-1.3,0.31-1.96,0.21
					c-0.33-0.05-0.65-0.15-0.95-0.28C37.97,87.47,37.84,87.69,37.99,87.75L37.99,87.75z"/>
			</g>
		</g>
		<g>
			<g>
				
					<linearGradient id="SVGID_2_" gradientUnits="userSpaceOnUse" x1="58.7859" y1="470.6137" x2="66.9311" y2="462.4685" gradientTransform="matrix(1 0 0 1 0 -262)">
					<stop  offset="0.1513" style="stop-color:#91C0CF"/>
					<stop  offset="0.8564" style="stop-color:#FFFFFF"/>
				</linearGradient>
				<path fill="url(#SVGID_2_)" d="M60.52,194.26c-0.54,0.93,0.53,1.73,1,2.41c0.13,0.19,0.25,0.41,0.27,0.65
					c0.02,0.25-0.08,0.48-0.16,0.72c-0.08,0.22-0.13,0.46-0.06,0.69c0.07,0.22,0.25,0.38,0.4,0.54c0.63,0.7,0.58,1.76,0.26,2.59
					c-0.38,0.99-1.17,1.77-1.81,2.59c-0.77,0.99-1.35,2.11-1.91,3.23c-0.03,0.05-0.02,0.11,0.02,0.15c0.57,0.6,1.42,0.16,2.07,0.01
					c0.31-0.07,0.7-0.11,0.99,0.07c0.35,0.22,0.26,0.65,0.21,0.99c-0.05,0.34-0.06,0.7,0.25,0.92c0.16,0.12,0.36,0.17,0.45,0.35
					c0.09,0.17,0.09,0.36,0.11,0.55c0.03,0.36,0.1,0.69,0.41,0.92c0.16,0.11,0.34,0.18,0.51,0.27c0.19,0.11,0.35,0.25,0.48,0.43
					c0.48,0.66,0.8,1.86,1.83,1.8c0.16-0.01,0.16-0.26,0-0.25c-0.91,0.05-1.2-1.12-1.63-1.7c-0.11-0.15-0.23-0.28-0.38-0.39
					c-0.16-0.12-0.34-0.19-0.52-0.28c-0.17-0.09-0.32-0.2-0.38-0.39c-0.06-0.17-0.07-0.36-0.08-0.54c-0.03-0.35-0.12-0.66-0.44-0.85
					c-0.17-0.1-0.34-0.18-0.38-0.4c-0.03-0.18,0.01-0.38,0.04-0.56c0.05-0.33,0.07-0.68-0.17-0.95c-0.21-0.23-0.53-0.3-0.83-0.31
					c-0.41,0-0.77,0.14-1.16,0.25s-0.89,0.2-1.2-0.13c0.01,0.05,0.01,0.1,0.02,0.15c0.51-1.01,1.02-2.03,1.69-2.95
					c0.62-0.85,1.39-1.59,1.87-2.53c0.4-0.78,0.58-1.75,0.26-2.59c-0.08-0.2-0.19-0.39-0.32-0.56c-0.15-0.19-0.39-0.35-0.43-0.6
					s0.09-0.5,0.16-0.72c0.07-0.23,0.11-0.45,0.06-0.69c-0.1-0.51-0.5-0.91-0.83-1.28c-0.34-0.38-0.76-0.99-0.46-1.5
					C60.81,194.25,60.6,194.12,60.52,194.26L60.52,194.26z"/>
			</g>
		</g>
		<g>
			<g>
				
					<linearGradient id="SVGID_3_" gradientUnits="userSpaceOnUse" x1="46.689" y1="482.5816" x2="60.6894" y2="482.5816" gradientTransform="matrix(1 0 0 1 0 -262)">
					<stop  offset="0.0333" style="stop-color:#E9F1F5"/>
					<stop  offset="0.8744" style="stop-color:#91C0CF"/>
				</linearGradient>
				<path fill="url(#SVGID_3_)" d="M47.14,228.89c0.04-0.01,0.12-0.01,0.16-0.03h0.02c0.01-0.01-0.06-0.17-0.06-0.19
					c0,0,0.02-0.02,0.01-0.01c-0.01,0.02-0.03-0.02,0.01,0.01c0.06,0.05,0.02,0.05,0.06-0.03c0.09-0.18,0.22-0.35,0.31-0.54
					c0.09-0.19,0.18-0.39,0.25-0.59c0.31-0.84,0.44-1.73,0.7-2.59c0.23-0.77,0.57-1.54,1.17-2.1c0.31-0.28,0.71-0.43,1.02-0.71
					c0.27-0.25,0.39-0.61,0.48-0.95c0.09-0.36,0.16-0.76,0.42-1.04c0.24-0.27,0.6-0.37,0.94-0.42c0.73-0.11,1.46-0.08,2.06-0.58
					c0.54-0.45,0.83-1.16,0.96-1.84c0.17-0.84,0.09-1.7,0.14-2.54c0.03-0.46,0.1-0.93,0.27-1.36c0.14-0.35,0.38-0.8,0.8-0.86
					c0.25-0.03,0.49,0.1,0.7,0.2c0.24,0.11,0.47,0.21,0.71,0.32c0.48,0.22,0.96,0.43,1.45,0.65c0.24,0.11,0.47,0.21,0.71,0.32
					c0.15,0.07,0.27-0.15,0.13-0.22c-1.05-0.47-2.09-0.98-3.15-1.42c-0.41-0.17-0.8-0.13-1.12,0.18c-0.32,0.32-0.5,0.78-0.6,1.21
					c-0.23,0.97-0.1,1.96-0.19,2.94c-0.07,0.78-0.31,1.64-0.91,2.18c-0.64,0.58-1.51,0.43-2.28,0.62c-0.37,0.09-0.71,0.28-0.92,0.61
					c-0.22,0.34-0.28,0.76-0.39,1.14c-0.06,0.19-0.13,0.37-0.24,0.53c-0.15,0.2-0.37,0.32-0.58,0.44c-0.38,0.22-0.7,0.51-0.96,0.85
					c-0.54,0.71-0.81,1.59-1.02,2.44c-0.24,0.97-0.43,1.98-0.96,2.84c-0.09,0.14-0.29,0.51,0.03,0.54c0.14,0.01,0.36-0.17,0.17-0.28
					c-0.09-0.05-0.24,0-0.33,0.02C46.92,228.68,46.99,228.92,47.14,228.89L47.14,228.89z"/>
			</g>
		</g>
		<g>
			<g>
				
					<linearGradient id="SVGID_4_" gradientUnits="userSpaceOnUse" x1="47.1091" y1="490.4771" x2="58.8766" y2="490.4771" gradientTransform="matrix(1 0 0 1 0 -262)">
					<stop  offset="0.0821" style="stop-color:#FFFFFF"/>
					<stop  offset="1" style="stop-color:#91C0CF"/>
				</linearGradient>
				<path fill="url(#SVGID_4_)" d="M47.11,228.89c1-0.01,1.91-0.44,2.79-0.88c0.46-0.23,0.91-0.47,1.39-0.66
					c0.52-0.2,1.05-0.31,1.61-0.37c0.57-0.06,1.14-0.09,1.7-0.19s1.08-0.32,1.6-0.53c0.5-0.2,1.06-0.39,1.6-0.23
					c0.13,0.04,0.26,0.1,0.33,0.23c0.07,0.12,0.09,0.28,0.1,0.42c0.03,0.26,0.02,0.53,0,0.79c-0.12,1.23-0.67,2.39-0.66,3.64
					c0,0.16,0.25,0.16,0.25,0c-0.01-1.16,0.47-2.23,0.63-3.37c0.04-0.27,0.06-0.55,0.05-0.82c-0.01-0.24-0.02-0.52-0.13-0.74
					c-0.23-0.48-0.91-0.5-1.36-0.42c-0.57,0.09-1.08,0.36-1.61,0.56c-0.57,0.21-1.16,0.29-1.76,0.34s-1.2,0.09-1.78,0.24
					c-0.5,0.13-0.97,0.34-1.44,0.56c-1.05,0.51-2.1,1.17-3.31,1.17C46.95,228.64,46.95,228.89,47.11,228.89L47.11,228.89z"/>
			</g>
		</g>
		<g>
			<g>
				
					<linearGradient id="SVGID_5_" gradientUnits="userSpaceOnUse" x1="47.9477" y1="491.6528" x2="76.4354" y2="491.6528" gradientTransform="matrix(1 0 0 1 0 -262)">
					<stop  offset="0.0923" style="stop-color:#FFFFFF"/>
					<stop  offset="1" style="stop-color:#91C0CF"/>
				</linearGradient>
				<path fill="url(#SVGID_5_)" d="M48.3,241.15c0.64-0.43,1.37,0.16,1.94,0.43c0.66,0.31,1.36,0.29,2.07,0.19
					c0.74-0.11,1.47-0.26,2.22-0.25c0.72,0.01,1.44,0.09,2.15,0.07c0.67-0.02,1.37-0.13,1.95-0.47c0.55-0.32,0.89-0.8,0.97-1.43
					c0.05-0.37,0.08-0.73,0.24-1.08c0.14-0.3,0.34-0.58,0.54-0.84s0.41-0.56,0.69-0.75c0.26-0.17,0.6-0.17,0.81-0.42
					c0.17-0.2,0.23-0.47,0.28-0.73c0.06-0.31,0.11-0.61,0.21-0.91c0.19-0.59,0.48-1.14,0.85-1.64c0.38-0.51,0.84-0.95,1.37-1.3
					c0.52-0.35,1.11-0.59,1.66-0.89c0.56-0.3,1.07-0.68,1.42-1.21c0.37-0.56,0.6-1.21,0.9-1.82c0.29-0.57,0.62-1.13,1.07-1.58
					c0.44-0.44,0.98-0.68,1.52-0.98c0.25-0.14,0.49-0.29,0.69-0.49c0.21-0.22,0.34-0.48,0.44-0.76c0.13-0.35,0.27-0.67,0.48-0.97
					c0.2-0.29,0.42-0.55,0.62-0.83c0.88-1.19,1.57-2.51,2.22-3.85c0.16-0.33,0.31-0.65,0.47-0.98c0.07-0.14-0.15-0.27-0.22-0.13
					c-0.63,1.33-1.27,2.67-2.06,3.91c-0.39,0.61-0.84,1.15-1.25,1.75c-0.2,0.28-0.34,0.58-0.46,0.91c-0.11,0.32-0.24,0.6-0.49,0.84
					c-0.43,0.4-1.02,0.58-1.51,0.89c-0.52,0.33-0.93,0.79-1.26,1.3c-0.35,0.54-0.62,1.12-0.88,1.71c-0.28,0.62-0.58,1.21-1.13,1.64
					c-0.5,0.4-1.1,0.65-1.67,0.94c-0.56,0.28-1.07,0.63-1.52,1.06c-0.87,0.85-1.48,1.97-1.68,3.17c-0.04,0.26-0.07,0.56-0.24,0.78
					c-0.1,0.14-0.25,0.18-0.41,0.23s-0.3,0.11-0.43,0.21c-0.26,0.2-0.46,0.48-0.67,0.73c-0.2,0.25-0.39,0.51-0.54,0.8
					c-0.15,0.3-0.24,0.6-0.28,0.93c-0.04,0.35-0.06,0.7-0.26,1.01c-0.36,0.55-1.05,0.81-1.67,0.92c-0.71,0.13-1.44,0.07-2.15,0.04
					c-0.73-0.04-1.44-0.04-2.17,0.08c-0.71,0.12-1.45,0.3-2.18,0.18c-0.71-0.12-1.25-0.68-1.96-0.78c-0.29-0.04-0.59,0-0.84,0.16
					C48.04,241.03,48.17,241.24,48.3,241.15L48.3,241.15z"/>
			</g>
		</g>
		<g>
			<g>
				
					<linearGradient id="SVGID_6_" gradientUnits="userSpaceOnUse" x1="63.2279" y1="502.043" x2="77.8101" y2="502.043" gradientTransform="matrix(1 0 0 1 0 -262)">
					<stop  offset="0.0923" style="stop-color:#FFFFFF"/>
					<stop  offset="1" style="stop-color:#91C0CF"/>
				</linearGradient>
				<path fill="url(#SVGID_6_)" d="M63.92,249.5c0,0.01-0.01,0.02-0.01,0.03c0.06-0.01,0.07-0.02,0.04-0.04
					c-0.01-0.02-0.05-0.06-0.06-0.09c-0.03-0.06-0.03-0.12-0.03-0.19c0.02-0.2,0.04-0.39,0.06-0.59c0.04-0.38,0.1-0.76,0.18-1.14
					c0.15-0.73,0.4-1.46,0.87-2.05c0.24-0.31,0.55-0.55,0.84-0.82c0.28-0.26,0.52-0.55,0.69-0.9c0.3-0.65,0.39-1.42,0.95-1.91
					c0.9-0.81,2.37-0.75,3.07-1.82c0.36-0.56,0.35-1.35,0.85-1.82c0.28-0.26,0.68-0.33,0.99-0.54c0.28-0.19,0.46-0.46,0.58-0.78
					c0.3-0.81,0.08-1.68,0.29-2.5c0.1-0.39,0.31-0.73,0.69-0.9c0.31-0.14,0.68-0.15,0.92,0.12c0.07,0.08,0.18,0.03,0.21-0.06
					c0.15-0.38,0.2-0.77,0.26-1.17c0.06-0.38,0.12-0.78,0.34-1.11c0.18-0.27,0.45-0.52,0.77-0.6c0.4-0.1,0.68,0.16,0.91,0.46
					c0.1,0.13,0.31,0,0.22-0.13c-0.25-0.32-0.54-0.63-0.98-0.61c-0.37,0.02-0.71,0.23-0.95,0.5c-0.64,0.71-0.48,1.74-0.8,2.59
					c0.07-0.02,0.14-0.04,0.21-0.06c-0.45-0.5-1.26-0.28-1.66,0.17c-0.57,0.63-0.44,1.58-0.48,2.36c-0.02,0.37-0.08,0.75-0.27,1.08
					c-0.21,0.38-0.56,0.52-0.94,0.7c-0.35,0.16-0.61,0.39-0.78,0.74c-0.16,0.33-0.25,0.69-0.38,1.03c-0.12,0.32-0.3,0.59-0.57,0.8
					c-0.26,0.21-0.56,0.35-0.87,0.47c-0.61,0.25-1.26,0.44-1.77,0.88c-0.6,0.52-0.7,1.3-1.02,1.99c-0.18,0.4-0.47,0.7-0.8,0.99
					c-0.31,0.27-0.61,0.55-0.84,0.9c-0.5,0.73-0.73,1.61-0.87,2.47c-0.03,0.22-0.06,0.45-0.09,0.67c-0.02,0.22-0.07,0.45-0.07,0.67
					c0,0.15,0.09,0.32,0.22,0.41c0.12,0.08,0.26,0.06,0.32-0.08C64.2,249.48,63.99,249.35,63.92,249.5L63.92,249.5z"/>
			</g>
		</g>
		<g>
			<g>
				
					<linearGradient id="SVGID_7_" gradientUnits="userSpaceOnUse" x1="88.1293" y1="486.0232" x2="93.3676" y2="486.0232" gradientTransform="matrix(1 0 0 1 0 -262)">
					<stop  offset="0.1513" style="stop-color:#91C0CF"/>
					<stop  offset="0.8564" style="stop-color:#FFFFFF"/>
				</linearGradient>
				<path fill="url(#SVGID_7_)" d="M93.01,227.72c-0.39-1.23-0.81-2.46-1.23-3.68c-0.21-0.61-0.43-1.21-0.65-1.81
					c-0.1-0.28-0.2-0.56-0.32-0.84c-0.08-0.2-0.2-0.4-0.39-0.51s-0.42-0.07-0.57,0.09c-0.15,0.15-0.18,0.35-0.04,0.51
					c0.03-0.07,0.06-0.14,0.09-0.21c-0.57,0.06-1.12-0.4-1.13-0.98c0-0.16-0.25-0.16-0.25,0c0.02,0.7,0.68,1.3,1.38,1.23
					c0.11-0.01,0.16-0.13,0.09-0.21c-0.1-0.12,0.17-0.26,0.27-0.23c0.19,0.06,0.29,0.3,0.36,0.47c0.19,0.48,0.36,0.98,0.54,1.47
					c0.36,1.01,0.72,2.02,1.06,3.03c0.19,0.58,0.38,1.16,0.57,1.74C92.82,227.94,93.06,227.88,93.01,227.72L93.01,227.72z"/>
			</g>
		</g>
		<g>
			<g>
				
					<linearGradient id="SVGID_8_" gradientUnits="userSpaceOnUse" x1="94.0748" y1="457.7516" x2="98.532" y2="457.7516" gradientTransform="matrix(1 0 0 1 0 -262)">
					<stop  offset="0.1513" style="stop-color:#91C0CF"/>
					<stop  offset="0.8564" style="stop-color:#FFFFFF"/>
				</linearGradient>
				<path fill="url(#SVGID_8_)" d="M97.58,186.75c0.13,0.29,0.25,0.6,0.3,0.92c0.05,0.33,0,0.65-0.08,0.98
					c-0.16,0.65-0.26,1.29-0.32,1.95c-0.12,1.36-0.21,2.72-0.31,4.09c-0.05,0.69-0.1,1.38-0.16,2.07c-0.02,0.33-0.05,0.67-0.08,1
					s-0.13,0.59-0.36,0.83c-0.38,0.4-0.74,0.79-1.03,1.25c-0.29,0.45-0.52,0.94-0.7,1.45c-0.4,1.14-0.5,2.37-0.27,3.56
					c0.03,0.16,0.27,0.09,0.24-0.07c-0.21-1.08-0.12-2.2,0.21-3.24c0.17-0.53,0.4-1.04,0.7-1.51c0.29-0.47,0.65-0.86,1.03-1.26
					c0.2-0.21,0.35-0.44,0.4-0.73c0.06-0.32,0.06-0.64,0.09-0.96c0.05-0.69,0.1-1.38,0.16-2.07c0.1-1.37,0.2-2.75,0.31-4.12
					c0.03-0.38,0.07-0.76,0.13-1.14c0.06-0.37,0.15-0.74,0.23-1.1c0.08-0.34,0.12-0.68,0.06-1.02c-0.06-0.34-0.19-0.66-0.33-0.98
					C97.73,186.47,97.51,186.6,97.58,186.75L97.58,186.75z"/>
			</g>
		</g>
		<g>
			<g>
				
					<linearGradient id="SVGID_9_" gradientUnits="userSpaceOnUse" x1="74.2761" y1="465.3579" x2="91.4276" y2="465.3579" gradientTransform="matrix(1 0 0 1 0 -262)">
					<stop  offset="0.1436" style="stop-color:#FFFFFF"/>
					<stop  offset="1" style="stop-color:#91C0CF"/>
				</linearGradient>
				<path fill="url(#SVGID_9_)" d="M76.83,179.63c-0.65,1.08-1.36,2.37-0.94,3.66c0.18,0.57,0.55,1.09,0.65,1.68
					c0.05,0.33-0.03,0.61-0.18,0.91c-0.12,0.26-0.22,0.51-0.18,0.8c0.06,0.45,0.4,0.81,0.7,1.12c0.37,0.39,0.65,0.76,0.85,1.26
					c0.16,0.41,0.29,0.85,0.6,1.18c0.35,0.37,0.84,0.4,1.3,0.27c0.3-0.09,0.58-0.23,0.89-0.29s0.63-0.02,0.93,0.1
					c0.62,0.25,1.07,0.76,1.41,1.32c0.35,0.57,0.62,1.18,1,1.73c0.37,0.55,0.84,1.02,1.32,1.47c0.53,0.5,1.07,1,1.61,1.49
					c0.48,0.44,1.15,0.92,1.16,1.63c0,0.57-0.28,1.12-0.16,1.68c0.09,0.41,0.39,0.7,0.76,0.86c0.45,0.19,0.95,0.23,1.41,0.41
					c0.22,0.09,0.44,0.21,0.58,0.41c0.24,0.33,0.26,0.82,0.28,1.21c0.01,0.4-0.01,0.79-0.09,1.18c-0.07,0.36-0.19,0.7-0.28,1.05
					c-0.14,0.51-0.22,1.11,0.2,1.51c0.06-0.06,0.12-0.12,0.18-0.18c-0.7-0.56-1.59,3.12-1.65,3.54c-0.02,0.14-0.04,0.28-0.03,0.41
					c0.01,0.21,0.11,0.39,0.18,0.58c0.14,0.37,0.15,0.73-0.05,1.08c-0.18,0.3-0.45,0.53-0.76,0.7c-0.7,0.38-1.54,0.41-2.28,0.72
					c-0.67,0.29-1.24,0.76-1.75,1.28c-0.65,0.66-1.25,1.37-1.87,2.06c-0.69,0.77-1.38,1.54-2.07,2.31
					c-0.07,0.07-0.03,0.17,0.06,0.21c1.15,0.45,1.39,1.95,0.87,2.96c-0.64,1.24-2,1.82-3.28,2.16c-0.67,0.18-1.36,0.28-2.02,0.49
					c-0.5,0.16-1.02,0.4-1.32,0.85c-0.27,0.4-0.23,0.88,0.04,1.27c0.22,0.31,0.63,0.56,1.02,0.37c0.41-0.2,0.46-0.71,0.49-1.11
					c0.03-0.37-0.05-1.1,0.36-1.28c0.15-0.07,0.02-0.28-0.13-0.22c-0.33,0.15-0.4,0.55-0.44,0.87c-0.04,0.41,0,0.88-0.16,1.26
					c-0.24,0.55-0.83,0.2-1.02-0.19c-0.29-0.58,0.14-1.08,0.64-1.35c0.55-0.3,1.19-0.39,1.79-0.53c0.7-0.16,1.41-0.33,2.07-0.61
					c1.05-0.45,2.06-1.24,2.39-2.38c0.32-1.07-0.15-2.38-1.23-2.8c0.02,0.07,0.04,0.14,0.06,0.21c1.14-1.28,2.28-2.56,3.43-3.83
					c0.48-0.53,0.99-1.06,1.6-1.45c0.68-0.43,1.44-0.55,2.19-0.77c0.6-0.18,1.18-0.48,1.52-1.03c0.15-0.24,0.24-0.53,0.21-0.82
					c-0.03-0.33-0.21-0.59-0.28-0.9c-0.06-0.25,0.02-0.55,0.07-0.79c0.08-0.41,0.19-0.82,0.32-1.22c0.14-0.45,0.29-0.89,0.5-1.31
					c0.07-0.15,0.15-0.3,0.25-0.43c0.03-0.04,0.06-0.08,0.1-0.1c0.02-0.02,0.03,0,0.01-0.02c0.12,0.1,0.3-0.06,0.18-0.18
					c-0.44-0.41-0.19-1.1-0.04-1.59c0.19-0.64,0.3-1.3,0.28-1.97c-0.02-0.52-0.06-1.14-0.46-1.52c-0.3-0.29-0.71-0.4-1.1-0.5
					s-0.84-0.16-1.17-0.43c-0.49-0.4-0.3-1.03-0.2-1.56c0.1-0.55,0.08-1.04-0.28-1.5c-0.4-0.52-0.95-0.94-1.43-1.38
					c-1.01-0.94-2.05-1.83-2.73-3.05c-0.57-1.02-1.13-2.22-2.35-2.58c-0.59-0.17-1.08,0.01-1.63,0.2c-0.28,0.1-0.58,0.18-0.87,0.07
					c-0.25-0.09-0.41-0.29-0.54-0.51c-0.22-0.4-0.33-0.85-0.54-1.26c-0.23-0.44-0.6-0.77-0.93-1.13c-0.18-0.2-0.36-0.42-0.41-0.69
					c-0.07-0.35,0.13-0.63,0.26-0.94c0.25-0.62,0.01-1.22-0.25-1.79c-0.14-0.32-0.3-0.63-0.37-0.97c-0.08-0.38-0.07-0.77,0.02-1.14
					c0.17-0.76,0.57-1.45,0.96-2.11C77.13,179.62,76.91,179.49,76.83,179.63L76.83,179.63z"/>
			</g>
		</g>
	</g>
</g>
</svg>
