<svg id="iles_eparses" data-name="iles eparses" xmlns="http://www.w3.org/2000/svg" viewBox="0 0 305.7 297">
    <defs>
        <style>.cls-1,.cls-3,.cls-5{fill:#276F87;;}.cls-10,.cls-11,.cls-12,.cls-13,.cls-2,.cls-7,.cls-8,.cls-9{fill:none;}.cls-10,.cls-11,.cls-12,.cls-2,.cls-7,.cls-8,.cls-9{stroke:#7294a2;stroke-linecap:round;stroke-linejoin:round;stroke-width:0.5px;}.cls-2{stroke-dasharray:1.06 2.12;}.cls-3,.cls-5{font-size:6px;font-family:Poppins-LightItalic, Poppins;font-style:italic;}.cls-14,.cls-3,.cls-5{font-weight:300;}.cls-3,.cls-6{letter-spacing:0.05em;}.cls-4,.cls-5{letter-spacing:0.05em;}.cls-7{stroke-dasharray:1 2;}.cls-8{stroke-dasharray:1 2;}.cls-9{stroke-dasharray:1 1.99;}.cls-10{stroke-dasharray:1 2;}.cls-11{stroke-dasharray:1 1.99;}.cls-12{stroke-dasharray:1.01 2.01;}.cls-13{stroke:#a6c3cc;stroke-miterlimit:10;stroke-width:0.25px;}.cls-14{font-size:5px;fill:#fff;font-family:Poppins-Light, Poppins;letter-spacing:0.05em;}</style>
        <linearGradient x1="38.6428275%" y1="109.516801%" x2="61.3571725%" y2="-9.51680135%" id="linearGradient-1">
            <stop stop-color="#5B95B6" offset="0%"></stop>
            <stop stop-color="#88DEE5" offset="100%"></stop>
        </linearGradient>
    </defs>
    <path class="cls-1" d="M146,186.42a12.68,12.68,0,0,1-3.26-4.74c-.89-2.67-1.91-3.26-1.31-5.34s-.86-4.08-.17-4.66c1.91-1.61.83-1.85,1.6-3s-.42-2.67,1.36-3.55,3.24-1,3.54-2.52-1.46-1,.31-3.11,1.56-4.15,3.6-6.52,3-3.52,2.76-4.71-1.61-2.6-.73-3.83,1.32-1.46.39-2.94a11.75,11.75,0,0,1-2.42-6.6c-.34-3.85-1.76-3.2-2.35-5.57s-.23-4.26-.23-6.33-3.08-2.32-1.61-4.1a70.78,70.78,0,0,0,4.19-6.52c1.15-1.77,2.63-4.14,2.33-5.33s-1.78-1.78-.59-3,3.85-.89,5.33-1.19a14.33,14.33,0,0,0,4.65-2.37c.68-.59,1.28.3,3,0s-.29-2.37,2.67-2.37,4.48-1.48,5.37,0c.32.54-.43,2,0,2.34a1.25,1.25,0,0,0,1.61-1.84c-1.12-1.71-.38-2,1.36-3.76s4.4-3.72,5.59-2.24c-.5,2,.55,3.67,2.37,1.06.41-.56-2-1.54-1.43-2.72s4.39-7.65,4.69-5.87-1.78,4.64-.3,4.64,2.07-5.07,3.56-5,2.33,2.52,2.72,1.06c.72-2.72-2.95-.72-3.33-2.67-.21-1.06,1.19-4.32,2.77-3,3.24,2.69.15-2.36-.55-4.94-.64-2.36,1.22-4.22,1.83-3.45,1,1.22,3.11,4.88,3.14,2.73,0-1.6-.42-2.17,2.19-4.5,1.66-1.49,1.6,2.82,3.37.53s.06.34.36-2.92c2.89-5.84-.06-5.3.83-7.67s3.33-5,5.11-2.56c.49.68,1.8.35,2.3.84.74.73-.16,3.25,1.42,3.66,3,.78,5.65,9.91,6,15s.22,7.07,1.11,11.22,3.37,2.41,2.48,5.67-1.93,7.7-3.7,7.11-3.39-6.42-3.39-6.42-2.69-1-2.39,1.68a22.23,22.23,0,0,1,0,6.22c-.3,2.07.89.3,1.48,2.37a5.18,5.18,0,0,1-.81,5c-1.19,1.78-3,2.37-3.63,5.92s1.18,6.52,0,10.67,0,0-4.15,10.07-10.67,32.89-11,34.08-2.66,6.52-2.66,6.52-3,11.85-3.82,16.63c-.38,2.35-1.66,1.81-2.55,5.66s-1.41,7.15-5.26,9.23-3.19.48-5.26,1.07-9.85,4.74-11.93,4.74-5.15-2.69-6.42-2.81c-3.84-.36-5.1-1.59-6.5-3.12s-.85-2.33-1.85-4.44c-1.63-3.43-2.34-2.07-2.63-3.85s-1.93-4.71-1-7.37S146,186.42,146,186.42Z" />
    <path class="cls-1" d="M197.91,67.9s-1.78.67-1.19,1.48,1.11,1.26,2,.67S198.57,68.34,197.91,67.9Z" />
    <path class="cls-1" d="M207.76,54.42c.07-.26,1-1.63,2-1.26s2.44,1,1.78,1.78S207.46,55.53,207.76,54.42Z" />
    <circle class="cls-2" cx="134.44" cy="118.44" r="3.56" />
    <circle class="cls-2" cx="110.17" cy="182" r="3.56" />
    <circle class="cls-2" cx="102.24" cy="172.05" r="3.56" />
    <circle class="cls-2" cx="188.4" cy="53.1" r="3.56" />
    <circle class="cls-2" cx="259.63" cy="105.26" r="3.56" />
    <text class="cls-3" transform="translate(244.45 111.71)">
        île
        <tspan class="cls-4">
            <tspan x="-10.29" y="6">Tromelin</tspan>
        </tspan>
    </text>
    <text class="cls-3" transform="translate(184.86 37.81)">
        îles
        <tspan x="-13.23" y="6">Glorieuses</tspan>
    </text>
    <text class="cls-3" transform="translate(117.93 167.64)">
        île
        <tspan class="cls-4">
            <tspan x="-7.68" y="7.2">Europa</tspan>
        </tspan>
    </text>
    <text class="cls-3" transform="translate(71.27 158.3)">
        île Bassas
        <tspan x="2.6" y="6">da India</tspan>
    </text>
    <text class="cls-5" transform="translate(121.95 101.7)">
        île Juan
        <tspan class="cls-6">
            <tspan x="-0.83" y="6">de Nova</tspan>
        </tspan>
    </text>
    <circle class="cls-7" cx="247.99" cy="47.86" r="29.55" transform="translate(160.54 284.81) rotate(-80.67)" />
    <path class="cls-1" d="M230.89,30.87s2.59,2.43,2.59,4.69-1.62,4.54,0,6.64,8.08,10,8.41,12,9.88,8.74,11.82,11.33,4.37,4.21,6.63,3.4,4.7-1.94,6-5.34,2.59-3.56,2.91-6.31-1-7.32-2.59-9-3.07-4.15-7.93-7.29-11.49-7-14.08-8-6-1.45-7.76-2.1a5.45,5.45,0,0,1-2.59-1.46A2.19,2.19,0,0,0,230.89,30.87Z" />
    <path class="cls-1" d="M257.56,103.34a.89.89,0,0,1,.28.51c0,.24-.17.48,0,.71a8.08,8.08,0,0,1,.91,1.29c0,.21,1.06.94,1.27,1.22s.47.45.71.36a1,1,0,0,0,.65-.57c.14-.37.27-.39.31-.68a1.55,1.55,0,0,0-.28-1,3.35,3.35,0,0,0-.85-.78,11,11,0,0,0-1.52-.86c-.27-.11-.64-.16-.83-.23a.56.56,0,0,1-.28-.16A.25.25,0,0,0,257.56,103.34Z" />
    <line class="cls-8" x1="163.96" y1="46.7" x2="185.03" y2="51.66" />
    <line class="cls-8" x1="111.37" y1="114.98" x2="129.93" y2="117.67" />
    <line class="cls-8" x1="102.24" y1="176.63" x2="102.24" y2="199.8" />
    <line class="cls-8" x1="113.73" y1="186.16" x2="140.68" y2="228.8" />
    <circle class="cls-9" cx="82.17" cy="114.89" r="29.05" />
    <circle class="cls-10" cx="102.24" cy="226.2" r="25.37" />
    <circle class="cls-11" cx="162.45" cy="251.58" r="30.95" transform="translate(-50.9 41.43) rotate(-12.58)" />
    <circle class="cls-12" cx="131.52" cy="37.81" r="33.66" transform="translate(39.21 138.84) rotate(-63.62)" />
    <circle class="cls-7" cx="247.99" cy="47.86" r="29.55" />
    <path class="cls-1" d="M112.9,47.38s-2.3.94-2.84,2.3-1.08,1.62-1.35,3.11-.95,1.25,0,1.84,2.3-.32,3.25,0a16.53,16.53,0,0,0,3.92.59c.94,0,1.35.31,1.49-.59s-.27-.35-.27-1.84.29-2.44-.67-2.73c-1.38-.41-1.36-.38-1.77-.92S114.45,46.51,112.9,47.38Z" />
    <path class="cls-1" d="M142.66,26.14s-.27,1.49.54,1.9.41-1.76,1-1.9S145,24.52,142.66,26.14Z" />
    <circle class="cls-1" cx="144" cy="30.47" r="0.22" />
    <circle class="cls-1" cx="144.22" cy="31.69" r="0.22" />
    <circle class="cls-1" cx="128.32" cy="48.66" r="0.22" />
    <circle class="cls-1" cx="110.05" cy="56.17" r="0.22" />
    <path class="cls-13" d="M119.74,57.74s1.52-1.07,4.42-3.05l2.9-2s1.52.14,1.11-1.52-2.77-2.49-1-3.18,2.49-2.35,3.46-2.07,1.52,2.9,4,2.35,1.62-1.86,4.27-2.38a9.94,9.94,0,0,0,4.57-2.07c1.25-.81,2.73-.39,3.58-2.47s-1.23-4.7,1.26-5.8,4.12-1.25,5.8-1.94,4.85-2.21,5.68-4.56,1.79-2.76,1-3.59-.83-1-2.62-1.25-2.91.28-4.7,0-2.35.69-4.84.69-2.21-1.52-4.15-.69-3.18,2.35-3,4.15-.28,3.59-1.66,4.15-4.56,1.79-5.94,3-4.15,2.44-5.26,5.3-2.62,6-3.31,6.31-3.14,1.38-4,1.11-4,.55-4.59-2.35a12,12,0,0,1,0-5.07,6,6,0,0,0,0-1.85,1.92,1.92,0,0,0,.83-2.07c-.41-1.24-.14-2.07-1.11-.14s-1.51,4.54-2.76,6.63a35.33,35.33,0,0,1-4,5.68,28.14,28.14,0,0,0-2.9,4.42" />
    <line class="cls-8" x1="255.47" y1="77.54" x2="258.5" y2="101.59" />
    <path class="cls-1" d="M68.8,112.39a15.38,15.38,0,0,0,5.37,1,32,32,0,0,1,7.92.79c2.41.54,3.89,1.34,5,1.61s5.24,2.42,5.91,3.36-1.75-.54-2.95,0-3.89-.17-4.7.32,0,.48-1.74,1.15-2.69,2-4.16,1.08-1.35-1.75-2.69-2L74,119.2s-.14-2.4-.14-2.75S68.67,113.37,68.8,112.39Z" />
    <path class="cls-1" d="M132.1,117.51a3,3,0,0,0,1,.2,6.27,6.27,0,0,1,1.53.16,9.67,9.67,0,0,1,1,.31,3.76,3.76,0,0,1,1.14.64c.13.19-.33-.1-.57,0s-.75,0-.9.07,0,.09-.34.22-.52.39-.8.21-.26-.34-.52-.39l-.52-.11s0-.46,0-.53S132.08,117.7,132.1,117.51Z" />
    <path class="cls-13" d="M99,213.26s-7,2.84-8.89,4.58-3.4,2.29-3.58,4.49,0,3.76,0,6a11.31,11.31,0,0,0,2,7.16c1.74,2.29,2.93,6.23,6.6,7.24a12.64,12.64,0,0,0,7.33,0c1.38-.37,3.7-.37,5.34-1.84s2.45-2.38,4.47-4.3,2.66-1.47,3.3-3.58,1-2.11.37-3.21-1.19-.64-1.19-1.83.1-1.1-.41-1.93-6-4.67-6-5.59,1.68-1.83,2.4-1.92,1.72.36,2.78,2.56,4.62,6.92,4.8,6.81,2.58-.48,2.76.89.46,1.74-.18,1.93-1-.55-1.19.46.64.64-.74,1.46-2.56.65-3.3,3.12a12.77,12.77,0,0,1-7.86,8.16c-2.13.92-4.88,3.12-7.54,2.75s-5.87-.83-7.52-2.38-3.48-4.86-5.59-7.06-2.2-2-2.66-4-1.46-6.51-1.19-8.16-.09-1.19,1.19-3,1.75-2.84,2.85-4.4a24.25,24.25,0,0,1,3.57-4.4,8,8,0,0,1,4.68-1.74c1.46-.1,2.2-1.29,3.48-.65S101.06,211.61,99,213.26Z" />
    <path class="cls-13" d="M102,210.88s3,2.1,4.35,3.11,2.76,1.83,3,.64-.5-1.47,0-2.2,1.24-.74.87-1.74.74-.74-.87-.92-1-.37-2.06-.46-1.65.73-2,.46S100.78,209.23,102,210.88Z" />
    <path class="cls-13" d="M101.9,170.49a4.77,4.77,0,0,0-.94.49c-.21.18-.36.24-.38.47s0,.4,0,.64a1.24,1.24,0,0,0,.21.76c.19.24.31.65.7.76a2.14,2.14,0,0,0,1.34-.19l.47-.46c.21-.2.28-.15.35-.38s.1-.22,0-.33-.13-.07-.13-.2,0-.11,0-.2-.64-.5-.64-.59.18-.2.26-.21.18,0,.29.28a3.35,3.35,0,0,0,.51.71s.27,0,.29.1,0,.18,0,.2-.11-.06-.13,0,.07.07-.07.16-.28.06-.35.32a1.41,1.41,0,0,1-.36.58,1.51,1.51,0,0,1-.47.29c-.23.09-.52.32-.8.29a1.49,1.49,0,0,1-.79-.26c-.18-.16-.37-.51-.59-.74s-.24-.21-.28-.43a3.39,3.39,0,0,1-.13-.86c0-.17,0-.12.13-.32s.18-.3.3-.46a2.48,2.48,0,0,1,.37-.47.9.9,0,0,1,.5-.18c.15,0,.23-.14.36-.07S102.12,170.32,101.9,170.49Z" />
    <path class="cls-13" d="M102.21,170.24l.46.33c.15.11.29.19.32.07s0-.16,0-.23.13-.08.09-.19.08-.08-.09-.1-.11,0-.22,0-.17.07-.21,0S102.09,170.07,102.21,170.24Z" />
    <path class="cls-13" d="M105.43,115.4c.4-.27,1.45-1.63,2.15-.54s2.14.74,1.74,1.91-.94.64-2,1.71-1.14.81.1,1.21,2.58,0,.84,1.48a63.89,63.89,0,0,1-6.71,5.37,28.56,28.56,0,0,1-9.91,3.22c-3.91.4-7.14,1-9.55.79s-13.69-4.93-16.24-7.63a93.19,93.19,0,0,1-7.92-10.17c-.67-1.24-1.2-.47-.93-3.47s.26-4.75.8-5,.13,1.34,1.34.81,1.34-2.42,2.15-3.09.94-.32,1.61.64c0,0,2.68,2.58,4,3.92s2.14,2-.14,1.67-4-2.1-5.9,0-2.28,2.89-1.08,3.3,3-.6,2.69,1.24-.14,3.55.67,3.37" />
    <path class="cls-13" d="M69.06,111.64s3.63,1.34,4.3,0-.84-1.58-2.57-1.86-4.2-2.64-1.09-2.81,3.79-1,4.73-.92,1.21.49,1.21,1.57,1.74.23,1.74,1.52-.4,2.23.41,2.37" />
    <path class="cls-13" d="M80.47,109.14s.09,3.83-.63,3.1a3.88,3.88,0,0,1-1.38-3.1c0-1.66.4-2.87,1-2.6s2.62.54,2,0-3.27-1.74-1.57-1.21,2.77.22,3.31.72,1.08,1.94.81,2.16-.81-.09-.81,1.07,0,3.55-.67,3A18.75,18.75,0,0,1,80.47,109.14Z" />
    <path class="cls-13" d="M85.7,109.28s-1.6-.46-1.67,1.42-.27,3.22.84,2.55a3.22,3.22,0,0,1,2.71-.5c.67.23-.27.8,1.07,1.06s3-.52,4.3,0a8.88,8.88,0,0,1,2.55,1.59c.54.4,4.16.94,3.35,0s-2.68-.91-3.35-1.59a3.23,3.23,0,0,1-.81-1.57s-2.1,1.13-3.06,0-1.36-1.94-1.77-2.08S85.7,109.28,85.7,109.28Z" />
    <path class="cls-13" d="M94.43,108.21c-.2-.16-.68,3.43.8,3.3S95.5,109.06,94.43,108.21Z" />
    <path class="cls-13" d="M162.3,232.93c-.88-.84-2.51-.35-3.55,0s-1.63-.79-3.41,0-1.92,1.23-3.7,1.83-5.78,1.63-7.71,2.52-5.11,2.07-6.33,3.55-2.26,2.82-2.7,2.37-1.48-.15,0-1.48a22.32,22.32,0,0,1,5.77-4.44c3-1.49,6.63-3.51,8.65-4.35s2-1.28,5-1.43a28.64,28.64,0,0,0,6.39-.89,48,48,0,0,1,6.08-.74s5.69-1.31,7.11,0,1.78,2.37,0,1.78a14.57,14.57,0,0,0-4.74-.6C167.93,231.05,162.3,232.93,162.3,232.93Z" />
    <path class="cls-13" d="M150.6,271c.4.39,7.53,9.5,18.09,5.28" />
    <path class="cls-13" d="M173.58,273.6s10.43-9.11,12.67-12.55,3.31-4.09,3.57-5.81-2.25-9.9-2.25-9.9" />
    <path class="cls-13" d="M168.29,251.61s-1.71,4.82-2.63,5.22-1.06.39-1.59,0-.53-.79-1.32-.66-1.45.33-1.32,1,.53,3,2,3.26,1.32,0,2.11-.92,1.46-2.44,2.38-2.34,1.45-.1,2.11,0,.27-.3,1.59-.57a2,2,0,0,1,2,.57s.79.26,1.32-1.08a3.14,3.14,0,0,1,1.45-1.73,6.17,6.17,0,0,0,.26-2.71c-.13-1.78-.39-4.29-.39-4.29l1.33.79" />
    <path class="cls-13" d="M176,237s2.78,4,3.7,4.89,1.74,1.05,2.06,2.77a14,14,0,0,0,.71,2.64" />
    <path class="cls-13" d="M178.46,244.28s1.19,4.1,1.72,3S180.84,243.76,178.46,244.28Z" />
    <path class="cls-1" d="M169.48,240.59s-3,.06-3,2,.79,1.64,1.58,1.58,1.45-2,1.45-2,.93-1,1.33,0,1.38,3.17,1.38,3.17a5.56,5.56,0,0,1,0,2c-.19,1.18-1.91,2.25-3.5,2.91s-1.58.66-2.64,1.05a4,4,0,0,0-2.38,2.22c-.13.79-1.33.64-4.36,2.64s-3.69,2.67-3.56,3.33.93,1.06.93,2,.46,2.44,3.69,3.24,3.78.33,5.13.59,2.53-.53,3.46-.79,2.77.39,4.62.13,2,.13,2.37-1.19a2.84,2.84,0,0,1,1.6-2.11c.78-.4.44-.4,1.93-1.85s1.57-1.12,1.49-2.31.68-1.39.74-2.18-1.27-2.9-.61-2.77.8,1.53,1.32.76-.39-2.08,0-2.48.8,0,1.06-.53-2.13-9.64-3-11.62-.58-2.24-1.31-2.37-1.75.42-1.64-.54-2.11-1.06-.94-2.11,2-1.18,2.87-.13,3.51,8.45,4,9.91,3,9,2.89,10-.66.79-.93,1.72-.53,1.45-1.19,1.58-.66-1.45-.66.13a7.57,7.57,0,0,1-1.19,4.56c-1,1.45-3.53,3.19-4.87,4.27s-2.31,1.56-2.72,2.46c-.67,1.49.46,3.37-1.25,3.9s-2,.13-2,.13-2.45.4-3.5,1.72-2,1-3.63.56-5.61-1-7.33-1.72-3.16-3.13-4.76-4.32a24.82,24.82,0,0,1-3.76-3.76,3,3,0,0,1-.46-1.33,12.43,12.43,0,0,1-4.42-2.54c-1.75-1.72-2.33-2-2-3.93a9.89,9.89,0,0,1,1-3.67,6,6,0,0,0,.81-3.13c0-.79,1.46-1.21,1.19-1.78s-.59-.48-.62-1.52-.43-4.29-.43-4.29c.18-1.54-.14-2.88,5.74-4.69,1.65-.5,4.82-2.35,5.88-2.53s9-.3,11.48.88,3.17,1.46,3.83,2.91a2.08,2.08,0,0,1-.66,2.45" />
    <path class="cls-1" d="M179.19,249.63c-.2.07-2,2.38-1.06,2.31s2.43-.13,1.35-2.18" />
    <path class="cls-1" d="M177.28,245.34s-.14,1.67.59,2.16S179.33,247.66,177.28,245.34Z" />
    <path class="cls-1" d="M176.81,249.63s.23,1.06.74.6S177.94,248.58,176.81,249.63Z" />
    <path class="cls-1" d="M173.58,239s-.93,1.06,0,1.19S174.57,239.4,173.58,239Z" />
    <path class="cls-13" d="M110.06,180.26c-.07-.07-.21,0-.3,0s-.14-.06-.29,0a2.29,2.29,0,0,1-.31.16c-.16.05-.5.14-.66.21a1.78,1.78,0,0,0-.54.31c-.1.12-.19.24-.23.2s-.13,0,0-.13a2.19,2.19,0,0,1,.49-.38l.74-.37a.8.8,0,0,1,.42-.12,2.86,2.86,0,0,0,.55-.07,3.87,3.87,0,0,1,.51-.07s.49-.11.61,0,.15.21,0,.15a1.27,1.27,0,0,0-.41-.05A4.48,4.48,0,0,0,110.06,180.26Z" />
    <path class="cls-13" d="M109.07,183.5a1.36,1.36,0,0,0,1.54.45" />
    <path class="cls-13" d="M111,183.73a10.37,10.37,0,0,0,1.08-1.07c.19-.29.28-.35.31-.5a4.85,4.85,0,0,0-.19-.84" />
    <path class="cls-13" d="M110.57,181.86s-.14.41-.22.44-.09,0-.14,0,0-.07-.11-.06-.12,0-.11.08,0,.26.17.28.11,0,.18-.08.12-.2.2-.2a1.07,1.07,0,0,0,.18,0c.06,0,0,0,.14,0a.14.14,0,0,1,.16,0s.07,0,.12-.09a.23.23,0,0,1,.12-.14.6.6,0,0,0,0-.23c0-.16,0-.37,0-.37l.11.07" />
    <path class="cls-13" d="M111.23,180.61s.23.34.31.42.15.09.18.23a.79.79,0,0,0,.06.23" />
    <path class="cls-13" d="M111.44,181.23s.1.35.15.26S111.64,181.19,111.44,181.23Z" />
    <path class="cls-1" d="M110.68,180.92s-.26,0-.26.17.06.14.13.14.13-.18.13-.18.07-.09.11,0,.12.27.12.27a.78.78,0,0,1,0,.17c0,.1-.17.19-.3.25l-.23.09a.32.32,0,0,0-.2.19c0,.06-.11,0-.37.22s-.31.23-.3.28.07.09.07.17,0,.21.32.28a1.91,1.91,0,0,0,.44.05c.11,0,.21-.05.29-.07s.24,0,.39,0,.17,0,.21-.1a.26.26,0,0,1,.13-.18c.07,0,0,0,.17-.16s.13-.09.12-.19.06-.12.07-.19-.11-.25,0-.23.06.13.11.06,0-.18,0-.21.07,0,.09,0a5.16,5.16,0,0,0-.26-1c-.07-.17,0-.2-.11-.21s-.15,0-.14,0-.18-.09-.08-.18.18-.1.25,0a7,7,0,0,1,.34.84,6.62,6.62,0,0,1,.25.85c0,.09-.06.07-.08.15s-.05.12-.1.14-.06-.13-.06,0a.66.66,0,0,1-.1.38,2.1,2.1,0,0,1-.42.37c-.11.09-.19.13-.23.21s0,.29-.11.33-.16,0-.16,0a.6.6,0,0,0-.3.15c-.09.11-.18.08-.31,0a5.12,5.12,0,0,1-.63-.14c-.14-.06-.27-.27-.4-.37a1.56,1.56,0,0,1-.32-.32.29.29,0,0,1,0-.11,1,1,0,0,1-.38-.22c-.15-.14-.2-.17-.17-.33a1.12,1.12,0,0,1,.09-.32.48.48,0,0,0,.07-.26c0-.07.13-.11.1-.15s0,0,0-.13,0-.37,0-.37,0-.24.49-.4c.14,0,.41-.2.5-.21a2.89,2.89,0,0,1,1,.07c.21.1.27.13.33.25a.19.19,0,0,1-.06.21" />
    <path class="cls-1" d="M111.5,181.69s-.17.2-.09.19.21,0,.12-.18" />
    <path class="cls-1" d="M111.34,181.32s0,.14,0,.18S111.51,181.52,111.34,181.32Z" />
    <path class="cls-1" d="M111.3,181.69s0,.09.06.05S111.4,181.6,111.3,181.69Z" />
    <path class="cls-1" d="M111,180.78s-.07.09,0,.1S111.11,180.82,111,180.78Z" />
    <path class="cls-1" d="M186.61,53.75s-.2.08-.24.2-.1.13-.12.26-.08.11,0,.16.2,0,.28,0a1.88,1.88,0,0,0,.33.05c.08,0,.12,0,.13-.05s0,0,0-.16,0-.21-.06-.23-.12,0-.15-.08S186.74,53.68,186.61,53.75Z" />
    <path class="cls-1" d="M189.14,51.94s0,.13.05.16,0-.15.08-.16S189.34,51.81,189.14,51.94Z" />
    <circle class="cls-1" cx="189.25" cy="52.31" r="0.02" />
    <circle class="cls-1" cx="189.27" cy="52.41" r="0.02" />
    <circle class="cls-1" cx="187.92" cy="53.86" r="0.02" />
    <circle class="cls-1" cx="186.37" cy="54.5" r="0.02" />
    <path class="cls-13" d="M187.19,54.63l.38-.26.24-.17s.13,0,.1-.13-.24-.21-.09-.27.22-.2.3-.17.13.24.34.2.14-.16.36-.21a.75.75,0,0,0,.39-.17c.11-.07.23,0,.31-.21s-.11-.4.1-.5.35-.1.5-.16.41-.19.48-.39.15-.23.08-.3a.26.26,0,0,0-.22-.11c-.15,0-.25,0-.4,0s-.2.06-.41.06-.19-.13-.36-.06a.35.35,0,0,0-.25.35c0,.16,0,.31-.15.36a2.12,2.12,0,0,0-.5.25c-.12.11-.35.21-.45.46a1.48,1.48,0,0,1-.28.53.83.83,0,0,1-.34.1c-.07,0-.34,0-.39-.2a1,1,0,0,1,0-.43.63.63,0,0,0,0-.16.16.16,0,0,0,.07-.18c0-.1,0-.17-.09,0a5.24,5.24,0,0,1-.24.56,2.59,2.59,0,0,1-.34.49,2.63,2.63,0,0,0-.25.37" />
    <text class="cls-14" transform="translate(161.56 135.32)">MADAGASCAR</text>
</svg>