<svg id="iles_subantarctiques" data-name="iles subantarctiques" xmlns="http://www.w3.org/2000/svg" viewBox="0 0 305.7 297">
    <defs>
        <style>.cls-1,.cls-3,.cls-9{fill:#276F87;}.cls-2,.cls-5,.cls-6,.cls-7,.cls-8{fill:none;stroke:#7294a2;}.cls-2,.cls-5,.cls-6,.cls-7{stroke-linecap:round;stroke-linejoin:round;stroke-width:0.5px;}.cls-2{stroke-dasharray:1.06 2.12;}.cls-3{font-size:6px;letter-spacing:0.05em;}.cls-3,.cls-9{font-family:Poppins-LightItalic, Poppins;font-style:italic;}.cls-3,.cls-4,.cls-9{font-weight:300;}.cls-4,.cls-9{font-size:5px;}.cls-4{fill:#fff;font-family:Poppins-Light, Poppins;letter-spacing:0.05em;}.cls-5{stroke-dasharray:1 1.99;}.cls-6{stroke-dasharray:1 2;}.cls-7{stroke-dasharray:1 2;}.cls-8{stroke-miterlimit:10;}</style>
        <linearGradient x1="38.6428275%" y1="109.516801%" x2="61.3571725%" y2="-9.51680135%" id="linearGradient-1">
            <stop stop-color="#5B95B6" offset="0%"></stop>
            <stop stop-color="#88DEE5" offset="100%"></stop>
        </linearGradient>
    </defs>
    <path class="cls-1" d="M65.87,89.67,63.08,93.5l-.38,3.82-.42,3.3.15,1.36.8-.25.36,1.24.62,2,1.38,1.64,2,1.73,1,1.89-.87,2.38L66,115.14l-1.66.61L63.75,114l-.66-.16-.43.49.88,1.82,0,1.26-2,1.39-1.93,1.45L58,123.48l-1.15,1.82-.59,2.55,1.44.15,1.26-.6,1.82-.26-.29,1.47-.93,1.07v2l-1.43.25-1,.53,0,.48c1.08.3,0,1,0,1l-.77.41.87,1.45,0,2.26.37,5.06.11,3.25,1.45,1.93,2.28,1.43,1.38,1.64L64,149.88l1.31-.07.93,3.38.87,1.44,1.27-.6.32-1.32-.93-1.35,1.45.53.66-.85-.42-2.56.79-1.66,2.09-.08.84.27-.42,2.28.67.55,1-1.31,1-1.15,1.53-1.21,1.59-.51-.13-1.61.46-1.75.62-.37.72,1.48.82,1.53.29,3,1.21.88,1.59,4.94.53,3.4-.94,1.69,0,1.78-1.92.83-.48,1,.44,2.31-.53,2.46-2,2.41-1.74.94L76.37,170l-.82.5.06,1.31-1.64,1,.56,2.14,2,2.12,2.15,1.23L81,180.16l2,1.64,3.74.33,1.38,1.64,2.91,1.83,3.45.77,4.25-.49,2.57-1,1.9.81.34-1.55.67-.86,1.26.42,1,.63,1.45-.87,1.61-1.15,1.15-1.43,2-.91,1.22-.13,1.56-.66,1.06.54,1-1.16.41-1.65,2.42-1,3-1.39,1-2.41.9-2.23,1.83-1.9,1.64-2.39.88-1.61.89-.21,0-.77-.33-1.48,1.11-3-1.16-2.38-1.31-2.36s-.21-3.3-.48-3.47-1.46-1.31-1.46-1.31l-2.35-.72-.81-1.14.68-1.48,1.22-.12,1.1,1.07.92.58.81-.88.93.33.61.64,1.16,1,1.47.29.65-.23.43-1.89.51-2.22.37-1.8,1-2.65,1.15-1.43,1.11-1,.31-1.7-1.34-2.5-1.62-.26.93-1.07-1.87-.67-.73-1.86-2.09-2.33-3-.88-.88-.42.27-1.23-.12-1.22,1.56-1.68-1.24-.66-1,.39-2.16-1.62-2.44-2.17L121,115.76l-.6-2.68-1.32-1.33-1.22-.89-1.65-1.81-3.81-1.63-2.87-.67h-1l-1.53-1.6-.46-1.69-1.7.07-.54,1.06-.79-1.77-1.42.25-2.13,2-2,1.54-.3,1.08.84.28-1.9,1.22L96,110.43l-1.79,0-2.78.78-2,1.4-1.69,1.86,0,1.16.63,1,1.7-.07.16.74-.54,2.07-1.14.8-2.38,1.56-.91.83-1.62.37-.6,1.14-.47,1.36L81.06,125l-1.5-.44-2.82.25-2.16-.21-.77-1-1.35.93-1.54.43-.41-.76,1.34-.3.34-.94-1.8,0,.1-1,.88-.59.91-.44.46-.73-1.89-.43-1,.24-.89,1.21-.77-1,1.21-1.52,2-.38,1.37-2.18.77-2.44-.73-3.89-.76-2-1.6-1.9-2.14-3.25-3-1.12-.56-1.12-.2-4.31L64.67,94l1.22-2.15.42-1.26Z" />
    <circle class="cls-2" cx="182.33" cy="163.39" r="3.56" />
    <text class="cls-3" transform="translate(155.35 170.51)">
        île
        <tspan x="-12.37" y="6">Saint Paul</tspan>
    </text>
    <text class="cls-3" transform="translate(147.63 152.36)">
        îles
        <tspan x="-10.88" y="6">Kerguélen</tspan>
    </text>
    <text class="cls-3" transform="translate(147.63 117.87)">
        îles
        <tspan x="-5.11" y="6">Crozet</tspan>
    </text>
    <text class="cls-4" transform="translate(85.58 138.64)">ANTARCTIQUE</text>
    <text class="cls-3" transform="translate(196.42 153.87)">
        Nouvelle
        <tspan x="-5.21" y="6">Amsterdam</tspan>
    </text>
    <circle class="cls-5" cx="239.13" cy="102.7" r="29.48" transform="translate(-2.58 199.17) rotate(-45)" />
    <circle class="cls-6" cx="241.95" cy="194.24" r="29.55" transform="translate(-29.56 344.42) rotate(-67.71)" />
    <circle class="cls-6" cx="181.28" cy="235.15" r="29.55" transform="translate(-105.07 313.67) rotate(-67.71)" />
    <line class="cls-7" x1="168.5" y1="75.93" x2="168.5" y2="124.56" />
    <line class="cls-7" x1="213.85" y1="117.87" x2="170.42" y2="145.28" />
    <line class="cls-7" x1="176.84" y1="205.55" x2="178.85" y2="168.24" />
    <line class="cls-7" x1="217.77" y1="177.75" x2="194.54" y2="168.39" />
    <circle class="cls-2" cx="169.03" cy="128.75" r="3.56" />
    <circle class="cls-2" cx="166.03" cy="148.76" r="3.56" />
    <circle class="cls-2" cx="190.99" cy="166.95" r="3.56" />
    <rect class="cls-7" x="108.71" y="25.4" width="114.37" height="48.69" rx="24.34" />
    <path class="cls-1" d="M232.43,189.66s-2.4,4.21-1,6.56.64,3.05,1,3.57,1.65,1.27,1.65,1.63.28,1.36.74,1.42a5,5,0,0,1,2,1.85c.09.42.36,2.43,1,2.53a24.46,24.46,0,0,1,2.76,1.38,8.56,8.56,0,0,0,3.32.45,39.63,39.63,0,0,0,3.78-2.81c.55-.4,2.76-2.91,3.41-3.4a5.34,5.34,0,0,0,1.79-3.46c.05-1.46-.5-4.73-.5-5.12s-1.11-5.46-1.29-6.29a24.87,24.87,0,0,0-1.39-3.71,28.82,28.82,0,0,0-2.21-3.19c-.27-.29-.92-1.21-1.56-1.07s-2.95-1-3.41-.5a6.09,6.09,0,0,1-1.94,1,5.29,5.29,0,0,0-1.65.57c-.28.27-.83,0-.83,0s-.74-.64-.83,0-1,1-1,1-.92-.46-1,0a19.87,19.87,0,0,1-.65,3.37c-.27.41-1.19,2.26-1.19,2.26s-.74.29-.74.93A2,2,0,0,1,232.43,189.66Z" />
    <path class="cls-1" d="M190.71,166.53s-.11.2,0,.31a.32.32,0,0,1,0,.17s.08.06.08.08,0,.07,0,.07a.2.2,0,0,1,.09.09s0,.11.05.12.1,0,.13.06a.31.31,0,0,0,.16,0s.15-.11.18-.13.13-.14.16-.16a.28.28,0,0,0,.09-.17c0-.07,0-.22,0-.24s0-.26-.06-.3,0-.14-.06-.17-.1-.14-.11-.16,0-.05-.07-.05-.14,0-.16,0l-.1,0-.08,0s0,0,0,0,0,0,0,0a.11.11,0,0,1,0,0s-.05,0-.05,0,0,.14,0,.16l-.06.11a0,0,0,0,0,0,0A.08.08,0,0,1,190.71,166.53Z" />
    <path class="cls-1" d="M167.05,231.25a3.42,3.42,0,0,0,.69,2.37,11,11,0,0,1,1.59,2.67c.2.6-.1,1.09.49,1.78a3.08,3.08,0,0,1,.6,2.28,1.67,1.67,0,0,0,.49,1.88c.79.69.59,2.37.59,2.87s-.29,2.47,1,2.57,1.69-.1,2.58,0,3.26.89,4.25.79a2.88,2.88,0,0,1,2.47.89c1,.79,1,.5,1.49,0s.79.68,1.78.49,1.56-1.58,2.22-1.18,1,2.37,1.74,2.27.59-.19,1.48-2.17,2.28-2.57,3.17-2.18,3,1.09,3.56.5,1.19-.8,0-2.68a6.6,6.6,0,0,1-.89-4.15c0-.4-1.68-1.58-2.28-1.78s-2.47-1.68-2.57-2.48a8.33,8.33,0,0,0-1.88-3.26c-.59-.49-1.9-2.08-2.33-1.48s-.46.89,0,1.28a1.68,1.68,0,0,1,.75,2c-.4,1-2.18,6.53-6.93,2.28s-1-7.52,1.37-7.72,2.29.79,2.79.49a1.47,1.47,0,0,0,.19-2.57c-1.38-1.28-2.57-2.9-3.66-3.33a12.57,12.57,0,0,1-3.56-2.41c-.59-.69-.83-1.83-1.95-1.95s-2.2-1-3,0-1.59.2-2.48-.46a1.65,1.65,0,0,0-2.27,0c-.4.53-1.34,3.2-1.51,3.5a12,12,0,0,0,0,2.77c0,.79-.59,3.17-.09,3.66S167.05,231.25,167.05,231.25Z" />
    <path class="cls-1" d="M181.65,163.24a.13.13,0,0,0,0,.11.75.75,0,0,1,.07.12s0,.05,0,.08a.14.14,0,0,1,0,.1.06.06,0,0,0,0,.08.22.22,0,0,1,0,.13s0,.11,0,.12H182a1.25,1.25,0,0,0,.19,0,.15.15,0,0,1,.11,0s0,0,.07,0,0,0,.08,0,.07-.07.1,0,0,.11.08.1,0,0,.06-.1.11-.11.15-.09.13,0,.15,0,.06,0,0-.12a.33.33,0,0,1,0-.19.29.29,0,0,0-.1-.08s-.11-.07-.11-.11a.42.42,0,0,0-.09-.14s-.08-.09-.1-.07,0,0,0,.06,0,0,0,.09-.09.29-.31.1,0-.34.07-.34.1,0,.12,0,.07-.06,0-.12a.73.73,0,0,0-.17-.15.56.56,0,0,1-.15-.1s0-.09-.09-.09-.1,0-.14,0-.07,0-.11,0-.08,0-.1,0l-.06.15a.28.28,0,0,0,0,.13s0,.14,0,.16S181.65,163.24,181.65,163.24Z" />
    <polygon class="cls-1" points="222.35 85.7 223.13 84.3 223.86 84.3 225.36 84.08 226.08 84.43 226.33 85.18 226.56 85.66 226.92 85.93 227.59 85.75 228.01 86.15 226.33 87.25 223.8 88.44 222.29 89.5 222.65 89.76 225 88.7 226.45 87.73 228.37 86.9 229.15 86.9 229.4 87.51 227.35 88.26 227.83 88.97 228.61 88.88 228.73 89.54 227.77 90.6 227.11 91.17 227.83 92.62 227.89 93.02 225.96 94.03 225 94.52 224.82 95.18 225.36 96.28 225.78 96.1 225.84 94.87 227.29 93.81 228.01 93.72 228.31 94.3 229.22 94.83 229.7 95.97 228.97 97.16 230.78 97.78 231.38 97.12 233.73 96.72 235.12 95.14 236.2 94.47 236.74 94.47 237.22 95.22 236.44 96.37 236.74 96.55 237.65 95.75 237.89 94.69 238.67 92.93 239.51 92.27 240.06 92.27 240.23 92.97 240.84 93.11 241.14 93.42 240.54 94.08 240.48 95.18 241.68 95.49 242.04 96.06 241.74 97.82 240.06 97.91 237.71 97.91 235.9 97.29 234.21 97.34 233.85 97.78 234.21 98.04 235.24 97.73 236.08 97.91 236.98 98.48 235.72 99.23 236.2 100.25 237.46 100.77 240.06 101 240.17 101.22 240.35 101.88 243.18 101.39 243.72 101.48 242.64 103.07 243.6 102.93 245.29 101.74 246.86 101.53 246.74 100.6 249.57 98.57 252.16 97.69 253.42 97.34 254.75 98.04 254.81 98.83 257.04 98.31 257.33 96.9 258.66 95.66 259.62 95.49 261.61 95.93 263.12 96.1 264.68 96.9 264.8 97.25 264.44 98 264.86 98.79 265.4 99.72 265.34 101.39 264.8 103.15 263.6 104.17 262.87 104.65 262.45 105.09 261.55 105.27 260.59 104.43 259.56 104.12 259.26 104.26 258.78 105.58 259.92 106.06 261.31 106.28 262.27 106.55 262.27 106.94 260.76 107.08 257.75 106.59 258 105.84 256.8 104.65 254.99 104.08 253 104.26 253 104.83 250.05 105 248.61 104.17 246.74 104.48 248.24 105.22 248.54 105.71 248.61 106.94 248.12 106.94 247.7 106.72 246.13 105.58 245.83 105.67 245.41 106.64 244.45 106.85 244.51 107.51 245.47 108.31 245.47 109.28 246.44 110.02 247.94 110.11 248.42 110.33 249.15 110.95 249.75 111.18 250.96 111 251.44 111.26 253.36 112.32 253.42 111.97 252.94 111.35 251.19 110.69 251.07 109.85 252.76 109.15 253.72 108.62 254.44 108.62 256.01 109.15 258.66 109.76 258.96 110.38 258.54 111.97 258 112.28 257.15 112.19 255.95 111.66 254.81 111.88 254.81 112.32 256.43 112.32 257.15 113.25 257.15 113.82 256.37 114.17 254.08 114.13 254.03 114.7 252.88 115.27 252.28 115.23 251.49 114.65 250.05 114.21 248.61 114.08 247.88 114.61 247.22 114.52 246.62 113.69 245.65 112.54 244.75 110.91 244.51 109.15 243.97 108.66 242.28 108.35 241.08 108.4 241.2 109.15 242.7 110.51 242.88 111.74 242.82 112.93 241.26 113.25 240.35 112.58 235.96 112.45 235.6 112.28 234.88 111.04 234.15 110.51 233.01 110.25 231.38 110.42 230.84 108.04 229.52 107.87 229.64 109.06 230.36 110.6 228.91 111.18 228.07 111.7 226.99 111.22 226.81 111.48 227.17 112.45 226.92 113.64 224.53 114.65 222.53 114.83 219.94 114.92 218.98 114.83 218.01 113.55 218.07 112.98 218.86 112.93 219.22 112.36 218.68 111.57 218.92 111.08 220.3 109.41 220.06 107.96 221.33 107.12 222.17 106.9 221.93 106.02 220.85 105.44 219.88 104.83 219.94 104.08 220.79 103.73 219.88 102.32 219.7 101.48 218.62 100.73 218.44 99.54 218.98 99.06 221.39 99.36 221.44 99.06 219.34 98.04 218.68 97.21 217.89 96.15 218.13 94.92 219.04 94.38 219.04 93.15 220.72 92.84 221.44 92.71 220.48 91.78 219.22 90.24 218.98 89.36 219.64 89.1 221.39 88.7 222.23 87.51 222.71 87.29 222.71 86.54 222.29 86.06 222.35 85.7" />
    <polygon class="cls-1" points="215.37 104.12 215.91 103.51 216.75 103.42 217.29 103.82 217.83 103.82 218.8 103.59 219.22 103.59 219.34 104.7 218.92 104.74 217.53 104.52 215.91 104.39 215.37 104.12" />
    <polygon class="cls-1" points="228.37 93.33 228.73 92.54 228.56 91.78 228.97 91.21 229.7 89.67 230.24 89.63 230.12 90.24 230.54 91.04 230.48 92.23 229.09 93.46 228.37 93.33" />
    <polygon class="cls-1" points="229.88 96.98 230 96.23 230.36 95.75 230.3 95.35 229.7 93.81 230.06 92.89 231.74 91.65 233.01 90.82 233.73 90.38 234.33 90.69 234.45 91.26 233.43 91.83 233.49 92.01 234.33 92.01 235.17 91.74 235.54 92.01 235.47 92.54 234.03 93.59 233.49 94.43 233.49 96.23 232.46 96.59 230.36 97.16 229.88 96.98" />
    <polygon class="cls-1" points="236.62 90.73 235.12 89.72 235.17 89.23 236.14 88.79 238.06 89.85 236.62 90.73" />
    <polygon class="cls-1" points="238.43 99.81 238.67 99.28 240.29 98.97 240.59 98.48 241.38 98.17 241.8 98.31 241.5 99.1 241.8 99.94 240.78 100.25 239.39 100.11 238.43 99.81" />
    <polygon class="cls-1" points="246.19 108.27 248.3 108.71 250.17 109.5 250.77 110.56 250.29 110.73 248.84 109.85 247.04 109.23 246.13 108.62 246.19 108.27" />
    <polygon class="cls-1" points="165.42 147.94 165.46 147.85 165.51 147.85 165.59 147.84 165.64 147.86 165.65 147.91 165.66 147.93 165.69 147.95 165.72 147.94 165.75 147.96 165.65 148.03 165.5 148.1 165.41 148.16 165.44 148.18 165.57 148.11 165.66 148.06 165.77 148.01 165.82 148.01 165.83 148.04 165.71 148.09 165.74 148.13 165.79 148.12 165.79 148.16 165.74 148.22 165.7 148.26 165.74 148.34 165.74 148.37 165.63 148.43 165.57 148.46 165.56 148.49 165.59 148.56 165.62 148.55 165.62 148.47 165.71 148.41 165.75 148.41 165.77 148.44 165.82 148.47 165.85 148.54 165.81 148.61 165.91 148.65 165.95 148.61 166.09 148.58 166.17 148.49 166.23 148.45 166.26 148.45 166.29 148.5 166.25 148.56 166.26 148.57 166.32 148.53 166.33 148.47 166.38 148.36 166.43 148.32 166.46 148.32 166.47 148.36 166.5 148.37 166.52 148.39 166.49 148.43 166.48 148.49 166.55 148.51 166.57 148.54 166.56 148.65 166.46 148.65 166.32 148.65 166.21 148.62 166.12 148.62 166.09 148.65 166.12 148.66 166.18 148.64 166.22 148.65 166.28 148.69 166.2 148.73 166.23 148.79 166.31 148.82 166.46 148.84 166.47 148.85 166.48 148.89 166.64 148.86 166.67 148.86 166.61 148.96 166.67 148.95 166.77 148.88 166.86 148.87 166.85 148.81 167.02 148.69 167.17 148.64 167.24 148.62 167.32 148.66 167.33 148.71 167.46 148.68 167.47 148.59 167.55 148.52 167.61 148.51 167.73 148.54 167.81 148.55 167.91 148.59 167.91 148.62 167.89 148.66 167.92 148.71 167.95 148.76 167.94 148.86 167.91 148.96 167.84 149.02 167.8 149.05 167.78 149.08 167.72 149.09 167.67 149.04 167.6 149.02 167.59 149.03 167.56 149.1 167.63 149.13 167.71 149.15 167.76 149.16 167.76 149.19 167.68 149.19 167.5 149.16 167.51 149.12 167.44 149.05 167.34 149.02 167.22 149.03 167.22 149.06 167.05 149.07 166.96 149.02 166.85 149.04 166.94 149.08 166.96 149.11 166.96 149.19 166.93 149.19 166.91 149.17 166.82 149.1 166.8 149.11 166.77 149.17 166.72 149.18 166.72 149.22 166.78 149.27 166.78 149.32 166.83 149.37 166.92 149.37 166.95 149.38 166.99 149.42 167.03 149.43 167.1 149.42 167.13 149.44 167.24 149.5 167.24 149.48 167.22 149.44 167.11 149.41 167.11 149.36 167.21 149.31 167.26 149.28 167.3 149.28 167.4 149.31 167.55 149.35 167.57 149.39 167.54 149.48 167.51 149.5 167.46 149.49 167.39 149.46 167.33 149.47 167.33 149.5 167.42 149.5 167.46 149.56 167.46 149.59 167.42 149.61 167.28 149.61 167.28 149.64 167.21 149.68 167.18 149.67 167.13 149.64 167.05 149.61 166.96 149.6 166.92 149.64 166.88 149.63 166.84 149.58 166.79 149.51 166.73 149.42 166.72 149.31 166.69 149.29 166.59 149.27 166.52 149.27 166.53 149.31 166.61 149.4 166.63 149.47 166.62 149.54 166.53 149.56 166.48 149.52 166.22 149.51 166.2 149.5 166.15 149.43 166.11 149.4 166.04 149.38 165.95 149.39 165.92 149.25 165.84 149.24 165.85 149.31 165.89 149.4 165.8 149.43 165.75 149.47 165.69 149.44 165.68 149.45 165.7 149.51 165.69 149.58 165.54 149.64 165.43 149.65 165.28 149.65 165.22 149.65 165.16 149.57 165.17 149.54 165.21 149.54 165.23 149.5 165.2 149.46 165.22 149.43 165.3 149.33 165.28 149.25 165.36 149.19 165.41 149.18 165.39 149.13 165.33 149.1 165.27 149.06 165.28 149.02 165.32 149 165.27 148.91 165.26 148.86 165.2 148.82 165.19 148.75 165.22 148.72 165.36 148.74 165.36 148.72 165.24 148.66 165.2 148.61 165.16 148.55 165.17 148.48 165.22 148.45 165.22 148.37 165.32 148.36 165.36 148.35 165.31 148.29 165.23 148.2 165.22 148.15 165.26 148.14 165.36 148.11 165.41 148.04 165.44 148.03 165.44 147.99 165.41 147.96 165.42 147.94" />
    <polygon class="cls-1" points="165.01 149.02 165.04 148.98 165.09 148.98 165.12 149 165.15 149 165.21 148.99 165.23 148.99 165.24 149.05 165.22 149.06 165.13 149.04 165.04 149.03 165.01 149.02" />
    <polygon class="cls-1" points="165.77 148.38 165.79 148.34 165.78 148.29 165.81 148.26 165.85 148.17 165.88 148.17 165.87 148.2 165.9 148.25 165.9 148.32 165.81 148.39 165.77 148.38" />
    <polygon class="cls-1" points="165.86 148.6 165.87 148.56 165.89 148.53 165.88 148.5 165.85 148.41 165.87 148.36 165.97 148.29 166.04 148.24 166.09 148.21 166.12 148.23 166.13 148.26 166.07 148.3 166.07 148.31 166.12 148.31 166.17 148.29 166.19 148.31 166.19 148.34 166.1 148.4 166.07 148.45 166.07 148.56 166.01 148.58 165.89 148.61 165.86 148.6" />
    <polygon class="cls-1" points="166.26 148.23 166.17 148.17 166.17 148.14 166.23 148.12 166.34 148.18 166.26 148.23" />
    <polygon class="cls-1" points="166.36 148.76 166.38 148.73 166.47 148.72 166.49 148.69 166.54 148.67 166.56 148.68 166.54 148.72 166.56 148.77 166.5 148.79 166.42 148.78 166.36 148.76" />
    <polygon class="cls-1" points="166.82 149.26 166.94 149.29 167.05 149.34 167.09 149.4 167.06 149.41 166.97 149.36 166.87 149.32 166.82 149.28 166.82 149.26" />
    <polygon class="cls-1" points="115.13 44.25 115.21 42.22 116.72 40.5 119.82 40.16 121.01 40.47 121.38 41.46 122.58 42.45 122.71 45.05 121.95 46.77 120.73 47.78 120 47.76 119.35 46.82 118.18 46.3 116.93 46.15 115.13 44.25" />
    <polygon class="cls-1" points="127.47 64.44 127.55 63.97 128.8 63.99 130.86 66.73 130.81 67.38 129.85 67.77 128.18 66.47 127.99 65.53 127.47 64.44" />
    <polygon class="cls-1" points="164.65 47.66 164.67 46.93 167.67 44.85 169.09 44.62 169.64 44.17 169.69 43.57 170.03 43.39 171.25 43.63 172.71 44.49 172.92 44.77 173.05 46.25 175.58 48.18 176.55 48.35 178.18 49.85 178.19 51.03 176.8 53.19 174.25 54.5 173.48 54.48 172.02 53.17 170.91 53.11 169.47 53.8 168.93 53.56 167.67 51.97 166.15 50.47 165.03 49.05 164.65 47.66" />
    <polygon class="cls-1" points="190.57 50.63 190.62 49.69 193.42 48.33 195.25 48.27 196.52 47.16 197.38 47.13 199.3 48.07 201.27 48.03 203.06 50.02 204.11 50.02 204.53 50.76 204.64 52.6 204.29 53.78 203.3 54.48 202.1 54.72 201.59 55.22 200.28 55.2 199.58 54.09 198.84 54.22 198.1 55.2 196.65 55.16 194.73 53.12 193.07 53.04 190.57 50.63" />
    <line class="cls-8" x1="158.89" y1="30.89" x2="158.89" y2="70.88" />
    <text class="cls-9" transform="translate(125.21 49.38)">
        Île aux
        <tspan x="-2.52" y="5">Cochons</tspan>
    </text>
    <text class="cls-9" transform="translate(135.97 63.97)">
        Île des
        <tspan x="-3.18" y="5">Pingouins</tspan>
    </text>
    <text class="cls-9" transform="translate(175.47 36.76)">
        Île de la
        <tspan x="-3.01" y="5">Possession</tspan>
    </text>
    <text class="cls-9" transform="translate(190.09 62.97)">Île de l&apos;Est</text>
    <text class="cls-9" transform="translate(138.81 35.27)">
        Île des
        <tspan x="-0.86" y="5">Apôtres</tspan>
    </text>
    <polygon class="cls-1" points="130.51 36.74 130.13 36.5 130.17 36.3 130.32 36.19 130.51 36.2 130.71 36.39 130.71 36.66 130.51 36.74" />
    <polygon class="cls-1" points="131.02 36.42 131.05 36.12 131.37 35.8 131.82 35.57 132.14 35.44 132.32 35.32 132.52 35.31 132.71 35.53 132.92 35.67 133.28 35.72 133.42 35.82 133.32 36 133.13 36.13 132.71 36.11 132.59 36.16 132.32 36.52 131.97 36.76 131.71 36.74 131.53 36.65 131.27 36.47 131.09 36.46 131.02 36.42" />
</svg>