<?xml version="1.0" encoding="utf-8"?>
<!-- Generator: Adobe Illustrator 24.3.0, SVG Export Plug-In . SVG Version: 6.00 Build 0)  -->
<svg version="1.1" id="Calque_1" xmlns="http://www.w3.org/2000/svg" xmlns:xlink="http://www.w3.org/1999/xlink" x="0px" y="0px"
	 viewBox="0 0 305.7 297" style="enable-background:new 0 0 305.7 297;" xml:space="preserve">
<style type="text/css">
	.st0{display:none;}
	.st1{display:inline;}
	.st2{fill:#276F87;}
	.st3{display:inline;fill:#276F87;}
</style>
<g id="Saint_Pierre_and_Miquelon" class="st0">
	<g id="Calque_9" class="st1">
		<g>
			<path class="st2" d="M214.4,264.9c-0.2,0-0.4,0-0.5-0.1c-1.1-0.6-1.3-2-1.2-3.1c0-0.3-0.1-0.6-0.3-0.8c-0.6-0.7-1.7-1.2-2.4-0.6
				c-0.2,0.2-0.5,0.3-0.7,0.3c-0.4,0-1.1,0-1.7,0c-0.8,0-1.3-0.7-1.1-1.5c1.1-3.5,2.7-7.6,5.2-10.1c0.1-0.1,0.3-0.2,0.5-0.3
				c0.8-0.3,1.6-1,2.1-1.7c0.2-0.2,0.3-0.5,0.2-0.8c-0.4-3.6-1.4-8.7-4.6-10.8c-0.1-0.1-0.3-0.1-0.4-0.2c-1.5-0.2-4.1,1.5-5.6,2
				c-0.1,0-0.2,0-0.3,0.1c-0.5,0-1.2,0.1-1.6,0.5c-0.1,0.2-0.4,0.2-0.6,0.3c-2.5,0.3-5.4,1.4-5.8,4c-0.1,0.3-0.3,0.6-0.6,0.8
				c-1.8,0.9-3.8,2.8-4.7,4.5c-0.1,0.2-0.3,0.4-0.5,0.5c-1.8,1.2-3.7,5.6-4.4,7.2c-1.5,3.4-4.9,8.5-8.1,10.7
				c-0.1,0.1-0.2,0.1-0.4,0.2c-1.6,0.4-1.8,1.3-1.3,2.5c0.2,0.4,0.6,0.6,1,0.7c0.4,0,0.7,0.2,0.9,0.6c0,0,1.2,0,1.9,0
				c0.4,0,0.8,0.2,1,0.5c1.2,1.9,0.2,3.3,2.7,5.6c0.2,0.2,0.5,0.3,0.8,0.3c1.8-0.2,2.8-3.1,4.1-4.6c0.3-0.4,0.8-0.5,1.2-0.3
				c0.7,0.2,2.4-0.2,3.3-0.4c0.4-0.1,0.7-0.3,0.8-0.6c0.1-0.2,0.2-0.5,0.4-0.8c0.5-0.9,1.8-0.8,2.1,0.2c1.8,6.2,3.8,0.6,7.4,3.9
				c2.7,0.9,0.6-5.1,3.8-4.3c0.8,0.3,0,2.1-0.1,2.6c0.5,1.3,2,0.3,2.8-0.3c0.1-0.1,0.3-0.2,0.5-0.2c1.1-0.2,3-0.8,3.7-1.6
				c0.9,0.2,1.7-0.2,2-1.1C216.1,267.6,215.8,264.9,214.4,264.9z"/>
			<path class="st2" d="M205.9,231.6c0,0.8,4.2,0.5,5.3,0.5c0.2,0,0.4,0,0.5-0.1c1-0.6,1.5-1.6,1.2-2.7c-0.1-0.4-0.9-0.5-1.6-0.5
				c-0.3,0-0.7-0.1-0.9-0.3c-0.4-0.4-1.9-0.2-2.3-0.2c-0.1,0.5-0.7,0.6-1.3,0.6c-0.4,0-0.7,0.2-0.9,0.6
				C205.5,230.3,204.7,231.8,205.9,231.6z"/>
			<path class="st2" d="M176.4,208.5c-1.2-2.9,0.7-7.2-0.4-10.2c-0.1-0.4-0.5-0.6-0.9-0.7c-1.1-0.4-1.5-2.5-1.7-3.5
				c0-0.1,0-0.1,0-0.2c0-0.8,0.5-2.6,0.2-3.6c-0.1-0.4-0.5-0.7-0.9-0.8c-1.4-0.2-2.8-1.1-4.1-1.1c-0.7-0.1-1.8-2-2.4-3
				c-0.2-0.3-0.6-0.6-0.9-0.6c-1.9,0-4.9-0.5-6.7-0.7c-0.3,0-0.6,0-0.8,0.2c-1.1,0.9-3.7-0.1-4.7-0.8c-1.4-0.1-2.9-1.5-3.7-2.8
				c-0.2-0.3-0.6-0.5-0.9-0.5c-0.7,0-1.5,0-1.6-0.5c-1,0.3-2.6-0.4-3.5-0.9c-0.1-0.1-0.3-0.2-0.4-0.3c-6-8-1.2-27.7-0.7-37.6
				c0.4-3.3,3.8-7.1,3.5-10.5c0-0.1-0.1-0.3-0.1-0.4c-0.5-1.1-0.8-2.9-0.2-3.9c-0.5-4.3-3.4,1.8-4.4,3.5c-0.2,0.3-0.4,0.4-0.7,0.5
				c-12.3,3-7.7-6.5-13.7-14c0.5,0,1.6-0.3,2.1,0.1c0.2,0.2,0.4,0.3,0.7,0.2c0.6,0,1.6,0.1,2.1,0.1c0.2,0,0.4,0.1,0.5,0.2
				c0.3,0.2,0.7,0.5,1,0.7c0.2,0.1,0.4,0.2,0.6,0.2c0.6,0,1.4,0,1.5,0.6c0.5-0.1,2.6,0.3,3.1-0.2c0.2-0.2,0.4-0.3,0.6-0.3
				c1.7,0,4.1,0.7,5.9,0.6c0.3,0,0.6,0.1,0.8,0.2c0.6,0.5,1.5,0.1,1.9,1.3c0.7,0.2,2,0.9,2.3,1.7c0.6-0.1,1.1,0.3,1.2,0.8
				c-0.9,1.7-2.5,0.6-3.7,3.5c-1.9,0.4-1,1.7-0.1,2.7c0.2-0.6,0.9-0.6,1.5-0.6c0.3,0,0.5-0.1,0.7-0.2c0.6-0.5,1.6-1,1.5-1.8
				c0.5-0.3,1.2-0.7,1.5-1.2c0.2-0.3,0.4-0.4,0.7-0.5c0.6-0.1,1.1-0.4,1.2-1c0.6,0.1,1.2-0.3,1.6-0.8c0.2-0.2,0.4-0.3,0.6-0.3
				c0.6-0.1,1.9-0.4,2.5-0.5c0.3-0.1,0.5,0,0.8,0.1c3.1,1.4,4.3-1.3,4.5-3.8c0-0.2,0.2-11.3,0.1-11.5c-0.6-1.1,0.7,6.9-1.6,6.5
				c-0.6-0.1-1.2-0.5-1.2-1.1c0.1-4.7,2.9-3.5,3.4-8.1c0-0.2,1.2-7.4,1.3-7.5c1-1.1,2.4-5.1,3.1-6.7c0.1-0.3,0.1-0.6,0.1-0.8
				c-0.5-1.4-1-3.8-1.1-5.1c-0.2-2.1,0.7-6.9-0.5-8.9c-0.1-0.1-0.2-0.2-0.3-0.3c-2.7-2.1-6.6-4.8-10-4.7c-0.2,0-0.3,0-0.4-0.1
				c-6.9-3-18.1-5.9-21.5-13c-0.1-0.2-0.3-0.4-0.5-0.5c-0.8-0.4-1.5-1.9-2.4-1.6c-0.4-0.5-1.3-1.1-2-1.1c-0.3,0-0.5-0.1-0.7-0.3
				c-1.1-1-1.7-2.7-3.3-2.9c-1.5,0.3-2.8-1.3-3.8,0.2c-0.1,0.2-0.4,0.4-0.6,0.4c-0.4,0.1-1.1,0.3-1.6,0.4c-0.3,0.1-0.6,0.3-0.7,0.5
				c-0.4,0.7-1.2,0.7-1.9,0.5c-4.1-1.9-8.3-8.2-6.2-12.8c0.1-0.1,0.1-0.2,0.2-0.3c0.8-0.8,2.7-1,3.9-1.1c0.3,0,0.6-0.1,0.8-0.3
				c0.3-0.3,0.8-0.8,1.2-0.6c1.4-0.4,2.4-2.4,2.8-3.8c0.1-0.2,0.2-0.4,0.4-0.6c1.2-0.9,3.3-2.4,4.8-2.7c0.2,0,0.5-0.2,0.6-0.4
				c0.2-0.3,0.6-0.6,0.9-0.8c0.3-0.1,0.6-0.5,0.7-0.9c0.4-2.5,0.5-7.7-2.3-7.1c-2.8,0.7-1.3,2.5-3.9,2.6c-0.7,1-2.4,0.9-2.8,2
				c-0.1,0.3-0.4,0.6-0.7,0.7c-0.9,0.3-1.7,1.1-2.2,1.7c-0.3,0.1-0.9,0-1.3,0.2c-0.3,0.1-0.7,0.2-1,0c-2.5-1.2-3.9,1.9-6.2,2.5
				c-0.2,0.1-0.5,0.2-0.6,0.4c-1.6,1.9-1.6,5.5-2.3,7.8c-0.1,0.3-0.3,0.5-0.6,0.6c-3,1.3-1.9,6-0.5,8.5c0.2,0.3,0.6,0.6,0.9,0.6
				c0.6,0,1.2,0.1,1.6,0.4c0.1,0.1,0.2,0.2,0.2,0.3c1.5,2.7,1.4,9.5,2.1,12.5c1.1,4.2,2.5,10-0.2,13.7c-0.1,0.1-0.1,0.2-0.2,0.3
				c-1,3.2-0.6,7.6,0.7,10.8c0.1,0.2,0.1,0.3,0.1,0.5c-0.3,4,0.4,10.5,1.1,14.4c0,0.2,0.1,0.3,0.2,0.5c0.5,0.7,2.2,3.2,2.9,4.2
				c0.2,0.2,0.4,0.3,0.7,0.4c0.6,0.1,1.1,0.9,1.4,1.6c0.2,0.3,0.5,0.5,0.8,0.5c1.6,0.2,3.3,1.6,4.6,2.7c0.3,0.2,0.4,0.5,0.4,0.9
				c0.1,1.1,1.6,1.1,2.7,1.2c0.5,0.1,0.9,0.4,1,0.9c0.8,3.4,2.9,7.7,3.4,11c1.1,4.9,3.3,11.7,5.6,16.3c5,9.9,5.4,24.2,3.3,35
				c0,0.1,0,0.2-0.1,0.2c-2,4.8-6.7,11.3-5.4,16.9c0.1,0.6-0.2,1.1-0.7,1.2c-1.8,0.6-2.9,3.2-2.8,5c0,0.3,0,0.6-0.2,0.9
				c-0.6,0.8-1.8,1.9-2.4,2.5c-0.2,0.2-0.4,0.3-0.7,0.3c-2.3,0.2-5.4,2.3-7.6,2.7c-0.2,0-0.5,0.1-0.7,0.3c-0.7,0.7-1.9,1.9-2.9,1.9
				c-0.3,0-0.7,0.1-0.9,0.4c-2.6,2.7-6.5,8.8-8.6,11.6c-0.2,0.2-0.2,0.4-0.2,0.7c0.1,1.9,0.6,5.3,0.4,7.1c-0.4,0.7-0.4,1.9,0.2,2.6
				c1.2,0.9,1.8-1.4,2.3-2.5c0.1-0.3,0.4-0.5,0.6-0.6c4-1.5,6.4-1.3,10.2,1.2c0.2,0.1,0.4,0.4,0.5,0.6c0.3,1.5-0.6,4.5,0.1,5.4
				c0.3,1.4-0.9,6.4,1.9,5.9c-4.5,0.5-3.4,4.1-2.2,7.1c0.3,0.8,1.4,1,1.9,0.3c0.1-0.2,0.3-0.4,0.4-0.6c0.2-0.3,0.5-0.5,0.9-0.5
				c1,0,2.6,0,3.6,0.3c0.4,0.1,0.7,0.4,0.8,0.8c1.2,4.6,0.7,10.5,6,3.8c1.4-1.9,2.9-4.3,5.5-3.9c0.3,0.1,0.7-0.1,0.9-0.3
				c2.6-2.6,6-7.3,9.4-8.8c0.2-0.1,0.3-0.2,0.4-0.3c1.7-2.3,4.2-4.2,6.4-6.1l0.1-0.1c1.8-1.2,4.8-1.8,6.6-3c0.1-0.1,0.2-0.2,0.3-0.3
				c1.1-1.6,3.6-3.9,5.2-5c0.2-0.1,0.4-0.2,0.6-0.2c3.4-0.3,6.2-3.7,7.5-6.6c1.9-1.4,2.1-6.2,2.1-8.4
				C176.5,208.8,176.5,208.6,176.4,208.5z M133.7,58.2c0.4-0.5,0-1.5,2.1,1.4s19.3,10.7,21.4,11.5c2.1,0.8,0.8,0.8,0,0.8
				s-5.6-1.3-6.7-1.6s-6.3-2.7-7.5-3.3s-3.7-0.4-3.7-0.4s-1.2,0.5-1.7,1.1s-1.1,0.8-1.9,1.1s-1.1-0.1-2.1-0.9s-0.3-2.4-0.3-3.1
				s-0.6-1.8-0.9-3.6C132.2,59.4,133.4,58.6,133.7,58.2z M115.7,61.6c-1.1,1.8-1.1,2.8-1.2,4.5c-0.2,1.7-1.3,3-1.9,3.8
				s-0.9-0.7-0.8-1.7c0.1-1.1-1.2-5.8-1.6-7.9c-0.3-2.1-0.9-8.1-0.9-8.1c-0.1-1,2.8,0.7,3.7,0.8c0.9,0.2,2.4,0,3.7,0.1
				s0.9,0.3,1.8,0.6c0.9,0.2,0.4,0.9,0.5,1.5s-0.4,1.2-0.9,2.7S116.8,59.8,115.7,61.6z M117.1,75.2c-0.7,0.5-1.1-0.9-1-1.1
				C116.6,73.5,117.8,74.7,117.1,75.2z M119.8,72.5c-0.7-0.2-0.7,0.4-1.3,0.8c-0.7,0.4-1-1.5-0.8-2.5c0,0,1.5,1.8,1.4,1.2
				c-0.1-0.6,1.2-1.8,1.2-1.8c0.7-1,1.3,1,2,2.1C122.8,73.4,120.5,72.7,119.8,72.5z M125.3,70.8c-1.3,0.1-3.7-0.7-2.9-1.5
				s3.3-1.9,3.9,0C126.3,69.3,126.6,70.7,125.3,70.8z M133.7,192.2c-1.3-1.3,2.1-2.1,2.1-2.1C135.5,191.9,135,193.6,133.7,192.2z
				 M138.7,209c-0.7,1.5-1.3,0.4-2.2-0.9s1.5-1.8,1.5-1.8C139.7,205.2,139.5,207.5,138.7,209z"/>
			<path class="st2" d="M216.7,250.9c-1.8,1.3-4,5.2-1.3,6.2c0.6,0.2,1.3-0.1,1.5-0.7c0.2-0.5,0.2-1,0.2-1.4c0-0.2,0.1-0.4,0.2-0.6
				C218.2,253,219.4,250.6,216.7,250.9z"/>
			<path class="st2" d="M218.5,249.3c-1.1,1.8,1.1,1.7,2.2,1.6C221.9,249.1,219.7,249.2,218.5,249.3z"/>
			<path class="st2" d="M225.1,250.8c0,0,0,0.1-0.1,0.1c-0.7,1.2,1.1,2.4,1.9,1.2c0.1-0.1,0.1-0.2,0.2-0.4
				C227.7,250.5,225.7,249.6,225.1,250.8z"/>
			<path class="st2" d="M246.1,193.5c-0.2-0.5-0.8-0.8-1.3-0.7c-1,0.2-2,0.8-2.5,1.6c-0.4,0.7,0.1,1.6,1,1.7c0.7,0,1.4,0,1.4-0.6
				C246.4,195.6,246.6,194.6,246.1,193.5z"/>
			<path class="st2" d="M242.7,201.1c-0.4-0.2-0.8-0.2-1.2,0.1c-0.3,0.2-0.8,0.3-1.2,0.3c0,0.1-0.1,0.3-0.2,0.4
				c-0.3,0.7,0.2,1.5,1,1.6c0.4,0,0.9,0.1,1,0.5C244.5,204.5,244.2,202,242.7,201.1z"/>
		</g>
	</g>
</g>
<g id="Guadeloupe" class="st0">
	<path class="st3" d="M95.5,257.6c1.9-3.5-2-6.8-2.2-0.9c-1.7,1.4-0.2-2.7-2.3-2.2c-0.6,3.9-1.9-0.1,0,4.7c-0.7,2.9-6.8,0.1-6.1,2
		c-0.2,1-1.1,1.2-1.9,1.1c-1.1,1-0.4,2.1,0.9,1.2c0.3,1,1.5,0.9,2.2,1.5c5,0.1-0.4-2.2,6-1.7c0.2,1.2,1.4,0.2,1.4-0.5
		C89.5,260,100.5,258.2,95.5,257.6z M47.8,88.1c0.4-0.3-0.2-0.9-0.3-1.2C47.2,87.4,47,88.1,47.8,88.1z M76.6,262.8
		c-0.9-0.2-0.9-1.2-0.2-1.7c-0.2-2.1-4.2-0.4-4.5-2.5c-1.6,2.2-5,4.1-5.1,7.6c-1.9,1.4,0.8,1.4,1.7,1.6c3.8,3.9,7.5,1.1,8.8-3.3
		C78.5,267.8,81.9,261.8,76.6,262.8z M47.3,89.6c1.1-0.5-1-1.4-0.8-0.4C46.7,89.3,47,89.7,47.3,89.6z M20.1,73.5
		c0.4-0.3-0.2-1-0.6-0.9C19,73.1,19.4,73.7,20.1,73.5z M88.1,265.7c0.2-0.5-0.7-0.6-0.9-0.3C87,266,87.8,266,88.1,265.7z
		 M75.1,258.1c-0.3-0.6-0.9-0.3-0.9,0.3C74.4,258.9,74.9,258.3,75.1,258.1z M89.5,269.5c-1.8-1.7-3.1,0.4-3.8,2.1
		C88.3,272,93.1,273.8,89.5,269.5z M81.6,270.9c-1.4-2.5-0.9,2.1,1.7,0.7C83,271.3,82.1,270.7,81.6,270.9z M12.8,150.8
		c-0.5-0.1-1.8,0.3-1.2,0.9C13.6,152.2,13.6,149.9,12.8,150.8z M47.7,90c0.3,0.7,1.7,0.5,1.4-0.2C48.6,89.9,47.8,89.1,47.7,90z
		 M55.3,94.6c0.5-0.3-0.2-1-0.6-0.9C53.9,94.2,54.6,94.7,55.3,94.6z M61.6,88.9c0.9-0.5,0.7-1-0.3-0.9C61,88.3,61,89.1,61.6,88.9z
		 M98.7,106.8c-0.4-0.6-0.6-3.2-0.9-1.2C96.3,105.9,98.1,107.1,98.7,106.8z M82.7,85.5c1.4-1.8,5.5,1.5,5.4-2.6
		c-0.6-0.6-1.5-0.8-2.3-0.4c-1.8-2.6-3.4,1.8-4.3,3.3C82.1,86.1,82.7,86.6,82.7,85.5z M70.2,81.4c0.4-0.2-0.2-0.5-0.3-0.6
		C69.6,81.1,69.8,81.6,70.2,81.4z M49.5,91.4c1,0.1,0.6-0.3,0.3-0.9C49.1,90.5,48.8,91,49.5,91.4z M51.1,85.6
		c0.4-0.2-0.4-0.7-0.6-0.6C49.6,85.7,50.5,85.6,51.1,85.6z M53.6,86.1c0.5-0.4-0.3-1-0.5-0.3C53.2,85.9,53.4,86.2,53.6,86.1z
		 M53,86.7c0.7-0.4-1.3-1.9-1.1-0.7C52.1,86.1,52.7,86.9,53,86.7z M14.8,79.7c1.2-0.4,0.1-2.3-0.7-2.7C13,77.4,13.7,79.5,14.8,79.7z
		 M234.3,118.6c-0.7-1.3-4.6-3.5-6.3-2.6c-3-2.8-1.4,0.7-4.8-0.5c-4.3-3.2-10.4-3.2-13.9-7.4c-1.1-3.4-3.6-7.5-5.6-10.2
		c-0.9,0-1.4,0.2-1.9-0.4c0.4-1.5-1.9-1.4-2.6-2.5c-1.4-0.8-3.2-1.1-4.2-2.6c-1.9,0.1-4.6,0-4.2-2.3c-2.5,0.5-3,0.9-5.1-1.1
		c-4,0.3-7.1-1.3-10.7-0.4c-0.2,0.3-0.1,0.6-0.6,0.6c-1-2.6-4.3-0.3-6-1.7c-8-0.1-11.7-9.1-15.8-14.8c-1.6-2.7,0-6.6-0.7-9.5
		c1.1-0.5,2.4-2.8,1.1-3.6c4.4-3.5-4.1-14-3.2-19c-0.8-0.7-1.8-1.1-2.7-1.5c0.1-1.7-1.7-0.9-2.5-1.3c-1.6-2-3.8-4.9-6.3-5
		c-1-1-0.1-4.1-2.1-3.8c-0.8,1-3.6,0.7-4.2-0.3c-0.9,0-0.7,1.2-1.3-0.1c1.6-2-2-0.8-0.3-3.3c0.2-1.1-1.2-1.2-1.3-0.1
		c-4.2,0-3.3,5.3-6.6,6.8c-3,2.4-6.9,3-8.4,7.1c-4.7,0.7-2.9,1.4-5.6,4.2c-4.1,0.5-3.3,6.1-5.7,8.6c2.1,1,0.8,1.5,1.8,2.9
		c0.8,1.4,1.2,2.8,0.7,4.5c2,2.3,1.7,6.1,3.8,8.4c1.7-0.3,6.2,3.9,6.4,1.8c-1.3-2.3,1.6,1.6,2,2.2c0.9-0.2,1.5,0.9,1.7,1.6l0.6,0.6
		c-1.7,1.4,0.8,2-2,4.8c2.9,1.2-1.2,2.4,1.9,3.6c-1,0.2-4.7,0.9-4,2c2.3,0.5-3.1,1.6-3.9,1.2c-2.4-2.2-2,0.5-4.3,1.4
		c1.7,0.8-1.4,1.6-1.7,2.1c0,4.3,1.2,9.2-3,11.8c-0.1-1.8-1.6-0.1-1.3,0.8c0.7,1.9,3.7,0.2,2,3.1c-2.9-2.1-2.7,1.4-3.1,3.2
		c1,0.6,0.2,1.4-0.6,0.6c0.3-1.3-2.6-3.6-3.2-1.6c-0.9-1.2-3-0.6-3.2,0.9c-1.6,0.5-1.3-1.5-2.7-1.2c-2,0.9-0.2,0.9-0.4,2.2
		c-1.6,1-1.3,3.7-3.4,3.5c-0.9,1.2-3.7,1.1-4-0.4c1.8-0.9,0.9-1.9,0.8-3.3c0.5-2.2-2.3,1.4-1.7,2.4c-1.3-0.2-1,1.4-2.2,1.7
		c-3.4,0.4-0.2-2.1-0.8-3.7c-4.1,0.6-8.2,1.4-2.7-2.9c-1.6-3.6,2.3,0-0.6,1.2c3.3,3,2.9-4.3,5.6-5.1c-0.8-0.7,0.8,0.1,1.2-0.9
		c-1.3-3.7-5.8,0.2-8.5-0.3c-1.2-1.4-3-1.2-4.2-2.6c-0.8-0.1-3.1,0.5-2.8-1c3.4-2.1-1.6-2.3-2.6-3.4c-1.4,0.6-3.5,0.8-4.9,1.1
		c0.8-0.7-0.3-0.8-0.8-0.4c-1.6,2.4-2.8-4.5-5.2-3.3c1,1.4-0.9,2.4-1.5,0.9c0.1-1.5-2.2-1.7-2.9-2.8c-2.4-0.7-7.2,0.5-7.9-2.7
		c1-1-1.8-1.7-1.8-2.4c1.1-0.2,0.1-0.9-0.5-0.7c-0.8-0.2-2.2-2.9-3-2c-1.4,0.3-2.4-1-3.6-1.1c-1.5-1.5-2.1,1.2-2.9,2.1
		c-3.9-0.8-8.6,0.8-10.8,3.6c1.6,2.3-6.3,3.2-2.9,6.3c-0.1,5.1-9.6,2.3-2.9,8.1c-4.2,0.5-2.5,6.6-2.9,9.2c-1.1,3.6-3.6,0-0.8,6
		c-1.2,1.5,1.2,4.4,1.6,5.9c-0.3,1.8,1.8,2.3,2.3,3.7c9.2,6.3,0,13.2,4.8,17c-1.1,2.5-0.5,5.3,2.2,5.9c0.3,2.2,0,5.6,0.4,8
		c-0.6,0.9-1.1,2.4-1.4,3.3c1.9,1.3,3.6,0.9,3.3,4.1c-3,1.3,0.4,7.3-1.4,8.9c1.4,0.9,0.1,2,1.2,2.4c0.4,0.4-1.5,3.2,1.8,2.6
		c-1.8,1.9,0.2,6.6-1.1,8.9c0.1,4.7,3.7,5.7,5.8,9.4c4,3.3,1.2,9.2,5.4,12.6c4.6,4.8,14.8,9.2,11.1,17.2c2.3,4.1,7.4,2.1,11.5,0.9
		c2.4-0.6,2-4,4.7-4.2c1.8-1.2,1.4,3,3.8-0.9c1.8-1.3,3.5-1,5.7-1c0.9,0.7,1.9,0.2,3,0.2c0.3-2.3,3.2-0.8,4.3-2
		c-1.2-4.3,2.1,0.1,1.4-5.7c0.7-1.7,4.3-1.4,3.8-3.9c0.7-0.7,2-1.2,2.5-2.3c3.5-2.4,6.5-5.1,9.6-8c-0.4-0.8,1-1.9,1.4-2.4
		c-0.6-3.1,1.8-4.8,3.2-7.2c-3.9-5.8-0.2-13.6-3.4-19.7c-4.2-1.3-2-5.8,0.9-7c0.3-4.2-5.4-1.7-6-5.9c3.1-4.9-1.1-1.3-2.5-7.1
		c-0.6-2.2,2.4-2.7,1.7-4.8c-4-1.5-5.1-6.5-1.3-9.2c0.1-1.3-3.1-2.2-0.6-3.2c-2.2-2-0.8-6,0.9-8.2c3.8,1.9,1.6-1.1,7,1.8
		c-0.9-3.1,3.9,1.7,5.1-0.4c-1.4-0.4-1.9-3.3-0.4-3.9c0.1-1.1-2.8-3-0.8-3.1c6.6,3.3,2.7,5.2,5.9,6c-0.6,1.1,0.3,2.2,1.2,2.7
		c-2.7,0.4,1.6,1.7,0.9,2.1c0.2,3.9,3.7,2.6,6.1,1.6c2.6,1.4-0.6,3.3,3,4.1c5.6-1.1,11.3,4.8,16.1,1.6c5.1,1,5.8-4.1,10.7-3.4
		c1.4,1.4,4.6-0.9,6.5-1c5.8-5.9,4.1,1.6,6.5-3.9c6.3,1.3,4.8-1.7,9.8-4c2.8-1.1,7.1-0.5,9.2-2.8c1.3-0.4,5.1,0.9,5.4-0.7
		c5.6,2.7,17.9-3,23.7-4.5c9.1,1,20.5-0.1,28.6,4.3C235,120,236.8,118.2,234.3,118.6z M113.4,82.2c-0.6,0.2-0.7,0.6-0.2,0.9
		C113.8,83.2,113.8,82.4,113.4,82.2z M102,103.3c0.3-0.8-0.8-1-1.2-0.6C100.5,103.6,101.5,103.7,102,103.3z M90.8,144.4
		c0,0.6,0.6,0.9,0.9,0.3C91.5,144.5,91.1,144,90.8,144.4z M95.7,155.6c-0.1,0.4,0.4,0.6,0.6,0.3C96.4,155.4,95.9,155.2,95.7,155.6z
		 M107.4,82.9c0.4-1.1-1.4-0.9-2-0.7C105.6,83.1,106.8,83,107.4,82.9z M262.4,140.9c-0.7,1.1-2.4,0.4-3.1,1.4
		C260.4,143.9,264.8,142.2,262.4,140.9z M304.7,110.7c0-0.6-0.7-1.3-1.1-1.6c1-0.2,0.6-1.4-0.3-1.5c-0.3-2.5-2.2-1-3.8-1
		c-0.7,2.5-4.6,1.4-5.4,3.8c-5,0.7-8.4,6.3-13.8,7.4c-1.7-1.4-2.2,1.7-3,2.5c-1.6,0.2-4.2-0.2-5,1.5c0.1,1.2-2.6,1.7-1.8,2.8
		c0.5,1.5-1.4,3.2,0.2,4.1c1.5-0.6,2.6-2.5,4.8-1.9c2.8-3.2,7.1-3.1,10.9-3.9c5.5-1.7,9.4-7.6,15-8.6c0.2,0.3,0.6,0.3,0.9,0.3
		C303.2,111.9,307.7,113.7,304.7,110.7z M260.6,143.1c-2.2,1.1-5.3,0-7.4,0.9C252.8,147.3,265.7,146.6,260.6,143.1z M114.4,82.2
		c0.5-0.4-0.7-0.4-0.8-0.1C113.7,82.2,114.2,82.1,114.4,82.2z M106.4,129.6c-0.5-0.1-0.5,0.5-0.4,0.8
		C106.8,130.9,107.3,130.1,106.4,129.6z M99.1,140.4c-0.4-0.1-0.6,0.4-0.3,0.6C99.2,141.1,99.4,140.7,99.1,140.4z M97.7,127.2
		c0.2-0.5-0.7-0.6-0.9-0.2C96.6,127.5,97.5,127.5,97.7,127.2z M99.1,129.1c-1.5-1.2-1.9-0.1-0.3,0.6C100,130.1,100,128.3,99.1,129.1
		z M96.8,256.2c-0.3,0.6-0.9,1.4,0.3,1.2C97.4,257.2,97.4,255.9,96.8,256.2z M103.4,131.8c-0.8-2.3-2.1-0.5-0.9,0.9
		C104.4,133.1,107,131.2,103.4,131.8z M121,137.1c-0.8,0.9,1.2,1.4,1.1,0.4C121.8,137.2,121.3,137,121,137.1z M96.7,128.6
		c-0.8,0.7-0.1,0.4,0.3,0.9C97.3,129.3,97.2,128.4,96.7,128.6z M85.6,257.1c1.1,2.1,3.4-0.3,2.1-1.6
		C86.1,255.6,81.6,255.9,85.6,257.1z M227.9,231.7c-1.7-5.6-6.5-8.1-10.6-11.3c0.7-1-0.1-1.6-1.1-1.3c-2.5-2-0.3-2.6-1.8-3.2
		c0.8-2.5-1.9-3.5-3.9-4c0.2-2.1-0.7-0.5-1.9-1.2c-1.1-0.9-2.9-0.4-4.2-1.6c-0.8-1.6-3.8-2.5-5.7-2.8c-1.4-1.9-1.6,0-3.1,0.1
		c-0.5,0.8-3.4,0-3.9,0.7c-1.1,1.6-2.5,3.6-3.5,5.3c-3.3,1.6,0.5,4.6-6,4.7c1.1,6.8-0.2,9.5-6.2,12.8c-0.9,5.1,3.7,10.4,2.2,15.2
		c3.8,8.4,12,8.2,18.7,11.9c8.3-0.4,16.2-3.1,22.2-8.9C224.3,243.1,229.1,240.6,227.9,231.7z"/>
</g>
<g id="Martinique" class="st0">
	<path class="st3" d="M215,238.3c-1.6-0.4-1,2.1,0,2C215.9,239.7,215.1,239,215,238.3z M228.5,230.1c-1.2,0-1.2,1.6-0.1,1.9
		C229.1,231.4,229.3,230.7,228.5,230.1z M171.4,206c-0.3-0.4-0.6-1.3-1.2-0.7C169.8,206.2,171.4,207.4,171.4,206z M147.1,217.9
		c-1.1-0.3-1.8,0.9-1,1.7C147.6,219.9,148.7,218.9,147.1,217.9z M228.7,228.1c-0.4,0.4-0.9,1.2-0.3,1.7
		C229.4,229.9,230.1,227.2,228.7,228.1z M230.7,222.5c0.2-0.8-1.3-0.6-0.9,0.1C229.9,222.6,230.6,222.7,230.7,222.5z M230.1,222.9
		c-1.4,0.9-0.3,2.3,1.1,1.9C231.9,223.6,231.7,222.4,230.1,222.9z M232.2,221.9c-0.8,0.5,0.3,1.4,0.7,0.6
		C233.2,222.1,232.6,221.7,232.2,221.9z M176.9,89.3c1.6,0.1,0.6-1.5-0.1-2C175.9,87.9,175.8,88.8,176.9,89.3z M222,148.1
		c1.4-0.1,2-1.8,0.6-2.5C222,146.3,220.7,147.4,222,148.1z M213.9,87.6c0.2-0.9-0.7-1.4-1-0.4C213.2,87.5,213.4,88.1,213.9,87.6z
		 M224.2,132.8c0.6-0.1,0.7-1,0.3-1.4C223.6,131.3,223.6,132.5,224.2,132.8z M226.9,170.2c0.6-0.6,1.8-1.3,0.7-2.1
		C226.4,168.2,224.7,170.6,226.9,170.2z M221.1,151.4c-1.4-1.4-3.1,1.2-4.5,1.7c0.2,1.9,2.6-0.3,3.6,0
		C222.3,154.2,221.6,152.5,221.1,151.4z M216.6,155c0.7-0.5,0-1.6-0.8-1.2C214.8,154.4,215.7,155.2,216.6,155z M220.8,146.9
		c0.6-0.5,0.4-1.8-0.5-1.7C219.2,145.7,219.5,147.1,220.8,146.9z M217.6,149.8c2.4-2.2-0.8-1.4-2-0.6
		C215.4,150.3,216.9,150,217.6,149.8z M147.9,160.4c0.3-1.6-1.8-0.2-0.6,0.4C147.5,160.7,147.8,160.6,147.9,160.4z M210.9,123.5
		c-0.4-0.7-1.7-0.1-1.1,0.7C210.3,124.3,211.2,124.1,210.9,123.5z M210.6,128.2c0.2-0.2,0-1-0.3-1.1
		C209.1,127.1,209.7,129.1,210.6,128.2z M208.8,130.1c1.8,0.3,1.3-1.6-0.1-1.6C208.2,128.9,208.3,129.7,208.8,130.1z M232.7,220.5
		c-0.2,0.2-0.5,0.5-0.4,0.8C232.8,221.8,233.7,220.5,232.7,220.5z M211.3,94.9c-0.4-0.7-1.4-0.8-1.4,0.1
		C210,96.5,211.6,96.6,211.3,94.9z M205.7,143.8c0.9,1.7,2.2,2.6,2.6,0.1C207.5,143.6,206.1,142.4,205.7,143.8z M188.2,104.8
		c-0.2,1.3,1,1,1.3,0.1C189.3,104.3,188.6,104.4,188.2,104.8z M197.8,122.8c-0.2,1,0.5,1.2,1.2,0.6
		C199.5,122.2,198.5,121.8,197.8,122.8z M208.5,121c-0.4,0.6-0.2,2.2,0.8,2.2C210.2,122.5,209.3,121.3,208.5,121z M156.2,177.7
		c0.5-3.4-5.1-0.2-2.1,0.8C154.6,178.2,155.7,177.6,156.2,177.7z M225.2,228.6c-0.7,0.7,0.9,1.2,1.1,0.5
		C226.1,228.8,225.7,228.2,225.2,228.6z M237.5,211.8c-1,0.1-1.7-0.8-2-1.6c-3.1-1.6,1.2-3.6,1.8-5.5c0.3-0.8-0.8-1.7-1.3-2.1
		c-0.3-0.7,0.3-2.3-0.4-2.8c-1.7-2.7-2.1-0.7-3.3-1.9c0.4-3.5,1.1-10-4.3-6.6c-0.1,1.1-0.8,0.8-1.3,0c0.2-0.6,1.4-0.9,0.8-1.6
		c0.3-0.6,2-1.2,0.6-1.7c2.3-2,3.4,3.3,3.8-3.7c-0.4-1.7-1.5-0.7-2.6-0.5c-1.2-0.2-2.8-0.2-1-1.3c2.2,0.9,3-0.6,2-2.6
		c-0.7-1.6-3.5-1.7-3.6-3.2c0.9-3.1,2.4-2.1,3.3-4.5c-0.7-1.9,3.2-3-0.2-3.6c-11.1,7.8,0.1,0.4-7.4,1.5c1-0.3,3-1.3,1.8-2.3
		c-1.7-0.1-3.4,2.3-3.4-0.4c-1-1.7,3.4-0.9,4.2-1.7c-0.4-1.1-2.5-0.9-3.6-1c-1.3-1,1.8-0.3,1.9-1c-0.5-1.1-1.8-0.8-1-2.1
		c-1.5-1-0.8-2.1-1.6-3c-1.6,1.9-3.3,2.1-5.7,1.9c-0.3-1.3-2.1-1.9-2-3.2c3.4-1.4-0.9-3.1-1.9-4.9c-0.6-2,3-1.4,2.9-3.1
		c-0.2-0.5-1.6-0.3-2-0.4c-1.3-1.9-2.5,1-3.5-0.2c-2.2,1.9-0.4,0.3-1.9-0.4c-1.1,0.5-2.6,1.1-3.9,0.4c0.8-1.1,0.5-1.2,0.5-2.6
		c1.4-0.4,3-2,1.7-3.5c-2.1-0.7,1-1.4,1.5-2.1c-1.8-0.7-4.5-0.7-6.2-2.2c1.4-2.2,0.8-1.8,2.6-0.2c1-0.2,1.9-1.4,3.1-1
		c1.2-1.1,0.1-1.3,2-1c0.4-1.9,3.1-6.1-1-5.6c-1.4,0.2-1.9,1.3-1.8,2.6c-3.7-0.3-1.5-0.5-2.3-2.2c-0.8-0.3-1.4,0.4-1.9,0.9
		c-0.3-0.9-0.8-1.5-1.8-1.3c-0.7,0.3,0.3,0.8-0.1,1.3c-1.1,0.2-1-0.6-1.7-1c-2.4,0.2-3.1,2.3-3.8,4.3c-1.2-0.2-2,1.1-3.3,0.7
		c-1-1.2-2.1-2.9-2.2-4.5c-3.5-1.1-3.1-2.2-0.8-4.3c0.1-5.9,2.9,2,5.3-1.3c-2.8-1.5-1.8-4.1,1.3-3.5c1.7-0.8,2.6-2.1,3.4,0.3
		c1-0.3,1.8-1.8,1.9-2.8c0.4,0.1,2.4,0,2.6-0.7c-0.4-0.7,0.8-1.1-0.3-1.6c1.6-1.5-0.8-1.2-1.6-0.4c-4.2,0.7-3.1-2.9-3-5.8
		c-1.9-1.5-2.6,0-3.2,1.8c-1.2,0.2-2.2,1.2-3.6,1.4c-2.4-0.7-0.3-1.9,0.9-2.6c-0.3-1.3,0.2-2.1,1.3-2.6c-0.7-2-3.8-0.7-3.3,1.3
		c-1.2,1.3-2.6-1.1-3.2-1.9c-0.7-0.1-1.6-0.8-1.8-1.5c0.6-4.2,1.5-1.7,3.6-2.5c0-2.2-3.7-1-2.9-3.8c1.6-0.2,2.2-1.7,2.6-2.9
		c0.9,0.4,5.4-0.8,5.6,1c5.4-0.3,3,4.3,5.6,4.9c1.9-1.6,5.1,2.1,5.8-0.7c3.1,1.8,0.8-0.6,1.4-1.9c-0.7-0.7-2.9-0.3-2.9-1.4
		c0.7-0.1,1.7-0.8,1.4-1.6c2.2,1.3,3.3-1.8,1.6-3.2c-0.9-0.6-2.7-0.1-2.3-1.7c1.6,0,1.3-3.1,3.7-1.7c1.8-1.5,1.2,1.7,2.4,2.4
		c1.7,1,6.1-0.6,2.4-1.5c-0.3-0.9,0.6-2.9,1-3.7c-1.2-0.4-0.6-1.2-0.7-2.1c-0.7-0.9-1.6,0.9-2.3-0.6c-0.8,0.4-2.3,0.1-2.6-1
		c-1.6-0.2-2.1,2.4-3.1,3.3c-1.1,0.6-2.7,0.5-3.4,1.6c-0.1,0.6-0.6,0.9-1.1,1.1c-0.9-1.8-3.1-1-2.8,0.9c-0.7,0.9-2.5,1.1-3.3,2
		c-3-2.6-3.7-2.8-7,0.1c-0.7,0.6-2.7-0.1-3.3,0.6c-0.3,2.5-3.9,3.6-2.9,6.6c-1.6,3.5-4.9-0.6-2.7-2.6c-2.8-1.1-1.9-2.5-2.3-4.6
		c-0.8-1.3-3.3-1.7-2.9-3.5c-0.9-0.7-2.6-1.2-3.2-2.4c-0.3-0.7,1,0.1,1.2,0c0.5-0.1,0.3-0.8,0-1c0-0.2,0.1-1.3-0.4-1.3
		c-1.8,0.5-4.3,0.2-3.9-2.3c0.7-0.1,1.1-0.9,0.9-1.5c-4.7,0.7-2.1-0.3-5.8-3.4c-0.4-1.8,1.7-2.8,0.4-4.3c-0.2,0.2-0.9-0.2-1.1,0.3
		c-1.3-3.7-2.4,3.1-5.2-1.1c-1.1-1.4-0.5-3.8-2.3-4.8c-3,0.3-2.3-0.2-1.6-2.2c-0.9-1.6-2.3-0.7-3.6-1c-0.2-0.1-1.3-2.2-1.9-1.7
		c-0.5-1.4-2.6,0.8-3.5,1c-1.3-0.3-2.7-1.7-3.9-1.9c-0.6-3.2-3.4-2.1-5.2-3.7c-0.8,0.2-2.1-0.5-2-1.4c-1.1-1.2-3.2-1.3-4.6-2
		c-0.9-0.9-2.8-4.1-4.6-3.5c-1.6-1.1-4.2-2.8-6.2-2.2c-2.3-2.2-5.8-1.6-8.1-3.7c-5.1,0.2-11.5,0.5-16.8,1.4
		c-2.9,2.8-6.5,4.4-10.2,5.2c-1.6,1.4-2.9,3.6-3.5,5.6c-1.4-0.3-1.9,1.7-2.1,2.6c-2.6,2.9-4,7.7-3.6,11.6c0.7,0.9,0.6,2.8,1,3.9
		c2.3,2.2,2.6,6.4,4.8,8.5c3.3,0.1,4.6,2.5,5.8,5.1c0.9,0.9,6.2,5.6,7.2,6.8c1.8,2.4,2.5,5.2,0.3,7.7c-0.7,4.2-2.8,8.4-0.8,12.6
		c2,4.9,4.9,9.6,8.4,13.3c1.1,2.7,2.8,5.1,4.2,7.6c1.2,0.3,3.3,0.9,4,2c0.4,3.8,1.8,3.4,4.6,4.3c1.8,0.7,5.5,1.5,6.6,3
		c2.1,1.8,4.5,3.7,5.3,6.6c2,2.2,2,4.3,5.5,3.1c3-1.5,5.4-1.1,7.3,1.1c0.7-1.9,2.1-1.8,2.9,0.4c1.4-0.1,3-1.1,4,0.6
		c0.6,0,2.7-0.2,3,0.4c3,0.8,0.6-3.5,0.7-4.7c2,0.2,4.7-0.1,5.6-2.3c0.8-0.1,0.7,0.6,0.8,1.1c1,0.1,0,1.2,0.3,1.9
		c1.8,2.1,3.3,4.7-0.8,4.6c-0.9,0.5,0,1.4-0.2,2.3c0.8,1,2.2,0.4,2.5,1.5c1.4,0,1.6,2.3,3.2,2.3c-2.5,2.5-0.5,3.5,0,6.4
		c1.4-0.9,3,0.9,4.3,0.3c2.6-0.5,1.3,0.8,2.7,2c0.8,0.2,1.3,1.2,1.1,2c-0.6-0.9-1.1-1.5-2.3-1.4c-3.2,2.2,1.4,0.4,0.8,2.4
		c-1.3,0.2-3.8,1.4-4.2,3c-0.6-2.7-3.4,0.5-3.6,1.6c-1.4,0-0.7-1.1-1.3-1.6c-3.9-0.9-2.7,2.6-4.2,0.7h-1.1c2.1-2.8-5-0.3-4.5-3.4
		c2.5-0.5,2.4-1.6,2.3-3.9c-1.8-1.4-3,2.6-5.3,1.7c0.6-0.7,0.7-2.1,0.6-2.9c-1.1-1.2-2-2.1-2.3,0.3c-0.9,0.6,0.3,1.4,0,2.3
		c-3.4,1.1-2.7-0.9-4.3,4.3c-1.8,2.1-3.8-2.6-6.9,1.9c-1.1,0.6-3.5,1.6-2.6,3.3c-0.4,0-1,0.5-0.7,1c-2.4-0.2-2.9,3.7-2.9,5.3
		c-0.4,0.3-1.4,1.3-1,1.9c2,1.2,6.9-0.5,6.2,3.3c-2.1-0.7-3.1,3.1-1.2,3.7c5.1-1.2,3,4,1.9,6.6c0.8,2.3,2.8,2.8,5,2.2
		c1.9,1.5,0.8,5.2,4,5.3c3.6,1.6,6.7-2.5,6.6-6c2.2-2.5,6.1-2,9-3.5c0.9-0.2,2.1,0.1,2.3,1.1c0.7,1.3,6.3,4.1,3.6,0.9
		c0.5-1.6,1.3-1.8,2-0.3c0.5,4.7,1.9,1.7,3.6,2.9c1.4,0.4,2.4-0.1,1.4-1.6c0.5-0.7,0.1-1.9-0.2-2.6c2.2,2.6,1.8,2.7,3.1-1
		c0.9-1.5,2.5,2,1.8,2.7c-1.6,1.3,2.4,3.7,3.9,0.5c1.9-0.6,2.3,2.1,3.9,1.8c1,1.9,3.1,0.2,4.4,0.9c1.9,0,3.8,1.1,5.7,1.2
		c1.6-1,5.4-0.9,5.8-3.4c-0.1,1,1.4,0.8,2.1,0.8c0.7,0.9-0.4,2,0,3c1.2,0.8,2.5,3,4,3.3c0.5,1.1,1.1,2.8,2.3,0.9c1.6,0,1.5-2,2.2-3
		c1.5-1.7,3.2-3.2,5.2-4.1c-0.3-0.9,1-0.9,1.4-0.4c0.7-0.2,3.6-0.2,3.5,1c1.3,1.9-1.9,2.8-0.9,4.2c-1.2,0.3-2.1-1.6-2.7,0.4
		c0.3,5.6-2.6,0-4.2,1.6c0.1,2.7,2.6,5.4-0.3,7.6c0.1,2.4-3.1,2.9-3.3,4.7c5.3,3.8,0.8,1.6,3.9,5.9c1.1,0.2,3.1,1.4,2.5,2.8
		c1.4,0.6,3.6,1.7,5,0.6c1.2,0.7,2.9,0,4-0.7c-0.5-2.3,1.7-3.3,2.5-4.9c1.3-1.8,2.3,0.5,3.9,0.1c1.2-1.4-0.2-2.4-1.7-2.3
		c-0.4-0.5,0.8-3.4-1.2-2.1c-0.1-0.9-0.4-0.8-1.1-0.9c0.1-2.3,3.3-1.5,3.3,0.4c2.6,1,3.1-1.9,3-3.9c1.2-0.1,1.3-1.6,2.6-1.1
		c1.1-1.6,1.5-4.5,1.3-6.5C235.3,211.2,238,213.6,237.5,211.8z M234.6,217c-0.1,0.3-0.9,1.2-0.5,1.4
		C235,218.9,235.8,217.3,234.6,217z M204.6,120.2c0.6,1.1,1.7,2.3,2.6,0.8c1.2-0.6,3.4,1.2,3.4-0.9c-1.5-2.1-4.4-1.4-6.2-1.8
		c-0.4,0.4-1,0.3-1.4,0.1C202.3,119.2,203.7,120.4,204.6,120.2z M202.7,122.2c-0.9-0.3-1.9,0.7-0.9,1.4
		C202.6,123.6,203.3,122.9,202.7,122.2z M203,124.5c0.5-0.3,0.4-0.7,0-1C202.3,123.6,201.8,124.7,203,124.5z M161.1,177.1
		c0.3-0.2,0.4-0.8,0.1-0.9C160.2,175.9,160,177.3,161.1,177.1z"/>
</g>
<g id="Réunion" class="st0">
	<g id="Calque_7" class="st1">
		<path class="st2" d="M47.4,142.3c0,0-3.8-3.4-5.2-4.8c-1.4-1.3-6.2-6-6.7-8.2c-0.4-2.2,0.9-7.3,0.7-8.7c-0.2-1.3-2.7-4.1-2.6-5.4
			s2.2-3.3,2.7-3.9c0.4-0.6,3.7-3.9,4.2-5.1s2-0.4,3.2,0s4-0.3,6.2-1.7c2.2-1.3,5.4-3.8,6.3-5.9c0.9-2.1,2.1-8.6,1.9-10.6
			s-2.2-4.6-2.3-6.3s1.3-3.1,1.6-4.4c0.2-1.3,0.5-2.6,0.8-3.6s0-2.7,0-3.8s1.3-1.9,2.1-2s1.8,2.4,4.2,2.4c2.4,0,7.3-1.2,7.3-0.7
			s-2.1,0.9-1.4,1.3c0.7,0.5,0.6-0.1,1.5,0.9s2.4,0.6,2.3-0.3s-1.7-2.1-0.7-1.9s4.3-1.1,4.3-1.1s3.6-1.1,4.4-2.3
			c0.9-1.2,0-2.4,2-3.6s6.7-4.2,9-6.1s6.4-5.6,7.4-6s4.1-0.7,5.3-1s2.6-2.4,4.9-1.6s3.9,1,5.4,0.8s2-1.9,3.6-1.6
			c1.6,0.3,2.9,2.4,5.6,3.8c2.7,1.4,6.7,1.8,9.4,1.6c2.8-0.2,3-2,5.2-1.6s4,2,8.4,2.2s4.4,1.3,5.3,1.9c0.9,0.6,3,1.4,4.3,1
			s0-1.8,2.3-1.2s5.3,0,6.8,0.7c1.4,0.7,2.6,1.7,3.9,1.3c1.3-0.3,1.3-0.8,3-0.2c1.5,0.5,3.7,2.1,4.2,2.5c0.1,0.1,0.2,0.1,0.3,0.2
			c0.6,0.3,3,1.7,4.5,2.1c1.8,0.6,6.1,0.2,7.9,1.1s7,2.3,8.3,3.9s2.7,3.1,4.1,4.9s3.7,3.1,4.7,4.2s1.3,4.2,2.9,5.8s3.1,4.3,3.2,8.6
			s-0.3,10.3,0.7,12.7c1,2.3,0.9,4.9,1.9,5.7s2.6-0.3,3.9,1.1s2.8,5.6,3.9,6.3c1.1,0.8,1.8,0,1.7,1.4s-0.7,3.4,0.7,5.4
			c1.3,2,8.8,9.9,9.6,11.3s0.2,2.2,1.7,3.4c1.4,1.2,4.2,3.7,5.4,6.6s1.7,3.4,2.8,3.4s3.1-1.2,4.8,0s2.9,3.6,4.7,4.3
			c1.8,0.8,4.3,0.2,5.7,2c1.3,1.8,0.3,2.6,1.2,4s3.1,2.2,2.7,3.7c-0.1,0.5-0.3,0.8-0.4,1.1c-0.3,0.6-0.5,1.3-0.3,1.9
			c0.2,1,0.5,2.5,0.8,3.8c0.6,2.2,1.2,1.9,0,2.3s-1.3,1.3-2.1,1.1s-0.8-1.1-0.8-1.1s-1.9,0.3-1.3,3.1s1.6,3.6-0.1,5.1
			c-1.7,1.6-2,0.9-3,2.4c-1,1.6-2.2,4.4-2.7,6.4s0.3,3.2-0.3,5.2c-0.7,2-0.6,2.4-1.1,4.3c-0.6,1.9-2.1,3-0.9,5.7s-0.6,3.8,0.3,5.3
			c0.9,1.6,3.1,1.6,2.3,3.6s-1.3,1.4-1.4,4.4s-0.3,6.8,0,8.3s1.9,4.1,1.6,5.2c-0.3,1.1-2.8,6.4-4.2,6.9s-4.8,3.2-5.7,3.9
			s-1.8,2.3-3.9,2.2s-4.9-1.8-6.1-1s-1.3,2.1-3.3,2.2s-4.2-0.9-6,0c-1.5,0.8-6.2,2.5-7.6,3c-0.3,0.1-0.5,0.1-0.8,0.2
			c-2.9,0.2-7.1-0.3-10-0.5c-2.5-0.2-1.7,2.5-3.2,3.2c-1.6,0.7-4.3-1.1-5.7,0s-2.6,4.4-4,3s-3.6-3.9-7-3.2s-3.9,2-6.2,1.7
			s-4-2-5.7-2.9s-2.1-3.3-3.8-2.8c-1.7,0.6-3.2,2.7-5.4,2s-1.2-1.4-3.3-1.4c-0.5,0-1.1,0.1-1.5,0.1c-1.4,0.2-2.9-0.3-4-1.3
			c-0.2-0.2-0.4-0.4-0.7-0.5c-1.7-1-2.5-1.4-5-2.3c-2.5-0.9-9.3-3-10.7-4.1s-4.8-1-6.1-0.6s-1.9,0.6-2.3-0.4
			c-0.2-0.5-0.8-1.1-1.2-1.4c-0.4-0.4-0.9-0.6-1.4-0.7c-1.1-0.2-3.1-0.6-4.7-1.1c-2.3-0.8-2.6-1.3-2.4-2.6c0.1-1.2,0.2-1.7-1.1-2.3
			s-3.9,0.3-6.9-0.7s-6.9-2.9-8-4.4c-1.1-1.6-2.4-4.1-3.8-5.3c-1.3-1.2-4.1-5.1-12.1-6.4s-10.4-0.4-11.6-1.6
			c-1.1-1.1-3.1-2.1-2.6-3.3c0.6-1.2,1.1-1.4,0.3-2.7c-0.8-1.2,0.4-2.3-2-3.9s-4.9-3.8-5.8-5.1s-4.6-2.9-5.8-3.8s-1.1-1.6-1.7-3.2
			s-2.3-4-2.7-5.8c-0.3-1.8-2.3-1.8-1.5-3.2s2-5.3,2-8.8c0-3.4,0.1-7-0.8-8.7s-3.9-2.9-4.8-3.4s-1.4-2.9-1.1-3.1
			c0.3-0.2-0.2-3.9-1.6-6.2c-1.3-2.3-5.1-4.1-5.1-4.9S48.1,142.9,47.4,142.3z"/>
	</g>
</g>
<g id="New_Caledonia">
	<path class="st2" d="M33.2,78.1c-1.6-2-1.2-5.4-3-0.9c0,0,0,0,0,0.1c0,1.1,0.7,3.3,2.2,2.3C33,81.6,33.4,79.1,33.2,78.1
		C33.3,78.2,33.2,78.1,33.2,78.1z M45,83.2C45,83.2,45,83.3,45,83.2c0.8,0.6,2.4,1.6,3.3,2c2.9,1.4-2.4-4.9-3.2-6.1c0,0,0,0-0.1,0
		C44.1,79.2,44.8,82.6,45,83.2z M214,237.5C213.9,237.5,213.9,237.5,214,237.5c-2-0.4-2.4,1.4-3.1,2.8c-1.1,1.4,0.9,1.8,1.9,1.8
		c0.3-0.2,0.9-0.5,0.8-0.9c-0.3-0.1-1.5,0.1-1.2-0.6c0.8,0,1.6-1.3,2.1-0.6c0,0.1,0.1,0.1,0.2,0.1
		C215.7,239.4,214.8,237.9,214,237.5z M187.4,126.8c0.7,1,2.9,0.2,3.2-0.8C189.6,125.9,184.7,125.9,187.4,126.8z M15.1,61.7
		L15.1,61.7c-0.7-2.2-1.3-5.5-2.9-7.3c-1.3-1.1-1.8,0.4-0.4,0.9c0,0,0.1,0,0.1,0.1c0.3,2.8,0.6,6.7,2.3,9.3c0,0.1,0.1,0.1,0.2,0
		C15.6,63.9,16.4,63,15.1,61.7z M259.7,251.3c-1.6-2.1-4.1-4.9-7.1-3.8c0,0-0.1,0-0.1,0.1c-0.9,1.7-0.2,5.1-0.8,6.9
		c0,0.1,0,0.1,0.1,0.1c5,1.9,6.2,3.5,6.4-2.8c0-0.1,0.1-0.1,0.1-0.1c1,0.1,1,2.1,2,2.4C260.4,253.3,260.4,251.9,259.7,251.3z
		 M250.8,152.6c-0.3-2,0.1-4,2.4-4.3c0.1,0,0.1-0.1,0.1-0.2c-0.5-1.4-2-2.6-3.5-2.6c-0.7-0.1-1.3-0.9-1.2-1.6c0,0,0,0,0-0.1
		c0.4-1.1,1.3-1.8,0.3-2.8c-0.4-1.2-1.2-1.4-2.4-1.3l0,0c-1.3-0.2-2.4-1.2-3.4-2l0,0c-1-0.2-1.6-0.8-1.1-1.8
		c2.7-3.8-2.6-4.7,1.5-10.2c-0.2-0.6-0.5-1.5-1.3-1.3c-1.8-0.9-6.8-4.7-7.3-0.6v0.1c-1,1.3-2.6,0.4-3.7-0.1l0,0
		c-2.5,0-4.9,1.7-4.4,4.4c0,0.1,0.1,0.1,0.1,0.1c4.9-1.2,13,0.9,6.7,6.5c0,0,0,0,0,0.1c-1.2,3.5-4.9,3.8-8.1,3.3
		c-0.1,0-0.2,0.1-0.1,0.2c0.9,1.7,3.6,2.6,2.5,4.8v0.1c0.2,0.9,1.8,0.8,2,1.7c0.4,2.2,3.2,4.2,5.3,4.8l0,0c9.3,0,3.9,2.7,8.8,3.2
		c0.6,0.1,0.9,1.8,1,2.3l0,0C247.3,156.4,251,156.3,250.8,152.6z M192.8,124.8c4.5,0.2,7-4.1,8.6-7.7c0-0.1-0.1-0.2-0.1-0.1
		c-3,0.9-3.7-1.6-2.6-4c0.6-1.3,1-3.7,2.2-4.7h0.1c3.8-0.2,5.1-0.7,1-2.9c0,0-0.1,0-0.1-0.1c-0.8-2.5-3.3-3.9-4.6-1.2
		c0,0.1,0,0.2,0.1,0.2c1.1-0.3,2.2,2.4,2.4,3.3v0.1c-2.1,5.8-3,4.2-2.9,11.1v0.1c-0.9,1.6-2.5,3.6-4,4.6
		C191.8,123.7,192,124.1,192.8,124.8z M294.6,174.1c-6.5,3.7-12.6,1.2-9.5-6.3c0-0.1-0.1-0.2-0.2-0.1c-5.7,3.6-2.7,4.1-9.3,2.5
		c-3.7,0.3,1.1,2.8,1.3,8.5c0,0,0,0,0,0.1c1.1,1.5,3.3,3,1.5,4.9c-0.4,0.6-1.8,0.9-1.3,1.7s2.4-0.6,3.4-0.1c4.9,0.5,1.1,2.8,5.1,4
		c2.8,0.6,5.9-1.2,8.4-2.2l0.1-0.1c-0.7-4.2,2.1-8.6,0.7-12.7C294.8,174.1,294.7,174,294.6,174.1z M224.6,224
		c-1-2.8-3.8-1.8-2.3-3.4c0.1-0.1,0.2-0.3,0.2-0.5c0.5-5.6-6.7-7.9-11.3-8.6c-0.2,0-0.4-0.1-0.5-0.3c-1.5-1.8,0.1-1.1-2.6-1.9
		c-0.9-0.5-2.4,0.4-3.2-0.2c-0.1-0.8,4-1.3,1.3-2.2c-0.8-0.4-1.8-1.8-2.5-1.2c-0.3,0.3-0.7,0.3-1,0.1c-2.6-2.2-5.8-4.4-7.8-7.1
		c-0.2-0.4-2.1-1.2-1-1.7c-0.3-0.1-0.9-0.3-1.3-0.6c-0.1-0.1-0.2-0.2-0.3-0.3c-0.6-1.6-1.5-2.9-3.1-3.8c-0.1-0.1-0.2-0.2-0.3-0.4
		c-0.7-2.5-4.8-1.1-5.4-3.1c0-0.3-0.4-0.6-0.6-0.7c-0.4-1.1,2.1,0.2,1.8-0.9c-3.4-1.1-8.6-2.3-10.6-5.6c-2.2-0.3-4.1-4.3-6.5-4
		c-0.1,0-0.3,0.1-0.4,0.2c-1.7,1.2-1.4-0.3-1.6-1.6c-0.1-0.3-0.3-0.5-0.6-0.6c-0.9-0.2-0.8-0.9,0.4-1.1c-0.2-1.1-1.9-0.7-2.8-1
		c-0.1,0-0.2-0.1-0.3-0.2c-2.9-3.9-5.2-2.7-2.2,1.7c1.1,1.1,0.2,2.1-1.2,1.9c1.3-0.8-2-1.8-2.2-2.2c-1.4-1.8,1.2,0.5,1.2-1
		c-0.7-1.1-1.4-3.5-2.5-5.1c-0.4-0.5-1.3-0.4-1.3,0.2c0,0.3-0.2,0.6-0.4,0.9c-0.6-1.6-1.8-1.5-2.2-0.7c-0.2,0.4-0.9,0.3-1.1-0.2
		c-0.1-0.4-0.2-0.8-0.3-1.1c-0.1-0.2-0.2-0.5-0.5-0.5c-1.6,0-2.1-5.1-5.5-3.7c-0.3,0.1-0.6,0-0.8-0.2c-1.9-2-6.6-0.9-7-4.3
		c-0.3-1.3-1.8-1.4-2.6-2.3c-1.6-1.9-0.3-0.9,1.2-0.3c0.7,0.3,1.3-0.5,0.8-1.1c-0.3-0.4-0.6-0.9-1-1.2c-0.3,0-2-2.2-2.2-1.4
		c-0.9,0.4-0.5,0.2-0.4-0.5c0-1.1-2.6-0.2-4.2-2.4c-0.1-0.1-0.2-0.2-0.3-0.2c-5.6-2.6-4.9-4.9-3.9-9.9c0.1-0.3-0.1-0.6-0.3-0.8
		c-1.1-0.6-3.3-0.6-4.6-0.9c-0.2-0.1-0.4-0.2-0.4-0.5c-0.3-0.9-1.2-1.6-2-2c-3.9-2.8,0.1-5.1-4.9-8.8c-0.6-0.4-1.1-0.3-1.6-0.1
		c-0.2,0.1-0.6,0.1-0.8-0.1c-1.3-1-6.1-1.7-7.4-2c-0.1,0-0.2-0.1-0.3-0.1c-2-1.6-4.5-3.6-7.1-3.3c-0.6-0.3-1.2-0.7-1-1.3
		c0.1-0.3,0-0.5-0.2-0.7c-0.8-0.7-2-1.7-2.9-1.8c-0.1,0-0.2-0.1-0.3-0.2c-3.1-2.7-6.2-6.4-8.8-9.4c-0.7-1-2.4-1.3-3.4-1.8
		c-0.1,0-0.1-0.1-0.2-0.2c-1.7-2-4.7-2.4-6.4-4.4c-0.1-0.1-0.1-0.1-0.1-0.2c-2.4-5.4-11.5-8.7-16.7-10.4c-0.1,0-0.3-0.1-0.4,0
		c-1.5,0.6,0.7,4.8,1.4,5.8c-1.5,0.4-1.8-1.3-2.4-2.2c-0.2-0.3-0.6-0.4-1-0.3c-5.3,3-17.3-19.4-18.5-12c0,0.2,0,0.4,0.2,0.6
		c0.4,0.5,1,0.7,0.9,1.2c-0.1,0.6,0.3,1.1,0.9,0.9c0.7-0.2,1.5-0.4,1.9,0.5c0.6,0.8,0.5,1.9-0.2,2.4c-0.3,0.2-0.4,0.7-0.1,1
		c0.4,0.6,0.8,1.2,0.9,1.7c-0.2,1.1-1.4,0.6-2.2,0.3c-0.2-0.1-0.4,0-0.6,0.1c-2.5,1.6,0.2,2.4,0.8,4.3c2.9,1,1.7-2.2,3.2-2.4
		c0.5,0.4,0.4,1,0.3,1.5C39.3,94.5,39.5,95,40,95c2.1,0.3,4.4,0.3,5.2,2.8c1.1,7.3-5.6,0.5-2.4,5.4c2.5,0.4,2,3.9,2.8,5.7
		c0.3,1.3,3.8,3.3,5,4.1c0.1,0,0.1,0.1,0.2,0.1c0.4,0.5,0.4,1.4,1.2,1c0.9-1.3,1.9,3,2.4,4.1c0.1,0.2,0.2,0.2,0.4,0.3
		c1,0.4,1.9,2.7,2.3,3.7c0,0.1,0.1,0.2,0.2,0.2c1.2,1,4.4,1.2,2.8,3.4c-1,0.8-3.2-0.6-1.8,1.3c2.5,1.6,4.8,5.3,7.8,6
		c0.2,0.1,0.4,0.2,0.5,0.4c0.5,1.1,1.4,2,2.7,1.9c0.1,0,0.3,0,0.4,0.1c1.7,0.8,2.2,2.9,4.4,1.4c-0.4,1.6,1.2,1.2,2.2,1.9
		c0.3,0.4,0.4,0.9,0.2,1.2c-0.3,0.7-0.2,1.5,0.5,1.8c0.8,0.4,1.3,0.9-0.2,1.6c-0.5,0.1,3.1,6.1,3,5.1c0.6-0.5,1.1-0.9,0.5-1.6
		c1.5-1.4,1.7,0.3,2.5,1.1c0.6,0,0.8-0.3,0.8-0.9c0.7-0.5,1.8-0.5,0.9,0.5c2.1,0.7,1,0.6,0.8,2.3c3-1.5,1.2,3.3,2.2,4.9
		c0,0.1,0.1,0.1,0.1,0.1c1.1,1,4.5,5.9,5.8,7.1c0.1,0.1,0.3,0.2,0.4,0.2c1.7,0.1,0.7,1.4,0.6,2.5c-0.7,1,1,2.5,1.9,1.5
		c0.6-0.7,0.3-1.6,0.4-2.4c0.1-0.5,0.7-0.7,1.1-0.4c0.6,0.4,1.1,0.9,1.1,1.5c0,0.3,0.2,0.6,0.5,0.6c0.5,0,0.9,0.1,1.3,0.4
		c0.1,0.1,0.2,0.2,0.2,0.3c0.2,0.8-0.5,1.8-1.2,2.3c0.5,0.3,1.3,0.5,1.8-0.1c0.6-0.8,0.6,0.1,0.8,0.5c0.7,0.7,1.6-0.3,1.3-0.9
		c0.6-0.5,2-0.6,2,0.4c-0.6,1.5,2.4,5.2,3.3,6.3c0.2,0.9,1.2,0.4,1.8,0.7c0.9,1.1,2.6,1.4,3.6,2.1c0.2,0.1,0.3,0.4,0.3,0.6
		c0.1,3.6,6.2,5.1,8.7,6.4c1.5,0.6,2.8-0.8,4.3-1.1c1.3,0.6-1,0.8,0,1.4c3,0.4-1.4,1.1,2.6,3.6c0.5,0.1,6.2,3.3,8.4,4.1
		c0.4,0.1,0.8,0,0.9-0.4c0.1-0.4,0.7-0.4,1.3-0.4c0.5,0.2,0.6,0.8,0.5,1.4c0,0.6,0.7,1,1.2,0.6c1.3-1.1,2.3-3.6,2.3-1.4
		c0,0.2,0.1,0.4,0.2,0.5c0.9,1.2,2.1,2.3,1.6,4c0,0.7,0.4,0.7,1,0.9c-0.2-0.5-0.2-1,0.2-1.5c2.5-0.6-0.6,1.5,2.7,3.5
		c1.1,1.8-1.6-1.2-0.8,1.1c1.5,1.3,3.6-0.9,4.8,0.9c1.3,0.3,2.4,1.6,3,2.9c0.1,0.2,0.3,0.3,0.5,0.4c1.3,0.4,2.6,1.4,3.2,2.6
		c1,1,1.7-0.3,1.1-1.2c2.9,0.8,1.7-0.9,2.5-2.6c1.4-1.2,0.8,0.6,1.6,1.4c0.3,0.2,0.3,0.6,0.1,0.9c-0.4,0.6,0,1.2,1,0.4
		c6.4,1,0.7,4.8,4.5,5.4c2,2.4-4-0.7-2.2,1.4c2.5,0.2,1.8,4.2-0.2,1.6c-0.8-0.2-0.1,1.1-0.6,1.5c-0.7,0.5,0.7,1,1,1.3
		c0,0,0.4-0.5,0.7-0.9c0.2-0.3,0.6-0.4,0.9-0.2c0.9,0.4,1.6,1.4,2.6,1.4c3.1,2.7-0.6,2.3,4.6,4c0.5-0.3,1.6-0.3,1.1-1.2
		c1.3,1,2.9-1.1,2.6,0.3c-1.2,1.4-0.3,1.9,0.9,2.7c0.3,0.2,0.4,0.6,0.2,1c-0.3,0.4-0.4,1,0,1.4c1.2-0.6,0.9-1.4,2.1-2
		c0.2-0.1,0.4-0.3,0.4-0.6c0.1-1.3,1.2-1.6,2.5-1.2c1-0.4,0.4,1.1,0.4,2c0,0.4,0.3,0.7,0.7,0.7c1.2,0,0.4,0.9-0.6,1.1
		c-0.7,0.2-3-0.8-1.5,0.7c4.4,1.9,1.6-0.4,1.9,4.8c1.6,0.6,1.3,0,1.2-0.7c-0.1-0.4,0.2-0.8,0.6-0.8c1.8-0.2,1.3-1.5,2.4-3.2
		c0.1-0.2,0.4-0.3,0.6-0.3c5.6,0.1,1.4,1.8,3.4,2.9c1.2,0.7,2.6,0.9,3.8,0.2c0.3-0.1,0.6-0.1,0.9,0.2c1.1,1.2,2.6,2.7,4.2,1.8
		c0.5,0.2,0.3,0.8,0.2,1.3c-0.1,0.3,0,0.7,0.4,0.9s0.7,0.2,1.1,0.2c0.6,0,0.9,0.6,0.6,1.1c-0.7,1,1.1,2.4,2.6,2.1
		c0.1,0,0.2-0.1,0.2-0.1c0.8-0.5,1.1-1.3,2.1-0.7c1.5,0.3,1.7-0.1,0.5-0.8c-0.2-0.1-0.4-0.3-0.4-0.6c-0.1-0.9,0.2-2.3,0.3-3.1
		c0.2-1.1,1.1-1.4,1.6-0.3c-1.3,0.4-0.5,0.9-0.2,1.9c1,2.7,1.5-2.6,2-0.2c0.6,0.6,0.8,1.6,1.3,2.3c0.2,0.2,0.4,0.3,0.7,0.3
		c0.8-0.2,1,0,0.9,0.2c-0.3,0.5,0.2,1.2,0.8,0.9c1.1-0.6,2-1.7,1.9-2.8c2.4-1.8,1.2,0.8,2.6-1.2c0.7-1.4,1.5-3.1,0.9-4.5
		c-0.1-0.3-0.1-0.8,0.2-0.9c1.7-1.1-0.5-2.2-1.8-3.3C224.7,224.1,224.6,224.1,224.6,224z M7.3,47.9c-0.5-0.1,0,4.7,1.4,4.8
		S9,48.3,7.3,47.9z M22.6,80.4c-0.4,0.1-2.4,0.2-0.6,1.9s2.7,3.7,2.6,2.3C24.4,83.2,24.8,79.9,22.6,80.4z M146.2,196.8
		c0,0.7,0.9,1.4,1,0.9c0,0,0.1-1.2,0.2-1.5"/>
</g>
</svg>
