<svg id="terre_adélie" data-name="terre adélie" xmlns="http://www.w3.org/2000/svg" viewBox="0 0 305.7 297">
    <defs>
        <style>.cls-1,.cls-2,.cls-3{fill:#276F87;}.cls-1{opacity:0.4;}.cls-2{font-size:7px;font-family:Poppins-Light, Poppins;font-weight:300;}</style>
        <linearGradient x1="38.6428275%" y1="109.516801%" x2="61.3571725%" y2="-9.51680135%" id="linearGradient-1">
            <stop stop-color="#5B95B6" offset="0%"></stop>
            <stop stop-color="#88DEE5" offset="100%"></stop>
        </linearGradient>
    </defs>
    <path class="cls-1" d="M45.25,78.92l-.72,10.63,3.86,7.72,3.14,6.78,1.92,2.4L54.67,105,56.84,107l3.63,3.13,4.59,1.45,5.8,1,4.1,2.42,1.21,5.56-.24,6.76-2.42,3.14-3.13-2.65-1.45.48-.24,1.45,3.86,2.42L74,134.49l-2.17,5.07-1.94,5.07,1,8v4.83L72.79,163l2.9-1.44,1.69-2.66,3.15-2.65,1.21,3.14-.49,3.14,2.42,3.85-2.42,2.19-1.2,2.17.48,1c2.41-.72,1.21,1.93,1.21,1.93l-1,1.7,3.39,1.7,2.65,4.34,6.77,9.18,4.11,6,5.06,1.93h6l4.61,1.46.47-4.35,2.42-1.7,5.8,5.32,3.38,1.69,1.69-2.66-1-2.9-3.39-1.45,3.39-.72.24-2.41-3.86-4.36-.49-4.1,3.87-2.66,1.92-.48,1.94,4.82,1.93.25.23-3.63.49-3.37,1.46-4.12,2.42-2.89-2.18-2.9-1.22-3.87.73-1.45,3.15,1.93,3.37,1.94,4.13,5.31,3.36.25,8.95,7.48,5.08,5.81.23,4.35,2.19,3.37-2.67,3.87.25,2.41,3.61,3.87,1.94,5.32-1,7-2.17,3.87-2.67.24-1,1.93,1.69,2.43-1.93,3.85,3.62,3.39,6.29,1.69,5.55-.24,6.77.72,5.79.72,7.5-3.86,4.6,1.45h7.72l7.49-2.66,7.49-6,3.63-5.07,4.59-.73-1.22-3.37.24-2.42,2.91-.72h2.66l1.69-3.4,1.69-4.1.48-4.11,2.66-4.1,2.17-1.7,2.18-3.13,2.66-.25.47-3.39-1.21-3.61,3.39-4.84,4.11-6.28-1-5.79-1-5.32,1.21-5.8.25-6.51-.25-4.12,1.45-1.46-1-1.44-2.41-2.42-1.45-7L247,128.21l-5.32-2.9s-4.34-6-5.07-6-4.35-.73-4.35-.73L226.94,120l-2.9-1.2-.48-3.63,2.17-1.69,3.37.72h2.43l.49-2.66,2.17-.47,1.93.47,3.38.49,3.13-1.2,1-1.22-1.45-4.11-1.69-4.83L239,96.8l-1.21-6.29.49-4.1,1-3.14-1.46-3.62-5.55-3.14L228.87,78l.47-3.14-4.34,1-3.62-2.65-6.77-1.93-6.76,1.93-2.18.25-1-2.66L203,68.53l1-5.07-3.15.24-1.44,1.93-6.05-.49-7.25-1.2-4.82-1.44-4.36-4.36-4.11-1-3.37-.24-5.31-1.46-9.2,1.46-6.27,2.17-1.94,1.21-4.83-1.21L139,56.46l-3.14,2.16.24,2.66-3.63-2.41L130.05,61l-1.7,6.29-1.92,5.3.72,2.42,1.93-.48-2.17,4.59.49,3.14L124,84.48l-4.35,4.83-2.17,5.07-1,5.56,1.45,2.18,2.41,1.2,3.15-2.17,1.21,1.21,1.45,4.59L125,109.84l-2.66,5.81-.73,2.66L118.94,121l.23,2.89.73,3.15-3.38,1-3.38,1-5.08,3.86L103.72,135l-2.67-1-1.44,3.38L97.19,140l-1.7-1,2.19-2.17-.49-2.18-3.38,2.18-1-1.94,1-2.17,1.2-1.94v-1.92l-4.1,1.44-1.69,1.7L89,135.45l-2.67-1,.49-4.35L90.2,127v-5.8l-1.46-5.55-6-6.53-3.86-2.9-5.32-1.7-8-3.62-7,1.46-2.42-1.46-5.56-8-2.41-4.36L47.9,83l-.72-2.9Z" />
    <text class="cls-2" transform="translate(154.52 141.3)">ANTARCTIQUE</text>
    <polygon class="cls-3" points="223.07 222.43 224.9 219.88 148.56 143.12 216.24 227.94 223.07 222.43" />
</svg>