<svg id="guyane" xmlns="http://www.w3.org/2000/svg" xmlns:xlink="http://www.w3.org/1999/xlink" viewBox="0 0 305.7 297"><defs><style>.cls-1{fill:#7294a2;}.cls-2,.cls-3{opacity:0.4;}.cls-2{fill:url(#Dégradé_sans_nom_35);}.cls-3{fill:url(#Dégradé_sans_nom_25);}</style><linearGradient id="Dégradé_sans_nom_35" x1="183.66" y1="301.08" x2="165.88" y2="215.75" gradientUnits="userSpaceOnUse"><stop offset="0" stop-color="#fff" stop-opacity="0"/><stop offset="0.12" stop-color="#f8f9fa" stop-opacity="0.05"/><stop offset="0.31" stop-color="#e3eaed" stop-opacity="0.2"/><stop offset="0.54" stop-color="#c3d1d7" stop-opacity="0.43"/><stop offset="0.81" stop-color="#96afb9" stop-opacity="0.75"/><stop offset="1" stop-color="#7294a2"/></linearGradient><linearGradient id="Dégradé_sans_nom_25" x1="21.79" y1="154.73" x2="80.62" y2="155.05" gradientUnits="userSpaceOnUse"><stop offset="0" stop-color="#fff" stop-opacity="0"/><stop offset="1" stop-color="#7294a2"/></linearGradient></defs><path class="cls-1" d="M248.78,143.72v-4.6l-2.08-2.83V134s-1.81-4.22-1.3-5-2.87-3.63-2.87-3.63l-3.89-3.54-2.36-.28-2.08,2,.78,2.07.52,5.59-.26,4.64-1.81,2.94L229.25,142l-1.3-.63,2.61-2.2,2.34-2.83-.52-2.32.52-5-2.34-2.86-1.31-5.49L226.13,119l-5.21-5.18-2.08-1.4-2.09-2.55h-1.82c-2.09,1.72-1.3-2.18-1.3-2.18l-1.57-2.1-2.33-2.33-1.31,2.33-2.61,2.35-2.6-1.3,2.87-1-.53-1.18-1.82-3.09-1.82-1.59-3.39-1.32-2.35-2.62-1-2.17-5.72-2.45L185,86.56l-3.13-3.34-3.11-4.47L177.41,78l-1.81-.54-2.08-2.73L170.39,72l-2.87.51-3.64.52-2.4-1.29-2-1.57L155.16,69h-4.57l-5.21-.16-5.73-2.35-5.72-2.6-5.21-2.34L126.11,61l-1.57-2.6-3.64-.8-2.61-1.56-4.69-2.87L111,53l-2.34.54,1.56,1.3,2,.35.91.17L115.15,57l.53.43.92,1-2.08-.8-1.7-1.29-2.21-.79L109,55.31l-2.2-.78L105,54.39l-1.16,2.35v.9l-1.3.8-.66,1.94,1.31,1.18-.91,1.17-.4,3.26-.38,3.64-1.83,2L99,73.79l-3.78,4.7-4.17,3-2.47,2-2.48,1.82-2.34,2.61-2.46,3.27-1.44,2.19-1.43,2.34-1.3,1.44-2.22,2.34-.4,3.25-1.29,2.86-1.57,2.62,1,4.16v4.56l2.34,1.39.26,4.27L76.88,129l-2.35,4.44.26,2.9.53,6.2,2.08,1.6.26,8.69,3.39,3.36.78,2.78-2.21,3.85,5.33,5,1.83,3.84,4.94,6.62h3.4l3.12,6.25,1.05,2.87,4.43,2v7.12l-2.09,5.38-1.82,6.08-.52,2.86-2.09-1.19-4.44,5.1-3.11,3.12s-1.57,3.13-.52,2.87S91.21,222,91.21,222l.26,3.12v1.81l.52,3.14-1.3,5.1v4.62l-1,3.82-2.09,4.06-3.39,4.8-1.29,4.16a34.33,34.33,0,0,0-2.75,5.49l-4,3.37H73l-3.14,4.43-4.16,2.44,3.64,1.72-.78,2.09-.25,2.75,3.13-1.45,2.85,1.45,1.31,1.29h4.55v2.45l3.79,1.58h4.16L91,282.67,93,285.82h4.7l1.81-3.15h2.87l3.13-2.45,2.6-2.47,1.82-1.57,2.09-1.83,1.55-.26,3.39-3.64h3.39v1.92l1.82,1.72,2.61.26,1.56,1.79,3.13,0,2.08,1.57,2.61-1.57h3.12l6-3.81,2.86-1.92,2.6,1.92,4.17,3.77-1,0L149,278.93l1,2.46,2.86-1.17h2.34l2.87-1.29h4.42l1.82,1.29,2.61,2.45h4.17c.52-1.54,3.13-2.45,3.13-2.45l1.56-4,3.91-1.83,6.78-4.68,3.12-3.13,1.83-2.69,1.55-2.26,3.12-1.82v-4.88l1.05-3.91,3.38-6v-2.88l3.9-8.07,2.87-4.43,3.14-5.85v-2.22l-2.09-1.3,2.09-2.86,2.33-3.92,3.65-1.56,3.39-3.9,6-11.48,5.21-5.72V186l1.83-3.1,3.38-2.3,3.9-5,2.1-4,2.34-6.47,6.25-4.24,1-4.2,1.83-5.51Z"/><path class="cls-2" d="M295,235.59l-.93-3.89-1.89-5-1.47-4.4.62-3.36-.27-2.94-2.76-7.28-.95-2.79s.7-7.84.91-8.12-.49-13.58-.49-13.58l.49-8.89v-2l-2.09-1.19-1.55.9-.56,4.84-1.68,4.82-.41,6.72-.36,9.38-1.12-8.61.5-8.34,1-16.71-1.06-5.25-2.37-4.69-4.34-6-3.86-4.13-5.1-4.27-5.88-2.66-1,1.61-1.4,3.5.07,4.24,1.47,2.77.84,4.68,5.24,12.74-.34,1.65-7.42-16.5v-1.26H255.6l-1.32,2.74-1.46-.39-.9,2.75-1,4.2-6.25,4.24-2.34,6.47-2.1,4-3.9,5-3.38,2.3-1.83,3.1v4.73l-5.21,5.72-6,11.48-3.39,3.9-3.65,1.56-2.33,3.92-2.09,2.86,2.09,1.3v2.22l-3.14,5.85L204.5,234l-3.9,8.07v2.88l-3.38,6-1.05,3.91v4.88l-3.12,1.82-1.55,2.26-1.83,2.69-3.12,3.13-6.78,4.68-3.91,1.83-1.56,4s-2.61.91-3.13,2.45H167l-2.61-2.45-1.82-1.29h-4.42l-2.87,1.29h-2.34l-2.86,1.17-1-2.46,2.86-2.75,1,0-4.17-3.77-2.6-1.92-2.86,1.92-6,3.81h-3.12l-2.61,1.57-2.08-1.57-3.13,0-1.56-1.79-2.61-.26-1.82-1.72v-1.92H117l-3.39,3.64-1.55.26L110,276.18l-1.82,1.57-2.6,2.47-3.13,2.45H99.54l-1.81,3.15H93L91,282.67l-2.87,1.58H83.92l-3.79-1.58v-2.45H75.58l-1.31-1.29-2.85-1.45-3.13,1.45.25-2.75.78-2.09-3.64-1.72-8.19,1.24-.15-2.37-2.06-.86L57.59,268l.26-3.3-4.94-.57L50,267.45H45.66l1.4,2.24,4.48,4.39-1.95,4.85,3.91,3.35-3.91,3.53v4.86l.26,6.32c30.08.85,219.27,0,255.85,0,.89,0,.21-31.89,0-48.33l-6.26-7.15Z"/><path class="cls-3" d="M96.33,46.79l-2.11-2.57h-2.1l-4.61-1-3.36-1.25H76.39l-4.63-1.27L68,41.7l-6.5-3.16H57.91l-5.25-1.25H50.15l-1.48,2.94c1.26.84,0,2.1,0,2.1a10.77,10.77,0,0,1-5-1.26L42,39.4V37.29H36.71L34,38.76l-2.52,1.68,1.27,1.69,2.94,1.25,2.51,1.26,2.73.84-1.68,1.31H34.4L29.15,50.1l2.52-3.31V45.06l-2.52-1.89-3.36.21a17.68,17.68,0,0,1-3.56-1.46l-3.79-1.06L14,39.4,0,35.93V272.07l17.61-11.24,4.13,2.77,6-6,2.21.79.2,3.72,2.74-1.1,8.23-7.19.84,3.58-2.72,1.51,6.66,8.57H50l2.92-3.36,4.94.57-.26,3.3-2.31,2.42,2.06.86.15,2.37,8.19-1.24,4.16-2.44L73,265.5h3.13l4-3.37a34.33,34.33,0,0,1,2.75-5.49l1.29-4.16,3.39-4.8,2.09-4.06,1-3.82v-4.62l1.3-5.1-.52-3.14v-1.81L91.21,222s-1-1.58-2.08-1.31.52-2.87.52-2.87l3.11-3.12,4.44-5.1,2.09,1.19.52-2.86,1.82-6.08,2.09-5.38v-7.12l-4.43-2-1.05-2.87-3.12-6.25h-3.4l-4.94-6.62L85,167.79l-5.33-5L81.83,159l-.78-2.78-3.39-3.36-.26-8.69-2.08-1.6-.53-6.2-.26-2.9L76.88,129l-1.56-6.44-.26-4.27-2.34-1.39v-4.56l-1-4.16,1.57-2.62,1.29-2.86.4-3.25,2.22-2.34,1.3-1.44,1.43-2.34,1.44-2.19,2.46-3.27,2.34-2.61,2.48-1.82,2.47-2,4.17-3L99,73.79l.26-.87.54-4.16,1.33-5.22V58.92L102.84,56l1-3V50.77l-2.31-2.35Z"/></svg>