<svg id="polynesie_fran" data-name="polynesie fran" xmlns="http://www.w3.org/2000/svg" viewBox="0 0 305.7 297"><defs><style>.cls-1,.cls-2{fill:#7294a2;}.cls-2{font-size:6px;font-family:Poppins-LightItalic, Poppins;font-weight:300;font-style:italic;}.cls-3{fill:none;stroke:#7294a2;stroke-linecap:round;stroke-linejoin:round;stroke-width:0.5px;stroke-dasharray:1 2;}</style></defs><path class="cls-1" d="M202.94,29.18A.86.86,0,0,1,202,30a.8.8,0,1,1,0-1.57A.86.86,0,0,1,202.94,29.18Z"/><path class="cls-1" d="M202.31,32.08a.92.92,0,0,1-.36,1.28,1,1,0,0,1-1.35-.18,1,1,0,0,1,.35-1.3A1,1,0,0,1,202.31,32.08Z"/><path class="cls-1" d="M206.38,36.29a.93.93,0,0,1-1,.85.86.86,0,1,1,1-.85Z"/><path class="cls-1" d="M209.53,47.72a1.07,1.07,0,0,0-1.47,0,1,1,0,0,0-.32,1.39,1.07,1.07,0,0,0,1.46,0A1,1,0,0,0,209.53,47.72Z"/><path class="cls-1" d="M216.25,42.47c.27.39,0,1-.69,1.44s-1.37.44-1.63.05,0-1.05.68-1.46S216,42.08,216.25,42.47Z"/><path class="cls-1" d="M207,42.52s-.51-.81.15-1.1,1.47-.7,2.14.13c.14.47-.52.69-.19,1.35S207.24,43.75,207,42.52Z"/><path class="cls-1" d="M225,49.52a1,1,0,1,1-1-1.11A1,1,0,0,1,225,49.52Z"/><path class="cls-1" d="M222.53,55.34c0,.46-.7.85-1.57.85s-1.56-.39-1.56-.85.71-.84,1.56-.84S222.53,54.88,222.53,55.34Z"/><path class="cls-1" d="M227.2,60.44c.34.33.23,1-.26,1.45a1.1,1.1,0,0,1-1.48.26c-.33-.32-.22-1,.26-1.44A1.12,1.12,0,0,1,227.2,60.44Z"/><path class="cls-1" d="M224.46,58s-.21-1.26.28-1.31,2-.28,1.59.86-.52.92-.52.92l-1.26,0Z"/><path class="cls-1" d="M221.84,53.62c.45-.71,1-.08,2-.27,1.14-1.31-.87-1.59-2.47-1.59s-.78,1.45-.78,1.45S220.82,53.91,221.84,53.62Z"/><path class="cls-1" d="M192.11,102.1a1.52,1.52,0,0,1-3,0,1.52,1.52,0,0,1,3,0Z"/><path class="cls-1" d="M225,112.78c.31.58-.1,1.36-.87,1.75a1.47,1.47,0,0,1-2-.33,1.42,1.42,0,0,1,.87-1.77A1.5,1.5,0,0,1,225,112.78Z"/><path class="cls-1" d="M192.11,106.55s-.3-1.76.54-2,2.49-.1,1.86,1.25c-.47,1-.7.11-1.16.76S192.15,106.86,192.11,106.55Z"/><path class="cls-1" d="M208.14,126.92a1.19,1.19,0,0,1-.2,1.71,1.29,1.29,0,0,1-1.78,0,1.21,1.21,0,0,1,.2-1.73A1.26,1.26,0,0,1,208.14,126.92Z"/><path class="cls-1" d="M199.94,124.77c.16.61-.36,1.26-1.17,1.47a1.36,1.36,0,0,1-1.74-.73c-.17-.61.36-1.28,1.15-1.47A1.37,1.37,0,0,1,199.94,124.77Z"/><path class="cls-1" d="M183.81,124.86c.2.48-.27,1.12-1,1.4s-1.55.13-1.75-.35.27-1.13,1-1.42S183.62,124.36,183.81,124.86Z"/><path class="cls-1" d="M165.44,117.73a1.23,1.23,0,1,1-1.23-1.26A1.25,1.25,0,0,1,165.44,117.73Z"/><path class="cls-1" d="M165.44,124.77a1.23,1.23,0,1,1-1.23-1.29A1.26,1.26,0,0,1,165.44,124.77Z"/><path class="cls-1" d="M175.32,136.23c0,.59-.65,1.06-1.45,1.06s-1.44-.47-1.44-1.06.64-1.06,1.44-1.06S175.32,135.65,175.32,136.23Z"/><path class="cls-1" d="M172.67,131c0,.45-.75.81-1.65.81s-1.66-.36-1.66-.81.73-.8,1.66-.8S172.67,130.59,172.67,131Z"/><path class="cls-1" d="M167.37,145.36c0,.49-.71.86-1.58.86s-1.58-.37-1.58-.86a1.64,1.64,0,0,1,3.16,0Z"/><path class="cls-1" d="M172.32,148.89c.2.43-.15,1-.78,1.31s-1.31.15-1.52-.29.13-1,.77-1.31A1.14,1.14,0,0,1,172.32,148.89Z"/><path class="cls-1" d="M147.63,125.94a1.21,1.21,0,1,1-1.2-1.17A1.19,1.19,0,0,1,147.63,125.94Z"/><path class="cls-1" d="M173.45,141.61a1.09,1.09,0,0,1-1.15,1,1,1,0,1,1,0-2.06A1.09,1.09,0,0,1,173.45,141.61Z"/><path class="cls-1" d="M178,147.19c0,.68-.87,1.8-1.33,1.26s-1.32-.58-1.32-1.26a1.33,1.33,0,0,1,2.65,0Z"/><path class="cls-1" d="M182.43,151.8a1.52,1.52,0,1,1-1.48-1.18A1.36,1.36,0,0,1,182.43,151.8Z"/><path class="cls-1" d="M188,159.88a1.46,1.46,0,0,1-.67,2,1.55,1.55,0,0,1-2.11-.05,1.49,1.49,0,0,1,.68-2A1.55,1.55,0,0,1,188,159.88Z"/><path class="cls-1" d="M147.63,136.23c0,.59-.82,1.06-1.83,1.06s-1.84-.47-1.84-1.06.82-1.06,1.84-1.06S147.63,135.65,147.63,136.23Z"/><path class="cls-1" d="M156.36,140.14a1,1,0,1,1-2.05,0,1,1,0,1,1,2.05,0Z"/><path class="cls-1" d="M158.46,138.59a.84.84,0,1,1-.8-1.06C158.1,137.53,158.46,138,158.46,138.59Z"/><path class="cls-1" d="M161.35,137.1c0,.49-.55.88-1.23.88s-1.24-.39-1.24-.88.56-.87,1.24-.87S161.35,136.62,161.35,137.1Z"/><path class="cls-1" d="M150.58,129.79a1.06,1.06,0,1,1-2.05,0c0-1.54-.05-1.36,1-1.36S150.58,128.52,150.58,129.79Z"/><path class="cls-1" d="M143.59,122.25a1.12,1.12,0,1,1-1.1-1.23A1.17,1.17,0,0,1,143.59,122.25Z"/><path class="cls-1" d="M150.58,109.4a1.17,1.17,0,1,1-1.17-1.15A1.16,1.16,0,0,1,150.58,109.4Z"/><path class="cls-1" d="M147.64,111.11a1.15,1.15,0,0,1-.79,1.44,1.22,1.22,0,0,1-1.64-.41,1.2,1.2,0,0,1,.79-1.47A1.23,1.23,0,0,1,147.64,111.11Z"/><path class="cls-1" d="M134.13,106.49c.26.47.09,1-1.15,1.7-1.63.87-1.84.51-2.1,0s-.46-.82,1.16-1.68C133.39,105.83,133.87,106.05,134.13,106.49Z"/><path class="cls-1" d="M138.8,105.9c.35.61.25,1.3-1,2-1.62.86-1.9.36-2.24-.25s-.63-1.11,1-2C137.9,105,138.46,105.29,138.8,105.9Z"/><path class="cls-1" d="M178.57,130.05c-.49-.26-.67-.83,0-2,.88-1.61,1.27-1.4,1.75-1.14s.89.46,0,2C179.6,130.23,179.06,130.3,178.57,130.05Z"/><path class="cls-1" d="M106,113.91a1.43,1.43,0,1,1-1.41-1.22A1.32,1.32,0,0,1,106,113.91Z"/><path class="cls-1" d="M111.64,121.12c0,.61-.69,1.13-1.54,1.13s-1.53-.52-1.53-1.13.68-1.14,1.53-1.14S111.64,120.49,111.64,121.12Z"/><path class="cls-1" d="M153.61,139.25c-.3.74-1.52,1-2.73.51s-1.95-1.42-1.65-2.17,1.52-1,2.73-.51S153.9,138.52,153.61,139.25Z"/><path class="cls-1" d="M157.51,134c-.44.43-1,.57-2-.35s-.8-1.49-.35-1.93.81-.79,2,.35C158.12,133,158,133.59,157.51,134Z"/><path class="cls-1" d="M139,129.69l.48-.91,1.17-.6,1.86.24.39,2.26.71,1.5.37.89-1.47,1.76s-.82.46-1.54-.77l-.72-1.24-.78-.52.05-1.27Z"/><path class="cls-1" d="M126.45,118.08c-.19-.07-.79.58-.79.58l.79,1.11v.53h1.38l.72.3a2.42,2.42,0,0,0,.9-1.27l-.3-.73-.78-.52Z"/><polygon class="cls-1" points="125.66 123.97 127.05 123.01 128.49 123.48 129.45 123.48 130.47 123.97 131.26 124.34 130.71 125.71 130.06 126.06 129.09 125.94 128.46 125.94 127.55 126.06 126.98 125.14 126.14 124.77 125.66 123.97"/><polygon class="cls-1" points="133.9 125.38 134.69 124.77 135.77 124.77 137.13 125.38 138.12 125.51 138.36 126.31 138.12 127.36 137.13 127.94 136.14 127.94 135.59 127.12 134.75 126.68 134.23 126.68 133.9 126.06 133.9 125.38"/><path class="cls-1" d="M130,127.12v-.44l1.57-.27,1.39.71.54.82.41.7-.29.71a2.4,2.4,0,0,1-1.39,0l-1-.59-.9-.34-.37-.48Z"/><path class="cls-1" d="M131.26,119.84V122a3.31,3.31,0,0,1,0,.77c-.07,0,1.22.76,1.22.76l.71-.47.3-1.06,1-.93.3-.42-.52-.76-.81-.51-.94.32-.53-.32Z"/><polygon class="cls-1" points="139.74 143.69 140.89 144.69 142.49 145.19 143.36 144.93 143.36 144.16 142.49 143.34 141.47 142.64 140.34 142.64 139.74 143.69"/><polygon class="cls-1" points="156.84 135.17 157.66 134.91 158.47 135.05 158.88 135.52 158.88 136.71 157.87 136.84 156.84 136.48 156.36 136.23 156.84 135.17"/><path class="cls-1" d="M161.6,133.07l-.12.87.82.64,1.3.2,1,.79,1.75.91,1,.36.78-.61V135s-.42-.65-.78-.6a12,12,0,0,1-1.93-.3l-1.23-1-1.23-.23h-.85Z"/><path class="cls-1" d="M169.46,138a1.07,1.07,0,0,0-.32.89c.09.5.38.82.4,1.13s-.31.84,0,1,.69.42,1.09.25,1-.58,1-.95.48-1.28.21-1.5-.16-.53-.68-.65-.74-.07-1-.15A2,2,0,0,0,169.46,138Z"/><path class="cls-1" d="M108.57,115.71s.51-1.4,1-1.5a1.51,1.51,0,0,1,1.49,0c.81.43.85.21.85.21s.11,1.33-.28,1.65-1.53,0-1.89.4a1.19,1.19,0,0,1-.94.3Z"/><path class="cls-1" d="M113.6,115.39a2.49,2.49,0,0,1,1.39-.87c.76-.1,1-.36,1.54-.27s1.35.93,1.94,1.36.45,1.08,1.13,1.16a2.37,2.37,0,0,1,1.57.87c.37.45.55,2.38-1.26,2.34s-1.71-.36-2-.4a11.62,11.62,0,0,0-2.26-1.06,2.83,2.83,0,0,1-2.07-1.41A2.31,2.31,0,0,1,113.6,115.39Z"/><path class="cls-1" d="M196.78,139.72a1.09,1.09,0,0,1-.16,1.49c-.43.23-1.05-.08-1.38-.67a1.06,1.06,0,0,1,.17-1.48C195.83,138.83,196.45,139.12,196.78,139.72Z"/><path class="cls-1" d="M183,154a1.37,1.37,0,0,1-.24,1.92,1.41,1.41,0,0,1-2,.11,1.35,1.35,0,0,1,.23-1.91A1.44,1.44,0,0,1,183,154Z"/><path class="cls-1" d="M200.64,144.16a1.08,1.08,0,0,1-1,1.16,1.17,1.17,0,0,1,0-2.31A1.07,1.07,0,0,1,200.64,144.16Z"/><path class="cls-1" d="M197.92,150.12s.18-1.8,1.31-2,1.67-.58,2.2,0,.19,1.14-.39,1.38-.74.88-1.08,1.09S198.15,151,197.92,150.12Z"/><path class="cls-1" d="M195,153.63s-.12-1.73,1-1.57a5.25,5.25,0,0,1,2.47,1.11c.61.49,1.78,2.39,1.17,2.82s-1.46,1.59-2.66-.22A6.07,6.07,0,0,0,195,153.63Z"/><path class="cls-1" d="M198.56,159.63a1.14,1.14,0,1,1-1.14-1.17A1.16,1.16,0,0,1,198.56,159.63Z"/><path class="cls-1" d="M221.71,157.22a1.17,1.17,0,1,1-1.15-1A1.09,1.09,0,0,1,221.71,157.22Z"/><path class="cls-1" d="M192.73,164.12a1.39,1.39,0,0,1-2.76,0,1.39,1.39,0,0,1,2.76,0Z"/><path class="cls-1" d="M205.18,173.09a1.33,1.33,0,0,1-.91,1.65,1.39,1.39,0,0,1-1.82-.61,1.33,1.33,0,0,1,.93-1.65A1.35,1.35,0,0,1,205.18,173.09Z"/><path class="cls-1" d="M224.74,165c.15.56-.36,1.18-1.12,1.36a1.31,1.31,0,0,1-1.65-.68c-.14-.57.36-1.17,1.12-1.38A1.33,1.33,0,0,1,224.74,165Z"/><path class="cls-1" d="M225.65,168.47c-.47.7-1.25,1-1.73.68s-.51-1.13,0-1.82,1.23-1,1.72-.66A1.3,1.3,0,0,1,225.65,168.47Z"/><path class="cls-1" d="M224.31,160.92a1.54,1.54,0,0,1-.8,2,1.59,1.59,0,0,1-2.19-.31,1.53,1.53,0,0,1,.79-2A1.63,1.63,0,0,1,224.31,160.92Z"/><path class="cls-1" d="M219.31,167.83c.37.45.1,1.26-.6,1.8s-1.57.64-1.94.18-.08-1.24.62-1.79S219,167.38,219.31,167.83Z"/><path class="cls-1" d="M229.37,143.66a1.34,1.34,0,1,1-1.33-1.54A1.44,1.44,0,0,1,229.37,143.66Z"/><path class="cls-1" d="M246.5,156.29c.19.53-.27,1.17-1,1.42s-1.52,0-1.71-.49.27-1.16,1-1.42A1.3,1.3,0,0,1,246.5,156.29Z"/><path class="cls-1" d="M254.77,159.63a1.34,1.34,0,1,1-2.65,0,1.33,1.33,0,1,1,2.65,0Z"/><path class="cls-1" d="M150.28,174.66c0,.59-.71,1.07-1.6,1.07s-1.59-.48-1.59-1.07.71-1,1.59-1S150.28,174.08,150.28,174.66Z"/><path class="cls-1" d="M164.06,183.28c0,.61-.76,1.09-1.71,1.09s-1.72-.48-1.72-1.09.77-1.09,1.72-1.09S164.06,182.69,164.06,183.28Z"/><path class="cls-1" d="M172.07,190.53c0,.59-.79,1.07-1.75,1.07s-1.75-.48-1.75-1.07.79-1.05,1.75-1.05S172.07,190,172.07,190.53Z"/><path class="cls-1" d="M168.28,186.78A1.35,1.35,0,0,1,166.8,188a1.92,1.92,0,0,1-1.78-1.47c0-.66,1-.88,1.78-.88A1.35,1.35,0,0,1,168.28,186.78Z"/><path class="cls-1" d="M201.35,199.36c-.66.65-1.54.82-2,.41s-.23-1.27.44-1.91,1.55-.84,2-.42S202,198.72,201.35,199.36Z"/><path class="cls-1" d="M215,183.93a1.36,1.36,0,1,1-1.36-1.33A1.34,1.34,0,0,1,215,183.93Z"/><path class="cls-1" d="M227.21,187.83a1.5,1.5,0,0,1-2.05.28,1.42,1.42,0,0,1,.11-2,1.51,1.51,0,0,1,2-.28A1.41,1.41,0,0,1,227.21,187.83Z"/><path class="cls-1" d="M240.94,198.61a1.66,1.66,0,0,1-1,2.08,1.73,1.73,0,0,1-2.34-.41c-.36-.69.12-1.62,1.05-2.08A1.73,1.73,0,0,1,240.94,198.61Z"/><path class="cls-1" d="M219.85,200s.61-.29,1.27-.55a2.54,2.54,0,0,1,2.24.27c.35.4,0,.7-.73,1.22s-1,.71-1.27.94S219.13,201.22,219.85,200Z"/><path class="cls-1" d="M222.57,205.61a1.89,1.89,0,0,1,1.86-1.48c1.57,0,1.8,1.2,1.27,1.48l-1.81.91C223.59,206.7,222.28,206.25,222.57,205.61Z"/><path class="cls-1" d="M247.6,192c0,.43-.49.76-1.1.76s-1.13-.33-1.13-.76.5-.76,1.13-.76S247.6,191.52,247.6,192Z"/><path class="cls-1" d="M251.4,192.1c0,.51-.53.9-1.18.9s-1.17-.39-1.17-.9a1.21,1.21,0,0,1,2.35,0Z"/><path class="cls-1" d="M249.41,193.71c0,.38-.48.71-1.09.71s-1.08-.33-1.08-.71.49-.71,1.08-.71S249.41,193.32,249.41,193.71Z"/><path class="cls-1" d="M255.91,203.35a1.43,1.43,0,1,1-1.38-1.06A1.25,1.25,0,0,1,255.91,203.35Z"/><path class="cls-1" d="M263.3,196.15c.29.54-.14,1.33-1,1.76s-1.74.33-2-.21.13-1.32,1-1.74S263,195.62,263.3,196.15Z"/><path class="cls-1" d="M245,216c.23.57-.37,1.33-1.36,1.72s-1.94.22-2.17-.34.37-1.32,1.35-1.7S244.81,215.45,245,216Z"/><path class="cls-1" d="M278.91,218.91c0,.54-.63,1-1.39,1s-1.39-.46-1.39-1,.62-1,1.39-1S278.91,218.35,278.91,218.91Z"/><path class="cls-1" d="M252.84,197.73a.72.72,0,1,1-1.44,0,.72.72,0,1,1,1.44,0Z"/><path class="cls-1" d="M269.69,216.66a.79.79,0,0,1-.86.68.7.7,0,1,1,0-1.36A.79.79,0,0,1,269.69,216.66Z"/><path class="cls-1" d="M268.31,218.27c0,.2-.24.36-.54.36s-.55-.16-.55-.36.25-.36.55-.36S268.31,218.08,268.31,218.27Z"/><path class="cls-1" d="M269.69,218.14a.47.47,0,0,1-.43.49.5.5,0,1,1,.43-.49Z"/><path class="cls-1" d="M31.7,198.75c0,.55-.67,1-1.5,1s-1.51-.47-1.51-1,.67-1,1.51-1S31.7,198.19,31.7,198.75Z"/><path class="cls-1" d="M54.7,209.08a1,1,0,0,1-2.05,0,1,1,0,0,1,2.05,0Z"/><path class="cls-1" d="M72.15,206.37a.84.84,0,1,1-.84-.81A.82.82,0,0,1,72.15,206.37Z"/><path class="cls-1" d="M95.5,217.93a.9.9,0,1,1-.9-.94A.92.92,0,0,1,95.5,217.93Z"/><path class="cls-1" d="M116.33,225a1,1,0,1,1-1-.86A.92.92,0,0,1,116.33,225Z"/><path class="cls-1" d="M133.06,255.2c0,.42-.48.76-1.08.76s-1.08-.34-1.08-.76.48-.77,1.08-.77S133.06,254.77,133.06,255.2Z"/><path class="cls-1" d="M34.83,124.48a1.31,1.31,0,0,1-1.38,1.23,1.33,1.33,0,0,1-1.39-1.23,1.32,1.32,0,0,1,1.39-1.23A1.3,1.3,0,0,1,34.83,124.48Z"/><path class="cls-1" d="M32.79,133.79a1.41,1.41,0,1,1-1.38-1.16A1.29,1.29,0,0,1,32.79,133.79Z"/><path class="cls-1" d="M41.82,137.32a1.36,1.36,0,0,1-2.65,0,1.36,1.36,0,0,1,2.65,0Z"/><path class="cls-1" d="M67.94,130.18c0,.52-.59.93-1.33.93s-1.32-.41-1.32-.93.6-.94,1.32-.94S67.94,129.65,67.94,130.18Z"/><path class="cls-1" d="M61.44,133.39a.77.77,0,0,1-.78.76.76.76,0,1,1,0-1.52A.77.77,0,0,1,61.44,133.39Z"/><path class="cls-1" d="M67.46,133.39c0,.42-.49.76-1.08.76s-1.09-.34-1.09-.76.49-.76,1.09-.76S67.46,133,67.46,133.39Z"/><path class="cls-1" d="M70.47,135.8a.79.79,0,1,1-.78-.84A.81.81,0,0,1,70.47,135.8Z"/><path class="cls-1" d="M69.69,138.09a.95.95,0,1,1,.93.76A.85.85,0,0,1,69.69,138.09Z"/><path class="cls-1" d="M77,136.6a1,1,0,1,1-1-.93A.94.94,0,0,1,77,136.6Z"/><path class="cls-1" d="M81.42,146.71a1,1,0,1,1-1-1A1,1,0,0,1,81.42,146.71Z"/><path class="cls-1" d="M91.17,145.48a1.21,1.21,0,1,1-1.2-1.21A1.22,1.22,0,0,1,91.17,145.48Z"/><path class="cls-1" d="M111.93,149.78a.84.84,0,0,1-1.68,0,.84.84,0,1,1,1.68,0Z"/><path class="cls-1" d="M92.14,146.7s1.2-2.06,2.76-1.51S96,145.8,96,146.9s.84,1,.84,1v1.06c-.6.71-1.81,0-1.81,0h-1.2l-1.68-1.06Z"/><path class="cls-1" d="M94.48,139.29a1.17,1.17,0,1,1-1.17-1.2A1.19,1.19,0,0,1,94.48,139.29Z"/><text class="cls-2" transform="translate(202.35 64.91)">Îles <tspan x="-9.52" y="7">Marquises</tspan></text><text class="cls-2" transform="translate(134.64 157.69)">Archipel<tspan x="-7.7" y="7">des Tuamotu</tspan></text><text class="cls-2" transform="translate(51.34 155.54)">Îles de <tspan x="-4.12" y="7">la Société</tspan></text><text class="cls-2" transform="translate(223.32 232.27)">Îles Gambier</text><text class="cls-2" transform="translate(56.89 231.68)">Îles Australes</text><path class="cls-3" d="M156.85,37.52c.68,3.15,16.92,69.63,101.15,51.93"/></svg>