<svg id="saint_barthelemy" data-name="saint barthelemy" xmlns="http://www.w3.org/2000/svg" viewBox="0 0 305.7 297"><defs><style>.cls-1{fill:#7294a2;}</style></defs><path class="cls-1" d="M223.35,143.52a1.65,1.65,0,0,0-1.79-1.35c-2.41.27-6.62,1.68-7,2.43a9.57,9.57,0,0,0-.54,2.7,1.65,1.65,0,0,0,1.68,1.82l5.61-.13a1.66,1.66,0,0,0,1.3-.68l.88-1.2a1.63,1.63,0,0,0,.29-1.28Z"/><path class="cls-1" d="M44,83a52.08,52.08,0,0,1,2.87-5.07c2.26-1.57,3.86-.06,5.75-1A4.74,4.74,0,0,1,55,76.68L61,79.13l.22.11,3.57,2.13c2.66.92,2,5.06-.42,5.56L60,88l-1.22,5.48c-.78,1.12-3.94-.73-4.36-2l2.44-7.09a5.23,5.23,0,0,0-2.6-1.78l-5.74,2.11S44.88,87.52,44,84.4Z"/><path class="cls-1" d="M104.7,82.86a10.33,10.33,0,0,0-2,.31c-1.27.35-2.33,2.24-1.35,3.11l1.62,1.87c.24.21,1.32-.44,1.64-.39l1.2-1.17c.9.14,2.08.46,2.22-.44l.39-1.06c.09-.56-1-.35-1.39-.72l-1-1.12A1.63,1.63,0,0,0,104.7,82.86Z"/><path class="cls-1" d="M113.87,132.72l-1-3.25a2.4,2.4,0,0,0-3.24-.6l-5.3,3c-.67.32-.44,1.05-.07,1.74a1.24,1.24,0,0,0,1.06.65l4.33.1c1.66.14-.93,4.66.79,4.62a48.9,48.9,0,0,1-8.14,2.44,1.23,1.23,0,0,0-1,1.21v.25a1.26,1.26,0,0,0,1.13,1.24c5.82.56,6.26,1.16,5.88,1.56l-1.06,1.42c-.49.53-.92,4.67,1.72,4.62a1.3,1.3,0,0,1,.67.16l4.49,2.8a1.43,1.43,0,0,1,.34.31l3.72,5a1.83,1.83,0,0,0,.47.45c1.18.75,2.37,5.83,3.6,6l6.73,1a2.88,2.88,0,0,1,2,1.37l2.83,4.68a2.89,2.89,0,0,1,.2,2.62l-1.88,4.48a1.63,1.63,0,0,0,.23,1.67l6.35,6.74a1.21,1.21,0,0,0,.85.39l.91,0a3,3,0,0,1,2.85,2.67l.14,1.32a1.24,1.24,0,0,0,.31.7l3.3,3.7a.8.8,0,0,0,.13.13l3.63,3a1.25,1.25,0,0,1,.34.46l1.22,2.81a1.37,1.37,0,0,0,.44.54l2.19,1.46a1.25,1.25,0,0,1,.54.9l.41,3.89a1.27,1.27,0,0,0,.46.84c.85.67,2.53,1.42,3.14,1.1l1.19-.4c.29,1,.64-1.59.78-1.79l3.89-7.1c.49-.67,1.18-3.7,3.32-1.64l2.73,5.82a1.28,1.28,0,0,0,.37.46c.44.34,1.31,1.07,1.93,1.51a1.23,1.23,0,0,0,1.24.11l1.66-.78c.52-.06.69-1.66.95-2.1l4.09-7.82a17.23,17.23,0,0,1,4.73-2.84,1.27,1.27,0,0,1,1,0l2.16,1c.35.07.76,2.74,1,3l4,4.35a3,3,0,0,0,1.45.86l1.43.35a2.92,2.92,0,0,0,2.2-.33l3.33-2c.47-.28-.45-2.11-.56-2.81a.89.89,0,0,1,0-.23l.66-8.44a2.51,2.51,0,0,1,1.17-1.72l.23-.1,9.82-3.35a1.27,1.27,0,0,0,.43-.26l3.85-3.47.11-.08c2.66-2,4.76-2.31,5.77-2.13a1.19,1.19,0,0,1,.77.56l2.49,4a1.64,1.64,0,0,0,1.82.22l1.59-1c.66-.33.53-1.77.39-2.5l-.83-6a4.48,4.48,0,0,1,.05-1.39,1.27,1.27,0,0,1,.42-.71l2.48-2.09a1.21,1.21,0,0,0,.27-.32,13.82,13.82,0,0,0,.9-2.37,1.31,1.31,0,0,0,0-.68l-.74-2.68a1.28,1.28,0,0,1,.07-.84c.45-1,1.47-3.09,1.2-3.47l-1-2.7c-.57-.83-1,.46-1.74,1.14l-5.55,4.61c-.16.15-.33,3.56-.95,2.61l-2.66-.44c-1.16.42.23-3.28.48-4.63a1.23,1.23,0,0,0,0-.2l.05-2.78a3.53,3.53,0,0,0-1-2.3,1.2,1.2,0,0,0-.93-.35l-2.16.1c-.7-.26-.71,1.66-1.14,2.27l-1,2.47a1.2,1.2,0,0,1-.6.67,4.2,4.2,0,0,1-1.76.32,1.5,1.5,0,0,1-.29-.06L214,162c-.94-.15-1.18-2.18-1-3.17a1.42,1.42,0,0,1,.07-.22l1.4-3.45c.28-1.06-.41-1.46-1.5-1.44l-1.76,1.47a1.31,1.31,0,0,1-.47.24c-.43.12-1.23.46-1.76.58a1.21,1.21,0,0,0-.83.68L207,159.28a1.19,1.19,0,0,1-.81.67,2.18,2.18,0,0,1-1.91-.25,3.09,3.09,0,0,1-.86-1,1.2,1.2,0,0,1,.09-1.31l2.85-3.87a1.25,1.25,0,0,0,.14-1.22l-.72-1.7c-.47-.42-.08-1,0-1.79a1.23,1.23,0,0,0-1.18-1.36h0a1.2,1.2,0,0,0-1,.41c-1.07,1.21-3.62,4-4.22,3.48l-2-1.53a1.2,1.2,0,0,1-.48-.85l-.36-3.24a1.24,1.24,0,0,0-1-1.08,3.79,3.79,0,0,0-.49-.09l-1.55,1.86a1.21,1.21,0,0,1-.74.42,3.27,3.27,0,0,0-1.83,1.19,1.21,1.21,0,0,0-.21.74l.19,5a1.19,1.19,0,0,1-.35.91l-2.64,2.69a.86.86,0,0,0-.14.18c-.21.32-1,1.45-1.5,2.19a1.12,1.12,0,0,0-.11.25l-.85,2.44a1.24,1.24,0,0,1-.43.6c-.46.34-1.27.87-1.69,1.15a1.16,1.16,0,0,1-.59.2l-3.23.25h-.22a16.85,16.85,0,0,0-2,0,1.24,1.24,0,0,1-1.27-1.1l-.19-1.72a1.22,1.22,0,0,0-1.07-1.1,2.88,2.88,0,0,0-1.74.25l-3.39,2.69c-.07,0-1.17,1.08-1.48,1.37l-.18.14-2.11,1.36a1.17,1.17,0,0,0-.54.76,3.78,3.78,0,0,0,0,1.31l.41.53a1.25,1.25,0,0,1-.61,1.94,7.51,7.51,0,0,1-4.26.06L157,169.63c-.71,0,.22-5.69,0-6.37l-1.07-3.56a24.52,24.52,0,0,0-3.1.61,1.24,1.24,0,0,1-1.33-.59l-2.21-3.78a1.27,1.27,0,0,1-.11-1l1-3.44a1.24,1.24,0,0,0-.31-1.25c-.46-.44-1.1-1-1.54-1.44a1.25,1.25,0,0,0-1-.3l-3.23.48a1.25,1.25,0,0,1-1.36-.83,8.51,8.51,0,0,1-.34-1.73c0-.05,0-.1,0-.14l-.58-3c0-1.08-1.87-3.27-2.91-3l-3.9,1c-.19.06-2.46,2-2.62,2.14L130.36,145c-.33.24-3-.44-3.85-.65a1.19,1.19,0,0,1-.44-.21l-2.65-2a1.24,1.24,0,0,0-2,.85,8.12,8.12,0,0,1-.21,1.37c-2-.84-2.19-2.24-3.67-2.2-1.07,0-1.4-1-1.19-2l-.6-4.17a1.67,1.67,0,0,0-.36-1.41l-1-1.24Z"/><path class="cls-1" d="M166.35,107.82,158,113.18a1.64,1.64,0,0,0-.75,1.14l-.19,1.26a1.66,1.66,0,0,0,1.86,1.89l3.63-.5c.26,0,1.1-3,1.31-3.19l2.18-1.26c.19-.13,2.94.21,3.06,0l1.34-2.17a1.66,1.66,0,0,0-1.16-2.51l-1.75-.27A1.69,1.69,0,0,0,166.35,107.82Z"/><path class="cls-1" d="M187.93,102.56,184.47,107a1.66,1.66,0,0,0,.16,1.92l1.2,1.42a1.65,1.65,0,0,0,1.9.46l3.16.73c.26-.1.8-2.45,1-2.67l.66-.83a1.66,1.66,0,0,0,0-2.09l-2.06-4C189.72,101.05,188.52,101.58,187.93,102.56Z"/><path class="cls-1" d="M112.67,83.17c-.2,0-.66.4-1,.77a.77.77,0,0,0,0,1l.74.9a.79.79,0,0,0,1.12.09l.5-.44a1.2,1.2,0,0,0,.41-1.1l-.07-.45a.79.79,0,0,0-.65-.66l-1-.15"/><path class="cls-1" d="M131.65,127.68a3.62,3.62,0,0,0,3,1.18,15.82,15.82,0,0,0,3.86-1.18c1.92-.74,1.92,1,3-1s1.18-3,1.78-4.3a15.73,15.73,0,0,0,1-2.22c.6-1.63,1.34-2.67.15-2.37s-1.78,1.63-2.52.89-1.18-3.26-2.07-1.63-1.19,2.81-2.22,2.52-2.37-.89-2.67.15a2.32,2.32,0,0,1-1.48,1.77C132.69,121.75,130.76,123.53,131.65,127.68Z"/><path class="cls-1" d="M97.28,181.31s-2.22,1.18-1.18,2.07,1.62,1.19,2.22.59,1-.28,1-1.18S98.65,180.11,97.28,181.31Z"/><path class="cls-1" d="M123.06,175.68s-3,.44-2,1.48,1.45,1.48,2,1S123.65,177.31,123.06,175.68Z"/><path class="cls-1" d="M96.53,144.24s1.29,1.24,2.4.88,1.35-.38.74-1.39.28-1.52-.74-1.39S96.15,142,96.53,144.24Z"/></svg>