<svg id="saint_martin" data-name="saint martin" xmlns="http://www.w3.org/2000/svg" viewBox="0 0 305.7 297"><defs><style>.cls-1,.cls-2{fill:#7294a2;}.cls-1{opacity:0.4;}</style></defs><path class="cls-1" d="M216.89,145.44c-.32-.95.76-1.38,2.44-3,.23-.21,0-1.83.11-2.13l-.13-.62c.23-.88-6.64.62-6.64.62-.24-.27-3.08-1.64-4.15-2.25l-2.19-1.4c-.1-.06-1-1.11-2.22-2.45l-5.67,6.1c-.3-.11-8.55-4-9.29-3.68s-12.51,2.46-14.89,2.92a23.1,23.1,0,0,0-3,.72l-7.11,0s-10.59,2.41-10.61,2.43l-13.63,11c-.33.23-6.72,7.72-7.12,7.71l-9.6,1c-1,0-.9,1.08-1,2.08l-1,8.1a1.92,1.92,0,0,0,.71,1.74l3.22,2.54a1.93,1.93,0,0,1,.66,1l1,3.93a2,2,0,0,1-.95,2.22,10,10,0,0,0-3-2.74c-2.22-1-2.89.76-2.67-1.35s.67-1.67-.44-2.45a1.31,1.31,0,0,0-2,.23c-.34.33-4.45-1.78-6.56-5s-1.33-4.11-2.89-4.45-9.45,1.11-12-.55a29.79,29.79,0,0,1-6-6,4,4,0,0,1-1.11-3.23c0-1.33,1-2.33-.33-2.77s-4.33-.88-5.33-.56-2.34-.11-2.23,1.11,1.56,3.11,1.45,3.67A2.08,2.08,0,0,0,85,162a3.08,3.08,0,0,1,2.89,2.56c-.11.66-2.22,1.22-3.11,1.11s-2.89-1-3.67-1-1.44,1.22-1.44-.34.22-4-.23-5-2.11-.33-2.33-1,1.67-1.33.56-1.89-4.56-3.44-5.56-3.22-1,2.11-3.11,1.78a3.6,3.6,0,0,1-3-1.89c-.33-.55-3.64,1.68-4.49,2,0,0,2.27,3.33,2.27,3.33A5.07,5.07,0,0,1,67,159c1.44.89,3.44,3,4.56,3.11s3.22-.87,3.88,1-1.22,4,0,5.15.67,2.22,3.34,2.11a8.45,8.45,0,0,1,4.55,1.11,35,35,0,0,0,2.23,4.89c1.22,2.11,1.55,7.11,2.88,5.89s1-2.89,2-4.44.89-2.34,2.78-3.22,5.45-2.78,5.45-2.78,5.77.11,6.89.66,6.44,2.65,7.55,4.44,2.2,3.65,2.59,4.07-.92.94-.7,1.94,1.67,2.44.22,2.44-2.66.67-2.78,1.45-.11,2.66,1.67,2.78A5.41,5.41,0,0,1,118,192c.33.78-1.11,3.56,0,3.56s4.3-2.23,4.3-2.23a6.13,6.13,0,0,1,2.23-.51l0,.06a1.88,1.88,0,0,1,.41,0,1.93,1.93,0,0,1,.71.24c1.22.78,5.59,1.11,5.59,1.11l-.06-.12h.06c1.3.78,1.3.78,1.74,2.78l.71,4.71a1.84,1.84,0,0,0,1.45-.45l1.51-2.7c1-1.38,1.42-2.56,2.11-1.89,1.25,1.21,3.84,6.23,6,7a9.12,9.12,0,0,0,2.52.35l1.89-3.11c1-.31,2.35-1,2.67,0l1.89.22a2.51,2.51,0,0,1,2.22.56l1.67,2.89c.37.9-.95,4.63,0,4.32l1.47.23c1-.33,2.07-3.56,1.74-4.58l-1.7-1.51a2,2,0,0,1-.07-1l.49-2.66c.07-.39,1.49-1.22,1.76-1.5l2.56-1.45a3.47,3.47,0,0,1,2.52-.88l9.7,2.88c1,.3,2.78.63,2.45,1.67l-.34,2.45a13,13,0,0,0-.11,2.33l2,4.44c0,.15-.32,1.86-.33,2l-2.1,3.18c-.09,1.29.3,5.24,1.53,4.93l4.13-1c.34-.09,3.64-4.06,3.88-4.31l.34-2.78c.44-1.63,4-1.09,4.1-1.16l4.9-4.61-.48-1.77a18.9,18.9,0,0,1,1.59-2.12l2,1.11c.85-.46,1.67-.65,1.33-1.56L200,198.32a1.93,1.93,0,0,1,0-1.19l.72-2.77a2,2,0,0,1,.87-1.17l3.51-2.64a14.9,14.9,0,0,0,2.07-1.38L206,187.32c.48-.79,4.34-2.14,3.67-2.76l-4.89-.9a4,4,0,0,1-.56-3.22l1.56-3.12a21.3,21.3,0,0,1,1.66-3.15l3.85-1.5a1.54,1.54,0,0,0,.17-.19L216,169.1c.58-.71-1-2-1.55-2.73l-.53-.66a1.92,1.92,0,0,1-.4-1.57l-.74-5.58c.08-.46,3.05-2,2.83-2.39l-3.83.5c-.47-.84-.6-4.08.15-4.68l.29-.23c.95-.75,2.16.58,2.67,1.68l2.67-.42a29.53,29.53,0,0,0,1.77,2.65C220.51,155.7,216.92,145.54,216.89,145.44Zm-32.62,43v1.89a8.08,8.08,0,0,1-1.38,1.78l-1.33,1.67c-.47.37-2.81-.92-3.38-1.07l-8-2.07-4.09-4.53c-.23-.06-1.25-3-1.44-3.11l.48-4.14c-4.85-.09-1.13,8.51-1.26,8.25l-4.87-4a2,2,0,0,1,1-2.68l10.13-4c.36-.14,1.79-.88,2.16-.78l3.75,2c.2.06,3.08-.45,3.25-.34l.11,2.45c.4.27,3.74,2.43,3.84,2.91l.94,4.35C184.37,187.7,184.76,188,184.27,188.44Z"/><path class="cls-1" d="M178,182.89s-1.89-1.78-2.22,0-.78,2.55-.56,3.44,1.22,1.67,1.67,2.34a20.7,20.7,0,0,1,1.11,1.77c.22.45.89.67,1,0s-.11-.55.67-1.33a2.46,2.46,0,0,0,.77-2.63c-.33-.92-.22-2.48-.77-2.7A16.29,16.29,0,0,1,178,182.89Z"/><path class="cls-2" d="M215.63,83.63c-.39.25-1.63.44-1,2.37s-.15,3.85,1,3.11,1.93-2.65,2.67-2.66,2.87.59,3.21-1.19S217.7,82.3,215.63,83.63Z"/><path class="cls-2" d="M221.51,106.59s-2.47,1.34-1.58,3S221.91,110.44,221.51,106.59Z"/><path class="cls-2" d="M210.74,135.63s.59,3.56,1.93,3.26a8,8,0,0,0,2.81-1.62l-1-1.64S211.33,134,210.74,135.63Z"/><path class="cls-2" d="M220.66,136.91s-1,2.46,0,2,3.12-1.76,3-2S221.1,135.51,220.66,136.91Z"/><path class="cls-2" d="M165.56,70.59s-2.23,2.08-1,1.93,3.11-1.63,3-1.93S165.56,70.59,165.56,70.59Z"/><path class="cls-2" d="M104.07,156.37s-2.37,1.63-.88,2.52,3.85,1.63,4,.89S104.07,156.37,104.07,156.37Z"/><path class="cls-2" d="M208.67,129.7c2.22-.44,3.7-3.26,4.74-3.7s2.66-.15,3.11-.59,4.95-7.11,5-8.15,1.08-.89-1.58-1.19-10.67-3.4-11.56-7.55-1-5.63-1.78-6.82a6.31,6.31,0,0,1-1-3.11c0-.74,1.33-1.48,1.48-2.22s1.77-3.7-.15-5.93-3.85-1.92-4.3-3.25-.44-2.38.3-2.82,4-2.22,4.89-1.33,1.78,1.63,2.66,1.33,2.82-.34,2.23-1.58.44-1.38.44-2.12a3.81,3.81,0,0,0-.89-1.78s-1.78.44-2.07-.3S209.7,74,209,73s.15-1.33.15-3.4,0-2.82.45-3.12,2.51-1,1.18-1.48a35.32,35.32,0,0,1-6.52-3c-1.48-1-.15-1.78-2.37-.74a14.87,14.87,0,0,1-5,1.63c-1.48.15-2.51,1.63-2.81.89s.15-1.93-1.19-1.93-1.48.45-3.4.59-1.34-.44-1.93.15,0,1.48-.29,1.93-3.26,2.22-1.93,4.44,1.93,4.15,1.48,4.74a4,4,0,0,1-2.52,1.49,3.09,3.09,0,0,1-2.81-1.78c-.6-1.34-.3-2.82-1.34-2.37A13,13,0,0,0,178,72.22a5.46,5.46,0,0,0-1-1.92,2.21,2.21,0,0,0-2.66-.89c-.45.29-.89-.89-1.63-1.19a2.93,2.93,0,0,0-3,.74,3.61,3.61,0,0,0-1.18,2.67c.15.89.89,3.26.89,3.26a4.49,4.49,0,0,1-.74,1.92c-.6.75-1.19,1.34-.74,2.23s1.18,1.48.59,1.77-1.33.6-1.19,1.63.3-.29.15,1-4.15,5.48-5,6.08-1.75,1.77-5.47,1.63-6.08-.15-6.53-.3-1.33-3-2.66-3.41-3.26-.44-3.26.59v3a3.21,3.21,0,0,1-.94,1.77c-.25.15-1.43.45-1.73.89a7.1,7.1,0,0,0-.15,2.37l-.14,1.78s-1.52,1.83.29,2.08c5.48.74,6.82-2.82,7.41-1.78s-1.19,2.66-1.19,2.66a41.17,41.17,0,0,1-3.55,2.23c-.74.29-3.26-2.23-4.3-2.52s-2.81-1.33-3.85-.59-.15,2.51-.59,3.4a70.93,70.93,0,0,1-4.52,5.48c-.52.6-2.3.75-3,1.93s-.44,1.48.74,4.15,1.18,2.67,2.3,3.41,1.7,1.33,1,3.26-1.78,4.29-2.22,5.63a8.28,8.28,0,0,1-2.81,4.14c-1.49,1-2.38,1.48-2.38,2.23a6.15,6.15,0,0,1-.74,2.07,30.11,30.11,0,0,1-4.74,3.11c-2.37,1.19-5.63,3.11-5.63,3.11a2.33,2.33,0,0,1-1.33,1.63c-1.18.59-6.37,1-6.37,1s-8.44-.28-12.3-4.21a46.55,46.55,0,0,1-5.63-6.75,41.88,41.88,0,0,1,2.08-3.71,2.46,2.46,0,0,0,.15-3c-.6-.74,1.77-2.67,1.77-3.41S91.48,121,90.15,122s-1.78,3.56-3.41,4.15a34.41,34.41,0,0,1-3.7,1S81.85,130,80.37,131a21,21,0,0,1-5,1.92s-6.37.3-9.92-2.37a23.38,23.38,0,0,0-5.78-3.4s-7.7.44-8.44.59a12,12,0,0,0-3.71,1.78c-.59.59,1,3.25,1,3.25s-.15,3.12-1.19,3.71-5.77,2.39-4.89,3.79,8.89,5.25,11.12,6.28,6.07,2.82,5.92,3.56-1.18,2.19-1.33,2.87,3.36,2.09,3.36,2.09l3.9-2.09a4,4,0,0,0,2.22-3.17c.44-2.52-2.22-3.7,0-4.44a32.64,32.64,0,0,0,5.18-1.93,7,7,0,0,0,2.38-3.17c.88-2,5-4.24,5-4.24l2.37-.88s2.37,4.74,4.6,5.77,8.17,3.85,9.19,4.15-1.49,2.78.73,3.39a4.88,4.88,0,0,0,4.15-1.17s6.07,1.93,8.15,1.93,3.7.85,4.29-.76.89-2.06.6-2.8-.15-1.86,1.63-1.6,1.92.57,2.66-.91a16.33,16.33,0,0,1,1.93-2.88s2.37-2.9,3-1.27,1,3,0,5.06-1,3.83-1.48,5.46-1.93,4.59-2.37,6.37-1.63,2.22-3,.88-1.48-3.85-2.52-1.18.15,4.89.74,5.18,5,.45,5.63,0,2.69,1.55,2.69,1.55,5.6,1.57,9.6-1,7.12-7.71,7.12-7.71,2.07-2.51,3.7-2.66,5.78-2,5.78-2l4.15-6.27s7.7-.15,9-.3,4-2.66,5.78-1.18,6.18,3.85,6.79,4.44,5.65,7.71,7.14,8,4.14-2.51,4.74-2.66,9.63,4,10.52,4.15,3.7,1.62,4.59.14,1.92-3.7,1.92-3.7l7.42,1.39s.88-2.37,3.4.42l2.67-.42s1.91,4,2.92,2.5-3.59-10.08-3.59-10.08a2.79,2.79,0,0,0,2.44-3c0-2.75.92-1.66,0-2.75s-4.57.62-5.61.62-6.71-2.95-7.37-3.65a19.82,19.82,0,0,0-4.32-3.29c-1.12-.45-3-1.92-3.26-1.31s-1.79,4.75-3.27,3.87-1.78.29-1.48-.89,2.07-3,2.22-4-.15-.89,1.78-1.48,7.26-4.89,8.89-6.08,2.67-.59,2.67.15S206.44,130.15,208.67,129.7ZM175.16,90.89c-1.28.89-5.38-.22-6.72.89s0,0,.45.13a21.59,21.59,0,0,0,4,0c2.22-.09,2.44,1,2.27,3.23s-3.38-.47-6-.25-1.55.89-3.28-1.56,2.64-5.07,3.28-5.55c2-1.5,7.56,1.49,7.56,1.49A3.75,3.75,0,0,1,175.16,90.89ZM197.66,104c-2.34.44-1.44-4.22-1.66-6.44s2,.22,3.33,0a12.62,12.62,0,0,1,2.89,3.77C202.89,103.11,200,103.56,197.66,104Z"/></svg>